<?xml version="1.0" encoding="utf-8"?>
<!-- Generator: Adobe Illustrator 15.0.0, SVG Export Plug-In . SVG Version: 6.00 Build 0)  -->
<!DOCTYPE svg PUBLIC "-//W3C//DTD SVG 1.1//EN" "http://www.w3.org/Graphics/SVG/1.1/DTD/svg11.dtd">
<svg version="1.1" id="Layer_1" xmlns="http://www.w3.org/2000/svg" xmlns:xlink="http://www.w3.org/1999/xlink" x="0px" y="0px"
	 width="1221px" height="600px" viewBox="0 0 1221 600" enable-background="new 0 0 1221 600" xml:space="preserve">
<g>
	<path fill="#56823E" d="M1191.107,267.685v-43.023c-5.123,3.777-10.332,7.447-13.027,13.629c-0.121,1.311-0.35,2.504-0.432,3.896
		c-0.455,0.639-0.924,1.252-1.418,1.836c-0.187-1.65,0.157-3.635,0-5.24c-0.162-0.82-0.455-1.459-0.685-2.172
		c1.326-0.033,1.982-0.719,2.83-1.232c0.291-0.293,0.56-0.6,0.842-0.92c0.226-0.232,0.736-0.744,0.509-0.998
		c-0.359-0.012-0.509,0.625-0.791,0.873c-0.521,0.326-0.951,0.818-1.445,1.207c-0.23,0.111-0.604,0.219-0.789,0.145
		c0.426-0.307,0.828-0.627,1.191-0.959c0.238-0.42,0.895-0.686,0.871-1.227c-0.351-0.146-0.445,0.293-0.646,0.441
		c-0.254,0.119-0.479,0.299-0.736,0.451c-0.493,0.252-0.924,0.6-1.5,0.801c-0.334,0.146-0.723,0.18-1.221,0.152
		c-0.559-0.172-0.938-0.566-1.229-1.012c-0.521-0.98-0.789-2.178-1.049-3.398c0.082-3.455-1.685-5.441-3.359-7.34
		c-0.389-0.893-0.992-1.578-1.326-2.551c0.938,0.641,1.996,1.219,3.203,1.637c0.438,0.467,0.842,0.975,1.147,1.6
		c0.162,1.91,1.14,2.998,1.183,4.928v0.814c0.104,0.545,0.293,1.107,0.418,1.652c0.076,0.059,0.143,0.125,0.143,0.24
		c0.188,0.178,0.433,0.277,0.58,0.479c0.508,0.094,1.015,0.68,1.445,0.527c0.065-0.332-0.498-0.395-0.656-0.621
		c-0.109-0.227-0.312-0.344-0.43-0.533c-0.418-1.012-1.142-1.857-1.179-3.084c-0.239-1.137-0.418-2.318-0.672-3.535
		c-0.387-0.854-0.832-1.666-1.369-2.359c-1.096-1.033-2.801-1.518-3.866-2.57c-1.115-1.373-1.974-2.957-3.367-4.018
		c-0.037-0.158,0-0.191-0.104-0.381c-0.768-0.004-0.873-0.711-1.407-0.963c-1.423-0.529-3.457-0.729-5.269-0.766
		c-1.436-0.588-3.188-0.615-4.975-0.516c3.568-5.553,8.27-12.922,9.223-13.088c0.508-0.08,1.633-0.379,2.062-0.586
		c1.662-0.807,2.815-2.25,3.539-3.264c0.67-0.92,1.698-1.42,2.25-2.451c0.201-0.395,0.186-0.887,0.512-1.359
		c0.359-0.52,1.244-1.012,2.035-1.586c0.774-0.584,1.475-1.158,2.168-1.518c1.543-0.773,2.844-1.033,3.932-2.24
		c0.562-0.6,0.613-1.258,0.135-1.629c-0.58-0.455-2.614,0.271-3.262,0.518c-0.871,0.342-1.848,0.945-3.107,1.346
		c-0.469,0.154-1.004,0.314-1.606,0.633c-0.322,0.188-1.164,0.84-1.355,0.727c-0.075-0.039-0.254-0.82-0.293-0.912
		c-0.161-0.359-0.387-0.615-0.35-0.9c0.016-0.512,0.791-1.324,1.074-1.885c1.043-2.039,2.233-2.777,3.844-4.375
		c0.736-0.727,2.092-2.066,1.854-3.238c-0.097-0.42-0.58-0.846-1.25-0.879c-0.857-0.02-1.543,0.906-1.931,1.252
		c-0.455,0.406-1.059,0.891-1.619,1.473c-0.75,0.758-1.852,1.959-2.924,2.391c-1.072,0.42-0.44-0.566-0.121-1.385
		c0.781-1.912,1.662-2.332,2.979-3.977c0.709-0.893,2.408-3.557,1-4.238c-1.058-0.52-2.086,0.562-2.488,0.959
		c-0.402,0.4-0.709,0.98-1.207,1.473c-0.723,0.701-2.801,2.738-3.203,2.426c-0.029-0.02,0.67-1.199,1.273-1.979
		c0.293-0.387,1.088-1.279,1.461-2.08c0.469-1.004,0.641-2.451-0.508-2.676c-1.369-0.26-2.576,1.75-3.339,2.65
		c-0.481,0.6-0.885,1.166-1.315,1.686c-0.426,0.566-1.178,1.02-1.459,1.539c-0.359,0.674-0.308,1.025-0.523,1.719
		c-0.065,0.199-0.549,1.906-0.75,1.352c-0.547-1.418-1.834-4.41-4.231-3.717c-1.543,0.432,0.09,2.617,0.186,3.863
		c0.082,0.834-0.254,1.301-0.215,2.059c0.043,0.719,0.455,1.797,0.402,2.697c-0.119,1.426-1.007,2.645-1.164,3.883
		c-0.097,0.992,0.319,2.025,0.293,3.119c0,0.773-0.308,1.658-0.613,2.332c-1.049,2.211-6.502,8.33-7.857,10.045
		c-3.59,4.521-7.864,8.619-12.073,12.641c-2.343,2.244-4.261,4.844-6.109,7.486c-1.406,1.986-2.762,5.043-4.582,6.684
		c-1.445,1.277-3.15,2.291-4.85,3.322c-2.146-9.684-7.681-15.975-11.863-23.66c0.162-0.76-0.336-0.867-0.211-1.637
		c-0.297-0.76-1.57-1.475-1.422-2.047c0.655-0.979,1.221-2.545,0.895-4.004c3.902-7.238,6.607-15.992,11.889-21.602
		c0.58-0.65,1.541-1.018,2.16-1.666c0.75-0.752,1.109-1.951,1.914-2.836c1.168-1.285,2.801-2.266,3.726-3.484
		c0.633-0.865,0.805-1.998,1.315-2.824c0.644-1.012,2.006-1.666,2.303-2.662c0.351-1.008,0.433-3.744-1.877-3.533
		c-1.606,0.152-1.823,2.979-3.12,3.07c-6.138-2.75,0.977-15.551-3.658-16.232c-1.205,0.814-0.176,3.998-0.846,5.416
		c-0.441-4.35-0.212-9.992-3.697-10.463c-0.953,0.172-0.066,0.979-0.187,1.396c-0.565-0.346-1.303-1.564-2.024-0.738
		c0.334,4.471,2.412,7.113,1.541,11.705c-1.877-2.08-5.707-6.596-7.168-5.176c0.321,1.736,2.397,2.535,3.522,4.08
		c0.48,0.633,0.949,1.574,1.484,2.354c1.893,2.818,1.221,4.641,0.834,8.75c-0.24,2.566-0.135,5.391-0.617,6.783
		c-0.963,2.803-3.375,5.68-5.348,8.32c-2.854,3.754-6.072,7.006-9.207,10.244c-0.508-0.881-1.017-1.752-1.687-2.473
		c-0.563-2.17-1.207-4.242-2.055-6.135c-0.344-2.264-0.664-4.535-2.476-5.32c-2.883,2.75,0.105,7.354-0.178,10.629
		c-0.938-1.631-3.346-0.41-3.51,1.24c-0.506-0.514-0.496-1.139-1.742-0.926c-0.307,0.186-1.432,0.387-1.475,1.293
		c-0.641-0.322-1.422-0.014-1.541,0.918c-0.91,0.014-2.078,0.227-1.834,1.799c0.469,3.111,2.771,7.795,5.156,8.82
		c0.512,0.691,0.967,1.463,1.436,2.225c-0.037,0.039-0.066,0.086-0.104,0.127c-1.601-0.234-2.816-0.9-4.654-0.859
		c0.387,3.914,0.119,7.232-0.479,10.217c-0.282,0.039-0.565,0.094-0.86,0.055c-0.412-0.041-0.963-0.527-1.754-0.627
		c-0.455-0.039-1.476,0.453-1.607,0c-0.379-1.365,0.938-2.18,1.043-2.465c-0.469,0.146-0.789,0.4-1.191,0.934
		c-0.164,0.225-0.655,1.203-1.125,1.01c-0.44-0.17-0.35-0.803-0.321-1.199c0.067-0.711-0.968,2.025-1.459,1.613
		c-0.394-0.348,0.612-1.639,0.118-2.01c-0.229,0.211-0.229,0.945-0.588,1.131c-0.178,0.08-0.379-0.16-0.483-0.053
		c-0.188,0.213-0.188,0.744-0.373,1.012c-0.781,1.199-1.734,0.947-2.927,0.094c-0.293-0.199-2.397-1.465-1.407-0.521
		c0.229,0.227,0.981,0.988,0.78,1.234c-0.118,0.146-1.487-0.541-1.475-0.553c-0.402,0.133,0.562,0.541,0.426,0.732
		c-0.225,0.312-0.508-0.092-0.723,0.094c-0.145,0.119,1.451,0.691,0.9,1.166c-0.441,0.365-1.379-0.732-2.049-0.301
		c-0.125,0.053,0.344,0.605,0.237,1.119c-0.186,0.879-1.139,0.818-2.062,1.133c-0.508,0.174-0.887,0.533-1.379,0.859
		c-0.23,0.141-0.752,0.418-0.968,0.674c-0.655,0.744,0.654-0.43,1.087,0.158c0.147,0.207-0.552,1.438-0.699,1.6
		c-0.479,0.598-1.164,0.705-1.834,1.23c-0.096,0.074-0.201,0.221-0.297,0.328c-0.023-3.832-0.947-7.781-2.986-11.484
		c-5.977-10.938-18.84-15.48-28.693-10.145c-0.145,0.08-0.254,0.191-0.401,0.273c-1.283-2.24-2.49-4.324-3.361-6.084
		c-6.166-12.43-7.037-12.301-2.844-17.551c1.154-1.426,1.088-3.957,2.002-5.549c0.813-1.412,2.422-2.244,3.279-3.65
		c1.504-2.496-0.656-1.719-2.154-1.338c-3.217,0.76-4.543,5.236-5.4,5.414c-2.926,0.654-0.563-11.197-3.783-15.84
		c-0.291-0.434-1.594-0.26-1.606,0.281c-0.174,3.736,0.617,7.506,0.215,11.27c-1.811-3.977-3.256-6.693-6.244-10.27
		c-3.053-3.633-5.815-1.979-2.731,1.816c2.024,2.471,3.536,5.07,4.729,8.713c-3.688-1.492-5.67-5.402-8.887-7.246
		c-0.896-0.521-3.658,0.219-2.988,1.025c1.543,1.777,7.303,5.529,8.105,9.059c-3.537-1.053-5.236-3.383-8.455-4.223
		c-0.588-0.16-1.541,1.359-1.072,1.732c2.883,2.305,9.586,4.381,10.75,7.98c2.748,8.471,2.25-2.979,12.154,33.256
		c0.082,0.195,0.158,0.342,0.227,0.521c-0.547,1.363-0.963,2.797-1.23,4.281v0.016c-3.672-6.889-14.512-13.043-20.372-10.779
		c-0.373-0.492-0.789-0.959-1.14-1.465c-3.055-4.344-6.897-9.713-8.455-14.814c-0.2-0.693-0.346-1.625-0.293-2.385
		c0.121-1.092,0.613-2.086,0.629-3.051c0.015-1.264-0.629-2.57-0.575-3.996c0.053-0.893,0.551-1.932,0.643-2.637
		c0.135-0.76-0.092-1.266,0.053-2.066c0.229-1.217,1.904-3.23,0.617-3.836c-2.01-0.92-3.483,1.904-4.113,3.252
		c-0.237,0.533-0.469-1.227-0.497-1.426c-0.119-0.693-0.023-1.047-0.253-1.748c-0.2-0.559-0.791-1.084-1.11-1.691
		c-0.312-0.559-0.604-1.158-0.967-1.803c-0.562-0.967-1.38-3.107-2.586-2.992c-1.06,0.107-1.06,1.566-0.763,2.598
		c0.24,0.838,0.814,1.826,1.029,2.227c0.44,0.838,0.91,2.07,0.899,2.096c-0.393,0.268-1.973-1.977-2.508-2.736
		c-0.389-0.547-0.604-1.158-0.896-1.605c-0.312-0.434-1.086-1.605-2.053-1.205c-1.337,0.504-0.146,3.336,0.393,4.303
		c0.961,1.785,1.67,2.291,2.115,4.262c0.215,0.852,0.627,1.912-0.254,1.359c-0.9-0.533-1.703-1.852-2.279-2.67
		c-0.402-0.633-0.885-1.186-1.234-1.619c-0.307-0.398-0.791-1.393-1.541-1.453c-0.604-0.053-1.059,0.328-1.178,0.725
		c-0.35,1.141,0.685,2.621,1.221,3.426c1.222,1.752,2.183,2.605,2.867,4.736c0.188,0.586,0.763,1.49,0.736,1.998
		c-0.014,0.293-0.252,0.508-0.416,0.867c-0.053,0.078-0.308,0.824-0.363,0.857c-0.172,0.102-0.844-0.633-1.11-0.846
		c-0.482-0.398-0.938-0.605-1.312-0.805c-1.049-0.541-1.84-1.26-2.576-1.686c-0.521-0.299-2.223-1.24-2.787-0.848
		c-0.455,0.314-0.455,0.98-0.065,1.641c0.848,1.311,1.93,1.703,3.188,2.629c0.58,0.441,1.103,1.074,1.729,1.748
		c0.617,0.666,1.315,1.23,1.569,1.791c0.24,0.504,0.158,0.992,0.294,1.412c0.393,1.072,1.221,1.684,1.702,2.658
		c0.509,1.092,1.355,2.629,2.705,3.621c0.365,0.24,1.371,0.514,1.729,0.814c0.863,0.686,2.063,3.518,2.6,4.643
		c1.451,3.07,2.765,6.176,4.104,9.264c-1.422,0.174-2.705,0.461-3.537,1.133c-3.031,2.459-5.305,5.518-7.033,8.613
		c0.201-8.812,2.088-13.695-1.062-19.176c-3.539-6.162-17.716-20.209-23.839-26.26c-6.139-6.014-9.461-10.389-13.118-12.148
		c-3.658-1.785-6.205-2.105-6.205-2.105s-4.021-2.238-4.716-0.133c0,0-1.272-0.139-1.543,2.012c0,0-3.299,2.238-2.078,2.818
		c0,0-2.643,0.553-1.823,4.162c0.844,3.629,1.326,6.762,6.405,7.396c5.095,0.641,10.332-2.012,15.867,5.262
		c5.562,7.275,11.791,21.455,14.98,23.607c3.18,2.158,3.365,3.943,2.733,9.139c-0.655,5.195-1.85,18.225-2.397,22.555
		c-0.537,4.33-4.084,5.207-4.635,9.551c-0.043,0.387-0.188,0.793-0.322,1.191h-6.836c2.695-1.225,4.262-4.068,4.262-4.068
		c-1.006,1.68-2.639-1.086-4.18-4.836c0.133-0.475,0.334-1.174,0.551-1.971c1.766,0.285,3.643-0.762,6.482-2.092
		c4.477-2.072-2.734-6.602,0.766-5.994c3.471,0.584,2.936-5.41,2.936-5.41c-0.297,3.584-5.774,3.57-7.905-3.943
		c-1.047-3.717-3.662-6.168-6.062-7.707c-0.188-0.367-0.387-0.727-0.604-1.045c3.217-1.318,0.871-6.977,0.871-6.977
		c1.071,3.445-0.506,4.678-3.039,4.818c-0.068-0.035-0.164-0.082-0.24-0.119c-2.322-0.9-5.027-2.619-8.363-3.406
		c0.015-0.418,0.162-0.727,0.469-0.826c3.056-0.959,0.634-5.68,0.634-5.68c-1.289,3.184-3.918,2.41-6.14,2.484
		c-2.239,0.045-1.973,3.621-4.528,4.613c-2.562,0.988-5.912-1.092-7.187-2.262c-1.283-1.16-2.25-1.348-4.231,2.811
		c-1.06,2.225-2.107,1.543-2.869,0.445c0.322-0.512,0.752-0.953,1.028-1.479c1.207-2.338,1.798-6.502,5.044-6.387
		c-2.695,3.568,4.206,2.443,4.045,0.443c-0.216-2.65,3.553-2.191,5.229-3.469c1.713-1.367-2.309-4.051-3.322-5.461
		c-2.077-2.9-4.008-0.449-6.129-2.207c1.476-2.438,9.088-10.996,5.711-13.723c-6.256,8.309-13.295,15.674-18.397,24.674
		c-0.484,0.846-0.982,1.678-1.461,2.518c-0.162-0.473-0.297-0.965-0.281-1.51c-0.844-1.955-0.887-4.199-1.811-6.051
		c-0.148-0.477,0.35-1.592-0.455-1.811c-2.882-8.207-5.646-16.465-8.699-24.58c0.217-5.754-1.34-10.949-2.892-16.078l0.226-0.221
		l0.311-11.438c0-1.1-0.66-2.07-1.383-2.785c-0.695-0.133-1.633-0.266-2.035,0.533c-0.805,2.418-0.574,5.217-1.379,7.646
		c-0.402,0.029-0.713-0.23-0.967-0.545c-0.498-0.393-1.379-0.434-1.916-0.08c-1.475,2.346-4.893,0.879-5.869,3.576l-0.297-0.312
		c-1.34-3.357-2.719-6.268-3.965-9.631c-0.617-0.832-0.617-2.639-2.226-2.238c-0.655,0.174-1.379,0.525-1.729,1.184
		c-0.217,3.719,1.512,6.85,2.358,10.238c0.402,1.154,1.552,2.881,0.308,3.852c0.039,2.072-1.191,3.797-1.072,5.828l2.683,6.223
		c2.426,2.111,5.146,3.93,7.225,6.354c1.029,2.877,1.953,5.742,2.488,8.793c0.536,6.529,2.317,12.668,2.532,19.195
		c1.072,2.613,1.771,5.344,2.666,8.049c-0.319,1.227-0.602,2.611-1.498,3.504c-0.215-0.375-0.387-0.773-0.534-1.174
		c0.08-0.041,0.119-0.133,0.215-0.094v-0.432c-1.287-1.107-1.332-3.096-3.285-3.27c0-1.414-1.555-1.24-2.359-1.807
		c0.23-1.059-1.541-0.486-1.059-1.73c-0.402-0.795-1.379-0.221-1.914-0.514c-0.096-0.281,0.225-1.066-0.445-1.16
		c-1.686,0.094-3.295-1.145-4.799,0.094c0-2.432-1.953,0.266-2.666-0.846c-0.67-0.039-1.059,0.5-1.609,0.752
		c-0.118-0.359-0.075-0.832-0.521-1.059c-0.387-0.125-0.574,0.227-0.857,0.453c-0.907-0.42-1.676,0.605-2.422,0.699
		c-0.311-0.627,0.211-1.945-0.848-1.898c-0.896,0.779-0.535,2.031-0.896,3.098c-0.444,0.252-0.444,0.693-0.389,1.133
		c-0.268,1.332-1.072-0.307-1.731,0.219c-0.093,0.359,0.178,0.58,0.215,0.84c-0.08,0.094-0.158,0.111-0.238,0.152
		c-2.764-2.596-4.799-4.721-4.908-5.246c-0.172-0.975-1.514-5.525-3.346-8.115c-0.016-0.119-0.043-0.238-0.043-0.359
		c0.043-2.738-4.502-3.584-6.484-4.844c4.381-2.33,18.386-3.996,19.281-9.246c-4.729-1.783-12.219,1.1-16.777,2.506
		c-2.801,0.867-5.668,1.492-8.481,2.338c-1.824,0.541-5.574,3.064-7.277,2.377c-4.367-1.803-10.414,2.492-12.555,5.969
		c-1.584,2.566-4.451,4.432-7.453,6.123c0.125-0.455,0.215-0.906,0.334-1.354c0.768-2.631,1.729-4.148-0.99-5.674
		c-0.938-0.525-1.526-1.191-2.131-1.605c-1.699-1.201-2.115,0.539-2.01-2.133c0.057-1.598-0.078-3.41-2.185-2.637
		c-0.362-3.17-0.59-5.117,0.134-8.254c0.672-2.924-0.037-6.002-1.043-8.771c-1.369-3.705,1.282-10.445-1.451-13.084
		c-1.931-0.172-2.021,6.701-2.316,8.268c-2.824,0.393-3.672-4.191-4.477-6.068c-0.562-1.318-1.164-2.678-2.013-3.855
		c-1.243-1.754-1.268-0.207-2.368-0.596c-0.925-0.318-0.39-2.643-2.035-2.344c-0.363,0.066-1.326,1.447-1.316,1.451
		c-2.479-0.658-1.379,2.746-1.217,3.932c0.135,0.893,0.293,1.738,0.48,2.559c-0.201-0.332-0.308-0.74-0.613-1.021
		c-1.639,1.732-1.594,4.564-1.26,7.561c-1.652-0.084-3.648,0.748-2.121,1.48c0.938,0.453,1.758,1.197,2.547,2.012
		c0.418,3.49,0.551,6.746-1.824,8.305c-1.229-0.166-2.531-0.311-3.748-0.459c-1.115-0.865-2.012-1.959-3.312-2.629
		c-1.029-0.055-3.927-0.873-4.22,0.426c0.695,4.447,6.406,5.348,9.3,8.578c0.803,0.912,1.108,1.926,1.979,2.859
		c1.475,1.018,3.539,1.504,5.535,1.984c0.871,9.617-2.824,16.932-4.18,26.012c-3.218,1.951-6.229,4.162-8.818,6.893
		c-0.32,0-0.627-0.006-1.059,0.027c-2.146,0.125-3.816,2.65-6.087,1.518c-1.334-0.666-1.631-1.41-2.688-2.303
		c-3.002-2.559-5.453-3.811-8.738-4.398c-1.233-1.926-2.6-3.689-3.768-5.621c0.19-0.066,0.512-0.166,0.551-0.318
		c-0.225-0.475-0.617-0.475-0.992-0.514c-2.168-1.234-4.192-2.912-6.822-2.83c-1.139-0.58-2.436-0.773-3.725-0.959
		c-0.588-0.422-1.258-0.666-1.914-0.934c0.627-0.766,0.885-1.807,0.723-2.906c-0.215-1.41,1.609-7.564-0.924-7.26
		c-1.489-2.988-0.604-8.525-0.791-11.922c-0.096-1.719,0.136-3.67-1.541-4.756c-0.633-0.414-4.021-0.133-4.061-0.195
		c-0.713-1.07,0.307-1.977-1.168-3.182c-1.191-0.967-2.935-1.473-3.979-2.465c-2.293-2.166-6.188-0.188-8.709,0.326
		c-3.059,0.625-6.793,2.291-8.334,5.195c-0.953,1.812-3.061,3.377-3.604,5.316c-0.402,1.457,0.611,2.584,0.842,3.955
		c0.297,1.787,0.215,3.965,0.24,5.9c-0.67,0.322-1.299,0.582-2.103,1.049c-2.159-0.268-4.172-0.268-6.248-0.375
		c-0.508,0.334-1.006,0.686-1.504,1.033c0.746-2.033,1.584-4.029,2.203-6.102c1.756-9.061,6.367-16.918,9.021-25.604
		c3.106-2.613,3.203-7.143,2.049-10.734c-0.254-1.83-2.719-0.645-2.906-2.629c-1.891-0.025-2.6-2.744-4.797-1.893
		c-1.303-0.785-2.965-0.092-4.213,0.354c-0.551-0.66-1.178-1.1-2.002-1.045c-1.351,0.344-0.484,2.037-1.103,2.977
		c-0.248,3.83-1.096,8.035,0.254,11.957c-1.006,5.008-2.2,10.012-4.209,14.668c-3.375,5.848-5.299,12.268-7.772,18.469
		c-1.371-0.025-2.658,0.115-3.771,0.541c0.188,1.141,1.072,2.084,2.279,2.918c-1.268,2.783-2.705,5.488-4.562,8.033
		c-1.033,4.889-3.877,9.047-6.771,13.201c-2.438-1.086-5.807-1.725-8.272-0.711c-0.552,0.232-4.236-1.367-4.246-1.406
		c-0.283-0.666,1.479-3.996,1.444-5.021c-0.071-1.906-0.938-3.611-1.325-5.449c-0.607-2.879-0.867-5.369-1.125-8.395
		c-0.437-4.914-1.294-10.244-0.771-14.814c0.25-2.062,0.154-4.635,1.012-6.566c0.842-1.904,2.828-3.078,4.193-4.582
		c2.613-2.859,4.846-6.734,5.816-10.486c0.25-0.959,1.547-2.277,1.526-3.104c-0.065-2.109-3.375,0.375-3.643,0.668
		c-1.705,1.891-2.05,4.488-4.224,6.152c-2.397-4.076,3.566-11.863-0.617-15.945c-2.116-2.07-3.094,8.127-2.69,8.826
		c-1.488-2.525,1.264-8.58-1.557-10.652c-3.523-0.893-1.273,6.734-2.146,8.152c0.066-0.105-0.268-3.262-0.201-3.635
		c0.201-1.207,0.336-1.918-1.01-2.186c-4.146-0.314-0.422,11.805-2.609,12.297c-0.444,0.086-1.19-8.141-1.537-8.701
		c-1.92-3.104-2.211,5.623-2.211,5.703c0.052,4.184-0.245,8.273-0.245,12.484c0,3.195,1.288,6.072,0.526,9.244
		c-0.168,0.693-0.445,3.264-1.033,3.73c-0.953,0.1-2.45-0.479-2.69,0.898c-0.326,1.818,0.774,6.084-1.402,6.281
		c-1.24,0.121-2.662,0.828-4.012,1.465c-0.982-1.684-1.959-3.369-2.922-5.068c-5.213-9.219-12.371-16.732-18.763-25.119
		c-3.434,2.711,4.343,11.49,5.816,13.941c-2.145,1.799-4.104-0.705-6.248,2.254c-1.016,1.41-5.117,4.148-3.361,5.547
		c1.699,1.34,5.535,0.848,5.306,3.551c-0.158,2.031,6.891,3.199,4.143-0.467c3.283-0.119,3.9,4.129,5.146,6.527
		c0.762,1.467,1.633,2.865,2.784,4.062c2.228,0.389,2.683,0.48,3.404,2.654c0.053,0.164,0.086,0.33,0.139,0.492
		c-0.524-0.707-1.082-1.473-1.967-1.6c-2.145-0.514-4.008,1.352-5.406,2.199c-0.1-0.188-0.301-0.188-0.448-0.262
		c-0.604-0.633-0.445-1.377-0.402-2.117c-0.201-0.105-0.311,0.092-0.455,0.18c-0.297-0.248-0.649-0.793-1.086-0.459
		c0.148,1.02-0.121,1.811-0.719,2.492c-0.785,0.752-1.844,0.826-2.752,0.266c-2.652-0.906-5.908-0.199-7.695,2.131
		c-2.115,0.307-3.455,2.199-5.424,2.744c-0.062,0.021-0.092,0.066-0.146,0.088c-0.036-1.619-0.237-3.299-0.817-5.137
		c-0.574-1.117-0.545-2.984-2.34-2.705c1.01,3.398,1.432,6.615,1.35,9.607c-0.455,1.029-0.607,2.27-0.943,3.328
		c-0.401-0.119-0.67-0.072-0.842,0.053c-0.293-0.471-0.537-0.959-0.819-1.426c0.436-2.57,0.422-5.354-0.785-8.412
		c-0.32-0.633-0.603-1.365-0.99-1.896c0.65-2.514-0.498-5.816-1.811-8.326c-0.938,1.471,0.196,4.154-0.119,6.002
		c0.205,1.99-0.054,3.709-0.101,5.547c-0.096-0.193-0.188-0.387-0.283-0.572c0.082-0.307,0.136-0.613,0.097-0.92
		c-0.519-1.73-0.785-3.889-1.758-4.861c-0.556,0.014-0.65,0.291-0.617,0.646c-1.226-2.973-2.365-5.977-3.375-9.041
		c-1.715-5.502,4.463-8.047,5.248-12.889c0.903-2.137-0.892-3.41-1.808-5.029c-0.692-1.932,0.164-4.662-1.649-6.061
		c-1.695,0.586-1.906-1.492-3.357-1.439c-0.697,0.254-0.852,1.1-1.096,1.684c-1.351,0.5-2.402,2.047-3.51,2.98l0.518,0.619
		c0,2.031-1.461,3.51-1.115,5.721c-4.112,5.816,0.564,12.178,0.599,18.398c0,7.014,1.207,13.568,2.6,20.008
		c-2.062,1.727-4.916,2.945-8.709,3.467c-1.502,0.211-3.021,0.105-4.059-0.953c0.809-0.395,3.704-0.461,3.704-1.779
		c-1.924-0.893-4.733-0.375-6.684-1.279c-0.518-0.092-0.805-0.553-1.34-0.639c-5.291-6.562-10.035-14.041-18.113-15.955
		c-1.703-0.086-3.666,0.223-5.322,0.021c-0.147,0.412-1.006,0.4-1.141,0.801c-4.729,0.6-10.207,1.043-12.559,4.354
		c-1.752,2.6-1.849,6.217-2.369,9.547c-0.484,0.42-0.888,0.898-0.924,1.58c-0.724,0.211-1.05,0.691-1.943,0.818
		c-0.848,0.34-1.307-0.781-1.877-0.182c0.656,1.973,3.93,1.121,5.305-0.025c-0.307,1.418-1.375,2.439-2.826,3.209
		c-0.176,0.256,0.017,0.723,0.105,1.133c-0.492,0.16-0.736-0.105-1.285,0.16c0.396,1.398,2.018,0.773,3.336,0.641
		c-0.307,2.625-2.131,4.383-0.959,7.871c2.391,4.691,4.859,9.201,8.049,12.531c0.943,2.217,1.504,4.709,1.06,6.668
		c-0.068,0.006-0.148,0.006-0.217,0.014c-0.394-0.914-0.675-1.914-1.394-2.572c-1.006-1.105-2.557-1.186-3.979-0.986
		c-0.172,0.049-0.254-0.039-0.402-0.025c-1.758-1.877-3.619-3.67-5.197-5.721c-0.959-1.254-1.649-2.605-2.266-3.998
		c0.172-0.367,0.35-0.732,0.43-1.133c0.615-2.059-1.785-3.963,0.387-5.496c-0.135-1.609-1.446-2.477-1.553-4.096
		c-0.082-1.139-0.578-2.416,0.308-3.324c0-0.678-1.005-0.258-0.927-1.078c0.472-0.939,0.121-2.213-0.293-3.184
		c-0.28-1.221-1.783-0.732-2.451-1.6c0.398-0.773,1.013-1.639,1.052-2.572c3.035-2.955,6.854-5.799,8.77-7.779
		c5.388-5.576,11.299-12.096,18.24-15.785c5.889-3.117,10.4-5.664,15.488-10.24c3.352-3.67-1.617-2.688-2.986-1.297
		c1.623-2.291,6.539-2.551,6.031-6.223c-1.308-1.438-5.812,2.49-9.705,3.809c1.141-2.121,2.922-3.742,4.606-5.434
		c1.492-1.471,3.06-2.689,3.83-4.889c-3.035-3.852-9.239,7.66-12.127,7.68c1.09-2.26,3.053-3.855,4.51-5.922
		c0.753-1.08,1.259-2.439,1.634-3.691c-1.634-1.799-3.392,0.881-4.263,1.893c-7.221-3.469-16.557,20.275-20.846,24.525
		c-7.273,7.209-16.279,12.244-24.715,17.973c-0.898-0.758-1.889-1.406-3.014-1.545c0.09-0.828,1.004-2.186-0.443-2.312
		c-0.229,0.273-0.256,0.621-0.391,0.893c-1.445,1.807-3.441-0.078-5.064-0.619c-2.012,0.514-4.396,0.893-6.096,2
		c-0.849,0.865-1.742,0.992-2.654,0.926c2.338-5.15,4.508-10.387,6.15-15.822c1.756-9.059,6.366-16.918,9.012-25.604
		c3.109-2.613,3.211-7.141,2.053-10.732c-0.25-1.83-2.715-0.645-2.91-2.629c-1.889-0.027-2.592-2.744-4.799-1.893
		c-1.293-0.785-2.955-0.094-4.207,0.352c-0.547-0.658-1.18-1.1-2.002-1.045c-1.346,0.346-0.483,2.037-1.1,2.979
		c-0.246,3.828-1.101,8.033,0.256,11.955c-1.006,5.01-2.207,10.012-4.209,14.67c-5.555,9.611-7.156,20.809-13.83,29.961
		c-1.533,7.271-7.082,12.941-10.801,19.361c-0.363,0.926-0.806,1.826-1.279,2.713c0.004-0.113,0.004-0.246-0.029-0.373
		c-0.436,0.641-1.184,1.537-2.147,1.6c-0.791-0.84-2.213-1.199-2.648-2.199l0.838-0.441h-0.336
		c-0.305-0.252,0.029-0.492,0.109-0.744l-1.314-0.113c-0.782-1.127-0.896-2.625-1.354-3.922c-1.002-2.332-3.746-2.68-5.754-2.727
		c-0.812-0.221-1.308-0.586-1.644-1.039c0.269-0.486,0.511-0.959,0.797-1.445c4.615-7.926,7.404-16.58,11.599-24.672
		c1.865-3.625,3.271-8.795,6.139-11.645c2.512-2.463,5.91-3.73,8.738-5.771c4.529-3.262,2.908-6.24,1.955-11.109
		c-0.562-2.883-3.056-3.316-5.568-4.568c-2.768-1.359-4.562,0.133-7.244,1.225c0.218,0.812,0.705,1.371,1.476,1.68
		c-0.736,0.199-1.795,1.238-1.476,2.104c-0.139,0.1-2.106-0.812-3.207-0.305c-3.211,1.459-3.088,2.896-2.93,6.154
		c0.162,3.225,0.752,5.354-0.381,8.451c-1.084,2.979-2.488,5.855-4.148,8.555c-4.146,6.867-9.715,12.674-14.713,18.908
		c-0.369,0.049-0.737,0.107-1.043,0.168c-1.262-0.287-0.514-2.426-1.906-3.219c-1.11-0.465-2.471-0.203-3.51,0.24
		c-2.252,1.201-2.555-2.344-4.557-2.643c-2.146-0.514-4.008,1.352-5.406,2.199c-0.1-0.189-0.301-0.189-0.449-0.262
		c-0.604-0.631-0.442-1.379-0.401-2.119c-0.201-0.104-0.308,0.096-0.455,0.182c-0.297-0.248-0.652-0.793-1.088-0.459
		c0.147,1.018-0.119,1.811-0.716,2.49c-0.782,0.752-1.844,0.826-2.756,0.268c-2.651-0.906-5.907-0.201-7.69,2.129
		c-2.119,0.307-3.457,2.199-5.427,2.744c-2.399,0.707-2.295,3.279-2.896,5.184c-0.4-0.119-0.668-0.074-0.844,0.053
		c-4.582-7.332-7.881-15.141-10.56-23.26c-0.016-0.047-0.008-0.086-0.026-0.135c0.18-0.824,0.239-1.584-0.215-2.17
		c0.061-0.707,0.241-1.359,0.518-1.984c0.838-0.693,1.553-1.572,1.627-2.684c0.094-0.127,0.188-0.248,0.283-0.375
		c0.199,0.008,0.438,0.281,0.641,0.207c1.021-0.348,0.906-1.84,1.744-2.184c0.428-0.814,0.416-1.547,0.281-2.266
		c0.158-0.426,0.319-0.84,0.393-1.301c0.904-2.137-0.891-3.41-1.801-5.027c-0.416-1.145-0.322-2.551-0.523-3.818
		c-0.146-0.865-0.387-1.678-1.133-2.244c-0.182,0.061-0.287-0.006-0.436,0c-0.06-0.146-0.119-0.291-0.308-0.373
		c-0.43,0.732-0.534-0.318-0.991-0.145c-0.009,0.004-0.013,0.004-0.013,0.012c-0.455-0.439-0.873-0.959-1.608-0.934
		c-0.402,0.148-0.611,0.48-0.771,0.859c-0.957-0.904-2.752-0.859-3.236-2.137c-1.154-0.641-2.506-0.199-3.652-0.959
		c-1.547,0.76-2.209-1.691-3.777-0.939c-1.246,0.752-2.246-0.926-3.438,0.34c-0.451-0.453-1.166-0.773-1.848-0.682
		c-0.771,0.375-1.135,1.455-1.797,1.986c-0.523-0.646-1.34-0.73-2.105-0.73c-2.102,0.285-1.781,3.477-4.195,3.436
		c-0.789,2.393-2.182,4.463-4.361,5.555c-0.871,1.146-1.293,2.639-1.475,3.998c-0.891,0.611-1.586,1.93-1.475,3.037
		c0.973,1.838-1.326,3.443-0.307,5.209c-2.002,1.186,0.475,2.783,0.436,4.383c0.201,1.012-0.363,2.344,0.508,3.012
		c0.049,0.504-0.287,1.158,0.176,1.518c0.748-0.107,0.57,1.166,0.682,1.736c0.23,0.908-1.699,1.654-0.549,2.373
		c0.658-0.381,1.354-0.914,2.037-1.432c-0.014,0.359-0.025,0.691-0.025,1.051c-0.066,2.686,1.461,4.717,0.965,7.168
		c-0.416,2.025,0.215,3.252-1.623,4.559c-1.379,0.959-2.926,1.65-4.447,2.328c-0.135-3.209-1.033-6.301-2.742-9.031
		c-0.734-1.191-1.605-2.305-2.551-3.33c-0.049-1.826-0.027-3.637-0.016-5.463c0.016-3.244,0.109-6.635-0.801-9.771
		c-0.391-1.311-1.002-2.592-1.918-3.65c1.227-1.992,1.816-3.191,3.584-4.895c5.012-4.85,9.816-9.926,15.176-14.414
		c2.709-2.266,5.564-4.377,8.578-6.195c1.971-1.199,2.775-0.414,4.932-0.814c2.104-0.398,4.02-2.129,6.029-0.971
		c2.988,1.719,3.754,2.697,7.211,1.57c0.998-0.332,1.844-0.293,2.356,0.76c1.517-0.811,3.076-1.637,4.229-2.93
		c-0.248-2.973,1.252-5.49,1.479-8.381c-2.028-2.529-4.797-6.041-7.315-7.725c-3.068-2.033-13.99,6.299-17.152,7.725
		c-3.031,1.146-5.598,3.158-8.242,4.971c-3.465,2.389-7.311,4.115-11.043,6.033c-6.473,3.338-12.836,7.275-18.547,11.752
		c-1.42,1.117-2.779,2.266-4.1,3.477c-1.693,1.559-1.555,2.758-2.359,4.795c-0.094,4.357-0.562,8.674-1.186,12.977
		c-1.027,7.168-2.357,14.307-2.42,21.568c-0.012,3.744,0.297,7.328,1.303,10.938c0.254,0.934,0.535,1.578,0.682,2.225
		c-0.033,0.486-0.078,0.967-0.078,1.471c-0.312,0.229-0.09,0.781-0.35,1.047c-0.584-0.852,0.334-1.906,0.193-2.91
		c-0.49-1.646-0.744-3.709-1.668-4.631c-0.844,0.008-0.697,0.588-0.484,1.213c-1.408-0.898-2.332-3.717-3.953-3.576
		c-0.791,0.605,0.281,1.963,0.66,2.537c0.238,0.947,0.488,1.865,0.723,2.811c0.307,4.172-0.566,7.875-2.957,10.633
		c-2.553-3.609-3.77-8.42-7.285-11.311c-7.219-5.928-13.021-13.281-18.355-20.916c0.951-0.748,1.9-1.508,2.887-2.385
		c3.195-3.518-1.549-2.572-2.854-1.252c1.555-2.186,6.25-2.432,5.76-5.928c-1.252-1.381-5.547,2.369-9.264,3.621
		c1.092-2.025,2.787-3.568,4.395-5.18c1.432-1.406,2.92-2.572,3.658-4.672c-2.596-3.289-7.598,5.131-10.6,6.941
		c-0.119-0.166-0.234-0.34-0.35-0.512c1.072-1.672,2.506-3.092,3.686-4.75c0.709-1.033,1.199-2.324,1.555-3.523
		c-1.555-1.719-3.244,0.84-4.072,1.811c-1.516-0.73-3.117-0.16-4.744,1.133c-1.416-2.104-2.787-4.236-4.25-6.303
		c-1.734-2.463-4.26-2.385-5.66-5.262c-1.414-2.891-1.959-6.139-1.959-9.324c-3.859,0.793-2.352,6.248-1.666,8.766
		c-3.084,3.299-6.301,7.367-5.133,12.178c1.566-0.322,2.746-1.307,3.094-2.898c0.389-1.711,2.795-2.318,4.699-3.111
		c0.16,1.186-0.961,1.16-1.637,1.641c-1.078,0.785,0.088,3.229,0.396,4.113c1.031,2.881-1.326,2.459-3.029,4.266
		c-2.975,3.117,1.822,2.51,3.322,2.678c1.422,1.117,2.842,2.184,4.357,3.051c-3.109,5.234-5.877,10.689-7.693,12.488
		c-4.984,4.936-10.834,8.779-16.709,12.578c-2.32-12.119-5.816-23.689-8.164-35.793c-0.08-1.504-0.172-3.01-0.234-4.529
		c-0.514-1.799-1.273-3.303-1.709-5.221c0.379-2.279,2.18-6.9,0.043-8.619c-2.867,0.693-1.287,5.428-3.023,7.113
		c-4.535-0.508-1.4-9.438-5.367-10.537c-1.93,2.031-0.055,7.061,0.041,10.092c-2.293-0.062-3.418-1.939-4.529-3.631
		c-1.113-1.57-1.502-4.518-4.316-3.359c-0.744,2.707,2.359,5.277,3.092,7.988c-3.713-0.986-5.113-4.504-8.062-6.307
		c-1.629,0.219-2.84,0.777-4.02,1.41c1.84,4.258,4.852,7.287,6.867,11.412c3.051,3.529,7.512,5.535,11.506,8.061
		c1.166,5.588,1.721,11.848,2.25,18.123c-0.229-0.707-1.461-1.072-2.002-1.252c-0.867-0.299-1.984-0.746-2.045-1.053
		c-0.066-0.371,0.455-1.293,0.549-1.711c0.094-0.381,0.357-1.926-0.268-2.1c-0.951-0.268-1.338,1.432-1.836,1.492
		c-0.072,0.014-0.643-0.246-0.791-0.404c-0.32-0.342-0.293-0.861-0.707-1.047c-1.121-0.508-2.033,0.291-2.816,0.84
		c-0.57,0.385-1.623,1.578-2.318,1.51c-0.631-0.059-0.75-0.943-0.836-1.551c-0.316-2.025-0.021-2.785-0.129-4.969
		c-0.039-0.992-0.307-2.352-0.361-3.369c-0.061-1.934-0.08-4.77-1.596-4.91c-1.701-0.16-1.213,2.451-1.117,4.018
		c0.152,2.463-0.383,4.447-0.699,6.486c-0.205,1.332-0.273,2.77-0.488,4.236c-0.25,1.506-0.764,2.758-0.703,4.117
		c0.129,2.824,1.34,5.836,1.152,8.887c-0.275,4.609-4.494,8.564-7.094,11.842c-1.408,1.746-2.75,3.717-4.143,5.367
		c-2.178,2.58-4.953,4.57-7.344,6.877c-1.475,1.398-3.002,2.783-4.49,4.195c-0.254-0.68-0.482-1.379-0.738-2.053
		c-2.221-5.969-2.197-14.434-5.559-19.168c-5.615-10.586-12.289-20.039-17.303-31.283c6.42-8.498,12.049-17.676,17.959-26.604
		c-4.727-1.291-5.668,5.395-8.857,6.195c0.508-2.971,1.297-5.682,2.221-8.266c-0.268-0.129-1.125-0.207-2.168-0.129
		c-1.422,0.867-1.795,2.625-2.172,4.424c-3.027,1.559-3.537,5.355-5.422,7.961c-4.307,3.203-7.055,7.82-10.23,12.016
		c0.465,2.877,0.256,4.35-0.139,6.768c4.643,13.662,7.584,28.451,14.15,40.348c0.85,1.518,2.305,2.758,3.102,4.395
		c1.91,3.811,4.182,9.432,4.846,14.402l0.033,0.201c-2.547,0.418-4.51,1.352-6.318,2.455h-28.457
		c0.469-1.678,0.789-2.869,1.207-3.176c0.506-0.359,1.545-0.213,2.182-0.479c1.059-0.48,1.691-1.799,2.238-2.926
		c0.684-1.432,1.703-2.951,1.285-5.229c-0.037-0.307-0.225-0.381-0.213-0.758c0-1.061,0.578-2.053,0.865-2.98
		c0.32-1.012,0.354-2.203,0.193-3.396c-0.146-1.111,0.127-2.271,0.008-3.576c-0.061-0.506-0.221-1.08-0.377-1.639
		c-0.18-0.545-0.488-1.285-0.379-1.645c0.018-0.141,0.26,0.158,0.346-0.141c0-0.027-0.254-0.426-0.328-0.818
		c-0.234-1.285-0.621-2.484-1.287-2.992c-0.191-0.166-1.584-0.508-1.48-0.893c0.162-0.559,1.342-0.525,1.154-0.693
		c-0.244-0.219-1.234,0.127-1.258-0.318c-0.057-0.959,1.344-1.232,1.244-1.414c-0.082-0.105-0.838,0.123-1.006,0.189
		c-0.35,0.104-0.838,0.426-0.953,0.225c-0.105-0.188,0.383-0.291,0.465-0.332c0.984-0.58-0.014-0.133-0.604-0.359
		c-0.717-0.268-1.734-1.293-2.842-1.84c-0.48-0.24-0.99-0.346-1.803-0.486c-0.629-0.105-1.488-0.379-1.479-0.885
		c0.02-0.68,0.93-0.414,0.693-0.6c-0.271-0.213-1.158-0.166-1.211-0.273c-0.119-0.34,1.623-0.486,0.91-0.633
		c-0.201-0.041-0.936,0.08-0.869,0.066c-0.744,0.186-1.348,0.199-2.037-0.107c-0.576-0.244-0.354-0.439,0.014-0.412
		c0.537,0.027,1.312,0.305,0.676-0.121c-0.449-0.305-0.965-0.371-1.387-0.385c-0.383-0.008-2.479,0.439-2.021,0.041
		c0.525-0.494,1.553-0.467,1.527-0.4c0.092-0.24-0.344-0.199-0.566-0.227c-1.873-0.266-3.348,0.719-4.701,0.992
		c0.195-0.006,1.555-1.139,1.299-1.273c-0.125-0.08-0.549,0.348-0.561,0.348c-0.846,0.566-2.213,0.52-3.467,0.998
		c-0.607,0.229-1.426,1.025-1.775,1.68c-0.039,0.094-0.576,1.611-0.695,1.438c-0.424-0.652,0.348-1.877-0.121-1.396
		c-0.482,0.484-0.803,1.463-0.736,2.145c0.039,0.332,0.594,1.199,0.549,1.318c-0.025,0.047-0.777,0.266-0.998,0.365
		c-0.986,0.375-2.365,1.219-2.562,1.393c-0.756,0.748-1.076,1.479-1.531,2.57c-0.107,0.24-0.678,1.506-0.518,1.754
		c0.188,0.271,0.35-0.461,0.477-0.215c0.068,0.152-0.557,1.5-0.637,1.752c-0.207,0.748-0.246,1.467-0.309,2.059
		c-0.086,0.748-0.254,1.352-0.387,1.992c-0.385,2.064,0.033,4.762-0.25,6.854c-0.215,1.447-0.67,2.766-0.455,4.299
		c0.115,0.83,0.43,1.311,0.455,1.756c0.053,1.24-0.039,4.037,0.115,4.73c0.135,0.66,0.83,1.537,0.891,2.117
		c0.047,0.412-0.053,1.111-0.135,1.938h-18.332c-0.127-0.053-0.227-0.178-0.35-0.266c2.682-5.807,4.371-12.156,7.881-17.645
		c3.645-7.248,6.902-14.734,9.26-22.541c1.758-9.061,6.367-16.92,9.006-25.6c3.109-2.609,3.217-7.146,2.049-10.73
		c-0.24-1.836-2.705-0.645-2.906-2.631c-1.891-0.033-2.586-2.752-4.797-1.898c-1.289-0.787-2.949-0.092-4.209,0.359
		c-0.551-0.666-1.178-1.098-1.996-1.051c-1.355,0.346-0.484,2.037-1.1,2.984c-0.256,3.828-1.098,8.031,0.254,11.949
		c-1.002,5.016-2.209,10.018-4.205,14.674c-5.564,9.611-7.158,20.803-13.832,29.961c-1.227,5.795-4.969,10.586-8.336,15.535
		c-1.34-0.926-2.693-1.812-4.146-2.605c-2.834-1.559-5.414-2.83-8.568-3.611c-0.887-0.211-2.574-0.572-2.969-1.064
		c-0.141-0.174-0.33-0.771-0.465-1.133c-1.666-4.203-3.293-8.266-5.961-11.91c-1.809-2.49-3.779-4.742-5.361-7.459
		c-1.609-2.785-2.547-6.229-3.846-9.273c-1.381-3.197-3.299-6.115-3.164-10.885c0.033-1.266,0.383-2.543,0.465-3.857
		c0.059-0.686,0.033-1.404,0.148-2.057c0.1-0.627,0.354-1.213,0.387-1.799c0.061-1.412-0.531-2.371-0.717-3.609
		c-0.27-1.686-0.328-3.705-0.441-5.395c-0.082-0.934-0.344-1.807-0.424-2.547c-0.193-1.691,0.342-5.529-1.373-4.654
		c-1.482,0.766-0.918,3.402-1.025,5.613c-0.061,1.359-0.223,2.572-0.342,3.904c-0.105,1.105-0.283,3.197-1.039,3.305
		c-0.406,0.066-1.025-0.826-1.293-1.148c-0.389-0.463-0.898-1.025-1.373-1.145c-0.643-0.174-1.48,0.334-1.982,0.553
		c-0.697,0.314-1.602,0.4-1.814,0.973c-0.111,0.293-0.057,0.674-0.25,0.846c-0.062,0.033-0.369,0.008-0.598,0.096
		c-0.348,0.119-0.213,0.291-0.475,0.211c-0.1-0.041-0.449-0.744-0.57-0.934c-0.764-1.104-1.734-0.799-1.266,1
		c0.328,1.318,0.76,2.277,1.252,3.41c0.316,0.721,0.732,1.393,0.857,1.865c0.066,0.281-0.012,0.561,0.043,0.773
		c0.078,0.334,0.334,0.545,0.402,0.934c0.172,0.932-0.021,1.945,0.023,2.811c0.096,2.012,0.537,3.504,1.115,4.861
		c0.287,0.641,0.533,1.412,0.936,2.066c0.525,0.805,1.396,1.012,1.836,2.018c0.857,1.938,1.092,4.369,1.562,6.447
		c0.568,2.498,1.158,4.977,1.857,7.428c0.469,1.633,0.855,3.277,1.244,4.908c-0.201-0.125-0.422-0.211-0.67-0.244
		c-2.145-0.521-4.008,1.344-5.416,2.197c-0.09-0.186-0.291-0.186-0.439-0.26c-0.604-0.633-0.443-1.379-0.402-2.125
		c-0.201-0.107-0.309,0.1-0.455,0.188c-0.297-0.254-0.656-0.795-1.086-0.467c0.148,1.025-0.121,1.811-0.723,2.496
		c-0.779,0.756-1.838,0.822-2.748,0.26c-2.654-0.904-5.908-0.199-7.693,2.133c-0.945,0.141-1.727,0.607-2.477,1.105v44.283h1144.098
		V267.685z M1175.814,239.255c0.065-0.014,0.028,0.16,0.028,0.246C1175.68,239.454,1175.775,239.349,1175.814,239.255z
		 M1175.584,244.485c0,0.086,0.029,0.178,0.068,0.244c-0.158,0.193-0.336,0.373-0.479,0.541
		C1175.197,244.937,1175.316,244.638,1175.584,244.485z M1175.412,237.524c-0.029,0.07-0.201-0.135-0.162-0.307
		C1175.346,237.269,1175.33,237.429,1175.412,237.524z M1175.293,242.72c0.359,1.158-0.551,1.811-0.537,2.984
		c-0.027,0.039-0.053,0.084-0.096,0.117C1174.139,244.812,1174.982,243.56,1175.293,242.72z M1174.273,246.063
		c0.014,0.006,0.014,0.014,0.026,0.018h-0.026C1174.273,246.077,1174.273,246.069,1174.273,246.063z M1155.846,214.028
		c-0.694,0.414-1.938,0.074-2.52-0.264C1154.16,213.702,1155.031,213.968,1155.846,214.028z M1092.543,233.167
		c0.148-0.785,0.08-1.346-0.029-1.885c0.187-0.594,0.363-1.186,0.551-1.807c0.105,0.332,0.201,0.596,0.201,0.588
		c0.105-0.447,0.066-0.867-0.016-1.252c0.768-2.639,1.57-5.369,2.668-7.676c1.729,5.418,3.514,10.785,5.682,15.762l-5.883-0.762
		c0,0-1.514,0.281-4.113,0.734C1091.91,235.87,1092.326,234.259,1092.543,233.167z M1062.844,224.169
		c0.029,0.025-0.053,0.17-0.08,0.26c-0.01-0.021-0.01-0.027-0.024-0.049c-0.015-0.033-0.054-0.059-0.066-0.086
		c0-0.055,0-0.105,0-0.154C1062.725,224.14,1062.791,224.114,1062.844,224.169z M928.018,246.081h-7.68
		c-2.758-1.744-7.541-4.414-11.844-7.105c-0.121-2.992,0.699-6.262-0.135-9.227c0.282-3.352-0.818-6.234-1.072-9.305
		c1.609,1.77,3.217,2.531,3.969-0.014c0.709-2.352,3.16-3.689,5.869-4.449c-0.229,1.105-0.387,2.324-0.4,3.656
		c-0.178,0.232-0.321,0.434-0.483,0.658c-9.527,13.77,2.586,16.641,5.535,17.121C924.844,243.212,927.711,245.804,928.018,246.081z
		 M917.178,224.866c0.322,1.799,0.857,3.771,1.648,5.889c0.914,2.492,1.861,4.623,2.844,6.447
		C916.627,235.206,914.498,232.089,917.178,224.866z M907.771,210.032c0.723-2.158,1.19-2.217,3.364-2.631
		c0.535-0.545,0.881-1.264,1.312-1.904c0.549,1.777,1.555,3.17,3.896,0.08c3.336-4.391,5.467,0.371,5.98,1.705
		c-0.322,0.219-0.791,0.617-1.371,1.213c-1.273,0.705-3.174,1.645-4.781,1.891c-2.682,0.406-4.41,4.316-6.809,6.756
		c-0.59,0.6-1.273,0.617-1.97,0.371c-0.147-1.053-0.594-2.012-0.86-3.037C906.928,212.991,907.287,211.499,907.771,210.032z
		 M861.029,246.081h-0.752c-1.408-0.752-2.894-1.885-2.949-3.488c1.518,1.979,2.881,2.537,4.371,2.252
		C861.482,245.255,861.258,245.669,861.029,246.081z M863.59,232.321c0.896,0.471,2.221,0.205,2.894,1.139
		c0,2.172,0.35,4.809,0.521,7.02l-2.973,1.68c-0.188,0.107-0.283,0.26-0.441,0.379c-3.529-0.818-4.586-5.121-4.236-8.705
		c0.871,1.844,1.779,4.002,3.769,4.895c-0.418-4.254-3.457-7.52-4.678-11.775c-0.23-1.465-0.297-3.006-0.32-4.564
		C859.195,226.026,860.09,229.79,863.59,232.321z M857.355,213.11c0.067,0.691,0.135,1.391,0.188,2.072
		c-0.158-0.814-0.293-1.633-0.604-2.398c-0.144-0.375-0.373-0.68-0.562-1.025C856.768,212.239,857.074,212.677,857.355,213.11z
		 M852.479,242.378C852.654,241.513,852.812,243.212,852.479,242.378L852.479,242.378z M852.344,243.265
		C852.521,242.419,852.678,244.13,852.344,243.265L852.344,243.265z M852.209,244.157
		C852.387,243.298,852.545,244.989,852.209,244.157L852.209,244.157z M852.037,244.622c0.24,0.289,0.359,0.859,0.402,1.459h-0.416
		C852.076,245.597,852.143,245.089,852.037,244.622z M839.732,199.669c1.235-0.281,2.227,0.006,3.149,0.379
		c2.586,1.52,5.578,3.838,8.254,6.275c-0.789-0.453-1.616-0.867-2.489-1.207c-1.892-0.752-3.455-2.064-5.175-3.203
		c-2.034,0.113-4.018,0.113-6.139,0.352c-0.91-0.518-1.617-0.83-2.354-1.158C836.559,200.579,838.129,200.042,839.732,199.669z
		 M790.271,161.399c-0.687-1.822-0.806-3.922-1.06-5.867c0.172,0.432,0.35,0.871,0.574,1.299c0.283,1.732,0.646,3.432,0.604,4.664
		C790.352,161.466,790.314,161.433,790.271,161.399z M808.311,242.237c-0.133-0.004-0.268-0.018-0.401-0.033
		c0.158-0.045,0.346-0.125,0.508-0.137C808.387,242.134,808.336,242.179,808.311,242.237z M808.379,225.62
		c0.144-0.434,0.344-0.881,0.521-1.34C809.34,224.435,808.924,225.587,808.379,225.62z M808.363,223.247
		c-0.617-0.199,0.508-0.633,0.561-0.971C809.541,222.462,808.416,222.921,808.363,223.247z M805.43,219.286
		c0.961-1.32,1.607-3.152,2.168-5.096c3.888-3.844,7.681-7.809,11.539-11.619c2.494-0.91,4.504-0.34,6.728-0.045
		c-0.146,0.1-0.24,0.133-0.402,0.238c-3.361,2.307-7.502,8.254-11.213,9.027c-3.203,0.658-1.125,1.766-2.025,4.324
		c-0.455,1.357-1.541,2.383-2.786,3.084c-1.757,0.996-3.716,1.525-5.654,2.037C804.355,220.604,804.945,219.964,805.43,219.286z
		 M803.352,221.737c2.304-0.215,4.625-0.561,6.703-1.512c-1.676,2.43-6.033,5.174-9.117,3.721
		C801.795,223.243,802.6,222.511,803.352,221.737z M785.957,238.769c0.963-2.752,2.227-5.203,3.576-7.572
		c3.916-2.055,7.91-4.357,11.231-7.09c0.953,1.121-0.119,1.906,2.088,2.65c1.169,0.463,2.308,0.389,3.396-0.258
		c-0.23,1.572-2.643,1.857-3.807,1.492c0.612,0.033,1.207-0.08,1.729-0.42c-0.053,0-3.523,0-3.098,0.111
		c0.387,0,0.789,0.102,1.125,0.309c-2.117,0.273-4.41-1.727-3.523,2.098c1.891,0.959,4.408,0.768,6.459,0.686
		c-1.887,0.834-4.209,1.406-6.272,1.008c0.899,1.172,1.526,2.77,2.948,3.477c-1.563,0.26,1.648,1.324,1.072,1.852
		c-0.803-0.061-1.621,0.086-2.369,0.459c0.494,0.107,0.881,0.34,1.178,0.725c-1.312,0.566-2.762,0.521-4.088,1.094
		c2.644,1.939,5.683-2.277,8.097-0.605c-0.269,1.059-1.154,2.053-2.185,2.996c-5.928-0.518-12.236-0.977-18.764-1.404
		C785.152,239.841,785.584,239.335,785.957,238.769z M604.025,196.929c0.627,1.732,0.746,3.506,0.641,5.258
		c-0.521-0.951-1.043-1.906-1.527-2.873C603.326,198.384,603.527,197.483,604.025,196.929z M605.371,234.247
		c0.354,0.686,0.703,1.371,1.057,2.057c-1.531-0.664-2.969-1.504-4.266-2.578C603.26,233.853,604.316,234.048,605.371,234.247z
		 M597.188,222.722c0.201,0.287,0.419,0.559,0.623,0.84c-0.405-0.174-0.795-0.393-1.227-0.533
		C596.814,222.942,596.973,222.813,597.188,222.722z M593.971,212.157c0.312,1.346,0.58,2.699,0.871,4.043
		c-1.459,0.734-2.986,1.34-4.615,1.641c-1.043,0.199-2.045,0.111-2.93-0.406C589.729,215.749,591.922,213.983,593.971,212.157z
		 M540.357,236.702c0.575,0.434,1.26,1.061,1.418,1.5l-0.226,0.014c-0.229-0.188-1.062-1.146-1.893-1.246
		c-0.027-0.033-0.037-0.066-0.066-0.1C539.822,236.784,540.033,236.677,540.357,236.702z M528.629,207.962l0.176,1.277
		c-0.912-0.174-1.205-1.238-1.338-2.244C527.988,207.022,528.551,207.415,528.629,207.962z M526.473,204.563l-0.442,0.633
		l-0.078-0.059C526.119,204.95,526.297,204.757,526.473,204.563z M507.201,195.118c0.512,0.268,1.166,0.459,1.608,0.826
		c-0.829,1.199-2.506,0.68-3.713,0.58c-0.91,0.1-1.877-0.121-2.813,0.193C503.801,196.036,505.486,195.146,507.201,195.118z
		 M494.162,242.985c0.068,0.078,0.121,0.174,0.188,0.252c-0.104,0.027-0.205,0.049-0.319,0.066
		C494.07,243.196,494.125,243.093,494.162,242.985z M490.035,233.419c0.108,0.332,0.254,0.607,0.389,0.934
		c0,0.092,0.015,0.213,0.015,0.32c-1.031-0.24-2.197-0.748-2.962-1.572c-0.401-0.561-0.948-1.174-0.522-1.904l0.791-0.707
		C487.932,231.767,489.328,232.427,490.035,233.419z M479.316,239.562c2.225-4.596,4.487-9.16,6.225-13.949
		c0.549-0.885,0.957-1.852,1.426-2.783c0.135,0.732-0.354,1.572-0.082,2.385c0.392,0.639,0.312,1.785,1.273,1.992v0.059
		c-0.119,1.359-0.627,2.785-1.89,3.584c-1.03,2.785,2.681,4.029,4.275,5.502c0.631,0.973,0.348,2.07-0.227,2.977l0.104,0.066
		l0.967-1.432c0.373-0.76-0.241-1.451-0.35-2.125c0.574,1.459,1.166,2.924,1.623,4.424c-0.752,1.225-1.447,2.504-2.146,3.762
		c-3.01,0.629-6.19,1.307-9.594,2.059h-2.094c0.656-1.852,1.1-3.789,0.758-5.92C479.518,239.96,479.436,239.749,479.316,239.562z
		 M474.773,159.136c2.202-2.506,9.239,1.76,2.524,2.859c-2.119,0.338-4.262-0.074-6.324-0.541
		C470.84,158.989,472.949,158.854,474.773,159.136z M407.213,238.815c0.047-0.094,0.086-0.229,0.125-0.32
		c0.297-0.078,0.58-0.172,0.9-0.186c0.301-0.016,0.604-0.082,0.91-0.107c1.422,2.666,2.92,5.303,4.562,7.879h-10.512
		C404.715,243.729,406.012,241.212,407.213,238.815z M389.088,201.021c0.789-2.332,1.902-4.543,2.494-6.941
		c0.279-1.078,0.439-2.172,0.508-3.277c0.309,4.949,1.031,9.732,2.01,14.395c-0.684,0.168-1.359,0.441-2.096,0.348
		c-0.705,0.594-1.404,0.672-2.119,0.645C388.871,204.737,388.336,203.19,389.088,201.021z M399.486,143.401
		C399.166,144.108,398.949,142.589,399.486,143.401L399.486,143.401z M399.902,140.479c-0.938,0.604-1.287,1.443-1.06,2.51
		C393.094,140.978,399.18,137.913,399.902,140.479z M336.273,220.644c-0.133,0.734-0.387,1.439-0.461,2.178
		c-0.141,1.359-0.193,2.785-0.156,4.203c-1.096-0.334-2.168-0.592-3.193-1.205C333.916,224.214,335.184,222.489,336.273,220.644z
		 M283.314,176.335c0.568-1.053,0.535-2.092-0.08-3.117c0.428,0,0.844-0.074,1.262-0.24
		C284.682,174.284,284.842,175.802,283.314,176.335z M274.455,213.009c5.143-5.328,10.783-11.562,17.408-15.08
		c1.863-0.984,3.553-1.918,5.188-2.877c2.977,5.762,4.756,12.23,6.982,18.406c-2.68-2.711-5.682-4.885-9.447-5.777
		c-1.635-0.08-3.512,0.215-5.092,0.02c-0.135,0.395-0.953,0.381-1.08,0.766c-4.521,0.574-9.75,1-11.996,4.158
		c-1.672,2.477-1.762,5.928-2.27,9.113c-0.455,0.406-0.838,0.852-0.871,1.506c-0.695,0.211-1.006,0.664-1.861,0.785
		c-0.805,0.326-1.248-0.748-1.791-0.174c0.631,1.877,3.758,1.066,5.064-0.02c-0.287,1.352-1.307,2.326-2.699,3.057
		c-0.158,0.254,0.014,0.691,0.107,1.08c-0.467,0.158-0.711-0.1-1.232,0.158c0.375,1.334,1.93,0.748,3.188,0.615
		c-0.291,2.504-2.035,4.182-0.916,7.512c1.803,3.551,3.68,6.969,5.891,9.824h-7.559c-0.102-0.125-0.221-0.232-0.322-0.365
		c-1.582-2.064-2.479-4.396-3.369-6.754c0-0.02,0.004-0.045,0.014-0.066c-0.014-0.061-0.066-0.068-0.088-0.119
		c-0.43-1.119-0.857-2.24-1.361-3.344c-0.48-1.055-1.105-1.934-1.742-2.777c0.061-1.088,0.107-2.213,0.176-3.273
		c-0.074-2.443-0.322-4.646-0.865-6.572C266.832,219.179,272.105,215.421,274.455,213.009z M234.885,215.062
		c0.771-1.385,2.197-2.197,2.922-3.463c0.482-0.852,0.941-2.225,1.191-3.318c0.469-1.984-0.119-8.033,0-8.686
		c0.066-0.4,1.031-1.998,1.445-2.045c0.201-0.025,0.613,0.668,1.135,1.152c0.262,0.252,0.871,0.346,1.174,0.16
		c0.436-0.268,0.334-0.574,0.641-0.693c0.215-0.08,0.785,0.133,1.207,0.133c0.938,0,1.742-0.186,1.758-1.064
		c0.602,7.193,1.191,14.402,2.57,20.729c-0.234-0.039-0.496-0.158-0.742-0.246c-0.383-0.227-0.363-0.979-0.771-1.16
		c-0.375-0.34-1.393,0.016-1.623-0.141c-0.361-0.078-0.119-0.865-0.574-0.818c-0.23-0.311-0.631-0.047-0.938,0
		c-0.432-0.645-1.092-0.525-1.449,0.102c-0.871,0.252-1.582-0.148-2.453-0.254c-0.729,0.293-0.803,1.412-1.551,1.678
		c-0.768-0.199-1.57-0.373-2.348-0.566c-0.309,0.074-0.252,0.648-0.602,0.715c-0.322-0.148-0.645-0.334-1.035-0.389
		c-0.348,0.016-0.588,0.174-0.869,0.281C234.242,216.435,234.516,215.716,234.885,215.062z M218.703,242.479
		c0.287,0.518,0.57,1.014,0.535,1.559c-0.133,0.691-0.957,0.439-1.146,0.959c-0.312-0.24-0.588-0.512-0.816-0.854
		C217.771,243.597,218.227,243.03,218.703,242.479z M215.672,246.011c0.234-0.256,0.432-0.521,0.666-0.773
		c0.033,0.092,0.094,0.152,0.127,0.252c-0.189,0.299-0.504,0.455-0.826,0.592h-0.033
		C215.627,246.056,215.652,246.028,215.672,246.011z"/>
	<rect x="46.281" y="264.06" fill="#56823E" width="1145.575" height="209.572"/>
</g>
</svg>
