<?xml version="1.0" encoding="utf-8"?>
<!-- Generator: Adobe Illustrator 15.0.0, SVG Export Plug-In . SVG Version: 6.00 Build 0)  -->
<!DOCTYPE svg PUBLIC "-//W3C//DTD SVG 1.1//EN" "http://www.w3.org/Graphics/SVG/1.1/DTD/svg11.dtd">
<svg version="1.1" id="Layer_1" xmlns="http://www.w3.org/2000/svg" xmlns:xlink="http://www.w3.org/1999/xlink" x="0px" y="0px"
	 width="1271px" height="550px" viewBox="0 0 1271 550" enable-background="new 0 0 1271 550" xml:space="preserve">
<g>
	<path d="M1251.498,265.306v-46.143c-5.475,4.051-11.043,7.986-13.924,14.617c-0.127,1.406-0.373,2.684-0.461,4.178
		c-0.486,0.686-0.986,1.342-1.514,1.971c-0.199-1.771,0.168-3.9,0-5.621c-0.174-0.881-0.486-1.564-0.732-2.33
		c1.418-0.035,2.119-0.771,3.025-1.322c0.311-0.314,0.598-0.643,0.9-0.984c0.24-0.25,0.787-0.799,0.541-1.072
		c-0.383-0.014-0.541,0.672-0.844,0.936c-0.559,0.35-1.018,0.879-1.545,1.295c-0.246,0.119-0.645,0.234-0.844,0.156
		c0.455-0.33,0.885-0.672,1.273-1.029c0.256-0.449,0.957-0.734,0.932-1.314c-0.375-0.158-0.477,0.314-0.691,0.473
		c-0.271,0.127-0.512,0.32-0.787,0.484c-0.527,0.271-0.988,0.643-1.604,0.857c-0.357,0.158-0.771,0.193-1.305,0.164
		c-0.598-0.184-1.002-0.607-1.314-1.086c-0.559-1.051-0.844-2.334-1.121-3.645c0.088-3.705-1.801-5.834-3.592-7.871
		c-0.414-0.957-1.059-1.691-1.418-2.734c1.004,0.686,2.135,1.307,3.424,1.756c0.471,0.5,0.9,1.043,1.229,1.715
		c0.174,2.049,1.217,3.215,1.264,5.285v0.873c0.113,0.584,0.312,1.188,0.445,1.771c0.082,0.062,0.152,0.135,0.152,0.258
		c0.201,0.191,0.461,0.299,0.621,0.512c0.541,0.104,1.084,0.73,1.545,0.568c0.07-0.357-0.533-0.424-0.701-0.668
		c-0.117-0.242-0.332-0.369-0.461-0.57c-0.445-1.086-1.219-1.994-1.26-3.309c-0.256-1.219-0.443-2.486-0.715-3.793
		c-0.416-0.912-0.891-1.785-1.465-2.529c-1.172-1.107-2.992-1.627-4.135-2.756c-1.191-1.473-2.107-3.172-3.598-4.309
		c-0.041-0.17,0-0.207-0.111-0.408c-0.82-0.004-0.932-0.762-1.506-1.033c-1.52-0.566-3.693-0.781-5.629-0.822
		c-1.535-0.631-3.408-0.658-5.316-0.551c3.812-5.957,8.838-13.859,9.855-14.037c0.543-0.088,1.746-0.406,2.207-0.629
		c1.775-0.865,3.008-2.414,3.781-3.5c0.717-0.986,1.816-1.521,2.404-2.629c0.215-0.422,0.199-0.951,0.549-1.459
		c0.383-0.555,1.33-1.084,2.174-1.699c0.83-0.627,1.576-1.242,2.318-1.629c1.648-0.828,3.039-1.107,4.201-2.4
		c0.6-0.645,0.656-1.352,0.145-1.748c-0.619-0.488-2.795,0.291-3.486,0.557c-0.932,0.363-1.975,1.012-3.32,1.441
		c-0.502,0.166-1.074,0.336-1.721,0.678c-0.342,0.203-1.242,0.902-1.447,0.779c-0.082-0.041-0.271-0.879-0.312-0.979
		c-0.174-0.385-0.414-0.658-0.373-0.963c0.016-0.549,0.844-1.422,1.146-2.021c1.115-2.188,2.389-2.979,4.109-4.695
		c0.787-0.777,2.236-2.215,1.98-3.471c-0.104-0.451-0.619-0.908-1.336-0.943c-0.916-0.021-1.648,0.973-2.062,1.342
		c-0.486,0.438-1.131,0.957-1.73,1.58c-0.803,0.814-1.98,2.1-3.127,2.564c-1.145,0.449-0.471-0.607-0.127-1.484
		c0.834-2.053,1.775-2.502,3.184-4.266c0.756-0.957,2.574-3.814,1.068-4.545c-1.131-0.557-2.23,0.602-2.66,1.029
		s-0.758,1.051-1.289,1.578c-0.773,0.752-2.994,2.936-3.424,2.602c-0.031-0.02,0.717-1.287,1.361-2.121
		c0.311-0.416,1.16-1.373,1.561-2.23c0.502-1.076,0.686-2.629-0.543-2.871c-1.463-0.279-2.754,1.879-3.566,2.844
		c-0.518,0.643-0.947,1.25-1.408,1.807c-0.455,0.607-1.258,1.094-1.561,1.65c-0.383,0.723-0.328,1.1-0.557,1.844
		c-0.072,0.213-0.59,2.043-0.805,1.449c-0.582-1.521-1.959-4.729-4.523-3.986c-1.648,0.465,0.098,2.807,0.199,4.145
		c0.088,0.893-0.271,1.393-0.23,2.207c0.047,0.771,0.486,1.928,0.43,2.893c-0.127,1.529-1.074,2.836-1.242,4.164
		c-0.104,1.064,0.342,2.172,0.312,3.344c0,0.83-0.328,1.779-0.656,2.502c-1.121,2.371-6.949,8.936-8.396,10.773
		c-3.838,4.85-8.408,9.244-12.906,13.557c-2.502,2.406-4.555,5.193-6.531,8.029c-1.504,2.129-2.951,5.408-4.896,7.168
		c-1.545,1.369-3.367,2.457-5.184,3.562c-2.293-10.385-8.209-17.131-12.682-25.375c0.174-0.814-0.357-0.93-0.225-1.756
		c-0.316-0.814-1.678-1.58-1.52-2.195c0.701-1.049,1.305-2.729,0.957-4.293c4.17-7.764,7.062-17.15,12.705-23.166
		c0.621-0.699,1.648-1.092,2.309-1.787c0.805-0.807,1.188-2.092,2.047-3.041c1.248-1.379,2.994-2.432,3.982-3.738
		c0.674-0.928,0.859-2.143,1.406-3.029c0.686-1.084,2.145-1.785,2.461-2.855c0.375-1.08,0.461-4.014-2.006-3.787
		c-1.719,0.162-1.949,3.193-3.336,3.293c-6.561-2.951,1.045-16.68-3.91-17.41c-1.289,0.873-0.189,4.289-0.904,5.809
		c-0.473-4.664-0.227-10.717-3.951-11.221c-1.02,0.184-0.072,1.049-0.199,1.498c-0.605-0.371-1.393-1.678-2.166-0.791
		c0.359,4.793,2.58,7.627,1.648,12.551c-2.006-2.23-6.1-7.072-7.66-5.551c0.342,1.863,2.562,2.721,3.766,4.377
		c0.512,0.68,1.014,1.688,1.586,2.523c2.021,3.023,1.305,4.979,0.891,9.385c-0.256,2.752-0.143,5.781-0.66,7.275
		c-1.027,3.006-3.607,6.092-5.715,8.922c-3.051,4.027-6.49,7.514-9.842,10.988c-0.543-0.945-1.084-1.879-1.801-2.652
		c-0.604-2.328-1.289-4.551-2.195-6.58c-0.369-2.428-0.711-4.865-2.646-5.707c-3.08,2.951,0.113,7.887-0.189,11.4
		c-1.002-1.75-3.576-0.441-3.75,1.33c-0.543-0.551-0.533-1.223-1.863-0.992c-0.328,0.199-1.529,0.414-1.576,1.385
		c-0.686-0.344-1.52-0.014-1.648,0.986c-0.971,0.016-2.221,0.242-1.959,1.93c0.502,3.336,2.963,8.357,5.512,9.459
		c0.547,0.742,1.033,1.568,1.535,2.385c-0.041,0.041-0.072,0.092-0.113,0.137c-1.709-0.25-3.008-0.965-4.975-0.922
		c0.416,4.199,0.129,7.756-0.512,10.957c-0.301,0.043-0.604,0.102-0.92,0.059c-0.441-0.043-1.029-0.564-1.873-0.672
		c-0.486-0.043-1.576,0.484-1.721,0c-0.404-1.465,1.004-2.338,1.117-2.645c-0.502,0.158-0.846,0.43-1.275,1.002
		c-0.174,0.242-0.701,1.291-1.201,1.084c-0.473-0.184-0.375-0.863-0.344-1.287c0.072-0.762-1.033,2.172-1.561,1.73
		c-0.42-0.371,0.654-1.758,0.127-2.156c-0.244,0.227-0.244,1.014-0.629,1.213c-0.189,0.086-0.404-0.172-0.518-0.057
		c-0.199,0.23-0.199,0.799-0.398,1.084c-0.834,1.287-1.852,1.018-3.127,0.104c-0.312-0.215-2.562-1.572-1.504-0.559
		c0.246,0.242,1.049,1.059,0.834,1.32c-0.129,0.158-1.592-0.578-1.576-0.592c-0.43,0.143,0.6,0.58,0.455,0.787
		c-0.24,0.334-0.543-0.1-0.771,0.1c-0.154,0.127,1.549,0.742,0.961,1.25c-0.471,0.393-1.475-0.785-2.189-0.322
		c-0.133,0.057,0.367,0.648,0.256,1.201c-0.199,0.941-1.219,0.877-2.207,1.215c-0.541,0.186-0.945,0.57-1.473,0.92
		c-0.246,0.15-0.805,0.449-1.033,0.723c-0.701,0.799,0.701-0.459,1.16,0.172c0.16,0.221-0.588,1.541-0.746,1.715
		c-0.512,0.641-1.244,0.756-1.961,1.318c-0.102,0.08-0.215,0.238-0.316,0.354c-0.025-4.109-1.014-8.346-3.193-12.318
		c-6.387-11.729-20.137-16.602-30.668-10.879c-0.154,0.086-0.271,0.207-0.43,0.293c-1.373-2.402-2.662-4.637-3.594-6.523
		c-6.59-13.33-7.521-13.193-3.039-18.822c1.232-1.529,1.162-4.244,2.139-5.953c0.871-1.514,2.59-2.406,3.506-3.914
		c1.607-2.678-0.701-1.844-2.303-1.436c-3.439,0.814-4.857,5.615-5.773,5.807c-3.127,0.703-0.604-12.008-4.043-16.988
		c-0.311-0.463-1.703-0.277-1.719,0.303c-0.184,4.006,0.66,8.049,0.23,12.086c-1.934-4.264-3.48-7.178-6.674-11.014
		c-3.264-3.896-6.217-2.121-2.922,1.949c2.166,2.648,3.783,5.436,5.057,9.344c-3.939-1.6-6.059-5.793-9.498-7.771
		c-0.957-0.559-3.91,0.234-3.193,1.1c1.648,1.906,7.805,5.93,8.664,9.715c-3.781-1.129-5.598-3.627-9.037-4.529
		c-0.629-0.17-1.648,1.459-1.146,1.859c3.08,2.471,10.244,4.697,11.488,8.557c2.938,9.086,2.406-3.193,12.994,35.668
		c0.086,0.209,0.168,0.365,0.24,0.559c-0.584,1.463-1.029,3-1.316,4.592v0.016c-3.924-7.387-15.51-13.986-21.773-11.559
		c-0.4-0.529-0.846-1.029-1.219-1.572c-3.264-4.658-7.373-10.416-9.037-15.889c-0.215-0.742-0.369-1.742-0.312-2.557
		c0.129-1.172,0.656-2.236,0.672-3.271c0.014-1.355-0.672-2.758-0.615-4.287c0.057-0.957,0.588-2.072,0.686-2.826
		c0.145-0.814-0.098-1.359,0.057-2.217c0.246-1.307,2.037-3.465,0.66-4.113c-2.148-0.988-3.725,2.041-4.396,3.486
		c-0.256,0.572-0.5-1.314-0.531-1.529c-0.129-0.742-0.025-1.123-0.271-1.873c-0.215-0.6-0.844-1.164-1.188-1.814
		c-0.332-0.6-0.645-1.242-1.033-1.936c-0.6-1.035-1.475-3.33-2.764-3.207c-1.131,0.115-1.131,1.68-0.814,2.787
		c0.256,0.898,0.871,1.957,1.102,2.387c0.471,0.898,0.973,2.219,0.961,2.248c-0.42,0.285-2.107-2.121-2.682-2.936
		c-0.414-0.586-0.645-1.242-0.957-1.723c-0.332-0.465-1.16-1.721-2.195-1.291c-1.428,0.541-0.152,3.578,0.42,4.613
		c1.029,1.914,1.787,2.459,2.262,4.572c0.23,0.914,0.672,2.049-0.271,1.457c-0.961-0.572-1.82-1.986-2.436-2.863
		c-0.43-0.68-0.945-1.271-1.32-1.736c-0.326-0.428-0.844-1.492-1.646-1.559c-0.645-0.057-1.131,0.352-1.26,0.777
		c-0.373,1.223,0.732,2.811,1.305,3.674c1.305,1.877,2.334,2.795,3.066,5.078c0.199,0.631,0.812,1.6,0.787,2.145
		c-0.016,0.314-0.271,0.543-0.445,0.928c-0.057,0.086-0.326,0.887-0.389,0.922c-0.184,0.107-0.9-0.678-1.188-0.908
		c-0.516-0.426-1.002-0.648-1.402-0.863c-1.119-0.578-1.965-1.35-2.752-1.807c-0.559-0.32-2.375-1.33-2.979-0.908
		c-0.486,0.336-0.486,1.051-0.072,1.758c0.906,1.406,2.062,1.828,3.408,2.82c0.619,0.473,1.178,1.152,1.848,1.873
		c0.66,0.715,1.408,1.32,1.678,1.922c0.256,0.541,0.17,1.064,0.312,1.514c0.42,1.152,1.305,1.807,1.822,2.852
		c0.543,1.172,1.447,2.82,2.891,3.885c0.389,0.258,1.465,0.551,1.848,0.873c0.922,0.734,2.205,3.771,2.779,4.979
		c1.551,3.293,2.953,6.623,4.385,9.936c-1.52,0.188-2.891,0.494-3.781,1.215c-3.238,2.637-5.67,5.916-7.518,9.238
		c0.215-9.451,2.23-14.689-1.137-20.566c-3.781-6.607-18.934-21.674-25.479-28.162c-6.561-6.449-10.111-11.143-14.021-13.029
		c-3.91-1.914-6.633-2.258-6.633-2.258s-4.299-2.4-5.041-0.145c0,0-1.359-0.146-1.646,2.16c0,0-3.525,2.398-2.221,3.021
		c0,0-2.826,0.592-1.951,4.465c0.902,3.891,1.418,7.25,6.848,7.93c5.445,0.686,11.043-2.156,16.959,5.643
		c5.947,7.803,12.604,23.012,16.012,25.318c3.398,2.314,3.598,4.229,2.922,9.801c-0.699,5.57-1.975,19.545-2.562,24.189
		c-0.574,4.643-4.365,5.584-4.953,10.242c-0.047,0.416-0.201,0.85-0.344,1.279h-7.307c2.881-1.314,4.553-4.365,4.553-4.365
		c-1.074,1.803-2.818-1.164-4.467-5.186c0.143-0.508,0.357-1.258,0.588-2.113c1.889,0.307,3.895-0.816,6.93-2.244
		c4.785-2.223-2.922-7.08,0.818-6.428c3.711,0.627,3.137-5.803,3.137-5.803c-0.316,3.844-6.172,3.83-8.447-4.229
		c-1.121-3.986-3.916-6.615-6.48-8.266c-0.199-0.395-0.414-0.779-0.645-1.121c3.439-1.414,0.932-7.48,0.932-7.48
		c1.146,3.693-0.543,5.016-3.25,5.166c-0.07-0.037-0.174-0.088-0.256-0.129c-2.48-0.965-5.373-2.807-8.939-3.652
		c0.016-0.449,0.174-0.777,0.502-0.885c3.266-1.029,0.676-6.092,0.676-6.092c-1.377,3.414-4.186,2.584-6.561,2.664
		c-2.395,0.049-2.109,3.885-4.842,4.949c-2.738,1.059-6.32-1.172-7.682-2.428c-1.371-1.242-2.404-1.445-4.523,3.014
		c-1.131,2.387-2.252,1.656-3.064,0.479c0.342-0.549,0.803-1.021,1.1-1.586c1.289-2.506,1.92-6.973,5.389-6.85
		c-2.881,3.828,4.498,2.621,4.324,0.477c-0.23-2.842,3.797-2.35,5.588-3.721c1.832-1.465-2.467-4.344-3.551-5.857
		c-2.221-3.109-4.283-0.48-6.551-2.365c1.576-2.613,9.713-11.795,6.105-14.717c-6.689,8.91-14.211,16.809-19.666,26.461
		c-0.518,0.906-1.049,1.801-1.561,2.701c-0.174-0.508-0.318-1.037-0.303-1.621c-0.9-2.096-0.947-4.502-1.934-6.488
		c-0.158-0.512,0.373-1.707-0.486-1.941c-3.08-8.803-6.033-17.66-9.299-26.363c0.23-6.17-1.434-11.742-3.09-17.242l0.24-0.236
		l0.332-12.268c0-1.178-0.707-2.221-1.479-2.986c-0.742-0.143-1.746-0.285-2.176,0.572c-0.859,2.594-0.613,5.596-1.473,8.201
		c-0.43,0.029-0.764-0.248-1.035-0.586c-0.531-0.42-1.473-0.463-2.047-0.086c-1.576,2.516-5.229,0.945-6.273,3.836l-0.316-0.334
		c-1.434-3.602-2.908-6.723-4.238-10.33c-0.66-0.893-0.66-2.83-2.379-2.4c-0.701,0.186-1.475,0.564-1.848,1.271
		c-0.23,3.986,1.617,7.344,2.523,10.979c0.43,1.238,1.658,3.088,0.326,4.131c0.041,2.223-1.273,4.072-1.145,6.25l2.865,6.674
		c2.594,2.264,5.5,4.213,7.723,6.814c1.1,3.086,2.088,6.158,2.66,9.43c0.572,7.002,2.477,13.586,2.707,20.588
		c1.146,2.801,1.893,5.729,2.85,8.631c-0.342,1.314-0.645,2.801-1.602,3.758c-0.23-0.402-0.414-0.83-0.572-1.26
		c0.086-0.043,0.127-0.143,0.23-0.1v-0.463c-1.377-1.188-1.424-3.322-3.512-3.508c0-1.516-1.662-1.33-2.521-1.938
		c0.244-1.135-1.648-0.52-1.131-1.855c-0.43-0.852-1.475-0.236-2.047-0.551c-0.104-0.301,0.24-1.143-0.477-1.242
		c-1.801,0.1-3.521-1.229-5.127,0.1c0-2.609-2.088,0.285-2.852-0.906c-0.717-0.045-1.131,0.535-1.719,0.807
		c-0.129-0.387-0.082-0.895-0.559-1.137c-0.414-0.135-0.613,0.242-0.916,0.484c-0.973-0.449-1.791,0.652-2.59,0.752
		c-0.332-0.672,0.227-2.086-0.904-2.037c-0.957,0.836-0.574,2.18-0.957,3.322c-0.477,0.271-0.477,0.742-0.414,1.215
		c-0.287,1.43-1.146-0.328-1.854,0.234c-0.098,0.387,0.189,0.623,0.23,0.902c-0.088,0.1-0.168,0.119-0.256,0.162
		c-2.953-2.783-5.127-5.062-5.246-5.627c-0.184-1.045-1.617-5.924-3.576-8.703c-0.016-0.127-0.047-0.256-0.047-0.385
		c0.047-2.936-4.811-3.844-6.928-5.195c4.682-2.498,19.65-4.285,20.607-9.914c-5.057-1.914-13.061,1.178-17.932,2.688
		c-2.994,0.928-6.059,1.6-9.068,2.506c-1.949,0.58-5.957,3.287-7.777,2.549c-4.668-1.934-11.131,2.674-13.418,6.402
		c-1.693,2.75-4.76,4.752-7.969,6.566c0.133-0.488,0.23-0.973,0.359-1.453c0.818-2.82,1.848-4.447-1.061-6.084
		c-1.002-0.564-1.633-1.279-2.277-1.723c-1.816-1.287-2.262,0.58-2.148-2.287c0.061-1.713-0.082-3.656-2.334-2.828
		c-0.389-3.398-0.629-5.486,0.145-8.85c0.715-3.137-0.041-6.438-1.117-9.408c-1.463-3.975,1.373-11.201-1.551-14.033
		c-2.061-0.184-2.158,7.188-2.477,8.867c-3.02,0.422-3.924-4.494-4.783-6.508c-0.6-1.414-1.244-2.871-2.15-4.135
		c-1.33-1.881-1.355-0.223-2.533-0.639c-0.988-0.342-0.414-2.836-2.174-2.514c-0.391,0.072-1.418,1.551-1.408,1.557
		c-2.65-0.707-1.475,2.945-1.299,4.217c0.143,0.957,0.311,1.863,0.512,2.744c-0.215-0.357-0.328-0.795-0.656-1.096
		c-1.75,1.857-1.703,4.895-1.346,8.109c-1.766-0.092-3.898,0.801-2.268,1.586c1.004,0.486,1.879,1.285,2.723,2.158
		c0.445,3.744,0.59,7.234-1.949,8.906c-1.314-0.178-2.707-0.334-4.008-0.492c-1.191-0.93-2.148-2.102-3.541-2.82
		c-1.1-0.059-4.195-0.938-4.508,0.457c0.742,4.77,6.848,5.734,9.938,9.201c0.859,0.977,1.188,2.064,2.119,3.064
		c1.576,1.092,3.781,1.613,5.916,2.129c0.932,10.314-3.02,18.158-4.467,27.896c-3.439,2.092-6.658,4.463-9.428,7.393
		c-0.342,0-0.67-0.008-1.131,0.029c-2.293,0.135-4.078,2.842-6.504,1.627c-1.428-0.713-1.744-1.512-2.875-2.469
		c-3.209-2.744-5.83-4.088-9.34-4.717c-1.32-2.066-2.779-3.957-4.027-6.029c0.205-0.07,0.547-0.178,0.588-0.342
		c-0.24-0.508-0.66-0.508-1.059-0.551c-2.318-1.322-4.482-3.121-7.293-3.035c-1.217-0.623-2.604-0.83-3.98-1.029
		c-0.629-0.451-1.346-0.715-2.047-1c0.67-0.822,0.945-1.938,0.771-3.115c-0.23-1.514,1.721-8.115-0.986-7.787
		c-1.592-3.207-0.645-9.143-0.846-12.787c-0.102-1.844,0.145-3.936-1.646-5.1c-0.676-0.443-4.299-0.143-4.34-0.209
		c-0.764-1.148,0.328-2.121-1.248-3.412c-1.275-1.037-3.139-1.58-4.254-2.645c-2.451-2.322-6.617-0.201-9.309,0.35
		c-3.27,0.672-7.262,2.457-8.908,5.572c-1.02,1.943-3.271,3.621-3.854,5.701c-0.43,1.564,0.654,2.771,0.9,4.242
		c0.316,1.916,0.23,4.252,0.256,6.328c-0.717,0.346-1.387,0.623-2.246,1.123c-2.309-0.285-4.457-0.285-6.68-0.4
		c-0.541,0.357-1.074,0.736-1.605,1.107c0.797-2.18,1.693-4.32,2.354-6.543c1.879-9.717,6.807-18.145,9.641-27.459
		c3.322-2.803,3.424-7.66,2.191-11.512c-0.271-1.963-2.908-0.691-3.107-2.82c-2.021-0.027-2.777-2.943-5.127-2.029
		c-1.393-0.842-3.168-0.1-4.504,0.379c-0.588-0.707-1.258-1.18-2.139-1.121c-1.443,0.369-0.518,2.186-1.178,3.193
		c-0.266,4.105-1.172,8.615,0.271,12.822c-1.074,5.373-2.354,10.736-4.498,15.732c-3.607,6.27-5.664,13.156-8.311,19.807
		c-1.463-0.027-2.84,0.123-4.027,0.58c0.199,1.223,1.146,2.236,2.436,3.129c-1.355,2.986-2.891,5.885-4.877,8.617
		c-1.105,5.242-4.145,9.701-7.234,14.156c-2.605-1.164-6.209-1.85-8.844-0.764c-0.588,0.252-4.529-1.465-4.539-1.508
		c-0.303-0.715,1.582-4.285,1.545-5.385c-0.076-2.045-1.002-3.871-1.418-5.846c-0.648-3.084-0.926-5.758-1.201-9
		c-0.467-5.271-1.383-10.988-0.824-15.889c0.266-2.213,0.164-4.971,1.08-7.041c0.9-2.045,3.023-3.303,4.482-4.916
		c2.795-3.064,5.18-7.223,6.217-11.246c0.268-1.027,1.654-2.441,1.633-3.328c-0.07-2.264-3.607,0.402-3.895,0.715
		c-1.82,2.029-2.189,4.814-4.514,6.602c-2.562-4.373,3.812-12.725-0.66-17.104c-2.262-2.221-3.305,8.717-2.875,9.467
		c-1.592-2.709,1.352-9.201-1.664-11.424c-3.766-0.957-1.361,7.223-2.291,8.744c0.07-0.115-0.287-3.5-0.215-3.9
		c0.215-1.295,0.357-2.057-1.08-2.344c-4.432-0.336-0.451,12.66-2.789,13.188c-0.477,0.092-1.275-8.73-1.643-9.33
		c-2.053-3.328-2.365,6.031-2.365,6.115c0.057,4.486-0.26,8.873-0.26,13.389c0,3.428,1.375,6.514,0.562,9.916
		c-0.18,0.742-0.477,3.498-1.105,3.998c-1.02,0.107-2.621-0.512-2.877,0.965c-0.348,1.951,0.83,6.523-1.498,6.736
		c-1.326,0.131-2.846,0.889-4.289,1.572c-1.049-1.807-2.094-3.615-3.121-5.438c-5.574-9.887-13.225-17.943-20.055-26.938
		c-3.67,2.906,4.641,12.322,6.217,14.951c-2.293,1.93-4.385-0.756-6.678,2.416c-1.086,1.514-5.471,4.449-3.594,5.949
		c1.818,1.438,5.916,0.908,5.672,3.809c-0.17,2.18,7.363,3.43,4.426-0.5c3.51-0.129,4.17,4.428,5.5,7
		c0.814,1.572,1.746,3.072,2.979,4.357c2.381,0.416,2.867,0.516,3.639,2.846c0.057,0.176,0.092,0.354,0.148,0.527
		c-0.562-0.758-1.156-1.58-2.104-1.715c-2.291-0.551-4.283,1.449-5.777,2.359c-0.107-0.203-0.322-0.203-0.48-0.281
		c-0.645-0.68-0.477-1.479-0.43-2.271c-0.215-0.113-0.332,0.1-0.486,0.193c-0.316-0.266-0.695-0.85-1.162-0.492
		c0.158,1.092-0.127,1.941-0.768,2.672c-0.838,0.807-1.969,0.887-2.941,0.285c-2.836-0.971-6.316-0.213-8.225,2.285
		c-2.262,0.33-3.695,2.357-5.797,2.943c-0.066,0.021-0.098,0.07-0.154,0.094c-0.041-1.736-0.256-3.537-0.875-5.508
		c-0.613-1.199-0.584-3.201-2.502-2.902c1.08,3.645,1.529,7.096,1.443,10.305c-0.486,1.104-0.65,2.434-1.01,3.57
		c-0.43-0.129-0.715-0.08-0.9,0.057c-0.312-0.506-0.572-1.029-0.875-1.529c0.467-2.756,0.451-5.742-0.838-9.023
		c-0.344-0.678-0.646-1.465-1.061-2.033c0.697-2.695-0.531-6.238-1.934-8.93c-1.004,1.576,0.209,4.455-0.129,6.436
		c0.221,2.137-0.055,3.98-0.107,5.949c-0.102-0.207-0.199-0.412-0.301-0.611c0.086-0.33,0.143-0.658,0.102-0.988
		c-0.553-1.855-0.84-4.17-1.877-5.215c-0.594,0.016-0.697,0.314-0.66,0.695c-1.311-3.188-2.529-6.41-3.609-9.697
		c-1.832-5.9,4.77-8.629,5.609-13.822c0.967-2.291-0.951-3.658-1.93-5.393c-0.742-2.072,0.174-5-1.766-6.5
		c-1.811,0.627-2.037-1.602-3.586-1.545c-0.748,0.273-0.912,1.18-1.172,1.807c-1.443,0.537-2.57,2.195-3.752,3.195l0.553,0.664
		c0,2.18-1.561,3.764-1.191,6.135c-4.396,6.238,0.604,13.061,0.639,19.732c0,7.521,1.289,14.553,2.779,21.459
		c-2.205,1.85-5.256,3.156-9.309,3.717c-1.607,0.227-3.229,0.113-4.34-1.021c0.865-0.424,3.961-0.496,3.961-1.908
		c-2.057-0.959-5.061-0.402-7.145-1.371c-0.553-0.1-0.859-0.596-1.432-0.688c-5.656-7.035-10.727-15.059-19.359-17.109
		c-1.822-0.092-3.92,0.236-5.691,0.023c-0.158,0.441-1.074,0.428-1.217,0.857c-5.057,0.643-10.91,1.119-13.424,4.67
		c-1.873,2.787-1.975,6.666-2.533,10.236c-0.516,0.453-0.947,0.965-0.986,1.695c-0.773,0.227-1.121,0.742-2.078,0.879
		c-0.904,0.363-1.396-0.838-2.006-0.195c0.701,2.117,4.201,1.203,5.67-0.027c-0.328,1.521-1.469,2.615-3.02,3.443
		c-0.189,0.273,0.016,0.773,0.113,1.215c-0.527,0.17-0.789-0.115-1.377,0.17c0.426,1.502,2.158,0.83,3.566,0.688
		c-0.328,2.814-2.277,4.701-1.023,8.443c2.553,5.029,5.193,9.865,8.602,13.438c1.008,2.377,1.607,5.051,1.131,7.15
		c-0.07,0.008-0.158,0.008-0.23,0.016c-0.418-0.98-0.721-2.053-1.488-2.76c-1.074-1.184-2.732-1.27-4.252-1.057
		c-0.186,0.051-0.271-0.043-0.43-0.027c-1.879-2.014-3.869-3.936-5.557-6.135c-1.023-1.346-1.764-2.795-2.42-4.289
		c0.184-0.393,0.373-0.785,0.457-1.215c0.658-2.207-1.906-4.25,0.414-5.893c-0.143-1.729-1.547-2.656-1.66-4.393
		c-0.088-1.223-0.617-2.594,0.328-3.566c0-0.727-1.072-0.277-0.988-1.156c0.502-1.008,0.129-2.373-0.314-3.414
		c-0.299-1.309-1.906-0.785-2.621-1.715c0.428-0.83,1.084-1.758,1.125-2.76c3.244-3.17,7.326-6.219,9.373-8.342
		c5.758-5.98,12.076-12.975,19.496-16.93c6.295-3.344,11.115-6.074,16.555-10.982c3.584-3.936-1.729-2.885-3.191-1.391
		c1.734-2.459,6.99-2.736,6.447-6.674c-1.396-1.543-6.213,2.672-10.373,4.086c1.219-2.277,3.121-4.016,4.922-5.83
		c1.598-1.576,3.271-2.885,4.096-5.242c-3.246-4.129-9.877,8.215-12.963,8.236c1.166-2.422,3.264-4.135,4.82-6.35
		c0.803-1.16,1.346-2.617,1.744-3.959c-1.744-1.93-3.623,0.943-4.553,2.029c-7.719-3.721-17.697,21.744-22.281,26.303
		c-7.773,7.73-17.4,13.131-26.418,19.275c-0.959-0.814-2.02-1.51-3.221-1.656c0.096-0.889,1.074-2.346-0.475-2.48
		c-0.242,0.293-0.273,0.666-0.416,0.957c-1.547,1.936-3.68-0.086-5.414-0.664c-2.15,0.551-4.699,0.957-6.516,2.143
		c-0.904,0.93-1.861,1.064-2.838,0.994c2.5-5.523,4.818-11.139,6.574-16.967c1.879-9.717,6.807-18.145,9.633-27.461
		c3.324-2.803,3.432-7.658,2.193-11.51c-0.266-1.963-2.902-0.691-3.109-2.82c-2.018-0.029-2.77-2.943-5.129-2.029
		c-1.383-0.842-3.158-0.1-4.496,0.377c-0.586-0.707-1.262-1.178-2.143-1.119c-1.438,0.369-0.516,2.184-1.174,3.191
		c-0.264,4.107-1.174,8.617,0.273,12.824c-1.074,5.371-2.359,10.736-4.498,15.73c-5.938,10.309-7.65,22.318-14.783,32.133
		c-1.639,7.801-7.568,13.879-11.545,20.766c-0.387,0.992-0.859,1.957-1.367,2.91c0.006-0.123,0.006-0.266-0.031-0.4
		c-0.465,0.686-1.266,1.648-2.297,1.715c-0.844-0.902-2.363-1.287-2.83-2.359l0.896-0.473h-0.359
		c-0.326-0.27,0.031-0.527,0.115-0.799l-1.404-0.121c-0.836-1.207-0.957-2.816-1.445-4.207c-1.072-2.5-4.004-2.873-6.152-2.922
		c-0.867-0.238-1.396-0.631-1.754-1.115c0.285-0.521,0.545-1.029,0.852-1.549c4.934-8.502,7.914-17.781,12.396-26.463
		c1.994-3.887,3.496-9.43,6.561-12.488c2.684-2.641,6.318-3.998,9.34-6.186c4.84-3.5,3.109-6.691,2.09-11.914
		c-0.602-3.094-3.264-3.559-5.951-4.9c-2.957-1.457-4.877,0.143-7.742,1.314c0.23,0.871,0.752,1.471,1.576,1.799
		c-0.789,0.215-1.92,1.33-1.576,2.256c-0.148,0.107-2.254-0.869-3.43-0.326c-3.43,1.564-3.301,3.105-3.131,6.6
		c0.174,3.459,0.803,5.744-0.406,9.066c-1.16,3.193-2.66,6.279-4.436,9.172c-4.432,7.367-10.383,13.594-15.725,20.281
		c-0.395,0.051-0.789,0.115-1.117,0.178c-1.348-0.305-0.547-2.6-2.035-3.449c-1.188-0.5-2.641-0.221-3.752,0.258
		c-2.408,1.285-2.73-2.516-4.871-2.836c-2.293-0.551-4.283,1.449-5.777,2.357c-0.107-0.201-0.322-0.201-0.482-0.279
		c-0.645-0.678-0.473-1.479-0.43-2.273c-0.215-0.111-0.326,0.104-0.486,0.195c-0.316-0.266-0.695-0.85-1.16-0.492
		c0.158,1.092-0.129,1.941-0.766,2.672c-0.836,0.807-1.971,0.885-2.945,0.285c-2.834-0.973-6.314-0.215-8.221,2.285
		c-2.266,0.328-3.695,2.357-5.801,2.941c-2.564,0.758-2.451,3.518-3.096,5.559c-0.428-0.127-0.715-0.078-0.9,0.057
		c-4.898-7.863-8.424-16.236-11.287-24.945c-0.016-0.049-0.008-0.092-0.027-0.143c0.191-0.887,0.256-1.699-0.23-2.328
		c0.062-0.758,0.258-1.457,0.553-2.129c0.895-0.742,1.66-1.686,1.74-2.879c0.1-0.135,0.199-0.266,0.301-0.4
		c0.213,0.008,0.471,0.301,0.686,0.223c1.09-0.373,0.967-1.973,1.863-2.344c0.457-0.873,0.445-1.658,0.303-2.43
		c0.168-0.457,0.342-0.9,0.418-1.393c0.969-2.293-0.951-3.658-1.924-5.393c-0.445-1.229-0.346-2.736-0.561-4.096
		c-0.156-0.928-0.414-1.799-1.209-2.406c-0.195,0.064-0.309-0.008-0.467,0c-0.064-0.158-0.127-0.314-0.326-0.4
		c-0.461,0.787-0.574-0.342-1.062-0.156c-0.008,0.006-0.014,0.006-0.014,0.014c-0.486-0.473-0.932-1.029-1.719-1
		c-0.43,0.158-0.652,0.516-0.824,0.92c-1.023-0.969-2.941-0.92-3.459-2.291c-1.232-0.688-2.68-0.215-3.904-1.029
		c-1.652,0.814-2.361-1.814-4.037-1.008c-1.332,0.807-2.4-0.992-3.676,0.365c-0.48-0.484-1.246-0.83-1.975-0.73
		c-0.824,0.4-1.213,1.561-1.92,2.129c-0.559-0.691-1.432-0.783-2.25-0.783c-2.248,0.307-1.904,3.729-4.484,3.686
		c-0.844,2.564-2.332,4.785-4.662,5.957c-0.93,1.23-1.381,2.83-1.576,4.287c-0.951,0.656-1.695,2.07-1.576,3.258
		c1.039,1.973-1.416,3.691-0.326,5.586c-2.143,1.271,0.506,2.986,0.465,4.701c0.215,1.084-0.389,2.514,0.543,3.229
		c0.051,0.541-0.307,1.244,0.188,1.629c0.801-0.115,0.607,1.25,0.729,1.863c0.246,0.973-1.816,1.773-0.586,2.545
		c0.703-0.408,1.445-0.98,2.178-1.537c-0.016,0.385-0.029,0.742-0.029,1.129c-0.07,2.879,1.562,5.057,1.031,7.686
		c-0.445,2.172,0.23,3.486-1.734,4.889c-1.473,1.027-3.127,1.771-4.754,2.498c-0.143-3.443-1.104-6.758-2.93-9.686
		c-0.785-1.279-1.717-2.473-2.727-3.572c-0.053-1.959-0.029-3.9-0.016-5.857c0.016-3.479,0.115-7.117-0.857-10.48
		c-0.418-1.406-1.07-2.779-2.051-3.914c1.311-2.137,1.943-3.424,3.832-5.25c5.357-5.203,10.492-10.646,16.221-15.459
		c2.895-2.43,5.947-4.695,9.168-6.645c2.105-1.287,2.967-0.443,5.271-0.873c2.248-0.428,4.297-2.283,6.445-1.041
		c3.193,1.844,4.012,2.893,7.707,1.684c1.066-0.355,1.971-0.312,2.52,0.814c1.619-0.869,3.289-1.756,4.52-3.141
		c-0.264-3.188,1.338-5.889,1.584-8.99c-2.17-2.713-5.129-6.477-7.822-8.283c-3.277-2.18-14.953,6.756-18.334,8.283
		c-3.238,1.23-5.982,3.387-8.809,5.332c-3.703,2.562-7.814,4.414-11.803,6.471c-6.92,3.58-13.721,7.803-19.826,12.604
		c-1.518,1.199-2.971,2.43-4.379,3.729c-1.812,1.672-1.664,2.957-2.523,5.143c-0.1,4.672-0.602,9.303-1.268,13.916
		c-1.098,7.688-2.52,15.346-2.586,23.133c-0.014,4.014,0.316,7.857,1.393,11.729c0.27,1.002,0.572,1.693,0.729,2.387
		c-0.035,0.521-0.084,1.037-0.084,1.578c-0.334,0.244-0.096,0.836-0.375,1.123c-0.623-0.914,0.359-2.045,0.209-3.121
		c-0.525-1.768-0.797-3.98-1.785-4.967c-0.9,0.008-0.744,0.629-0.516,1.301c-1.506-0.965-2.492-3.986-4.225-3.836
		c-0.848,0.648,0.299,2.105,0.703,2.721c0.256,1.016,0.521,2.002,0.773,3.014c0.326,4.475-0.604,8.445-3.16,11.404
		c-2.729-3.871-4.029-9.029-7.787-12.131c-7.717-6.357-13.918-14.244-19.619-22.432c1.016-0.801,2.031-1.615,3.086-2.559
		c3.416-3.771-1.656-2.758-3.051-1.342c1.662-2.342,6.682-2.607,6.156-6.357c-1.338-1.48-5.928,2.543-9.902,3.885
		c1.168-2.172,2.979-3.828,4.699-5.557c1.529-1.508,3.121-2.758,3.908-5.01c-2.773-3.527-8.121,5.502-11.33,7.445
		c-0.127-0.18-0.25-0.365-0.373-0.549c1.146-1.795,2.68-3.316,3.941-5.094c0.756-1.109,1.281-2.494,1.66-3.781
		c-1.66-1.842-3.467,0.902-4.352,1.943c-1.621-0.785-3.332-0.172-5.072,1.215c-1.512-2.256-2.979-4.543-4.541-6.76
		c-1.855-2.641-4.555-2.557-6.053-5.643c-1.51-3.102-2.092-6.584-2.092-10c-4.125,0.85-2.514,6.701-1.781,9.4
		c-3.295,3.537-6.734,7.902-5.486,13.061c1.674-0.346,2.936-1.402,3.307-3.109c0.416-1.834,2.988-2.486,5.021-3.336
		c0.172,1.271-1.025,1.244-1.746,1.76c-1.154,0.842,0.092,3.463,0.422,4.412c1.102,3.088-1.418,2.637-3.236,4.574
		c-3.182,3.342,1.947,2.691,3.551,2.871c1.52,1.199,3.037,2.342,4.656,3.271c-3.322,5.615-6.281,11.465-8.223,13.395
		c-5.328,5.293-11.582,9.414-17.859,13.488c-2.48-12.996-6.219-25.404-8.727-38.387c-0.086-1.611-0.184-3.229-0.25-4.855
		c-0.551-1.93-1.361-3.543-1.826-5.6c0.404-2.445,2.328-7.402,0.045-9.244c-3.064,0.742-1.377,5.82-3.23,7.627
		c-4.85-0.543-1.498-10.121-5.738-11.301c-2.061,2.18-0.059,7.572,0.045,10.824c-2.451-0.066-3.654-2.08-4.842-3.895
		c-1.189-1.684-1.607-4.844-4.613-3.602c-0.795,2.902,2.52,5.658,3.303,8.566c-3.969-1.057-5.465-4.83-8.617-6.764
		c-1.74,0.234-3.035,0.834-4.295,1.514c1.967,4.564,5.186,7.814,7.34,12.238c3.26,3.783,8.029,5.936,12.297,8.645
		c1.246,5.992,1.84,12.707,2.406,19.438c-0.244-0.758-1.562-1.152-2.141-1.344c-0.926-0.32-2.121-0.801-2.184-1.131
		c-0.072-0.396,0.486-1.385,0.586-1.834c0.1-0.408,0.381-2.064-0.287-2.252c-1.016-0.285-1.43,1.537-1.963,1.602
		c-0.076,0.016-0.686-0.264-0.844-0.434c-0.344-0.365-0.314-0.924-0.758-1.123c-1.197-0.545-2.172,0.312-3.01,0.9
		c-0.607,0.414-1.734,1.691-2.479,1.621c-0.674-0.064-0.801-1.014-0.893-1.664c-0.338-2.172-0.023-2.986-0.139-5.33
		c-0.041-1.064-0.328-2.521-0.387-3.613c-0.064-2.072-0.084-5.115-1.703-5.266c-1.82-0.172-1.299,2.629-1.195,4.309
		c0.164,2.641-0.41,4.77-0.748,6.957c-0.219,1.43-0.291,2.971-0.521,4.543c-0.266,1.615-0.816,2.959-0.752,4.416
		c0.139,3.029,1.434,6.258,1.232,9.529c-0.293,4.943-4.805,9.186-7.584,12.699c-1.504,1.875-2.938,3.988-4.426,5.758
		c-2.328,2.768-5.293,4.9-7.85,7.375c-1.576,1.5-3.209,2.986-4.801,4.498c-0.271-0.727-0.514-1.477-0.787-2.199
		c-2.375-6.4-2.35-15.479-5.941-20.559c-6.004-11.352-13.137-21.49-18.494-33.549c6.861-9.113,12.877-18.959,19.195-28.531
		c-5.051-1.387-6.061,5.785-9.469,6.643c0.543-3.186,1.389-6.092,2.375-8.863c-0.287-0.139-1.203-0.223-2.318-0.139
		c-1.52,0.93-1.918,2.816-2.32,4.746c-3.236,1.672-3.781,5.742-5.795,8.537c-4.604,3.436-7.541,8.387-10.936,12.885
		c0.496,3.086,0.273,4.666-0.148,7.26c4.963,14.652,8.105,30.512,15.123,43.271c0.908,1.627,2.465,2.957,3.316,4.713
		c2.043,4.086,4.471,10.115,5.18,15.447l0.035,0.213c-2.723,0.449-4.82,1.451-6.752,2.635h-30.418
		c0.502-1.799,0.844-3.078,1.289-3.408c0.543-0.385,1.654-0.227,2.334-0.512c1.131-0.516,1.807-1.93,2.393-3.137
		c0.729-1.537,1.818-3.166,1.373-5.607c-0.041-0.33-0.24-0.408-0.227-0.814c0-1.137,0.617-2.201,0.924-3.195
		c0.342-1.086,0.379-2.363,0.207-3.643c-0.156-1.191,0.135-2.438,0.008-3.836c-0.064-0.543-0.236-1.158-0.402-1.758
		c-0.191-0.586-0.521-1.379-0.406-1.764c0.02-0.15,0.279,0.17,0.371-0.15c0-0.029-0.271-0.457-0.352-0.879
		c-0.25-1.377-0.664-2.664-1.377-3.207c-0.203-0.18-1.693-0.545-1.58-0.957c0.172-0.602,1.432-0.564,1.232-0.744
		c-0.26-0.234-1.32,0.137-1.346-0.342c-0.059-1.027,1.438-1.322,1.33-1.516c-0.086-0.115-0.895,0.131-1.074,0.201
		c-0.373,0.113-0.895,0.457-1.018,0.242c-0.113-0.201,0.408-0.312,0.496-0.357c1.051-0.621-0.016-0.143-0.645-0.385
		c-0.768-0.285-1.855-1.385-3.037-1.973c-0.514-0.258-1.061-0.371-1.928-0.521c-0.672-0.113-1.59-0.408-1.58-0.949
		c0.02-0.729,0.992-0.443,0.742-0.643c-0.293-0.23-1.238-0.18-1.295-0.293c-0.129-0.365,1.734-0.521,0.973-0.68
		c-0.215-0.043-1.002,0.088-0.93,0.072c-0.795,0.199-1.441,0.213-2.178-0.115c-0.617-0.264-0.379-0.473,0.016-0.441
		c0.574,0.027,1.402,0.326,0.721-0.131c-0.48-0.326-1.029-0.398-1.48-0.414c-0.41-0.006-2.65,0.473-2.162,0.045
		c0.562-0.529,1.66-0.5,1.633-0.43c0.1-0.258-0.367-0.215-0.604-0.242c-2.004-0.285-3.58,0.771-5.025,1.064
		c0.207-0.008,1.66-1.223,1.387-1.365c-0.133-0.088-0.586,0.373-0.6,0.373c-0.902,0.607-2.363,0.555-3.705,1.068
		c-0.65,0.246-1.525,1.1-1.898,1.803c-0.041,0.1-0.613,1.727-0.742,1.541c-0.453-0.699,0.371-2.014-0.131-1.498
		c-0.514,0.52-0.855,1.57-0.785,2.299c0.041,0.357,0.635,1.287,0.586,1.414c-0.027,0.051-0.832,0.287-1.066,0.393
		c-1.055,0.402-2.527,1.309-2.738,1.494c-0.809,0.801-1.15,1.584-1.637,2.756c-0.115,0.258-0.725,1.615-0.553,1.881
		c0.199,0.291,0.373-0.494,0.51-0.229c0.07,0.162-0.598,1.607-0.682,1.877c-0.223,0.803-0.264,1.572-0.33,2.209
		c-0.092,0.801-0.271,1.449-0.414,2.137c-0.41,2.215,0.035,5.105-0.266,7.35c-0.23,1.551-0.717,2.965-0.486,4.609
		c0.123,0.891,0.457,1.406,0.486,1.883c0.055,1.33-0.041,4.332,0.121,5.074c0.145,0.707,0.889,1.648,0.953,2.271
		c0.051,0.441-0.057,1.191-0.145,2.078h-19.594c-0.135-0.057-0.242-0.191-0.373-0.285c2.865-6.229,4.672-13.037,8.422-18.924
		c3.895-7.773,7.377-15.803,9.898-24.174c1.877-9.717,6.805-18.146,9.625-27.455c3.324-2.799,3.439-7.664,2.191-11.508
		c-0.256-1.971-2.893-0.691-3.107-2.822c-2.021-0.037-2.764-2.951-5.127-2.035c-1.377-0.844-3.152-0.1-4.498,0.385
		c-0.59-0.713-1.26-1.178-2.135-1.127c-1.447,0.369-0.516,2.184-1.174,3.201c-0.273,4.105-1.174,8.613,0.271,12.814
		c-1.072,5.379-2.361,10.744-4.496,15.736c-5.947,10.309-7.65,22.312-14.785,32.133c-1.309,6.215-5.311,11.354-8.908,16.662
		c-1.434-0.994-2.879-1.945-4.432-2.795c-3.029-1.672-5.787-3.035-9.16-3.873c-0.947-0.227-2.75-0.615-3.174-1.143
		c-0.15-0.186-0.352-0.826-0.496-1.215c-1.779-4.508-3.52-8.863-6.371-12.771c-1.934-2.672-4.039-5.086-5.73-8.002
		c-1.721-2.986-2.723-6.678-4.109-9.943c-1.477-3.43-3.525-6.559-3.383-11.674c0.035-1.357,0.41-2.729,0.496-4.137
		c0.064-0.734,0.035-1.506,0.158-2.205c0.107-0.674,0.379-1.303,0.416-1.93c0.062-1.516-0.568-2.545-0.768-3.871
		c-0.287-1.809-0.352-3.975-0.473-5.787c-0.086-1-0.367-1.938-0.451-2.73c-0.209-1.814,0.365-5.93-1.469-4.992
		c-1.584,0.822-0.98,3.65-1.096,6.021c-0.064,1.457-0.238,2.758-0.365,4.188c-0.113,1.184-0.303,3.428-1.111,3.543
		c-0.436,0.07-1.096-0.887-1.381-1.23c-0.416-0.498-0.961-1.1-1.469-1.229c-0.686-0.186-1.582,0.357-2.119,0.594
		c-0.744,0.336-1.713,0.428-1.939,1.043c-0.117,0.314-0.059,0.723-0.266,0.906c-0.066,0.035-0.395,0.008-0.641,0.102
		c-0.371,0.127-0.227,0.314-0.506,0.227c-0.107-0.043-0.482-0.799-0.609-1c-0.816-1.184-1.855-0.857-1.354,1.072
		c0.35,1.414,0.811,2.443,1.338,3.658c0.338,0.773,0.783,1.492,0.916,2c0.072,0.301-0.012,0.6,0.047,0.83
		c0.084,0.357,0.357,0.584,0.43,1c0.184,0.998-0.023,2.086,0.025,3.014c0.102,2.158,0.572,3.758,1.191,5.215
		c0.309,0.688,0.57,1.514,1.002,2.215c0.559,0.863,1.49,1.086,1.961,2.164c0.916,2.078,1.168,4.688,1.67,6.914
		c0.607,2.68,1.238,5.338,1.984,7.967c0.502,1.75,0.916,3.514,1.33,5.266c-0.215-0.137-0.449-0.229-0.715-0.264
		c-2.293-0.559-4.283,1.441-5.789,2.355c-0.098-0.199-0.312-0.199-0.471-0.277c-0.645-0.68-0.473-1.479-0.43-2.279
		c-0.215-0.115-0.33,0.107-0.486,0.201c-0.316-0.273-0.701-0.852-1.162-0.5c0.16,1.1-0.127,1.941-0.771,2.678
		c-0.832,0.809-1.963,0.879-2.938,0.277c-2.836-0.971-6.314-0.215-8.221,2.287c-1.012,0.15-1.848,0.65-2.648,1.188v47.492H1251.498z
		 M1235.154,234.813c0.07-0.014,0.031,0.174,0.031,0.266C1235.01,235.028,1235.113,234.915,1235.154,234.813z M1234.908,240.423
		c0,0.092,0.031,0.191,0.072,0.264c-0.17,0.205-0.359,0.4-0.512,0.578C1234.494,240.907,1234.621,240.587,1234.908,240.423z
		 M1234.725,232.958c-0.031,0.076-0.215-0.143-0.174-0.33C1234.652,232.685,1234.637,232.856,1234.725,232.958z M1234.596,238.528
		c0.385,1.244-0.588,1.943-0.572,3.201c-0.031,0.043-0.057,0.092-0.104,0.127C1233.363,240.772,1234.264,239.431,1234.596,238.528z
		 M1233.506,242.114c0.016,0.008,0.016,0.016,0.031,0.021h-0.031C1233.506,242.13,1233.506,242.122,1233.506,242.114z
		 M1213.809,207.759c-0.742,0.445-2.072,0.08-2.691-0.283C1212.008,207.409,1212.939,207.696,1213.809,207.759z M1146.146,228.284
		c0.16-0.842,0.088-1.441-0.029-2.021c0.199-0.635,0.389-1.271,0.588-1.938c0.113,0.357,0.215,0.639,0.215,0.631
		c0.113-0.48,0.072-0.93-0.016-1.342c0.818-2.83,1.68-5.758,2.852-8.23c1.846,5.809,3.756,11.566,6.074,16.902l-6.289-0.816
		c0,0-1.617,0.301-4.396,0.785C1145.473,231.185,1145.916,229.456,1146.146,228.284z M1114.404,218.634
		c0.031,0.029-0.057,0.184-0.088,0.279c-0.01-0.023-0.01-0.029-0.025-0.051c-0.016-0.037-0.057-0.064-0.07-0.092
		c0-0.059,0-0.115,0-0.166C1114.275,218.604,1114.348,218.575,1114.404,218.634z M970.293,242.136h-8.207
		c-2.949-1.871-8.061-4.734-12.662-7.621c-0.127-3.209,0.748-6.715-0.143-9.895c0.303-3.594-0.875-6.688-1.146-9.98
		c1.721,1.898,3.439,2.717,4.242-0.016c0.758-2.521,3.379-3.955,6.275-4.77c-0.246,1.184-0.416,2.49-0.432,3.92
		c-0.188,0.25-0.342,0.465-0.516,0.707c-10.184,14.768,2.764,17.846,5.916,18.361C966.9,239.058,969.967,241.837,970.293,242.136z
		 M958.707,219.382c0.344,1.93,0.916,4.045,1.762,6.316c0.977,2.674,1.99,4.957,3.039,6.914
		C958.119,230.472,955.842,227.128,958.707,219.382z M948.652,203.474c0.771-2.314,1.273-2.379,3.598-2.822
		c0.572-0.584,0.941-1.355,1.402-2.041c0.588,1.906,1.662,3.398,4.164,0.086c3.568-4.709,5.846,0.398,6.393,1.828
		c-0.344,0.234-0.844,0.662-1.463,1.301c-1.361,0.756-3.395,1.764-5.113,2.027c-2.865,0.436-4.713,4.629-7.277,7.244
		c-0.629,0.645-1.361,0.664-2.104,0.398c-0.158-1.127-0.633-2.156-0.92-3.256C947.752,206.647,948.135,205.046,948.652,203.474z
		 M898.691,242.136h-0.805c-1.504-0.807-3.09-2.021-3.152-3.742c1.623,2.121,3.082,2.721,4.674,2.414
		C899.178,241.249,898.938,241.694,898.691,242.136z M901.43,227.378c0.957,0.506,2.373,0.221,3.09,1.221
		c0,2.33,0.373,5.158,0.559,7.529l-3.178,1.801c-0.201,0.115-0.303,0.279-0.471,0.406c-3.771-0.877-4.902-5.492-4.529-9.336
		c0.932,1.979,1.902,4.293,4.027,5.25c-0.445-4.562-3.695-8.064-5-12.629c-0.246-1.572-0.316-3.223-0.344-4.895
		C896.73,220.628,897.688,224.663,901.43,227.378z M894.766,206.774c0.072,0.742,0.145,1.492,0.199,2.223
		c-0.168-0.873-0.311-1.75-0.645-2.572c-0.152-0.4-0.398-0.729-0.598-1.1C894.137,205.841,894.465,206.31,894.766,206.774z
		 M889.551,238.165C889.74,237.235,889.91,239.058,889.551,238.165L889.551,238.165z M889.408,239.114
		C889.598,238.208,889.766,240.042,889.408,239.114L889.408,239.114z M889.266,240.071
		C889.455,239.149,889.623,240.964,889.266,240.071L889.266,240.071z M889.08,240.571c0.256,0.309,0.385,0.922,0.43,1.564h-0.445
		C889.121,241.614,889.193,241.071,889.08,240.571z M875.93,192.358c1.32-0.301,2.379,0.008,3.367,0.406
		c2.764,1.631,5.961,4.117,8.822,6.73c-0.846-0.484-1.73-0.93-2.662-1.295c-2.021-0.805-3.693-2.211-5.531-3.434
		c-2.176,0.121-4.293,0.121-6.561,0.377c-0.973-0.557-1.73-0.891-2.518-1.242C872.535,193.337,874.215,192.759,875.93,192.358z
		 M823.061,151.315c-0.73-1.955-0.859-4.205-1.131-6.291c0.186,0.463,0.375,0.936,0.615,1.393c0.301,1.857,0.689,3.68,0.645,5.002
		C823.148,151.388,823.107,151.353,823.061,151.315z M842.344,238.013c-0.143-0.004-0.287-0.02-0.43-0.035
		c0.168-0.049,0.367-0.135,0.543-0.148C842.426,237.901,842.369,237.95,842.344,238.013z M842.416,220.19
		c0.152-0.463,0.367-0.943,0.557-1.436C843.443,218.921,842.998,220.155,842.416,220.19z M842.4,217.647
		c-0.66-0.215,0.541-0.68,0.598-1.043C843.658,216.804,842.457,217.298,842.4,217.647z M839.264,213.397
		c1.027-1.414,1.719-3.379,2.318-5.465c4.154-4.121,8.207-8.373,12.332-12.459c2.666-0.979,4.814-0.365,7.189-0.049
		c-0.152,0.107-0.256,0.143-0.43,0.254c-3.592,2.475-8.02,8.852-11.984,9.682c-3.424,0.707-1.203,1.895-2.164,4.637
		c-0.486,1.457-1.648,2.559-2.979,3.309c-1.879,1.068-3.973,1.635-6.045,2.184C838.117,214.812,838.746,214.124,839.264,213.397z
		 M837.041,216.026c2.463-0.23,4.943-0.6,7.166-1.621c-1.791,2.605-6.449,5.549-9.744,3.992
		C835.379,217.642,836.238,216.856,837.041,216.026z M818.451,234.292c1.027-2.949,2.379-5.578,3.822-8.121
		c4.186-2.203,8.453-4.674,12.006-7.604c1.018,1.203-0.129,2.045,2.23,2.844c1.248,0.496,2.467,0.416,3.629-0.277
		c-0.246,1.686-2.826,1.992-4.068,1.6c0.654,0.035,1.289-0.084,1.848-0.449c-0.057,0-3.768,0-3.312,0.119
		c0.416,0,0.846,0.107,1.203,0.33c-2.262,0.293-4.713-1.85-3.766,2.252c2.021,1.027,4.713,0.82,6.902,0.734
		c-2.016,0.893-4.498,1.508-6.703,1.08c0.961,1.258,1.633,2.971,3.152,3.729c-1.674,0.277,1.76,1.422,1.146,1.984
		c-0.859-0.062-1.736,0.092-2.533,0.494c0.527,0.113,0.941,0.363,1.258,0.777c-1.402,0.607-2.951,0.559-4.369,1.172
		c2.824,2.08,6.074-2.443,8.652-0.648c-0.285,1.137-1.232,2.199-2.332,3.213c-6.336-0.557-13.08-1.049-20.057-1.506
		C817.59,235.444,818.051,234.899,818.451,234.292z M623.99,189.421c0.67,1.859,0.799,3.76,0.686,5.639
		c-0.559-1.021-1.115-2.045-1.633-3.08C623.242,190.981,623.457,190.017,623.99,189.421z M625.428,229.442
		c0.379,0.736,0.752,1.471,1.131,2.205c-1.637-0.711-3.172-1.611-4.559-2.764C623.172,229.019,624.303,229.229,625.428,229.442z
		 M616.682,217.083c0.215,0.309,0.445,0.6,0.666,0.9c-0.436-0.186-0.85-0.422-1.311-0.572
		C616.283,217.319,616.451,217.183,616.682,217.083z M613.244,205.753c0.332,1.441,0.619,2.895,0.932,4.336
		c-1.562,0.787-3.193,1.438-4.934,1.76c-1.115,0.213-2.186,0.119-3.133-0.438C608.709,209.604,611.053,207.71,613.244,205.753z
		 M555.939,232.077c0.613,0.465,1.346,1.135,1.514,1.607l-0.24,0.016c-0.246-0.201-1.135-1.23-2.021-1.338
		c-0.029-0.035-0.041-0.07-0.07-0.107C555.365,232.163,555.592,232.05,555.939,232.077z M543.402,201.253l0.188,1.371
		c-0.975-0.186-1.287-1.33-1.432-2.406C542.717,200.245,543.318,200.667,543.402,201.253z M541.098,197.608l-0.475,0.68
		l-0.084-0.064C540.719,198.022,540.91,197.815,541.098,197.608z M520.5,187.479c0.545,0.285,1.246,0.492,1.719,0.885
		c-0.887,1.287-2.678,0.73-3.969,0.623c-0.971,0.107-2.006-0.131-3.008,0.207C516.863,188.464,518.666,187.507,520.5,187.479z
		 M506.562,238.815c0.072,0.084,0.129,0.186,0.199,0.27c-0.111,0.029-0.219,0.051-0.342,0.072
		C506.463,239.042,506.521,238.931,506.562,238.815z M502.152,228.556c0.115,0.357,0.27,0.65,0.414,1c0,0.1,0.016,0.23,0.016,0.344
		c-1.104-0.258-2.35-0.801-3.166-1.686c-0.43-0.602-1.016-1.26-0.561-2.043l0.848-0.758
		C499.902,226.784,501.395,227.491,502.152,228.556z M490.693,235.142c2.377-4.928,4.797-9.822,6.652-14.957
		c0.59-0.951,1.023-1.986,1.525-2.986c0.143,0.785-0.379,1.686-0.086,2.557c0.416,0.686,0.332,1.914,1.359,2.137v0.062
		c-0.127,1.459-0.67,2.986-2.018,3.844c-1.104,2.986,2.863,4.322,4.57,5.902c0.672,1.043,0.371,2.219-0.244,3.191l0.113,0.072
		l1.033-1.537c0.398-0.814-0.258-1.557-0.373-2.279c0.613,1.564,1.246,3.137,1.734,4.746c-0.803,1.314-1.549,2.684-2.293,4.035
		c-3.217,0.674-6.617,1.4-10.254,2.207h-2.236c0.699-1.986,1.174-4.062,0.807-6.35C490.908,235.571,490.822,235.345,490.693,235.142
		z M485.838,148.89c2.355-2.688,9.875,1.885,2.699,3.064c-2.266,0.363-4.555-0.078-6.76-0.578
		C481.633,148.731,483.887,148.589,485.838,148.89z M413.625,234.343c0.049-0.102,0.094-0.244,0.135-0.344
		c0.316-0.084,0.619-0.184,0.961-0.199c0.322-0.016,0.645-0.086,0.973-0.115c1.52,2.859,3.121,5.688,4.877,8.451h-11.236
		C410.955,239.614,412.342,236.913,413.625,234.343z M394.252,193.81c0.844-2.502,2.033-4.873,2.666-7.445
		c0.299-1.156,0.471-2.328,0.543-3.516c0.33,5.309,1.102,10.439,2.148,15.439c-0.732,0.178-1.453,0.473-2.242,0.373
		c-0.752,0.635-1.498,0.719-2.264,0.691C394.021,197.796,393.447,196.136,394.252,193.81z M405.367,132.015
		C405.023,132.772,404.793,131.144,405.367,132.015L405.367,132.015z M405.812,128.88c-1.004,0.648-1.377,1.549-1.131,2.691
		C398.535,129.415,405.039,126.128,405.812,128.88z M337.801,214.854c-0.143,0.785-0.414,1.545-0.492,2.336
		c-0.152,1.457-0.209,2.986-0.168,4.506c-1.172-0.357-2.316-0.635-3.412-1.291C335.281,218.683,336.635,216.833,337.801,214.854z
		 M281.195,167.335c0.607-1.129,0.57-2.244-0.086-3.344c0.457,0,0.902-0.08,1.348-0.258
		C282.656,165.134,282.828,166.763,281.195,167.335z M271.727,206.667c5.496-5.715,11.523-12.402,18.605-16.174
		c1.992-1.057,3.797-2.057,5.545-3.086c3.182,6.18,5.084,13.117,7.465,19.74c-2.867-2.908-6.074-5.238-10.1-6.195
		c-1.748-0.086-3.754,0.23-5.443,0.021c-0.143,0.424-1.018,0.408-1.152,0.82c-4.834,0.615-10.422,1.072-12.822,4.459
		c-1.789,2.658-1.883,6.357-2.426,9.773c-0.486,0.436-0.896,0.914-0.932,1.615c-0.744,0.227-1.074,0.713-1.99,0.842
		c-0.859,0.35-1.334-0.801-1.914-0.186c0.676,2.014,4.018,1.143,5.414-0.021c-0.307,1.451-1.396,2.494-2.887,3.277
		c-0.168,0.273,0.016,0.742,0.115,1.158c-0.498,0.172-0.76-0.105-1.316,0.172c0.4,1.43,2.062,0.801,3.408,0.658
		c-0.312,2.686-2.176,4.484-0.98,8.059c1.926,3.807,3.932,7.473,6.297,10.535h-8.08c-0.107-0.135-0.236-0.25-0.344-0.393
		c-1.691-2.213-2.65-4.715-3.602-7.244c0-0.02,0.004-0.049,0.016-0.072c-0.016-0.062-0.072-0.07-0.096-0.127
		c-0.457-1.199-0.916-2.402-1.453-3.586c-0.514-1.131-1.182-2.072-1.863-2.979c0.064-1.166,0.115-2.373,0.188-3.51
		c-0.08-2.621-0.344-4.984-0.924-7.049C263.576,213.282,269.213,209.253,271.727,206.667z M229.432,208.866
		c0.822-1.484,2.348-2.355,3.121-3.713c0.516-0.914,1.008-2.387,1.273-3.559c0.502-2.127-0.127-8.615,0-9.314
		c0.072-0.43,1.104-2.145,1.545-2.193c0.217-0.027,0.656,0.715,1.213,1.236c0.279,0.27,0.932,0.369,1.254,0.17
		c0.467-0.285,0.359-0.615,0.686-0.742c0.23-0.086,0.84,0.143,1.291,0.143c1.002,0,1.861-0.199,1.877-1.143
		c0.645,7.715,1.275,15.445,2.748,22.232c-0.25-0.043-0.529-0.172-0.793-0.266c-0.408-0.242-0.389-1.049-0.824-1.242
		c-0.4-0.365-1.488,0.014-1.734-0.15c-0.387-0.086-0.127-0.93-0.613-0.879c-0.246-0.334-0.676-0.051-1.004,0
		c-0.461-0.691-1.166-0.564-1.547,0.107c-0.932,0.27-1.691-0.158-2.623-0.271c-0.777,0.314-0.857,1.514-1.658,1.801
		c-0.818-0.215-1.678-0.402-2.508-0.607c-0.33,0.078-0.271,0.693-0.645,0.766c-0.344-0.158-0.688-0.357-1.105-0.416
		c-0.371,0.014-0.629,0.186-0.93,0.301C228.742,210.339,229.037,209.569,229.432,208.866z M212.135,238.271
		c0.307,0.557,0.607,1.088,0.572,1.672c-0.143,0.744-1.023,0.473-1.225,1.029c-0.336-0.258-0.631-0.549-0.873-0.914
		C211.139,239.472,211.625,238.864,212.135,238.271z M208.895,242.06c0.25-0.273,0.461-0.561,0.711-0.83
		c0.037,0.1,0.1,0.164,0.137,0.27c-0.203,0.322-0.537,0.488-0.883,0.637h-0.037C208.846,242.106,208.875,242.079,208.895,242.06z"/>
	<rect x="27.84" y="261.417" width="1224.459" height="224.76"/>
</g>
</svg>
