<?xml version="1.0" encoding="utf-8"?>
<!-- Generator: Adobe Illustrator 15.0.0, SVG Export Plug-In . SVG Version: 6.00 Build 0)  -->
<!DOCTYPE svg PUBLIC "-//W3C//DTD SVG 1.1//EN" "http://www.w3.org/Graphics/SVG/1.1/DTD/svg11.dtd">
<svg version="1.1" id="Layer_1" xmlns="http://www.w3.org/2000/svg" xmlns:xlink="http://www.w3.org/1999/xlink" x="0px" y="0px"
	 width="800px" height="600px" viewBox="0 0 800 600" enable-background="new 0 0 800 600" xml:space="preserve">
<g>
	<path d="M622.803,460.437c0.01,0.005,0.02,0.007,0.029,0.012c-0.027-0.014-0.053-0.029-0.079-0.043
		C622.771,460.414,622.785,460.428,622.803,460.437z"/>
	<path d="M639.328,459.285c0,0.545-0.109,1.055-0.308,1.51C639.22,460.34,639.328,459.83,639.328,459.285z"/>
	<path d="M638.18,461.981c0.355-0.329,0.642-0.729,0.841-1.187C638.821,461.252,638.534,461.653,638.18,461.981z"/>
	<path d="M682.198,456.791c-0.267-0.588-0.588-1.121-0.953-1.578c-0.366-0.459-0.776-0.842-1.216-1.135v-2.88v-0.002
		c0.44-0.231,0.85-0.56,1.216-0.965c0.365-0.406,0.686-0.893,0.953-1.445c0.267-0.553,0.479-1.168,0.624-1.832
		c0.145-0.666,0.223-1.379,0.223-2.123c0-0.746-0.078-1.468-0.223-2.15c-0.146-0.684-0.358-1.328-0.624-1.914
		c-0.267-0.586-0.588-1.116-0.953-1.569c-0.366-0.455-0.776-0.836-1.216-1.125V74.589l-549.487,58.105v321.166l7.478,0.721v14.934
		l528.614,55.898v-19.878l13.396,1.291v-39.623v-0.001c0.44-0.227,0.85-0.549,1.216-0.953c0.365-0.405,0.686-0.889,0.953-1.438
		c0.267-0.549,0.479-1.161,0.624-1.823c0.145-0.662,0.223-1.373,0.223-2.115c0-0.746-0.078-1.47-0.223-2.158
		C682.677,458.027,682.465,457.381,682.198,456.791z M153.777,152.866l485.564-44.529V444.01l-485.564-33.17V152.866z
		 M639.021,460.795c-0.199,0.457-0.486,0.858-0.841,1.187c-0.177,0.164-0.371,0.31-0.58,0.435c0.208-0.125,0.402-0.271,0.579-0.435
		c-0.354,0.327-0.775,0.582-1.244,0.743c0.223-0.076,0.432-0.177,0.631-0.293c-0.198,0.116-0.407,0.217-0.629,0.293
		c-0.468,0.162-0.981,0.232-1.519,0.191l0,0c0.538,0.041,1.05-0.029,1.517-0.191c-0.467,0.162-0.979,0.232-1.517,0.191
		c-0.538-0.041-1.05-0.191-1.515-0.426c-0.464-0.233-0.883-0.553-1.234-0.935c-0.352-0.381-0.635-0.827-0.831-1.311
		c-0.197-0.483-0.305-1.008-0.305-1.549s0.108-1.047,0.305-1.5s0.479-0.854,0.831-1.181c0.352-0.328,0.77-0.584,1.234-0.746
		c0.465-0.163,0.977-0.235,1.515-0.194c0.538,0.037,1.051,0.186,1.519,0.418c0.213,0.106,0.412,0.234,0.604,0.373
		c0.022,0.017,0.048,0.03,0.07,0.047c0.181,0.136,0.347,0.29,0.504,0.453c0.049,0.05,0.094,0.103,0.141,0.155
		c0.118,0.135,0.229,0.275,0.329,0.424c0.032,0.048,0.068,0.093,0.099,0.142c0.121,0.193,0.227,0.396,0.316,0.605
		c0.021,0.052,0.037,0.105,0.057,0.158c0.063,0.168,0.115,0.34,0.156,0.516c0.017,0.072,0.033,0.144,0.047,0.216
		c0.038,0.219,0.064,0.441,0.066,0.669c0,0.012,0.002,0.022,0.002,0.034c0-0.012-0.002-0.022-0.002-0.034
		c0,0.012,0.003,0.022,0.003,0.034C639.329,459.83,639.22,460.34,639.021,460.795z M638.595,456.958
		c0.028,0.041,0.06,0.081,0.086,0.124c0.001,0.001,0.002,0.003,0.003,0.005c-0.03-0.048-0.065-0.093-0.097-0.14
		C638.589,456.951,638.592,456.954,638.595,456.958z M638.254,456.52c-0.045-0.052-0.09-0.104-0.139-0.153
		c0.002,0.002,0.004,0.003,0.005,0.005c0.045,0.046,0.087,0.095,0.13,0.143C638.251,456.516,638.253,456.518,638.254,456.52z
		 M639.056,457.848c-0.019-0.051-0.034-0.104-0.056-0.153c0.001,0.001,0.002,0.003,0.003,0.004c0.019,0.045,0.031,0.091,0.049,0.136
		C639.054,457.838,639.055,457.844,639.056,457.848z M639.217,458.378c0.015,0.065,0.03,0.129,0.042,0.195
		C639.247,458.508,639.231,458.442,639.217,458.378z M639.259,458.574c0,0.002,0,0.005,0.001,0.008
		c-0.014-0.072-0.029-0.144-0.047-0.215c0.001,0.003,0.003,0.007,0.004,0.01C639.231,458.442,639.247,458.508,639.259,458.574z
		 M639.004,457.7c0.005,0.012,0.013,0.022,0.018,0.034c0.013,0.031,0.018,0.065,0.029,0.097
		C639.034,457.788,639.021,457.743,639.004,457.7z M638.596,456.959c0.028,0.042,0.059,0.08,0.085,0.122
		C638.654,457.039,638.624,457,638.596,456.959z M638.121,456.371c0.019,0.02,0.041,0.034,0.06,0.054
		c0.025,0.027,0.043,0.06,0.067,0.087C638.206,456.465,638.165,456.417,638.121,456.371z M637.562,455.88
		c0.015,0.011,0.031,0.019,0.046,0.03c0,0,0.001,0.001,0.002,0.002c-0.02-0.016-0.042-0.026-0.062-0.041
		C637.553,455.874,637.558,455.877,637.562,455.88z M637.567,455.883c0.013,0.01,0.027,0.017,0.04,0.026
		C637.595,455.899,637.58,455.893,637.567,455.883z M623.273,460.62c0.003,0.001,0.006,0.003,0.01,0.004
		c0.019,0.006,0.039,0.006,0.058,0.011c0.003,0.001,0.006,0.002,0.009,0.002c-0.037-0.009-0.074-0.018-0.111-0.029
		c0.002,0.001,0.005,0.002,0.007,0.002C623.255,460.612,623.264,460.618,623.273,460.62z M623.798,460.718
		c-0.156-0.013-0.309-0.044-0.458-0.083c-0.031-0.008-0.062-0.016-0.094-0.025c-0.011-0.003-0.021-0.009-0.031-0.012
		c-0.132-0.041-0.26-0.09-0.383-0.149c0.002,0.001,0.004,0.002,0.006,0.003c-0.012-0.006-0.024-0.008-0.035-0.014
		c0.011,0.006,0.023,0.008,0.035,0.014c0.002,0.001,0.004,0.002,0.006,0.003c-0.013-0.006-0.027-0.009-0.041-0.016
		c-0.024-0.013-0.046-0.031-0.07-0.044c0.004,0.002,0.008,0.004,0.011,0.006c0.021,0.011,0.039,0.026,0.06,0.037
		c-0.021-0.011-0.039-0.026-0.059-0.037c0.003,0.002,0.006,0.003,0.009,0.005c-0.083-0.045-0.161-0.098-0.239-0.15
		c0.001,0,0.001,0.001,0.002,0.001c-0.034-0.023-0.07-0.041-0.104-0.065c0.032,0.023,0.068,0.042,0.102,0.064
		c-0.14-0.096-0.271-0.201-0.394-0.319c-0.033-0.031-0.069-0.059-0.101-0.091c-0.142-0.152-0.268-0.319-0.375-0.499
		c-0.028-0.047-0.05-0.098-0.075-0.146c-0.078-0.148-0.144-0.303-0.195-0.465c0.022,0.07,0.036,0.144,0.063,0.211
		c0.037,0.089,0.088,0.171,0.133,0.256c0,0.002,0.001,0.004,0.002,0.006c-0.046-0.087-0.098-0.17-0.135-0.261
		c-0.027-0.068-0.041-0.142-0.063-0.212l0,0c-0.009-0.028-0.018-0.058-0.026-0.088c-0.007-0.025-0.016-0.05-0.022-0.075
		c-0.052-0.205-0.085-0.415-0.087-0.631c0-0.008-0.002-0.015-0.002-0.021c0-0.354,0.071-0.69,0.201-0.99
		c0.132-0.301,0.319-0.565,0.552-0.785c0.231-0.217,0.508-0.387,0.813-0.495c0.308-0.11,0.643-0.156,0.995-0.132
		c0.356,0.027,0.695,0.125,1.003,0.279c0.31,0.156,0.587,0.367,0.821,0.621c0.233,0.252,0.423,0.547,0.554,0.867
		c0.13,0.319,0.202,0.666,0.202,1.022c0,0.359-0.072,0.697-0.202,1c-0.131,0.304-0.321,0.568-0.554,0.787
		c-0.234,0.217-0.511,0.388-0.821,0.496C624.493,460.698,624.153,460.744,623.798,460.718c-0.009,0-0.018-0.003-0.027-0.004
		C623.78,460.715,623.789,460.717,623.798,460.718z M621.989,459.816c0.01,0.01,0.021,0.018,0.031,0.028
		c0.001,0.001,0.001,0.002,0.002,0.003C622.012,459.837,621.999,459.828,621.989,459.816c-0.133-0.144-0.246-0.305-0.347-0.474
		c0,0.001,0.001,0.001,0.001,0.002C621.744,459.513,621.857,459.673,621.989,459.816z M622.118,459.935
		c0.124,0.119,0.256,0.226,0.398,0.322c0.001,0.001,0.003,0.002,0.004,0.003c-0.146-0.098-0.283-0.209-0.41-0.332
		C622.113,459.931,622.116,459.933,622.118,459.935z M616.13,457.532c0,0.356-0.072,0.694-0.201,0.994
		c-0.13,0.303-0.316,0.567-0.548,0.784c-0.231,0.218-0.506,0.388-0.812,0.494c-0.307,0.107-0.642,0.154-0.994,0.127
		c-0.349-0.025-0.681-0.126-0.985-0.279c-0.304-0.154-0.578-0.365-0.807-0.617c-0.231-0.252-0.416-0.545-0.545-0.865
		s-0.2-0.666-0.2-1.022c0-0.354,0.071-0.688,0.2-0.984c0.129-0.301,0.314-0.564,0.545-0.781c0.229-0.217,0.504-0.384,0.807-0.494
		c0.303-0.109,0.636-0.155,0.985-0.131c0.352,0.025,0.688,0.123,0.994,0.279c0.305,0.151,0.58,0.363,0.812,0.615
		c0.232,0.252,0.418,0.545,0.548,0.862C616.058,456.833,616.13,457.177,616.13,457.532z"/>
</g>
</svg>
