<?xml version="1.0" encoding="utf-8"?>
<!-- Generator: Adobe Illustrator 15.0.0, SVG Export Plug-In . SVG Version: 6.00 Build 0)  -->
<!DOCTYPE svg PUBLIC "-//W3C//DTD SVG 1.1//EN" "http://www.w3.org/Graphics/SVG/1.1/DTD/svg11.dtd">
<svg version="1.1" id="Layer_1" xmlns="http://www.w3.org/2000/svg" xmlns:xlink="http://www.w3.org/1999/xlink" x="0px" y="0px"
	 width="197.458px" height="199.178px" viewBox="0 0 197.458 199.178" enable-background="new 0 0 197.458 199.178"
	 xml:space="preserve">
<g>
	<ellipse transform="matrix(0.0014 -1 1 0.0014 -0.2466 196.9572)" cx="98.494" cy="98.602" rx="15.102" ry="15.186"/>
	<path d="M191.984,95.524l-0.017-0.76l-10.534-2.688c-0.229-2.946-0.612-5.848-1.141-8.7l9.472-4.989l-0.161-0.743
		c-0.228-1.045-0.468-2.091-0.733-3.136c-0.266-1.044-0.551-2.078-0.851-3.106l-0.212-0.729l-10.881,0.13
		c-0.981-2.767-2.103-5.468-3.36-8.092l7.877-7.287l-0.349-0.676c-0.49-0.951-0.995-1.897-1.521-2.839
		c-0.527-0.939-1.068-1.864-1.625-2.78l-0.395-0.649l-10.525,2.956c-1.654-2.398-3.433-4.705-5.323-6.912l5.753-9.125l-0.512-0.563
		c-0.72-0.792-1.451-1.575-2.203-2.349c-0.754-0.771-1.518-1.523-2.291-2.264l-0.549-0.525l-9.44,5.602
		c-0.188-0.161-0.372-0.325-0.562-0.484c-0.648-0.537-1.303-1.064-1.967-1.582c-0.582-0.459-1.158-0.924-1.751-1.367l-0.013,0.008
		c-0.342-0.252-0.695-0.49-1.041-0.738l0.006-0.017c-0.521-0.376-1.042-0.754-1.57-1.12l3.202-10.325l-0.64-0.411
		c-0.899-0.578-1.81-1.146-2.737-1.699c-0.929-0.549-1.858-1.079-2.798-1.594l-0.666-0.366l-7.738,7.926
		c-0.761-0.362-1.528-0.713-2.303-1.051l0.054-0.065c-0.642-0.283-1.289-0.558-1.938-0.824l-0.062,0.076
		c-0.399-0.162-0.801-0.318-1.203-0.476l0.007-0.098c-0.654-0.257-1.311-0.517-1.975-0.757l-0.008,0.107
		c-0.18-0.064-0.362-0.122-0.542-0.185l0.428-10.934l-0.726-0.231c-1.019-0.327-2.045-0.639-3.084-0.933
		c-1.039-0.291-2.074-0.562-3.113-0.816l-0.738-0.181l-5.469,9.739c-0.568-0.104-1.135-0.211-1.707-0.303l0.057-0.12
		c-0.693-0.112-1.394-0.205-2.093-0.299l-0.06,0.125c-0.426-0.057-0.854-0.114-1.282-0.165l-0.024-0.136
		c-0.699-0.083-1.396-0.163-2.1-0.228l0.023,0.135c-0.43-0.04-0.862-0.066-1.294-0.099l-2.438-10.761l-0.76-0.037
		c-1.068-0.052-2.142-0.087-3.22-0.103c-1.078-0.011-2.151-0.004-3.219,0.018l-0.76,0.016l-2.774,10.871
		c-0.327,0.025-0.656,0.043-0.982,0.072l0.024-0.136c-0.703,0.063-1.4,0.142-2.099,0.223l-0.025,0.136
		c-0.43,0.05-0.857,0.106-1.285,0.161l-0.058-0.125c-0.699,0.092-1.4,0.183-2.094,0.293l0.056,0.12c-0.67,0.105-1.335,0.226-2,0.35
		l-5.142-9.764l-0.742,0.161c-1.047,0.226-2.092,0.469-3.137,0.734c-1.045,0.268-2.078,0.552-3.105,0.851l-0.729,0.212l0.133,11.177
		c-0.08,0.028-0.161,0.052-0.24,0.081l-0.008-0.106c-0.665,0.239-1.319,0.497-1.976,0.751l0.007,0.099
		c-0.404,0.156-0.806,0.311-1.205,0.473l-0.062-0.076c-0.651,0.265-1.298,0.537-1.94,0.817l0.054,0.066
		c-0.856,0.37-1.701,0.759-2.541,1.158l-7.471-8.076l-0.676,0.348c-0.952,0.49-1.899,0.995-2.839,1.521
		c-0.941,0.529-1.865,1.071-2.78,1.626l-0.649,0.394l3,10.689c-0.443,0.309-0.883,0.621-1.322,0.936L50.04,31
		c-0.348,0.247-0.701,0.483-1.042,0.735l-0.013-0.008c-0.586,0.435-1.155,0.892-1.73,1.343c-0.68,0.526-1.348,1.062-2.01,1.606
		c-0.241,0.201-0.476,0.409-0.715,0.613l-9.258-5.835l-0.563,0.512c-0.792,0.72-1.577,1.453-2.348,2.204
		c-0.772,0.754-1.524,1.517-2.265,2.289l-0.526,0.549l5.672,9.557c-1.863,2.178-3.618,4.453-5.251,6.817l-10.444-3.237l-0.411,0.639
		c-0.579,0.9-1.147,1.812-1.697,2.736c-0.55,0.929-1.08,1.86-1.596,2.798l-0.366,0.667l7.929,7.74
		c-1.238,2.584-2.343,5.244-3.313,7.967L9.195,70.267l-0.231,0.725c-0.326,1.019-0.638,2.047-0.93,3.081
		c-0.292,1.04-0.562,2.076-0.818,3.116l-0.181,0.738l9.658,5.423c-0.52,2.804-0.901,5.657-1.132,8.553L4.924,94.314l-0.037,0.759
		c-0.052,1.069-0.087,2.142-0.102,3.218c-0.012,1.08-0.004,2.149,0.018,3.222l0.016,0.76l10.719,2.735
		c0.221,2.903,0.594,5.764,1.106,8.575l-9.623,5.066l0.161,0.742c0.227,1.047,0.47,2.092,0.734,3.137
		c0.268,1.045,0.552,2.078,0.852,3.105l0.212,0.729l11.022-0.131c0.966,2.739,2.07,5.412,3.307,8.012l-7.967,7.37l0.349,0.676
		c0.491,0.952,0.995,1.897,1.52,2.836c0.53,0.944,1.071,1.868,1.628,2.783l0.395,0.647l10.606-2.979
		c1.639,2.388,3.398,4.686,5.271,6.885l-5.784,9.178l0.512,0.562c0.72,0.791,1.451,1.576,2.202,2.347
		c0.755,0.773,1.518,1.525,2.292,2.265l0.549,0.524l9.456-5.609c0.92,0.788,1.848,1.567,2.806,2.312
		c0.55,0.434,1.093,0.872,1.655,1.29l0.011-0.009c0.343,0.253,0.694,0.49,1.04,0.736l-0.006,0.019
		c0.455,0.329,0.913,0.656,1.372,0.979l-3.196,10.309l0.639,0.41c0.899,0.578,1.809,1.145,2.734,1.697
		c0.929,0.551,1.861,1.079,2.8,1.596l0.666,0.365l7.698-7.884c0.839,0.402,1.684,0.794,2.539,1.167l-0.055,0.066
		c0.641,0.283,1.289,0.557,1.938,0.822l0.062-0.076c0.399,0.164,0.801,0.32,1.203,0.477l-0.007,0.1
		c0.655,0.256,1.312,0.517,1.976,0.758l0.008-0.107c0.113,0.041,0.229,0.076,0.342,0.116l-0.421,10.845l0.724,0.231
		c1.019,0.327,2.044,0.638,3.08,0.931c1.041,0.292,2.078,0.562,3.12,0.814l0.737,0.18l5.403-9.623
		c0.653,0.123,1.307,0.244,1.966,0.35l-0.057,0.119c0.693,0.113,1.393,0.205,2.092,0.299l0.061-0.125
		c0.426,0.058,0.854,0.113,1.283,0.166l0.024,0.135c0.698,0.084,1.396,0.164,2.1,0.229l-0.024-0.138
		c0.375,0.035,0.754,0.058,1.131,0.087l2.409,10.614l0.759,0.037c1.068,0.052,2.139,0.088,3.216,0.104
		c0.348,0.004,0.695,0.006,1.041,0.006c0.73,0,1.455-0.008,2.179-0.025l0.76-0.017l2.729-10.694c0.407-0.029,0.816-0.053,1.223-0.09
		l-0.024,0.139c0.703-0.063,1.4-0.143,2.1-0.224l0.025-0.137c0.428-0.05,0.855-0.104,1.283-0.161l0.061,0.126
		c0.699-0.093,1.399-0.183,2.094-0.294l-0.059-0.12c0.637-0.101,1.268-0.216,1.898-0.332l5.05,9.587l0.742-0.162
		c1.044-0.227,2.088-0.469,3.132-0.733c1.047-0.267,2.08-0.552,3.109-0.853l0.727-0.215l-0.131-10.947
		c0.145-0.05,0.291-0.095,0.436-0.146l0.008,0.107c0.666-0.238,1.32-0.498,1.977-0.752l-0.007-0.101
		c0.403-0.153,0.806-0.312,1.205-0.471l0.062,0.075c0.65-0.265,1.297-0.535,1.94-0.816l-0.056-0.066
		c0.845-0.365,1.68-0.749,2.508-1.143l7.311,7.898l0.678-0.347c0.949-0.489,1.896-0.993,2.836-1.519
		c0.941-0.529,1.867-1.071,2.783-1.631l0.646-0.395l-2.932-10.435c0.485-0.338,0.966-0.682,1.448-1.027l-0.007-0.017
		c0.349-0.247,0.699-0.483,1.042-0.735l0.014,0.011c0.562-0.419,1.106-0.855,1.657-1.287c0.961-0.742,1.892-1.52,2.815-2.304
		l9.046,5.701l0.562-0.511c0.793-0.719,1.576-1.449,2.348-2.202c0.772-0.752,1.525-1.517,2.266-2.292l0.523-0.549l-5.54-9.334
		c1.906-2.223,3.697-4.547,5.364-6.963l10.202,3.16l0.41-0.64c0.579-0.899,1.146-1.808,1.697-2.733
		c0.551-0.929,1.079-1.86,1.594-2.801l0.362-0.665l-7.747-7.563c1.265-2.637,2.395-5.351,3.38-8.133l10.654,0.412l0.231-0.723
		c0.327-1.02,0.638-2.043,0.931-3.081c0.293-1.039,0.562-2.075,0.814-3.116l0.18-0.736l-9.45-5.306
		c0.529-2.858,0.913-5.768,1.141-8.722l10.427-2.361l0.036-0.761c0.05-1.069,0.088-2.142,0.103-3.219
		C192.014,97.667,192.004,96.595,191.984,95.524z M136.854,154.806l-6.061-10.453c5.127-3.586,9.631-7.998,13.299-13.052
		l-29.15-16.793L102,121.914l-0.047,32.493c7.133-0.432,13.896-2.204,20.064-5.035l6.072,10.475
		c-8.989,4.313-19.065,6.729-29.697,6.715c-10.631-0.017-20.7-2.459-29.678-6.799l6.069-10.474
		c6.17,2.858,12.938,4.655,20.083,5.106l0.046-32.492l-12.922-7.442l-29.198,16.711c3.647,5.054,8.127,9.472,13.232,13.069
		l-6.06,10.456c-16.704-11.382-28.071-29.939-29.613-51.16l12.125,0.017c0.687,7.782,2.974,15.108,6.535,21.649l27.39-15.675
		l0.023-17.208L47.269,75.522c-2.537,5.561-4.176,11.61-4.761,17.962l-12.141-0.016C31.969,72.251,43.39,53.725,60.123,42.39
		l6.033,10.466c-6.237,4.368-11.55,9.958-15.564,16.436L77.928,85.04l17.052-9.758l0.047-32.493
		c-7.144,0.432-13.923,2.196-20.102,5.034l-6.036-10.471c8.99-4.316,19.065-6.729,29.696-6.715
		c10.632,0.015,20.701,2.457,29.678,6.798l-6.077,10.448c-6.166-2.853-12.938-4.632-20.073-5.084l-0.046,32.493l17.021,9.806
		l27.383-15.67c-3.999-6.493-9.299-12.102-15.53-16.487l6.072-10.441c16.702,11.381,28.071,29.939,29.612,51.162l-12.141-0.017
		c-0.566-6.355-2.188-12.409-4.709-17.977L120.57,92.382l-0.024,17.208l27.344,15.752c3.58-6.53,5.89-13.851,6.599-21.63
		l12.125,0.018C165.01,124.946,153.588,143.472,136.854,154.806z"/>
</g>
</svg>
