<?xml version="1.0" encoding="utf-8"?>
<!-- Generator: Adobe Illustrator 15.0.0, SVG Export Plug-In . SVG Version: 6.00 Build 0)  -->
<!DOCTYPE svg PUBLIC "-//W3C//DTD SVG 1.1//EN" "http://www.w3.org/Graphics/SVG/1.1/DTD/svg11.dtd">
<svg version="1.1" id="Layer_1" xmlns="http://www.w3.org/2000/svg" xmlns:xlink="http://www.w3.org/1999/xlink" x="0px" y="0px"
	 width="127.965px" height="131.355px" viewBox="0 0 127.965 131.355" enable-background="new 0 0 127.965 131.355"
	 xml:space="preserve">
<path d="M123.2,68.626c0.035-1.059,0.059-2.119,0.059-3.186s-0.023-2.127-0.059-3.186l-9.795-2.359
	c-0.365-3.382-1.062-6.664-2.061-9.813l7.959-6.114c-0.398-0.981-0.809-1.96-1.242-2.934c-0.434-0.976-0.887-1.935-1.35-2.888
	l-9.861,1.82c-1.697-2.916-3.674-5.646-5.9-8.154l4.764-8.786c-0.764-0.733-1.535-1.462-2.328-2.175s-1.596-1.405-2.406-2.089
	L92.765,24.4c-2.726-1.977-5.656-3.685-8.754-5.093l0.769-9.882c-0.996-0.36-1.996-0.712-3.011-1.041s-2.03-0.634-3.047-0.928
	l-5.164,8.412c-3.275-0.689-6.667-1.06-10.142-1.082l-3.291-9.275c-1.058,0.076-2.113,0.162-3.174,0.274
	c-1.061,0.111-2.113,0.246-3.163,0.391l-1.286,9.719c-3.394,0.723-6.658,1.788-9.762,3.153l-6.731-7.084
	c-0.936,0.5-1.865,1.007-2.787,1.542c-0.924,0.534-1.831,1.083-2.731,1.643l2.766,9.364c-2.779,2.032-5.349,4.332-7.657,6.876
	l-8.996-3.719c-0.651,0.837-1.294,1.679-1.919,2.542c-0.627,0.863-1.233,1.733-1.827,2.612l6.321,7.41
	c-1.702,2.963-3.112,6.112-4.192,9.413l-9.722,0.263c-0.254,1.028-0.499,2.06-0.719,3.103c-0.223,1.043-0.421,2.086-0.607,3.129
	l8.789,4.2c-0.165,1.663-0.252,3.348-0.252,5.054c0,1.77,0.092,3.518,0.27,5.239L3.95,74.837c0.188,1.044,0.382,2.085,0.605,3.127
	c0.221,1.044,0.465,2.078,0.719,3.106l9.778,0.263c1.087,3.279,2.5,6.408,4.202,9.352l-6.365,7.461
	c0.596,0.877,1.197,1.749,1.825,2.61c0.626,0.865,1.268,1.709,1.92,2.546l9.099-3.762c2.296,2.511,4.847,4.783,7.604,6.79
	l-2.8,9.474c0.9,0.561,1.806,1.111,2.729,1.644c0.923,0.533,1.853,1.044,2.789,1.544l6.829-7.188
	c3.071,1.339,6.299,2.384,9.651,3.096l1.303,9.857c1.05,0.145,2.101,0.28,3.16,0.391c1.063,0.112,2.12,0.2,3.178,0.276l3.344-9.425
	c3.429-0.028,6.777-0.395,10.011-1.073l5.236,8.533c1.019-0.294,2.032-0.599,3.046-0.929c1.018-0.328,2.02-0.679,3.016-1.039
	l-0.783-10.025c3.062-1.395,5.961-3.084,8.66-5.035l8.309,5.702c0.811-0.683,1.613-1.373,2.404-2.087
	c0.795-0.714,1.567-1.441,2.332-2.176l-4.813-8.879c-0.003,0.003-0.006,0.006-0.009,0.009c2.213-2.49,4.182-5.201,5.874-8.094
	l9.927,1.831c0.463-0.951,0.917-1.909,1.35-2.884c0.437-0.977,0.846-1.955,1.246-2.937l-8.002-6.147
	c0.999-3.139,1.699-6.41,2.07-9.782L123.2,68.626z M89.627,44.731c2.106-1.218,4.799-0.505,6.011,1.595
	c1.21,2.099,0.483,4.785-1.625,6.005c-2.11,1.217-4.802,0.504-6.015-1.596C86.788,48.636,87.516,45.949,89.627,44.731z
	 M44.213,32.692c2.108-1.218,4.8-0.504,6.01,1.594c1.212,2.099,0.485,4.787-1.625,6.005c-2.108,1.219-4.801,0.504-6.015-1.595
	C41.373,36.598,42.102,33.91,44.213,32.692z M23.168,54.456c1.946-7.19,9.363-11.473,16.563-9.563
	c7.201,1.91,11.461,9.287,9.514,16.479c-1.947,7.188-9.364,11.471-16.564,9.562C25.479,69.024,21.22,61.647,23.168,54.456z
	 M30.304,84.045c-1.212-2.101-0.484-4.786,1.626-6.005c2.109-1.218,4.801-0.504,6.012,1.595c1.211,2.098,0.485,4.787-1.625,6.004
	C34.207,86.858,31.516,86.143,30.304,84.045z M68.924,95.458c-1.946,7.188-9.362,11.471-16.562,9.562
	c-7.201-1.909-11.46-9.284-9.513-16.477c1.947-7.19,9.362-11.473,16.564-9.562C66.616,80.891,70.872,88.266,68.924,95.458z
	 M69.895,67.199c-1.016,3.751-4.885,5.984-8.642,4.988c-3.758-0.994-5.979-4.844-4.964-8.595c1.018-3.753,4.885-5.987,8.643-4.989
	C68.688,59.598,70.911,63.448,69.895,67.199z M66.952,51.146c-7.202-1.908-11.46-9.285-9.514-16.476
	c1.946-7.19,9.361-11.472,16.562-9.562c7.201,1.908,11.459,9.285,9.513,16.477C81.566,48.775,74.152,53.055,66.952,51.146z
	 M81.731,97.678c-2.109,1.219-4.802,0.504-6.014-1.595c-1.211-2.098-0.484-4.784,1.627-6.003c2.109-1.219,4.801-0.504,6.013,1.594
	C84.568,93.773,83.84,96.46,81.731,97.678z M103.194,75.67c-1.947,7.19-9.363,11.473-16.564,9.563
	c-7.198-1.909-11.459-9.286-9.512-16.475c1.948-7.193,9.363-11.474,16.564-9.564S105.143,68.481,103.194,75.67z"/>
</svg>
