<?xml version="1.0" encoding="utf-8"?>
<!-- Generator: Adobe Illustrator 15.0.0, SVG Export Plug-In . SVG Version: 6.00 Build 0)  -->
<!DOCTYPE svg PUBLIC "-//W3C//DTD SVG 1.1//EN" "http://www.w3.org/Graphics/SVG/1.1/DTD/svg11.dtd">
<svg version="1.1" id="Layer_1" xmlns="http://www.w3.org/2000/svg" xmlns:xlink="http://www.w3.org/1999/xlink" x="0px" y="0px"
	 width="199.152px" height="200.449px" viewBox="0 0 199.152 200.449" enable-background="new 0 0 199.152 200.449"
	 xml:space="preserve">
<path d="M193.558,104.356c0.035-1.059,0.06-2.119,0.06-3.186s-0.024-2.127-0.06-3.187l-9.791-2.358
	c-0.249-3.633-0.715-7.206-1.413-10.696l8.789-4.779c-0.241-1.031-0.492-2.062-0.768-3.091c-0.276-1.03-0.574-2.048-0.881-3.062
	l-10.048,0.254c-1.178-3.425-2.566-6.751-4.16-9.958l7.259-6.897c-0.5-0.934-1.01-1.864-1.541-2.787
	c-0.535-0.923-1.085-1.829-1.646-2.729l-9.628,2.843c-2.018-2.988-4.238-5.825-6.615-8.521l5.235-8.557
	c-0.725-0.772-1.458-1.54-2.209-2.293c-0.757-0.755-1.521-1.489-2.297-2.212l-8.59,5.255c-2.71-2.359-5.565-4.556-8.565-6.554
	l2.837-9.604c-0.898-0.559-1.807-1.11-2.727-1.644c-0.925-0.531-1.854-1.042-2.79-1.54l-6.916,7.275
	c-3.218-1.574-6.558-2.934-9.992-4.09l0.256-10.01c-1.014-0.307-2.031-0.604-3.059-0.882c-1.031-0.274-2.062-0.527-3.095-0.765
	l-4.802,8.826c-3.494-0.677-7.065-1.133-10.7-1.36l-2.348-9.751c-1.058-0.034-2.118-0.058-3.182-0.06
	c-1.069,0.003-2.131,0.026-3.189,0.062l-2.358,9.79c-3.633,0.25-7.207,0.714-10.698,1.414l-4.777-8.788
	c-1.029,0.241-2.062,0.493-3.089,0.766c-1.03,0.277-2.051,0.574-3.063,0.883l0.254,10.046c-3.426,1.178-6.751,2.566-9.959,4.161
	l-6.896-7.257c-0.933,0.5-1.864,1.009-2.784,1.539c-0.927,0.535-1.833,1.086-2.732,1.647l2.843,9.627
	c-2.988,2.018-5.826,4.239-8.522,6.616l-8.557-5.236c-0.771,0.724-1.541,1.458-2.292,2.207c-0.757,0.758-1.488,1.525-2.213,2.299
	l5.255,8.589c-2.36,2.71-4.556,5.565-6.555,8.566l-9.603-2.838c-0.559,0.899-1.111,1.808-1.644,2.725
	c-0.533,0.928-1.042,1.858-1.54,2.793l7.274,6.915c-1.574,3.218-2.934,6.558-4.09,9.992l-10.011-0.255
	c-0.306,1.013-0.604,2.033-0.882,3.057c-0.273,1.035-0.523,2.065-0.765,3.097l8.826,4.801c-0.677,3.495-1.134,7.067-1.36,10.703
	l-9.749,2.348c-0.033,1.057-0.059,2.121-0.061,3.181c0.003,1.07,0.027,2.13,0.062,3.189l9.788,2.358
	c0.25,3.633,0.715,7.206,1.414,10.697l-8.787,4.778c0.242,1.029,0.492,2.062,0.766,3.088c0.277,1.033,0.576,2.05,0.886,3.064
	l10.042-0.256c1.178,3.426,2.567,6.752,4.161,9.96l-7.258,6.897c0.501,0.932,1.011,1.865,1.54,2.785
	c0.536,0.924,1.087,1.83,1.648,2.729l9.625-2.844c2.018,2.988,4.239,5.826,6.617,8.522l-5.236,8.557
	c0.726,0.771,1.458,1.541,2.209,2.293c0.757,0.756,1.524,1.488,2.298,2.211l8.589-5.255c2.71,2.359,5.564,4.555,8.565,6.554
	l-2.837,9.605c0.899,0.558,1.807,1.111,2.727,1.644c0.928,0.532,1.857,1.041,2.792,1.54l6.915-7.277
	c3.218,1.574,6.557,2.934,9.991,4.09l-0.255,10.014c1.015,0.306,2.032,0.605,3.059,0.882c1.034,0.274,2.063,0.524,3.097,0.765
	l4.799-8.828c3.494,0.677,7.064,1.134,10.699,1.36l2.35,9.752c1.059,0.03,2.119,0.06,3.182,0.06c1.072-0.002,2.131-0.027,3.19-0.062
	l2.356-9.789c3.633-0.25,7.206-0.715,10.696-1.414l4.781,8.79c1.03-0.244,2.062-0.492,3.088-0.767
	c1.034-0.279,2.05-0.576,3.064-0.885l-0.258-10.046c3.426-1.178,6.752-2.565,9.96-4.16l6.899,7.259
	c0.933-0.502,1.864-1.01,2.784-1.539c0.927-0.539,1.831-1.088,2.731-1.648l-2.846-9.627c2.988-2.019,5.825-4.239,8.521-6.616
	l8.561,5.236c0.771-0.728,1.54-1.457,2.291-2.208c0.757-0.76,1.488-1.523,2.213-2.299l-5.258-8.59
	c2.358-2.71,4.555-5.563,6.553-8.563l9.607,2.837c0.557-0.9,1.109-1.807,1.642-2.726c0.534-0.929,1.042-1.856,1.542-2.794
	l-7.278-6.913c1.574-3.218,2.934-6.557,4.09-9.991l10.016,0.254c0.304-1.014,0.604-2.031,0.88-3.057
	c0.275-1.037,0.525-2.063,0.766-3.098l-8.83-4.798c0.678-3.495,1.134-7.066,1.361-10.702L193.558,104.356z M54.553,55.555
	c25.295-25.295,66.454-25.295,91.749,0c2.633,2.635,4.979,5.451,7.062,8.393l-44.832,8.466c-8.849-2.465-18.599-0.812-26.231,4.954
	c-0.547,0.413-1.082,0.849-1.605,1.304c-0.536,0.466-1.062,0.943-1.572,1.453c-4.026,4.026-6.674,8.909-7.942,14.062L46.457,65.432
	C48.781,61.943,51.476,58.629,54.553,55.555z M108.366,109.364c-0.028,0.025-0.058,0.053-0.086,0.082
	c-1.374,1.346-3.011,2.268-4.739,2.766c-2.22,0.64-4.595,0.58-6.782-0.176c-0.241-0.082-0.479-0.176-0.715-0.274
	c-1.291-0.548-2.5-1.345-3.553-2.396c-1.478-1.478-2.453-3.265-2.938-5.149c-0.457-1.798-0.465-3.687-0.022-5.486
	c0.476-1.92,1.46-3.737,2.961-5.238c0.188-0.189,0.386-0.368,0.583-0.542c0.195-0.168,0.397-0.332,0.6-0.485
	c2.845-2.149,6.478-2.763,9.772-1.845c1.734,0.481,3.377,1.391,4.761,2.722c0.052,0.051,0.106,0.098,0.158,0.149
	c1.647,1.649,2.677,3.682,3.084,5.811c0.051,0.253,0.088,0.508,0.116,0.763C111.969,103.374,110.903,106.827,108.366,109.364z
	 M41.491,74.313l29.754,34.6c1.294,5.062,3.915,9.855,7.878,13.818c2.824,2.824,6.07,4.963,9.535,6.432
	c0.634,0.269,1.271,0.521,1.917,0.741c5.876,2.027,12.252,2.185,18.204,0.472l-12.521,35.748
	c-15.198-0.973-30.116-7.233-41.704-18.821C34.851,127.6,30.499,98.272,41.491,74.313z M146.302,147.302
	c-11.124,11.123-25.315,17.352-39.878,18.691l15.081-43.047c0.074-0.072,0.149-0.142,0.226-0.216
	c6.816-6.815,9.675-16.083,8.594-24.963c-0.084-0.686-0.182-1.369-0.312-2.047c-1.096-5.714-3.855-11.172-8.28-15.597
	c-0.138-0.137-0.281-0.266-0.421-0.4l37.263-7.037C170.534,96.934,166.456,127.148,146.302,147.302z"/>
</svg>
