<?xml version="1.0" encoding="utf-8"?>
<!-- Generator: Adobe Illustrator 15.0.0, SVG Export Plug-In . SVG Version: 6.00 Build 0)  -->
<!DOCTYPE svg PUBLIC "-//W3C//DTD SVG 1.1//EN" "http://www.w3.org/Graphics/SVG/1.1/DTD/svg11.dtd">
<svg version="1.1" id="Layer_1" xmlns="http://www.w3.org/2000/svg" xmlns:xlink="http://www.w3.org/1999/xlink" x="0px" y="0px"
	 width="244.068px" height="244.068px" viewBox="0 0 244.068 244.068" enable-background="new 0 0 244.068 244.068"
	 xml:space="preserve">
<path d="M239.36,125.038c0.035-1.054,0.059-2.11,0.059-3.172c-0.001-1.062-0.023-2.118-0.059-3.172l-9.513-2.292
	c-0.142-2.61-0.373-5.196-0.698-7.752l8.914-3.883c-0.146-1.043-0.31-2.088-0.492-3.132c-0.186-1.047-0.391-2.083-0.609-3.115
	l-9.741-0.604c-0.593-2.544-1.273-5.054-2.044-7.525l8.092-5.363c-0.327-1.002-0.668-2.002-1.029-3
	c-0.365-0.997-0.747-1.981-1.141-2.96l-9.698,1.097c-1.025-2.395-2.136-4.745-3.327-7.046l7.043-6.693
	c-0.496-0.93-1.006-1.856-1.534-2.776c-0.531-0.92-1.079-1.822-1.638-2.718l-9.376,2.77c-1.423-2.173-2.923-4.291-4.495-6.351
	l5.786-7.832c-0.649-0.829-1.312-1.652-1.993-2.467c-0.684-0.814-1.379-1.608-2.086-2.393l-8.763,4.362
	c-1.773-1.891-3.615-3.717-5.521-5.476l4.341-8.721c-0.784-0.704-1.579-1.399-2.393-2.083c-0.814-0.683-1.637-1.344-2.469-1.995
	l-7.862,5.811c-2.074-1.556-4.206-3.04-6.393-4.445l2.757-9.327c-0.895-0.557-1.799-1.104-2.718-1.635
	c-0.922-0.53-1.847-1.038-2.778-1.535l-6.727,7.076c-2.312-1.172-4.671-2.263-7.074-3.268l1.093-9.65
	c-0.979-0.394-1.962-0.776-2.96-1.14c-0.999-0.361-1.997-0.701-3.002-1.028l-5.394,8.134c-2.475-0.749-4.988-1.41-7.535-1.981
	l-0.601-9.7c-1.032-0.217-2.067-0.423-3.113-0.607c-1.047-0.185-2.089-0.346-3.134-0.493l-3.906,8.965
	c-2.559-0.304-5.143-0.52-7.753-0.64l-2.279-9.47c-1.056-0.035-2.109-0.058-3.173-0.057c-1.063,0.002-2.117,0.022-3.173,0.059
	l-2.29,9.511c-2.609,0.142-5.195,0.373-7.751,0.698l-3.884-8.916c-1.045,0.15-2.087,0.31-3.133,0.494
	c-1.048,0.188-2.082,0.392-3.116,0.61l-0.602,9.74c-2.544,0.592-5.054,1.273-7.525,2.043l-5.364-8.09c-1.003,0.329-2,0.667-3,1.031
	c-0.998,0.365-1.981,0.745-2.959,1.14l1.098,9.695c-2.396,1.026-4.746,2.136-7.048,3.328l-6.696-7.044
	c-0.931,0.498-1.854,1.005-2.775,1.536c-0.92,0.534-1.821,1.078-2.716,1.639l2.769,9.375c-2.174,1.423-4.292,2.922-6.352,4.495
	l-7.832-5.786c-0.831,0.65-1.651,1.31-2.467,1.994c-0.814,0.685-1.606,1.379-2.392,2.085l4.362,8.762
	c-1.891,1.774-3.718,3.616-5.476,5.521l-8.721-4.34c-0.705,0.786-1.4,1.578-2.084,2.392c-0.682,0.816-1.342,1.637-1.994,2.469
	l5.811,7.862c-1.557,2.074-3.04,4.205-4.445,6.392l-9.326-2.753c-0.558,0.896-1.104,1.797-1.636,2.718
	c-0.531,0.921-1.038,1.843-1.534,2.776l7.076,6.724c-1.173,2.312-2.264,4.672-3.27,7.077L14.332,79.9
	c-0.395,0.978-0.775,1.962-1.141,2.961c-0.362,0.999-0.703,1.994-1.028,3l8.133,5.391c-0.749,2.477-1.411,4.99-1.981,7.539l-9.7,0.6
	c-0.218,1.032-0.422,2.066-0.608,3.114c-0.183,1.047-0.345,2.088-0.491,3.134l8.964,3.904c-0.304,2.558-0.52,5.144-0.64,7.754
	l-9.469,2.281c-0.035,1.055-0.057,2.109-0.058,3.173c0.003,1.062,0.022,2.116,0.06,3.17l9.51,2.29
	c0.142,2.61,0.373,5.196,0.698,7.753l-8.917,3.884c0.149,1.044,0.311,2.087,0.495,3.133c0.188,1.049,0.391,2.081,0.61,3.116
	l9.74,0.6c0.592,2.545,1.274,5.056,2.044,7.527l-8.092,5.361c0.329,1.006,0.669,2.003,1.033,3.003
	c0.365,0.996,0.743,1.979,1.14,2.958l9.695-1.099c1.026,2.396,2.137,4.747,3.329,7.05l-7.046,6.694
	c0.498,0.929,1.008,1.853,1.539,2.774c0.533,0.92,1.075,1.824,1.636,2.717l9.375-2.771c1.423,2.174,2.923,4.293,4.496,6.353
	l-5.789,7.834c0.651,0.829,1.312,1.649,1.998,2.466c0.685,0.813,1.375,1.608,2.083,2.393l8.762-4.364
	c1.774,1.892,3.616,3.719,5.523,5.478l-4.341,8.724c0.786,0.704,1.579,1.396,2.394,2.081c0.815,0.683,1.634,1.344,2.467,1.995
	l7.862-5.812c2.074,1.557,4.206,3.04,6.392,4.445l-2.755,9.329c0.895,0.556,1.797,1.101,2.719,1.634
	c0.922,0.528,1.842,1.038,2.776,1.534l6.724-7.077c2.312,1.172,4.672,2.263,7.078,3.27l-1.093,9.651
	c0.978,0.394,1.961,0.774,2.963,1.138c0.999,0.362,1.993,0.704,2.999,1.029l5.392-8.136c2.475,0.749,4.988,1.411,7.536,1.981
	l0.6,9.703c1.033,0.216,2.065,0.42,3.117,0.604c1.047,0.184,2.087,0.349,3.133,0.494l3.904-8.966c2.558,0.304,5.143,0.52,7.753,0.64
	l2.281,9.472c1.054,0.033,2.107,0.057,3.175,0.055c1.062-0.002,2.116-0.02,3.171-0.059l2.289-9.512
	c2.61-0.142,5.195-0.373,7.752-0.698l3.885,8.919c1.044-0.149,2.085-0.312,3.134-0.496c1.048-0.188,2.08-0.389,3.115-0.61l0.6-9.741
	c2.544-0.592,5.054-1.273,7.523-2.043l5.365,8.093c1.003-0.329,2-0.667,3.002-1.032c0.998-0.366,1.979-0.743,2.961-1.138
	l-1.101-9.699c2.396-1.025,4.745-2.136,7.047-3.327l6.698,7.046c0.929-0.498,1.851-1.004,2.774-1.538
	c0.919-0.533,1.821-1.074,2.718-1.636l-2.772-9.377c2.173-1.423,4.291-2.922,6.351-4.494l7.835,5.788
	c0.83-0.651,1.65-1.311,2.467-1.997c0.813-0.685,1.606-1.377,2.393-2.083l-4.363-8.765c1.891-1.773,3.717-3.614,5.475-5.52
	l8.726,4.341c0.702-0.786,1.396-1.577,2.082-2.393c0.682-0.818,1.344-1.635,1.994-2.47l-5.812-7.862
	c1.556-2.073,3.039-4.204,4.444-6.391l9.33,2.756c0.555-0.895,1.1-1.795,1.634-2.719c0.528-0.926,1.039-1.846,1.535-2.777
	l-7.078-6.726c1.172-2.312,2.263-4.671,3.269-7.074l9.653,1.093c0.393-0.979,0.772-1.961,1.137-2.964
	c0.361-0.998,0.704-1.994,1.03-2.999l-8.136-5.392c0.748-2.476,1.41-4.988,1.98-7.536l9.704-0.603
	c0.216-1.032,0.42-2.063,0.604-3.115c0.184-1.048,0.35-2.087,0.494-3.131l-8.966-3.904c0.305-2.56,0.521-5.146,0.641-7.757
	L239.36,125.038z M152.407,45.59l-19.729,34.174c-13.98-3.17-28.797,0.849-39.338,10.662L59.36,70.807
	C81.652,43.183,119.447,32.941,152.407,45.59z M140.56,119.58c0.582,3.889-0.09,7.999-2.209,11.668
	c-4.957,8.588-15.938,11.564-24.479,6.635c-3.648-2.107-6.261-5.326-7.679-8.988L140.56,119.58z M104.982,122.589
	c-0.039-3.132,0.716-6.317,2.395-9.223c4.959-8.591,15.942-11.564,24.482-6.636c2.89,1.669,5.119,4.044,6.633,6.774L104.982,122.589
	z M46.511,93.058l33.979,19.619c-3.228,14.037,0.702,28.875,10.438,39.4l-19.73,34.174C43.763,164.03,33.737,126.177,46.511,93.058z
	 M93.322,199.024l19.73-34.174c13.98,3.17,28.799-0.846,39.34-10.66l33.979,19.617C164.08,201.43,126.283,211.673,93.322,199.024z
	 M165.241,131.938c3.229-14.039-0.701-28.877-10.438-39.4l19.729-34.175c27.435,22.221,37.463,60.073,24.688,93.192L165.241,131.938
	z"/>
</svg>
