<?xml version="1.0" encoding="utf-8"?>
<!-- Generator: Adobe Illustrator 15.0.0, SVG Export Plug-In . SVG Version: 6.00 Build 0)  -->
<!DOCTYPE svg PUBLIC "-//W3C//DTD SVG 1.1//EN" "http://www.w3.org/Graphics/SVG/1.1/DTD/svg11.dtd">
<svg version="1.1" id="Layer_1" xmlns="http://www.w3.org/2000/svg" xmlns:xlink="http://www.w3.org/1999/xlink" x="0px" y="0px"
	 width="294.068px" height="297.458px" viewBox="0 0 294.068 297.458" enable-background="new 0 0 294.068 297.458"
	 xml:space="preserve">
<g>
	<path d="M146.796,100.772c-27.147,0-49.233,21.841-49.233,48.688c0,26.849,22.086,48.69,49.233,48.69
		c27.146,0,49.233-21.843,49.233-48.69C196.03,122.613,173.943,100.772,146.796,100.772z M146.796,193.327
		c-24.459,0-44.355-19.679-44.355-43.867c0-24.188,19.896-43.865,44.355-43.865c24.458,0,44.354,19.678,44.354,43.865
		C191.15,173.648,171.254,193.327,146.796,193.327z"/>
	<path d="M146.797,116.108c-18.6,0-33.729,14.962-33.729,33.354c0,18.393,15.129,33.354,33.729,33.354
		c18.597,0,33.727-14.963,33.727-33.354C180.523,131.071,165.392,116.108,146.797,116.108z M144.356,173.043
		c-12.074-1.215-21.53-11.326-21.53-23.582c0-12.257,9.456-22.371,21.53-23.583V173.043z M149.234,173.043v-47.166
		c12.076,1.213,21.532,11.326,21.532,23.583C170.766,161.717,161.31,171.831,149.234,173.043z"/>
	<path d="M287.725,152.814c0.034-1.05,0.059-2.104,0.059-3.162c0-1.062-0.021-2.113-0.059-3.166l-8.869-2.137
		c-0.16-4.191-0.511-8.334-1.052-12.417l8.362-3.643c-0.146-1.041-0.308-2.082-0.491-3.124c-0.186-1.043-0.392-2.076-0.607-3.106
		l-9.079-0.563c-0.881-4.093-1.95-8.116-3.201-12.059l7.585-5.028c-0.326-0.999-0.664-1.997-1.025-2.992
		c-0.362-0.996-0.744-1.977-1.139-2.953l-9.029,1.021c-1.58-3.866-3.338-7.64-5.264-11.312l6.605-6.276
		c-0.495-0.926-1.002-1.852-1.53-2.768c-0.532-0.917-1.078-1.818-1.633-2.711l-8.732,2.579c-2.223-3.52-4.606-6.927-7.143-10.212
		l5.426-7.344c-0.646-0.827-1.307-1.649-1.987-2.461c-0.684-0.811-1.376-1.603-2.079-2.386l-8.158,4.062
		c-2.793-3.078-5.731-6.021-8.802-8.823l4.069-8.175c-0.782-0.702-1.573-1.397-2.383-2.078c-0.815-0.681-1.637-1.339-2.464-1.988
		l-7.331,5.416c-3.278-2.546-6.679-4.941-10.193-7.175l2.583-8.742c-0.892-0.556-1.792-1.104-2.708-1.634
		c-0.921-0.527-1.843-1.035-2.77-1.53l-6.268,6.594c-3.668-1.937-7.437-3.706-11.298-5.297l1.025-9.044
		c-0.976-0.392-1.956-0.775-2.951-1.138c-0.998-0.361-1.994-0.699-2.994-1.027l-5.021,7.573c-3.939-1.263-7.959-2.344-12.05-3.238
		l-0.562-9.093c-1.028-0.216-2.062-0.423-3.104-0.608c-1.046-0.182-2.087-0.341-3.128-0.492l-3.637,8.349
		c-4.082-0.553-8.224-0.918-12.416-1.09l-2.137-8.883c-1.052-0.035-2.104-0.059-3.163-0.06c-1.062,0.005-2.115,0.027-3.165,0.061
		l-2.136,8.868c-4.192,0.16-8.335,0.51-12.419,1.052l-3.641-8.36c-1.041,0.148-2.081,0.306-3.124,0.49
		c-1.046,0.187-2.08,0.393-3.106,0.608l-0.562,9.076c-4.095,0.882-8.12,1.951-12.063,3.203l-5.023-7.582
		c-0.999,0.327-1.997,0.663-2.992,1.025c-0.995,0.363-1.979,0.747-2.954,1.137l1.022,9.028c-3.866,1.58-7.641,3.338-11.313,5.264
		l-6.272-6.603c-0.927,0.496-1.854,1-2.77,1.529c-0.917,0.533-1.818,1.08-2.711,1.633l2.578,8.73
		c-3.521,2.224-6.93,4.609-10.216,7.146L58.78,39.35c-0.827,0.649-1.65,1.306-2.462,1.986c-0.812,0.684-1.605,1.38-2.387,2.079
		l4.06,8.158c-3.078,2.794-6.021,5.732-8.824,8.802l-8.169-4.068C40.296,57.09,39.6,57.88,38.92,58.69
		c-0.683,0.815-1.342,1.637-1.991,2.463l5.415,7.328c-2.546,3.28-4.941,6.681-7.176,10.197l-8.738-2.584
		c-0.557,0.893-1.104,1.792-1.635,2.708c-0.527,0.92-1.035,1.846-1.531,2.771l6.593,6.264c-1.938,3.668-3.706,7.437-5.298,11.298
		l-9.04-1.026c-0.392,0.977-0.777,1.956-1.139,2.951c-0.362,0.999-0.698,1.999-1.027,2.997l7.57,5.018
		c-1.263,3.94-2.345,7.961-3.238,12.053l-9.088,0.561c-0.216,1.03-0.428,2.062-0.609,3.103c-0.184,1.046-0.342,2.089-0.493,3.129
		l8.347,3.635c-0.553,4.083-0.918,8.225-1.09,12.417l-8.879,2.137c-0.033,1.051-0.062,2.104-0.062,3.162
		c0.004,1.062,0.027,2.116,0.061,3.167l8.866,2.134c0.159,4.192,0.51,8.336,1.052,12.42l-8.357,3.641
		c0.148,1.041,0.305,2.084,0.488,3.125c0.188,1.043,0.396,2.08,0.61,3.107l9.075,0.561c0.882,4.095,1.951,8.119,3.202,12.062
		l-7.582,5.024c0.329,0.999,0.663,1.999,1.023,2.991c0.366,0.998,0.751,1.98,1.142,2.957l9.025-1.024
		c1.58,3.866,3.337,7.642,5.265,11.313l-6.602,6.271c0.497,0.928,0.999,1.854,1.528,2.77c0.532,0.92,1.081,1.819,1.634,2.713
		l8.729-2.578c2.224,3.521,4.608,6.928,7.145,10.214l-5.424,7.341c0.648,0.827,1.305,1.65,1.985,2.462
		c0.684,0.812,1.383,1.604,2.081,2.388l8.156-4.061c2.794,3.077,5.733,6.021,8.803,8.824l-4.069,8.171
		c0.784,0.698,1.575,1.397,2.384,2.079c0.814,0.682,1.641,1.341,2.466,1.99l7.328-5.416c3.279,2.545,6.68,4.94,10.194,7.174
		l-2.583,8.742c0.892,0.555,1.792,1.104,2.708,1.635c0.919,0.527,1.848,1.033,2.772,1.529l6.264-6.594
		c3.667,1.938,7.437,3.706,11.298,5.297l-1.025,9.045c0.976,0.391,1.956,0.774,2.95,1.137c0.998,0.363,1.999,0.697,2.998,1.025
		l5.017-7.572c3.94,1.264,7.959,2.346,12.05,3.238l0.562,9.092c1.027,0.215,2.06,0.426,3.103,0.608
		c1.048,0.185,2.092,0.343,3.131,0.491l3.635-8.35c4.082,0.554,8.222,0.918,12.414,1.09l2.138,8.883
		c1.049,0.033,2.104,0.061,3.162,0.062c1.063-0.002,2.119-0.029,3.168-0.062l2.134-8.867c4.192-0.16,8.336-0.511,12.42-1.053
		l3.641,8.361c1.04-0.148,2.083-0.306,3.125-0.488c1.046-0.186,2.08-0.395,3.107-0.611l0.561-9.076
		c4.094-0.882,8.116-1.949,12.061-3.201l5.027,7.584c0.996-0.328,1.997-0.662,2.992-1.021c0.997-0.365,1.979-0.753,2.953-1.143
		l-1.022-9.029c3.865-1.58,7.639-3.338,11.311-5.262l6.276,6.604c0.924-0.497,1.851-0.999,2.769-1.527
		c0.922-0.533,1.821-1.086,2.713-1.639l-2.58-8.729c3.521-2.224,6.928-4.608,10.214-7.145l7.344,5.428
		c0.824-0.648,1.65-1.305,2.462-1.986c0.813-0.684,1.604-1.383,2.386-2.084l-4.062-8.156c3.077-2.793,6.021-5.73,8.822-8.801
		l8.175,4.07c0.698-0.783,1.397-1.572,2.079-2.382c0.684-0.815,1.342-1.643,1.987-2.469l-5.417-7.328
		c2.547-3.278,4.941-6.679,7.176-10.192l8.744,2.582c0.553-0.892,1.104-1.791,1.634-2.707c0.528-0.922,1.033-1.849,1.528-2.772
		l-6.594-6.265c1.938-3.668,3.706-7.437,5.297-11.297l9.046,1.023c0.389-0.975,0.774-1.956,1.138-2.949
		c0.362-0.998,0.697-2,1.024-2.996l-7.572-5.021c1.264-3.938,2.345-7.957,3.237-12.048l9.096-0.561
		c0.212-1.029,0.424-2.062,0.607-3.105c0.183-1.047,0.34-2.09,0.49-3.129l-8.351-3.637c0.554-4.08,0.918-8.222,1.091-12.412
		L287.725,152.814z M146.796,263.258c-63.45,0-115.07-51.049-115.07-113.799c0-62.748,51.62-113.795,115.07-113.795
		s115.071,51.048,115.071,113.795C261.868,212.209,210.247,263.258,146.796,263.258z"/>
</g>
</svg>
