<?xml version="1.0" encoding="utf-8"?>
<!-- Generator: Adobe Illustrator 15.0.0, SVG Export Plug-In . SVG Version: 6.00 Build 0)  -->
<!DOCTYPE svg PUBLIC "-//W3C//DTD SVG 1.1//EN" "http://www.w3.org/Graphics/SVG/1.1/DTD/svg11.dtd">
<svg version="1.1" id="Layer_1" xmlns="http://www.w3.org/2000/svg" xmlns:xlink="http://www.w3.org/1999/xlink" x="0px" y="0px"
	 width="219.492px" height="220.339px" viewBox="0 0 219.492 220.339" enable-background="new 0 0 219.492 220.339"
	 xml:space="preserve">
<path d="M215.998,113.151c0.035-1.058,0.059-2.118,0.059-3.185s-0.023-2.127-0.059-3.186l-9.766-2.353
	c-0.157-2.991-0.456-5.945-0.883-8.857l9.103-4.35c-0.187-1.042-0.384-2.085-0.604-3.127c-0.223-1.044-0.466-2.076-0.721-3.104
	l-10.022-0.271c-0.774-2.886-1.68-5.718-2.711-8.489l7.989-6.138c-0.398-0.981-0.809-1.96-1.242-2.934
	c-0.435-0.975-0.888-1.934-1.351-2.887l-9.856,1.818c-1.357-2.652-2.838-5.229-4.43-7.73l6.547-7.675
	c-0.596-0.876-1.197-1.749-1.824-2.611c-0.629-0.863-1.27-1.707-1.922-2.543l-9.285,3.837c-1.942-2.391-3.998-4.685-6.159-6.876
	c0.078,0.079,0.159,0.156,0.237,0.235l4.812-8.878c-0.766-0.733-1.536-1.461-2.327-2.174c-0.793-0.713-1.597-1.405-2.408-2.088
	l-8.285,5.684c-2.305-1.864-4.697-3.624-7.172-5.27l2.86-9.678c-0.9-0.558-1.807-1.109-2.729-1.642
	c-0.925-0.534-1.854-1.043-2.789-1.542l-6.908,7.265c-2.64-1.344-5.349-2.569-8.123-3.667l0.783-10.042
	c-0.996-0.358-1.998-0.709-3.01-1.039c-1.015-0.329-2.031-0.634-3.05-0.928l-5.246,8.544c-2.852-0.759-5.756-1.388-8.706-1.883
	l-1.322-10c-1.051-0.144-2.103-0.279-3.16-0.391c-1.063-0.111-2.119-0.199-3.176-0.274l-3.361,9.462
	c-1.618-0.082-3.246-0.123-4.885-0.123c-1.402,0-2.795,0.037-4.183,0.097c0.056-0.003,0.112-0.007,0.168-0.01l-3.376-9.517
	c-1.058,0.078-2.114,0.165-3.173,0.275C99.271,5.02,98.219,5.154,97.169,5.3l-1.317,9.947c-2.956,0.468-5.867,1.068-8.725,1.8
	l-5.269-8.586c-1.018,0.296-2.033,0.601-3.047,0.929c-1.017,0.331-2.017,0.681-3.014,1.042l0.779,9.992
	c-2.784,1.073-5.504,2.273-8.155,3.592l-6.944-7.307c-0.934,0.501-1.864,1.01-2.787,1.542c-0.925,0.534-1.83,1.084-2.732,1.644
	l2.843,9.628c-2.489,1.624-4.898,3.359-7.219,5.202l-8.325-5.714c-0.81,0.684-1.614,1.375-2.406,2.088
	c-0.793,0.715-1.564,1.443-2.33,2.177l4.787,8.833c-2.095,2.1-4.092,4.297-5.985,6.583l-9.33-3.857
	c-0.648,0.837-1.292,1.681-1.919,2.542c-0.627,0.864-1.231,1.736-1.827,2.613l6.514,7.638c-1.613,2.485-3.111,5.05-4.492,7.688
	l-9.917-1.831c-0.46,0.953-0.914,1.913-1.349,2.886c-0.433,0.975-0.841,1.954-1.243,2.936l7.95,6.109
	c-1.057,2.761-1.991,5.583-2.792,8.46L8.844,84.148c-0.252,1.028-0.497,2.062-0.72,3.104c-0.221,1.043-0.416,2.086-0.605,3.13
	l9.054,4.327c-0.472,3.026-0.799,6.1-0.979,9.213c0.007-0.121,0.01-0.244,0.018-0.365l-9.815,2.364
	c-0.033,1.058-0.058,2.12-0.059,3.186c0.001,1.066,0.026,2.126,0.058,3.188l9.767,2.354c0.158,2.99,0.457,5.943,0.883,8.854
	l-9.103,4.35c0.188,1.041,0.385,2.086,0.605,3.128c0.221,1.043,0.466,2.075,0.719,3.105l10.024,0.27
	c0.774,2.886,1.679,5.717,2.71,8.487l-7.989,6.139c0.4,0.979,0.811,1.96,1.243,2.935c0.435,0.976,0.888,1.934,1.35,2.89l9.858-1.819
	c1.357,2.65,2.837,5.228,4.427,7.728l-6.546,7.675c0.596,0.876,1.2,1.749,1.827,2.611c0.627,0.863,1.268,1.707,1.92,2.545
	l9.285-3.837c1.947,2.396,4.007,4.694,6.174,6.89c-0.083-0.085-0.171-0.167-0.254-0.252l-4.812,8.876
	c0.765,0.733,1.537,1.462,2.329,2.175c0.793,0.715,1.597,1.406,2.408,2.09l8.284-5.685c2.304,1.864,4.696,3.624,7.17,5.271
	l-2.859,9.678c0.9,0.559,1.807,1.109,2.73,1.644c0.924,0.532,1.853,1.042,2.789,1.543l6.906-7.268
	c2.639,1.344,5.348,2.569,8.122,3.667l-0.783,10.039c0.997,0.359,1.998,0.711,3.013,1.041c1.014,0.33,2.029,0.635,3.049,0.931
	l5.246-8.545c2.851,0.758,5.754,1.387,8.704,1.882l1.324,10.001c1.05,0.144,2.102,0.278,3.162,0.39
	c1.063,0.112,2.118,0.198,3.177,0.276l3.359-9.464c1.618,0.081,3.246,0.123,4.884,0.123c1.418,0,2.826-0.037,4.229-0.099
	c-0.072,0.004-0.145,0.01-0.216,0.013l3.377,9.516c1.058-0.078,2.114-0.164,3.174-0.275c1.063-0.111,2.114-0.246,3.165-0.391
	l1.317-9.947c2.954-0.468,5.865-1.067,8.724-1.8l5.27,8.585c1.02-0.296,2.033-0.599,3.047-0.93c1.018-0.329,2.017-0.68,3.016-1.04
	l-0.779-9.993c2.782-1.072,5.501-2.272,8.151-3.591l6.944,7.307c0.936-0.501,1.865-1.009,2.787-1.543
	c0.928-0.534,1.832-1.083,2.733-1.644l-2.844-9.627c2.519-1.644,4.955-3.4,7.301-5.268c-0.027,0.021-0.054,0.045-0.081,0.066
	l8.325,5.712c0.812-0.685,1.614-1.374,2.405-2.088c0.795-0.716,1.564-1.442,2.332-2.177l-4.788-8.831
	c2.095-2.1,4.092-4.297,5.984-6.583l9.329,3.855c0.65-0.838,1.293-1.68,1.92-2.543c0.629-0.865,1.232-1.734,1.827-2.613
	l-6.514-7.636c1.613-2.485,3.112-5.051,4.493-7.688l9.914,1.829c0.463-0.955,0.916-1.912,1.351-2.887
	c0.435-0.976,0.842-1.953,1.243-2.935l-7.949-6.108c1.057-2.762,1.991-5.583,2.793-8.461l10.072-0.271
	c0.253-1.029,0.498-2.061,0.72-3.104c0.222-1.046,0.417-2.086,0.604-3.131l-9.052-4.325c0.461-2.959,0.782-5.965,0.966-9.008
	c-0.003,0.053-0.005,0.105-0.008,0.158L215.998,113.151z M177.382,41.026c-0.11-0.107-0.22-0.216-0.33-0.323
	C177.163,40.811,177.271,40.919,177.382,41.026z M186.078,99.481h-38.633v0.001c-3.547-12.767-13.668-22.835-26.493-26.352V34.835
	C154.736,39.301,181.555,65.925,186.078,99.481z M128.711,109.537c0,3.583-1.089,6.916-2.945,9.701l-24.607-24.466
	c2.802-1.822,6.144-2.891,9.738-2.891C120.721,91.881,128.711,99.801,128.711,109.537z M100.842,34.835V73.13
	C88.017,76.647,77.897,86.716,74.35,99.482H35.718C40.243,65.925,67.058,39.301,100.842,34.835z M49.336,36.567
	c0.066-0.056,0.131-0.111,0.198-0.167C49.468,36.456,49.402,36.511,49.336,36.567z M15.506,105.759
	c-0.011,0.275-0.023,0.549-0.031,0.824C15.483,106.308,15.495,106.034,15.506,105.759z M44.403,178.038
	c0.114,0.11,0.227,0.224,0.342,0.334C44.63,178.261,44.517,178.148,44.403,178.038z M35.718,119.591H74.35
	c3.547,12.766,13.667,22.834,26.492,26.351v38.294C67.058,179.771,40.242,153.148,35.718,119.591z M93.083,109.537
	c0-4.368,1.617-8.363,4.279-11.449l25.045,24.9c-3.108,2.615-7.125,4.203-11.511,4.203
	C101.075,127.191,93.083,119.271,93.083,109.537z M120.952,184.236v-38.294c12.825-3.517,22.944-13.585,26.493-26.351h38.633
	C181.553,153.148,154.736,179.771,120.952,184.236z M172.523,182.45c-0.106,0.09-0.212,0.18-0.318,0.27
	C172.312,182.629,172.417,182.54,172.523,182.45z M206.318,112.514c-0.007,0.234-0.018,0.468-0.026,0.702
	C206.301,112.982,206.312,112.749,206.318,112.514z"/>
</svg>
