<?xml version="1.0" encoding="utf-8"?>
<!-- Generator: Adobe Illustrator 15.0.0, SVG Export Plug-In . SVG Version: 6.00 Build 0)  -->
<!DOCTYPE svg PUBLIC "-//W3C//DTD SVG 1.1//EN" "http://www.w3.org/Graphics/SVG/1.1/DTD/svg11.dtd">
<svg version="1.1" id="Layer_1" xmlns="http://www.w3.org/2000/svg" xmlns:xlink="http://www.w3.org/1999/xlink" x="0px" y="0px"
	 width="194.916px" height="199.178px" viewBox="0 0 194.916 199.178" enable-background="new 0 0 194.916 199.178"
	 xml:space="preserve">
<path d="M191.017,101.813c0.035-1.059,0.06-2.119,0.06-3.186s-0.024-2.127-0.06-3.186l-9.791-2.358
	c-0.25-3.633-0.715-7.206-1.414-10.696l8.79-4.779c-0.241-1.031-0.492-2.062-0.768-3.091c-0.276-1.031-0.574-2.048-0.881-3.062
	l-10.049,0.254c-1.178-3.425-2.565-6.75-4.16-9.958l7.26-6.897c-0.5-0.934-1.01-1.864-1.541-2.787
	c-0.535-0.923-1.086-1.83-1.646-2.729l-9.629,2.843c-2.018-2.988-4.239-5.825-6.616-8.521l5.237-8.557
	c-0.726-0.772-1.458-1.54-2.209-2.293c-0.757-0.756-1.522-1.489-2.297-2.212l-8.591,5.256c-2.71-2.36-5.565-4.556-8.565-6.555
	l2.838-9.604c-0.899-0.559-1.807-1.11-2.727-1.644c-0.925-0.531-1.854-1.042-2.79-1.54l-6.916,7.276
	c-3.219-1.574-6.558-2.934-9.992-4.09l0.256-10.012c-1.014-0.307-2.031-0.604-3.059-0.882c-1.031-0.274-2.062-0.526-3.096-0.765
	l-4.801,8.828c-3.494-0.677-7.065-1.133-10.7-1.36l-2.348-9.751c-1.058-0.034-2.118-0.058-3.182-0.06
	c-1.069,0.003-2.131,0.026-3.189,0.062l-2.359,9.79c-3.633,0.25-7.206,0.714-10.696,1.414l-4.778-8.789
	c-1.03,0.241-2.062,0.493-3.088,0.766c-1.032,0.278-2.052,0.575-3.065,0.883l0.254,10.047c-3.425,1.178-6.75,2.566-9.958,4.16
	l-6.896-7.258c-0.933,0.5-1.865,1.009-2.785,1.539c-0.926,0.536-1.833,1.087-2.732,1.647l2.844,9.628
	c-2.988,2.018-5.826,4.239-8.521,6.616l-8.557-5.236c-0.771,0.724-1.541,1.458-2.292,2.207c-0.757,0.758-1.489,1.524-2.213,2.299
	l5.255,8.59c-2.359,2.71-4.556,5.565-6.554,8.565l-9.604-2.838c-0.558,0.899-1.111,1.808-1.643,2.725
	c-0.533,0.927-1.042,1.858-1.54,2.793l7.275,6.915c-1.575,3.218-2.934,6.558-4.09,9.991L8.687,71.956
	c-0.306,1.013-0.605,2.033-0.882,3.057c-0.275,1.034-0.525,2.065-0.766,3.097l8.827,4.801c-0.677,3.495-1.133,7.066-1.36,10.701
	l-9.75,2.348c-0.033,1.057-0.059,2.121-0.061,3.181c0.003,1.071,0.028,2.13,0.063,3.19l9.788,2.357
	c0.25,3.634,0.714,7.207,1.414,10.697l-8.786,4.777c0.242,1.03,0.492,2.063,0.766,3.09c0.277,1.033,0.576,2.05,0.885,3.063
	l10.042-0.256c1.178,3.427,2.567,6.753,4.162,9.961l-7.258,6.897c0.501,0.932,1.01,1.865,1.54,2.785
	c0.536,0.924,1.087,1.83,1.648,2.729l9.626-2.844c2.018,2.988,4.239,5.825,6.616,8.521l-5.236,8.558
	c0.726,0.771,1.458,1.541,2.209,2.293c0.757,0.756,1.524,1.487,2.298,2.211l8.589-5.255c2.71,2.358,5.564,4.555,8.565,6.554
	l-2.838,9.605c0.9,0.558,1.807,1.111,2.727,1.644c0.928,0.532,1.857,1.041,2.792,1.54l6.915-7.277
	c3.218,1.574,6.557,2.934,9.99,4.09l-0.254,10.014c1.015,0.305,2.032,0.604,3.059,0.881c1.034,0.273,2.063,0.525,3.096,0.765
	l4.799-8.827c3.494,0.677,7.065,1.134,10.699,1.36l2.349,9.752c1.059,0.03,2.119,0.06,3.182,0.06
	c1.071-0.004,2.131-0.027,3.19-0.062l2.356-9.789c3.633-0.25,7.206-0.715,10.696-1.414l4.781,8.789
	c1.029-0.244,2.062-0.492,3.088-0.768c1.033-0.277,2.05-0.574,3.064-0.883l-0.258-10.046c3.426-1.178,6.752-2.565,9.96-4.16
	l6.899,7.257c0.933-0.502,1.863-1.008,2.783-1.539c0.928-0.537,1.832-1.086,2.732-1.647l-2.847-9.626
	c2.988-2.018,5.826-4.238,8.522-6.616l8.561,5.236c0.771-0.728,1.539-1.457,2.291-2.208c0.757-0.76,1.488-1.523,2.213-2.299
	l-5.258-8.59c2.359-2.709,4.555-5.563,6.554-8.563l9.606,2.837c0.557-0.9,1.109-1.807,1.642-2.726
	c0.534-0.931,1.042-1.857,1.542-2.794l-7.278-6.912c1.574-3.219,2.934-6.559,4.09-9.993l10.016,0.254
	c0.304-1.015,0.604-2.03,0.88-3.058c0.275-1.035,0.525-2.062,0.766-3.096l-8.829-4.8c0.677-3.494,1.134-7.065,1.36-10.7
	L191.017,101.813z M52.011,53.013c25.295-25.295,66.454-25.295,91.749,0c2.634,2.635,4.979,5.451,7.063,8.393l-44.832,8.466
	c-8.849-2.465-18.599-0.812-26.232,4.954c-0.547,0.413-1.082,0.849-1.605,1.304c-0.536,0.466-1.063,0.943-1.573,1.453
	c-4.026,4.026-6.673,8.909-7.942,14.062L43.915,62.89C46.239,59.402,48.935,56.088,52.011,53.013z M105.824,106.822
	c-0.029,0.025-0.058,0.054-0.086,0.082c-1.374,1.345-3.011,2.269-4.74,2.767c-2.219,0.639-4.594,0.58-6.782-0.176
	c-0.241-0.082-0.478-0.177-0.715-0.275c-1.291-0.547-2.5-1.344-3.552-2.396c-1.478-1.477-2.454-3.264-2.938-5.148
	c-0.457-1.798-0.465-3.687-0.022-5.486c0.475-1.92,1.46-3.737,2.961-5.238c0.188-0.189,0.385-0.368,0.583-0.542
	c0.195-0.168,0.397-0.332,0.599-0.485c2.845-2.149,6.478-2.763,9.773-1.845c1.734,0.481,3.377,1.391,4.761,2.722
	c0.051,0.051,0.106,0.098,0.158,0.149c1.646,1.649,2.676,3.682,3.084,5.811c0.051,0.253,0.088,0.508,0.116,0.763
	C109.428,100.833,108.361,104.284,105.824,106.822z M38.949,71.771l29.753,34.601c1.294,5.062,3.916,9.854,7.878,13.817
	c2.825,2.824,6.071,4.963,9.536,6.433c0.633,0.268,1.271,0.52,1.917,0.74c5.876,2.027,12.252,2.184,18.204,0.473l-12.522,35.746
	c-15.198-0.972-30.116-7.232-41.704-18.82C32.31,125.058,27.957,95.73,38.949,71.771z M143.76,144.761
	c-11.123,11.123-25.314,17.352-39.877,18.691l15.08-43.047c0.074-0.072,0.15-0.142,0.227-0.216
	c6.816-6.815,9.675-16.083,8.594-24.963c-0.084-0.686-0.182-1.369-0.312-2.047c-1.096-5.714-3.855-11.172-8.28-15.597
	c-0.138-0.137-0.281-0.266-0.421-0.4l37.263-7.037C167.992,94.393,163.914,124.606,143.76,144.761z"/>
</svg>
