<?xml version="1.0" encoding="utf-8"?>
<!-- Generator: Adobe Illustrator 15.0.0, SVG Export Plug-In . SVG Version: 6.00 Build 0)  -->
<!DOCTYPE svg PUBLIC "-//W3C//DTD SVG 1.1//EN" "http://www.w3.org/Graphics/SVG/1.1/DTD/svg11.dtd">
<svg version="1.1" id="Layer_1" xmlns="http://www.w3.org/2000/svg" xmlns:xlink="http://www.w3.org/1999/xlink" x="0px" y="0px"
	 width="255.932px" height="255.084px" viewBox="0 0 255.932 255.084" enable-background="new 0 0 255.932 255.084"
	 xml:space="preserve">
<path d="M252.003,131.928c0.045-1.059,0.078-2.118,0.088-3.185c0.009-1.067-0.005-2.127-0.03-3.187l-9.657-2.422
	c-0.106-2.997-0.322-5.966-0.654-8.9l9.169-3.893c-0.14-1.049-0.291-2.1-0.466-3.151c-0.177-1.052-0.373-2.094-0.582-3.133
	l-9.892-0.705c-0.622-2.936-1.351-5.832-2.192-8.681l8.314-5.399c-0.317-1.009-0.65-2.018-1.006-3.022
	c-0.355-1.006-0.73-1.999-1.118-2.986l-9.819,1.02c-1.125-2.784-2.353-5.515-3.685-8.187l7.227-6.738
	c-0.489-0.938-0.99-1.874-1.516-2.801c-0.524-0.93-1.065-1.842-1.619-2.746l-9.458,2.699c-1.592-2.549-3.282-5.03-5.062-7.44
	l5.924-7.862c-0.645-0.838-1.301-1.674-1.979-2.497c-0.68-0.823-1.371-1.627-2.072-2.422l-8.798,4.276
	c-2.014-2.242-4.117-4.401-6.3-6.479l4.441-8.717c-0.78-0.713-1.571-1.422-2.382-2.115c-0.811-0.692-1.631-1.364-2.461-2.026
	l-7.896,5.722c-1.515-1.178-3.047-2.319-4.606-3.411l0.017-0.062c-0.902-0.638-1.817-1.261-2.738-1.874l2.836-9.277
	c-0.893-0.567-1.794-1.127-2.714-1.669c-0.919-0.542-1.844-1.061-2.773-1.569l-6.796,7.018c-1.107-0.587-2.219-1.162-3.342-1.709
	l0.017-0.151c-1.579-0.777-3.182-1.513-4.801-2.217l1.173-9.557c-0.978-0.403-1.962-0.799-2.962-1.173
	c-0.998-0.372-2-0.723-3.004-1.062l-5.485,8.108c-0.565-0.182-1.129-0.37-1.696-0.543l-0.014-0.21
	c-2.299-0.706-4.632-1.332-6.991-1.894l-0.502-9.589c-1.032-0.227-2.072-0.446-3.121-0.64c-1.048-0.194-2.096-0.366-3.143-0.525
	l-3.902,8.732c-3.004-0.419-6.047-0.717-9.122-0.897l-2.158-9.352c-1.057-0.044-2.118-0.08-3.186-0.089
	c-1.065-0.008-2.127,0.005-3.186,0.03l-2.332,9.289c-3.078,0.109-6.125,0.338-9.135,0.688l-3.748-8.832
	c-1.048,0.14-2.101,0.29-3.151,0.466c-1.052,0.176-2.095,0.373-3.132,0.582l-0.683,9.552c-2.539,0.543-5.049,1.163-7.523,1.873
	l-0.017,0.21c-0.407,0.116-0.812,0.244-1.217,0.365l-5.345-8.232c-1.009,0.32-2.02,0.65-3.023,1.006
	c-1.006,0.357-1.998,0.732-2.983,1.118l0.988,9.548c-1.792,0.731-3.563,1.505-5.309,2.324l0.013,0.152
	c-0.98,0.456-1.954,0.929-2.922,1.414l-6.675-7.16c-0.938,0.491-1.875,0.991-2.803,1.516c-0.929,0.526-1.843,1.067-2.745,1.619
	l2.654,9.308c-1.079,0.682-2.15,1.375-3.204,2.092l0.016,0.063c-1.439,0.969-2.856,1.982-4.258,3.023l-7.813-5.889
	c-0.838,0.646-1.674,1.301-2.496,1.979c-0.822,0.68-1.628,1.372-2.423,2.071l4.264,8.774c-2.229,2.027-4.381,4.139-6.446,6.334
	l-8.735-4.452c-0.714,0.782-1.423,1.572-2.115,2.383c-0.692,0.811-1.367,1.633-2.026,2.46l5.759,7.952
	c-1.836,2.369-3.585,4.809-5.236,7.321L23.091,61.4c-0.567,0.893-1.129,1.794-1.669,2.714c-0.542,0.919-1.062,1.845-1.568,2.774
	l7.081,6.86c-1.392,2.639-2.685,5.338-3.874,8.095l-9.824-1.208c-0.402,0.978-0.799,1.963-1.172,2.963
	c-0.375,1-0.725,2.002-1.062,3.005l8.194,5.546c-0.907,2.828-1.706,5.703-2.396,8.622l-9.926,0.519
	c-0.229,1.033-0.445,2.073-0.641,3.122c-0.195,1.048-0.365,2.096-0.524,3.142l9.073,4.057c-0.4,2.926-0.689,5.887-0.865,8.88
	l-9.727,2.244c-0.045,1.057-0.077,2.118-0.088,3.185c-0.01,1.067,0.006,2.128,0.031,3.186l9.658,2.425
	c0.107,2.996,0.322,5.966,0.655,8.899l-9.17,3.892c0.14,1.049,0.291,2.1,0.467,3.151c0.174,1.053,0.374,2.096,0.583,3.133
	l9.891,0.708c0.623,2.935,1.351,5.83,2.192,8.678l-8.317,5.399c0.318,1.008,0.651,2.017,1.006,3.023
	c0.354,1.006,0.733,1.998,1.118,2.982l9.823-1.016c1.124,2.783,2.352,5.514,3.683,8.185l-7.227,6.737
	c0.486,0.938,0.989,1.873,1.515,2.805c0.524,0.929,1.07,1.84,1.619,2.742l9.461-2.695c1.592,2.549,3.282,5.03,5.062,7.44
	l-5.926,7.861c0.644,0.838,1.301,1.672,1.979,2.498c0.677,0.823,1.373,1.625,2.07,2.42l8.801-4.275
	c2.013,2.242,4.116,4.4,6.297,6.478l-4.442,8.717c0.777,0.713,1.571,1.42,2.382,2.117c0.811,0.693,1.635,1.363,2.46,2.023l7.9-5.72
	c1.512,1.178,3.046,2.317,4.605,3.408l-0.018,0.063c0.904,0.64,1.819,1.263,2.742,1.876l-2.838,9.276
	c0.891,0.567,1.794,1.126,2.713,1.671c0.92,0.542,1.846,1.058,2.774,1.566l6.796-7.019c1.107,0.587,2.219,1.162,3.342,1.707
	l-0.017,0.154c1.579,0.777,3.182,1.513,4.802,2.217l-1.175,9.557c0.977,0.404,1.961,0.798,2.962,1.175
	c1,0.374,2.002,0.722,3.004,1.06l5.486-8.106c0.564,0.183,1.127,0.37,1.695,0.542l0.012,0.209c2.3,0.707,4.635,1.334,6.994,1.896
	l0.502,9.588c1.031,0.229,2.071,0.445,3.121,0.643c1.05,0.195,2.097,0.363,3.142,0.523l3.904-8.733
	c3.004,0.418,6.047,0.717,9.121,0.896l2.158,9.351c1.056,0.048,2.118,0.08,3.186,0.091c1.067,0.01,2.128-0.005,3.185-0.03
	l2.333-9.29c3.077-0.108,6.124-0.338,9.135-0.687l3.748,8.834c1.047-0.137,2.099-0.291,3.151-0.465
	c1.054-0.178,2.096-0.377,3.132-0.584l0.685-9.554c2.537-0.544,5.047-1.164,7.52-1.873l0.018-0.209
	c0.408-0.116,0.813-0.244,1.221-0.365l5.344,8.231c1.008-0.316,2.018-0.65,3.021-1.004c1.009-0.355,2.001-0.734,2.984-1.118
	l-0.987-9.551c1.792-0.73,3.562-1.505,5.309-2.324l-0.013-0.153c0.98-0.453,1.953-0.926,2.923-1.411l6.675,7.161
	c0.938-0.488,1.874-0.992,2.803-1.516c0.931-0.525,1.842-1.068,2.744-1.619l-2.653-9.311c1.079-0.682,2.149-1.375,3.204-2.092
	l-0.016-0.064c1.439-0.965,2.854-1.979,4.256-3.02l7.814,5.89c0.837-0.644,1.672-1.302,2.496-1.979
	c0.827-0.68,1.628-1.373,2.421-2.07l-4.263-8.774c2.23-2.026,4.383-4.139,6.448-6.335l8.735,4.454
	c0.714-0.78,1.421-1.573,2.114-2.383c0.698-0.813,1.367-1.636,2.026-2.46l-5.758-7.953c1.837-2.369,3.586-4.809,5.236-7.321
	l9.425,2.884c0.567-0.892,1.127-1.795,1.668-2.713c0.546-0.923,1.062-1.847,1.567-2.775l-7.078-6.857
	c1.393-2.64,2.687-5.34,3.875-8.098l9.823,1.208c0.402-0.978,0.798-1.964,1.171-2.962c0.377-1.002,0.724-2.004,1.062-3.004
	l-8.192-5.547c0.908-2.829,1.707-5.705,2.397-8.626l9.927-0.517c0.228-1.032,0.442-2.071,0.638-3.12
	c0.198-1.053,0.366-2.098,0.523-3.144l-9.071-4.059c0.399-2.926,0.689-5.887,0.865-8.879L252.003,131.928z M152.25,61.154
	c11.983-11.741,31.237-11.562,43.004,0.401c11.766,11.961,11.586,31.176-0.4,42.914c-11.984,11.743-31.239,11.563-43.004-0.401
	C140.083,92.108,140.262,72.893,152.25,61.154z M128.893,42.149c5.479,0.051,9.877,4.524,9.825,9.987
	c-0.051,5.467-4.531,9.856-10.01,9.805c-5.478-0.051-9.876-4.523-9.825-9.991C118.934,46.488,123.417,42.098,128.893,42.149z
	 M106.28,60.724c11.766,11.961,11.587,31.177-0.399,42.915c-11.987,11.743-31.242,11.562-43.008-0.401
	c-11.765-11.96-11.586-31.176,0.4-42.915C75.258,48.581,94.514,48.761,106.28,60.724z M43.288,125.995
	c0.051-5.464,4.53-9.854,10.01-9.802c5.477,0.051,9.873,4.523,9.822,9.987c-0.052,5.465-4.53,9.854-10.008,9.803
	C47.634,135.931,43.237,131.459,43.288,125.995z M105.05,192.431c-11.987,11.739-31.242,11.561-43.007-0.399
	c-11.766-11.964-11.585-31.177,0.399-42.918c11.986-11.739,31.241-11.562,43.008,0.401
	C117.216,161.478,117.036,180.69,105.05,192.431z M127.313,211.423c-5.477-0.051-9.876-4.521-9.825-9.988
	c0.052-5.467,4.534-9.854,10.011-9.803c5.479,0.053,9.877,4.521,9.825,9.986C137.272,207.087,132.792,211.474,127.313,211.423z
	 M116.772,138.424c-6.137-6.239-6.043-16.266,0.209-22.392c6.257-6.124,16.303-6.03,22.441,0.21
	c6.139,6.241,6.045,16.268-0.21,22.392C132.958,144.76,122.914,144.667,116.772,138.424z M151.018,192.858
	c-11.765-11.961-11.585-31.176,0.401-42.916c11.988-11.739,31.242-11.561,43.006,0.402c11.766,11.961,11.587,31.178-0.4,42.915
	C182.038,205.001,162.784,204.821,151.018,192.858z M202.908,137.38c-5.478-0.052-9.875-4.521-9.824-9.987
	c0.051-5.464,4.533-9.854,10.01-9.802c5.479,0.051,9.876,4.523,9.824,9.987C212.867,133.042,208.387,137.431,202.908,137.38z"/>
</svg>
