<?xml version="1.0" encoding="utf-8"?>
<!-- Generator: Adobe Illustrator 15.0.0, SVG Export Plug-In . SVG Version: 6.00 Build 0)  -->
<!DOCTYPE svg PUBLIC "-//W3C//DTD SVG 1.1//EN" "http://www.w3.org/Graphics/SVG/1.1/DTD/svg11.dtd">
<svg version="1.1" id="Layer_1" xmlns="http://www.w3.org/2000/svg" xmlns:xlink="http://www.w3.org/1999/xlink" x="0px" y="0px"
	 width="897px" height="950px" viewBox="0 0 897 950" enable-background="new 0 0 897 950" xml:space="preserve">
<g>
	<polygon points="653.756,905.932 68.439,673.951 84.321,633.879 69.156,627.869 51.997,671.164 65.788,676.629 67.162,677.174 
		652.479,909.152 653.164,909.426 667.64,915.162 684.799,871.867 669.637,865.859 	"/>
	<path d="M696.531,626.471c-40.129-39.709-51.769-75.082-56.532-119.369c-6.058-56.34,3.177-128.113,20.937-231.879
		c21.879-127.825-93.699-200.354-146.861-221.424c-85.633-33.939-214.367-6.521-259.285,106.812L70.629,625.273l615.259,243.846
		c0,0,24.433-61.646,34.712-87.584C741.639,728.453,736.659,666.178,696.531,626.471z"/>
</g>
<g>
	<polygon points="461.481,829.973 462.504,830.377 470.415,810.416 472.965,811.428 481.02,791.104 474.899,788.678 
		466.845,809.002 469.392,810.012 	"/>
	<polygon points="472.71,834.422 473.73,834.826 481.641,814.865 484.192,815.877 492.247,795.555 486.122,793.127 478.067,813.449 
		480.621,814.461 	"/>
	<polygon points="450.26,825.525 451.28,825.93 459.191,805.969 461.744,806.98 469.799,786.656 463.674,784.23 455.62,804.553 
		458.171,805.564 	"/>
	<polygon points="506.38,847.768 507.4,848.172 515.312,828.211 517.861,829.221 525.916,808.898 519.795,806.473 511.74,826.795 
		514.291,827.807 	"/>
	<rect x="491.875" y="797.264" transform="matrix(0.9298 0.368 -0.368 0.9298 335.9383 -123.7472)" width="1.099" height="43.332"/>
	<polygon points="495.155,843.318 496.176,843.723 504.087,823.762 506.637,824.771 514.691,804.449 508.57,802.023 
		500.516,822.346 503.066,823.357 	"/>
	<polygon points="394.213,803.311 395.232,803.715 403.144,783.756 405.695,784.766 413.75,764.443 407.629,762.018 399.574,782.34 
		402.124,783.352 	"/>
	
		<rect x="525.545" y="810.609" transform="matrix(0.9295 0.3689 -0.3689 0.9295 344.177 -135.3839)" width="1.101" height="43.333"/>
	
		<rect x="413.382" y="766.154" transform="matrix(0.9297 0.3683 -0.3683 0.9297 319.2705 -97.0745)" width="1.098" height="43.332"/>
	<polygon points="382.987,798.863 384.01,799.268 391.921,779.307 394.472,780.318 402.526,759.994 396.404,757.568 
		388.349,777.891 390.898,778.902 	"/>
	<polygon points="427.887,816.658 428.905,817.061 436.816,797.1 439.367,798.111 447.422,777.789 441.299,775.361 433.245,795.686 
		435.798,796.697 	"/>
	
		<rect x="447.057" y="779.485" transform="matrix(0.9299 0.3679 -0.3679 0.9299 326.1521 -108.4736)" width="1.019" height="43.332"/>
	<polygon points="416.66,812.207 417.681,812.611 425.591,792.652 428.143,793.662 436.197,773.34 430.075,770.914 422.02,791.236 
		424.571,792.248 	"/>
	<polygon points="528.828,856.664 529.845,857.066 537.756,837.105 540.311,838.119 548.365,817.795 542.24,815.367 
		534.186,835.691 536.738,836.703 	"/>
	<polygon points="629.844,896.699 630.862,897.104 638.773,877.143 641.326,878.154 649.381,857.832 643.258,855.404 
		635.203,875.729 637.754,876.738 	"/>
	
		<rect x="604.115" y="841.748" transform="matrix(0.9299 0.3677 -0.3677 0.9299 359.8513 -161.8517)" width="1.099" height="43.332"/>
	<polygon points="607.396,887.803 608.416,888.207 616.327,868.246 618.879,869.258 626.934,848.934 620.811,846.508 
		612.756,866.83 615.307,867.842 	"/>
	<polygon points="618.617,892.25 619.64,892.654 627.551,872.695 630.1,873.705 638.154,853.381 632.033,850.955 623.979,871.279 
		626.527,872.289 	"/>
	
		<rect x="649.013" y="859.543" transform="matrix(0.9297 0.3683 -0.3683 0.9297 370.2327 -177.2969)" width="1.098" height="43.332"/>
	<polygon points="551.274,865.561 552.298,865.965 560.209,846.006 562.756,847.014 570.811,826.691 564.69,824.266 
		556.636,844.588 559.186,845.6 	"/>
	<polygon points="371.765,794.414 372.783,794.818 380.694,774.857 383.249,775.871 391.304,755.547 385.179,753.119 
		377.125,773.443 379.676,774.453 	"/>
	<polygon points="540.051,861.111 541.071,861.516 548.982,841.555 551.535,842.566 559.59,822.244 553.465,819.816 545.41,840.141 
		547.962,841.15 	"/>
	<polygon points="573.724,874.457 574.744,874.861 582.654,854.9 585.206,855.912 593.261,835.588 587.14,833.162 579.085,853.486 
		581.635,854.496 	"/>
	
		<rect x="570.445" y="828.403" transform="matrix(0.9293 0.3692 -0.3692 0.9293 354.226 -150.7617)" width="1.095" height="43.334"/>
	<polygon points="584.948,878.906 585.967,879.309 593.878,859.35 596.429,860.359 604.483,840.037 598.361,837.609 
		590.307,857.934 592.859,858.945 	"/>
	<polygon points="158.511,709.895 159.532,710.301 167.443,690.34 169.991,691.35 178.046,671.025 171.924,668.6 163.87,688.924 
		166.422,689.936 	"/>
	<rect x="177.68" y="672.737" transform="matrix(0.9301 0.3674 -0.3674 0.9301 267.5807 -16.9173)" width="1.095" height="43.332"/>
	<polygon points="136.064,700.998 137.084,701.402 144.995,681.443 147.545,682.453 155.6,662.131 149.476,659.703 141.421,680.025 
		143.975,681.039 	"/>
	<polygon points="147.286,705.447 148.308,705.852 156.218,685.891 158.77,686.902 166.824,666.578 160.702,664.152 
		152.647,684.475 155.197,685.486 	"/>
	<polygon points="180.96,718.793 181.979,719.195 189.89,699.236 192.441,700.246 200.496,679.924 194.374,677.498 186.319,697.82 
		188.871,698.832 	"/>
	<polygon points="192.183,723.24 193.203,723.645 201.114,703.684 203.666,704.695 211.72,684.373 205.596,681.945 197.542,702.268 
		200.093,703.279 	"/>
	<rect x="211.35" y="686.083" transform="matrix(0.9291 0.3697 -0.3697 0.9291 276.6716 -28.1957)" width="1.099" height="43.334"/>
	<polygon points="79.943,678.756 80.965,679.162 88.876,659.201 91.424,660.211 99.479,639.887 93.357,637.461 85.303,657.785 
		87.854,658.797 	"/>
	<rect x="99.11" y="641.598" transform="matrix(0.9298 0.368 -0.368 0.9298 251.0861 9.872)" width="1.099" height="43.332"/>
	<rect x="132.782" y="654.944" transform="matrix(0.9293 0.3692 -0.3692 0.9293 259.2589 -1.4173)" width="1.1" height="43.332"/>
	<polygon points="214.631,732.137 215.651,732.541 223.562,712.582 226.113,713.592 234.167,693.27 228.045,690.842 
		219.991,711.166 222.542,712.178 	"/>
	<polygon points="113.615,692.102 114.636,692.506 122.547,672.545 125.097,673.557 133.151,653.232 127.032,650.807 
		118.977,671.131 121.526,672.141 	"/>
	<polygon points="102.391,687.652 103.411,688.057 111.322,668.098 113.874,669.107 121.929,648.785 115.806,646.359 
		107.751,666.682 110.302,667.691 	"/>
	<polygon points="293.198,763.275 294.217,763.68 302.127,743.719 304.681,744.73 312.735,724.408 306.613,721.98 298.558,742.305 
		301.109,743.316 	"/>
	<polygon points="315.646,772.174 316.666,772.576 324.577,752.617 327.127,753.627 335.182,733.305 329.062,730.879 
		321.007,751.201 323.558,752.213 	"/>
	<polygon points="304.423,767.725 305.441,768.129 313.353,748.168 315.904,749.18 323.959,728.855 317.837,726.43 309.783,746.754 
		312.334,747.764 	"/>
	<rect x="368.485" y="748.36" transform="matrix(0.9297 0.3683 -0.3683 0.9297 309.5603 -81.7891)" width="1.098" height="43.334"/>
	
		<rect x="334.814" y="735.016" transform="matrix(0.9296 0.3686 -0.3686 0.9296 302.5493 -70.3362)" width="1.097" height="43.332"/>
	<polygon points="349.316,785.518 350.339,785.922 358.25,765.963 360.8,766.973 368.854,746.65 362.733,744.223 354.678,764.547 
		357.228,765.557 	"/>
	<polygon points="338.095,781.07 339.116,781.475 347.027,761.514 349.577,762.525 357.632,742.201 351.508,739.775 
		343.454,760.098 346.005,761.109 	"/>
	<polygon points="225.854,736.586 226.874,736.99 234.785,717.029 237.336,718.041 245.391,697.717 239.268,695.291 
		231.213,715.613 233.766,716.625 	"/>
	
		<rect x="289.918" y="717.221" transform="matrix(0.9297 0.3683 -0.3683 0.9297 292.5679 -55.0401)" width="1.098" height="43.333"/>
	<polygon points="237.078,741.033 238.097,741.438 246.007,721.477 248.561,722.488 256.616,702.166 250.493,699.74 
		242.438,720.062 244.989,721.072 	"/>
	<rect x="256.247" y="703.877" transform="matrix(0.9298 0.368 -0.368 0.9298 285.0339 -43.5861)" width="1.099" height="43.332"/>
	<polygon points="270.75,754.379 271.77,754.783 279.681,734.822 282.233,735.834 290.288,715.512 284.166,713.084 276.111,733.408 
		278.661,734.418 	"/>
	<polygon points="259.524,749.93 260.546,750.334 268.457,730.375 271.008,731.385 279.062,711.062 272.94,708.635 264.885,728.959 
		267.436,729.969 	"/>
</g>
</svg>
