<?xml version="1.0" encoding="utf-8"?>
<!-- Generator: Adobe Illustrator 15.0.0, SVG Export Plug-In . SVG Version: 6.00 Build 0)  -->
<!DOCTYPE svg PUBLIC "-//W3C//DTD SVG 1.1//EN" "http://www.w3.org/Graphics/SVG/1.1/DTD/svg11.dtd">
<svg version="1.1" id="Layer_1" xmlns="http://www.w3.org/2000/svg" xmlns:xlink="http://www.w3.org/1999/xlink" x="0px" y="0px"
	 width="1108px" height="861px" viewBox="0 0 1108 861" enable-background="new 0 0 1108 861" xml:space="preserve">
<g id="Layer_2">'
	<g>
		<path fill="#CF51C8" d="M198.423,766.136c-0.245,0.117-0.525,0.231-0.83,0.345c-0.027,0.01-0.051,0.021-0.078,0.029
			c-0.29,0.105-0.611,0.208-0.951,0.311c-0.059,0.018-0.116,0.035-0.177,0.053c-0.325,0.094-0.674,0.186-1.041,0.275
			c-0.1,0.023-0.201,0.05-0.304,0.073c-0.348,0.082-0.715,0.163-1.097,0.242c-0.153,0.031-0.309,0.062-0.467,0.094
			c-0.357,0.07-0.727,0.141-1.11,0.207c-0.219,0.038-0.447,0.075-0.675,0.113c-0.237,0.039-0.481,0.077-0.727,0.115
			c-0.42,0.063-0.852,0.128-1.296,0.189c-0.136,0.02-0.273,0.037-0.411,0.057c-0.613,0.081-1.244,0.161-1.899,0.235
			c-0.017,0.002-0.033,0.003-0.049,0.006c-0.738,0.085-1.501,0.164-2.289,0.24v0.001c-3.881,0.375-8.334,0.641-13.151,0.762
			c-0.819,0.021-1.651,0.034-2.489,0.048c-0.166,0.002-0.328,0.007-0.494,0.009c-0.996,0.013-2.003,0.02-3.023,0.02
			c-1.185,0-2.349-0.011-3.5-0.027c-0.152-0.002-0.302-0.005-0.454-0.009c-1.065-0.018-1.899-0.041-2.934-0.071
			c-4.866-0.146-9.977-0.438-12.977-0.841v-0.002c-3-0.22-4.204-0.474-5.882-0.753c-0.072-0.013-0.261-0.022-0.333-0.035
			c-0.392-0.066-0.809-0.138-1.175-0.206c-0.177-0.034-0.396-0.066-0.567-0.102c-0.248-0.05-0.481-0.103-0.715-0.152
			c-0.258-0.058-0.535-0.112-0.776-0.171c-0.131-0.031-0.246-0.064-0.372-0.097c-0.313-0.08-0.63-0.159-0.912-0.242
			c-0.031-0.009-0.057-0.019-0.088-0.027c-0.742-0.222-1.375-0.45-1.874-0.688l10.583,56.457c0,0.066,0.034,0.132,0.091,0.196
			c0.004,0.005,0.007,0.011,0.012,0.016c0.061,0.063,0.151,0.126,0.264,0.188c0.009,0.005,0.017,0.01,0.026,0.015
			c0.12,0.063,0.268,0.125,0.441,0.188c0.004,0.002,0.009,0.004,0.014,0.005c2.625,0.925,11.086,1.603,21.127,1.603
			c10.702,0,19.613-0.771,21.57-1.788c0.005-0.002,0.009-0.005,0.014-0.008c0.123-0.063,0.221-0.131,0.285-0.198
			c0.003-0.003,0.005-0.007,0.008-0.011c0.062-0.067,0.098-0.135,0.098-0.204L198.423,766.136z M182.2,822.008
			c-3.035,0.345-7.526,0.637-13.058,0.724l2.713-51.203c4.721-0.118,9.15-0.372,13.058-0.742L182.2,822.008z M158.791,771.499
			l3.538,51.228c-5.591-0.093-10.094-0.397-13.084-0.752l-3.541-51.304C149.586,771.071,154.022,771.356,158.791,771.499z"/>
		<path fill="#CF51C8" d="M136.274,760.888c0.043,0.006,0.086,0.009,0.129,0.009c0.541,0,1.01-0.382,1.074-0.902
			c0.463-3.678,3.752-6.449,7.65-6.449c1.451,0,2.883,0.4,4.145,1.154c0.338,0.203,0.771,0.209,1.121,0.022
			c0.348-0.188,0.559-0.545,0.543-0.924c-0.004-0.088-0.014-0.172-0.033-0.271c0-4.031,3.475-7.312,7.746-7.312
			c3.455,0,6.514,2.213,7.438,5.386c0.135,0.467,0.605,0.793,1.111,0.75c0.512-0.031,0.932-0.396,1.004-0.875
			c0.549-3.572,3.828-6.265,7.631-6.265c3.973,0,7.268,2.832,7.664,6.586c0.055,0.523,0.609,0.914,1.166,0.914
			c4.188,0,7.656,3.222,7.732,7.181c0.01,0.563,0.422,0.971,1.104,1.004c0.598-0.011,1.074-0.478,1.062-1.041
			c-0.092-4.771-4.033-8.705-9.043-9.142c-0.9-4.358-4.91-7.547-9.686-7.547c-3.844,0-7.27,2.146-8.889,5.293
			c-1.791-2.615-4.891-4.289-8.295-4.289c-4.986,0-9.125,3.492-9.812,8.021c-1.182-0.455-2.439-0.693-3.709-0.693
			c-4.996,0-9.209,3.549-9.803,8.254C135.255,760.312,135.681,760.821,136.274,760.888z"/>
		<path fill="#CF51C8" d="M174.304,753.372c-0.234,0.52,0.025,1.121,0.576,1.34c1.676,0.668,2.76,2.209,2.76,3.928
			c0,0.564,0.484,1.021,1.082,1.021c0.6,0,1.084-0.457,1.084-1.021c0-2.543-1.604-4.823-4.084-5.812
			C175.171,752.612,174.536,752.851,174.304,753.372z"/>
	</g>
	<g>
		<path fill="#CF51C8" d="M659.915,694.346v17.642c0.126-0.013,0.253-0.021,0.382-0.021c2.434,0,4.404,1.964,4.404,4.386h29.933
			h0.932c0.587-0.049,1.146-0.299,2.159-1.385c1.759-1.885,2.484-4.231,5.185-4.153l0,0c2.699-0.078,3.426,2.27,5.184,4.153
			c1.015,1.086,1.573,1.336,2.161,1.385h0.932h29.932c0-2.422,1.973-4.386,4.405-4.386c0.129,0,0.256,0.008,0.382,0.021v-17.642
			H659.915z M689.628,713.767c-0.29,0.071-0.591,0.112-0.902,0.112h-17.268c-2.099,0-3.815-1.709-3.815-3.799v-9.688
			c0-2.089,1.718-3.799,3.815-3.799h17.268c0.334,0,0.656,0.048,0.966,0.129c4.099,0.69,7.222,4.239,7.222,8.518
			C696.912,709.538,693.758,713.104,689.628,713.767z M737.816,710.08c0,2.09-1.718,3.799-3.815,3.799h-17.268
			c-0.312,0-0.612-0.041-0.901-0.112c-4.131-0.663-7.285-4.229-7.285-8.526c0-4.277,3.123-7.826,7.222-8.518
			c0.311-0.081,0.633-0.129,0.966-0.129h17.268c2.099,0,3.815,1.71,3.815,3.799L737.816,710.08L737.816,710.08z"/>
		<path fill="#CF51C8" d="M695.816,677.274c-0.73-1.729-2.467-1.524-3.571-0.764l-32.33,17.834h19.489l13.977-13.078
			c1.104-1.396,1.383,1.415,1.5,4.161c0.127,2.957,1.863,2.117,1.811,0C696.794,681.947,696.707,679.378,695.816,677.274z"/>
		<path fill="#CF51C8" d="M710,677.274c0.731-1.729,2.467-1.524,3.572-0.764l32.33,17.834h-19.489l-13.979-13.078
			c-1.104-1.396-1.383,1.415-1.5,4.161c-0.127,2.957-1.861,2.117-1.809,0C709.023,681.947,709.109,679.378,710,677.274z"/>
	</g>
	<path fill="#CF51C8" d="M491.162,388.883v8.693l0,0v17.828c-2.203-1.697-5.917-1.73-9.198,0.138
		c-4.017,2.288-5.858,6.558-4.115,9.538c1.744,2.979,6.416,3.542,10.435,1.254c3.011-1.715,4.8-4.543,4.771-7.107h0.018v-22.121
		l24.047-5.941v15.771c-2.203-1.696-5.917-1.729-9.197,0.139c-4.018,2.288-5.859,6.558-4.115,9.538
		c1.744,2.979,6.415,3.542,10.434,1.254c3.012-1.714,4.8-4.543,4.771-7.107h0.019v-20.065v-4.622V382L491.162,388.883z"/>
	<path fill="#CF51C8" d="M70.547,276.854h-9.32c-6.631,0-7.688-2.934-7.688-5.654c0-1.291,0.081-3.42,0.16-6.027h15.573
		c2.329,0,6.776-0.955,6.776-5.219c0-4.26-2.053-7.053-4.803-7.053H53.892c-0.018-6.146-0.418-12.271-6.422-12.271
		c-2.483,0-4.498,1.02-5.348,3.553c-1.115,3.328-0.82,7.225-0.806,10.689c0.004,0.658,0.007,1.32,0.009,1.98
		c0.008,2.27,0.054,4.553,0.064,6.834c0.006,2.455,0.009,4.91,0.009,7.363c0,13.746,12.493,17.641,14.89,17.641
		s11.784,0.223,13.479,0.223c1.696,0,6.562-0.449,6.562-5.371S72.876,276.854,70.547,276.854z"/>
	<path fill="#CF51C8" d="M904.873,346.255c-3.485,0-6.312,2.827-6.312,6.313s2.826,6.313,6.312,6.313
		c3.489,0,6.314-2.827,6.314-6.313S908.362,346.255,904.873,346.255z M904.873,354.768c-1.215,0-2.198-0.982-2.198-2.198
		s0.983-2.199,2.198-2.199c1.216,0,2.201,0.983,2.201,2.199C907.074,353.784,906.089,354.768,904.873,354.768z"/>
	<path fill="#CF51C8" d="M926.779,354.029c-8.47,0-15.334-6.865-15.334-15.334c0-5.066,2.467-9.545,6.255-12.338
		c-3.876-1.9-8.218-2.997-12.827-2.997c-16.13,0-29.208,13.076-29.208,29.208s13.078,29.208,29.208,29.208
		c16.134,0,29.208-13.076,29.208-29.208c0-0.128-0.017-0.251-0.019-0.378C931.896,353.363,929.416,354.029,926.779,354.029z
		 M904.873,325.443v15.272c-2.122,0-4.109,0.565-5.833,1.543l-0.003-0.004l-7.516-13.282
		C895.467,326.737,900.016,325.443,904.873,325.443z M895.253,352.568c0-5.314,4.307-9.622,9.62-9.622
		c5.314,0,9.624,4.308,9.624,9.622c0,5.313-4.31,9.623-9.624,9.623C899.56,362.191,895.253,357.883,895.253,352.568z
		 M904.873,379.694V364.42c2.125,0,4.116-0.566,5.842-1.546v0.006l7.511,13.283C914.283,378.399,909.733,379.694,904.873,379.694z"
		/>
	<path fill="#CF51C8" d="M926.779,325.552c-7.26,0-13.145,5.884-13.145,13.145c0,7.259,5.885,13.144,13.145,13.144
		s13.144-5.885,13.144-13.144C939.923,331.436,934.039,325.552,926.779,325.552z M921.568,346.961v-16.532l14.317,8.268
		L921.568,346.961z"/>
	<path fill="#CF51C8" d="M1098.905,163.479h-7.646v-5.014c0-1.883,1.247-2.322,2.126-2.322c0.877,0,5.396,0,5.396,0v-8.277
		l-7.431-0.029c-8.248,0-10.125,6.174-10.125,10.125v5.518h-4.77v8.529h4.77c0,10.947,0,24.137,0,24.137h10.034
		c0,0,0-13.32,0-24.137h6.77L1098.905,163.479z"/>
	<path fill="#CF51C8" d="M371.323,44.17h-45.63c-2.336,0-4.247,1.911-4.247,4.247v72.203c0,2.336,1.911,4.247,4.247,4.247h45.63
		c2.336,0,4.247-1.911,4.247-4.247V48.417C375.57,46.081,373.659,44.17,371.323,44.17z M346.052,46.624h4.911
		c0.366,0,0.664,0.297,0.664,0.664s-0.297,0.664-0.664,0.664h-4.911c-0.366,0-0.664-0.297-0.664-0.664
		C345.389,46.921,345.686,46.624,346.052,46.624z M339.708,120.258h-4.911c-0.367,0-0.664-0.297-0.664-0.664
		c0-0.367,0.297-0.664,0.664-0.664h4.911c0.366,0,0.664,0.297,0.664,0.664C340.371,119.96,340.074,120.258,339.708,120.258z
		 M348.508,122.209c-1.445,0-2.616-1.171-2.616-2.615c0-1.445,1.171-2.616,2.616-2.616c1.445,0,2.616,1.171,2.616,2.616
		C351.124,121.039,349.953,122.209,348.508,122.209z M362.007,120.258h-4.911c-0.367,0-0.664-0.297-0.664-0.664
		c0-0.367,0.297-0.664,0.664-0.664h4.911c0.367,0,0.664,0.297,0.664,0.664C362.67,119.96,362.374,120.258,362.007,120.258z
		 M372.235,114.535h-47.454V50.417h47.454V114.535z"/>
</g>
</svg>
