<?xml version="1.0" encoding="utf-8"?>
<!-- Generator: Adobe Illustrator 15.0.0, SVG Export Plug-In . SVG Version: 6.00 Build 0)  -->
<!DOCTYPE svg PUBLIC "-//W3C//DTD SVG 1.1//EN" "http://www.w3.org/Graphics/SVG/1.1/DTD/svg11.dtd">
<svg version="1.1" id="Layer_2" xmlns="http://www.w3.org/2000/svg" xmlns:xlink="http://www.w3.org/1999/xlink" x="0px" y="0px"
	 width="800px" height="600px" viewBox="0 0 800 600" enable-background="new 0 0 800 600" xml:space="preserve">
<g>
	<path fill="#2791B2" d="M248.653,115.918c2.961-2.375,5.96-4.68,8.994-6.916c3.031-2.232,6.096-4.394,9.194-6.484
		c3.094-2.087,6.22-4.104,9.375-6.046c3.151-1.94,6.332-3.808,9.539-5.602c-2.799-0.985-5.278-1.842-7.431-2.567
		c-2.138-0.72-3.953-1.31-5.438-1.767c-1.475-0.454-2.624-0.778-3.441-0.97c-0.812-0.19-1.296-0.25-1.449-0.178l13.79-6.402
		l15.864-6.207l0.534-0.187l0.438-0.155c6.412-1.968,14.91-4.777,21.4-6.469l9.724-2.292c0.36-0.073,0.943-0.056,1.744,0.049
		c0.805,0.105,1.83,0.301,3.07,0.584c1.246,0.286,2.708,0.66,4.383,1.123c1.682,0.465,3.578,1.018,5.682,1.657
		c3.38-0.873,6.771-1.667,10.167-2.382c3.392-0.714,6.789-1.348,10.191-1.902c3.395-0.553,6.794-1.026,10.196-1.417
		c3.394-0.392,6.79-0.703,10.185-0.933c-9.499,3.03-25.397,8.101-19.242,34.731C338.37,97.838,291.917,102.272,248.653,115.918"/>
	<path fill="#2791B2" d="M418.488,183.132c1.451-3.186,2.887-6.315,4.305-9.387c1.416-3.064,2.814-6.071,4.195-9.018
		c1.377-2.938,2.736-5.818,4.077-8.635c1.337-2.809,2.656-5.557,3.954-8.24c-4.158-1.641-8.323-3.28-12.486-4.917
		c-4.163-1.636-8.324-3.268-12.475-4.894c-4.149-1.624-8.289-3.242-12.412-4.849c-4.118-1.606-8.219-3.202-12.296-4.785
		c-5.918-2.298-11.654-4.518-17.198-6.656c-5.53-2.133-10.866-4.184-15.999-6.15c-5.117-1.959-10.03-3.833-14.731-5.618
		c-4.684-1.778-9.155-3.468-13.406-5.067c0.122-0.089,0.134-0.098,0.146-0.107c22.695-2.897,24.053-3.071,41.215-4.707l11.256-0.985
		l-1.761-5.668c-1.828-9.772-2.019-10.793-1.115-16.506c0.118-0.047,0.13-0.051,0.142-0.056c3.19,1.128,6.534,2.324,10.025,3.586
		c3.501,1.266,7.15,2.598,10.94,3.994c3.799,1.399,7.738,2.863,11.812,4.389c4.082,1.529,8.297,3.119,12.638,4.77
		c2.989,1.137,5.993,2.284,9.007,3.441c3.016,1.158,6.041,2.325,9.07,3.498c3.031,1.175,6.067,2.356,9.104,3.542
		c3.035,1.187,6.07,2.378,9.1,3.572c1.006-1.821,1.988-3.569,2.943-5.243c0.951-1.668,1.878-3.263,2.777-4.782
		c0.896-1.515,1.768-2.954,2.61-4.318c0.841-1.358,1.653-2.641,2.438-3.847c8.182,10.52,8.182,10.52,58.345,68.159
		C508.848,163.752,489.107,171.345,418.488,183.132"/>
	<path fill="#2791B2" d="M602.473,255.623c-0.357-3.702-0.785-7.377-1.279-11.021c-0.494-3.639-1.055-7.248-1.684-10.824
		c-0.627-3.57-1.319-7.107-2.078-10.608c-0.757-3.497-1.579-6.956-2.465-10.377c-5.59-2.379-11.791-4.991-18.533-7.806
		c-6.798-2.837-14.138-5.878-21.944-9.09c-7.86-3.234-16.183-6.639-24.888-10.179c-8.752-3.56-17.877-7.252-27.289-11.044
		c0.016-0.133,0.018-0.146,0.02-0.159c15.717-4.977,17.736-5.617,27.076-9.628l5.906-2.829l-7.055-8.025
		c-12.4-13.942-12.4-13.942-23.661-26.479c-0.004-0.095-0.005-0.104-0.005-0.114c6.867,2.833,13.533,5.614,19.936,8.313
		c6.378,2.689,12.488,5.295,18.271,7.795c5.756,2.488,11.183,4.866,16.226,7.112c5.013,2.232,9.642,4.333,13.835,6.277
		c-1.583-2.834-3.223-5.614-4.916-8.339c-1.691-2.719-3.437-5.383-5.236-7.989c-1.795-2.6-3.645-5.143-5.545-7.625
		c-1.897-2.477-3.848-4.895-5.848-7.25c14.135,12.984,43.548,40,62.592,71.73C618.436,210.919,625.279,231.252,602.473,255.623"/>
	<path fill="#2791B2" d="M622.34,224.882c-0.053-0.151-0.059-0.167-0.064-0.182c-1.449-11.574-1.506-12.025-4.768-20.606
		l-2.601-5.82l-3.782-6.638c-8.551-13.12-9.248-14.191-17.224-24.119c-0.084-0.126-0.093-0.138-0.101-0.151
		c0.091,0.052,0.18,0.104,0.268,0.155c0.348,0.202,0.432,0.252,0.516,0.301c0.084,0.049,0.166,0.098,0.246,0.146
		c0.518,0.309,0.979,0.596,1.389,0.861c0.406,0.265,0.762,0.51,1.064,0.732c0.301,0.222,0.551,0.424,0.75,0.605
		s0.348,0.341,0.446,0.482l5.411,8.247c13.262,22.987,13.262,22.987,18.559,35.228l5.542,13.902c-0.03-0.077-0.14-0.186-0.331-0.327
		c-0.191-0.142-0.466-0.315-0.824-0.523c-0.36-0.209-0.805-0.452-1.338-0.729c-0.533-0.278-1.156-0.591-1.867-0.94
		c-0.102-0.05-0.204-0.1-0.309-0.15c-0.104-0.051-0.21-0.102-0.317-0.154c-0.107-0.052-0.217-0.104-0.327-0.158
		C622.566,224.991,622.453,224.937,622.34,224.882"/>
	<path fill="#2791B2" d="M142.15,372.998c-0.47-3.631-0.861-7.291-1.174-10.977c-0.313-3.689-0.548-7.404-0.703-11.143
		c-0.154-3.74-0.228-7.504-0.22-11.287c0.008-3.788,0.098-7.594,0.271-11.418c-2.574-1.93-4.826-3.754-6.754-5.467
		c-1.914-1.699-3.508-3.289-4.779-4.763c-1.261-1.464-2.204-2.813-2.826-4.046c-0.617-1.223-0.918-2.33-0.901-3.316
		c0.416-6.562,0.74-15.333,1.436-21.872c4.114-27.323,4.192-27.844,8.083-41.731l1.203-4.15c-0.216,0.726-0.038,1.605,0.534,2.631
		c0.577,1.037,1.553,2.224,2.925,3.557c1.385,1.346,3.172,2.84,5.359,4.478c2.206,1.653,4.817,3.451,7.829,5.391
		c0.493-1.611,1-3.22,1.523-4.83c0.523-1.609,1.061-3.218,1.614-4.827c0.554-1.608,1.122-3.216,1.706-4.823s1.183-3.213,1.797-4.818
		c0.887-2.317,1.8-4.617,2.739-6.899c0.94-2.283,1.905-4.549,2.895-6.797c0.991-2.25,2.007-4.48,3.048-6.694
		c1.041-2.213,2.106-4.41,3.196-6.587c2.362,21.483,6.316,57.44,43.881,120.14C192.594,339.861,155.373,351.758,142.15,372.998"/>
	<path fill="#2791B2" d="M310.346,458.248c1.017-3.094,2.064-6.246,3.141-9.457c1.078-3.218,2.187-6.492,3.324-9.824
		c1.14-3.338,2.308-6.73,3.505-10.178c1.199-3.453,2.426-6.96,3.681-10.518c-5.39-2.139-10.775-4.303-16.147-6.492
		c-5.37-2.188-10.725-4.398-16.054-6.627c-5.325-2.229-10.623-4.475-15.885-6.736c-5.255-2.26-10.473-4.533-15.644-6.818
		c-7.502-3.316-14.738-6.582-21.696-9.789c-6.935-3.197-13.589-6.334-19.952-9.404c-6.337-3.057-12.381-6.043-18.124-8.953
		c-5.716-2.896-11.129-5.716-16.232-8.449c0.019-0.168,0.021-0.184,0.023-0.201c17.008-6.414,18.786-7.084,34.606-11.657
		l11.406-3.067l-7.618-12.17c-13.368-23.098-15.085-26.066-23.077-42.978c0.055-0.17,0.061-0.188,0.066-0.205
		c5.477,2.709,11.283,5.52,17.409,8.426c6.158,2.92,12.636,5.935,19.424,9.038c6.819,3.116,13.945,6.318,21.369,9.6
		c7.451,3.292,15.194,6.662,23.219,10.1c5.532,2.369,11.112,4.736,16.73,7.094c5.626,2.363,11.289,4.717,16.977,7.058
		c5.694,2.344,11.412,4.675,17.144,6.989c5.735,2.315,11.481,4.613,17.23,6.892c0.641-1.675,1.285-3.356,1.933-5.042
		c0.648-1.688,1.3-3.379,1.956-5.076c0.656-1.697,1.315-3.4,1.978-5.107s1.33-3.42,2-5.138c0.967-2.479,1.935-4.952,2.904-7.419
		s1.939-4.928,2.91-7.383c0.971-2.453,1.942-4.9,2.914-7.34c0.971-2.439,1.943-4.87,2.915-7.294
		c74.014,104.833,79.615,113.258,90.776,130.044C426.295,438.196,394.973,445.783,310.346,458.248"/>
	<path fill="#2791B2" d="M505.311,517.888c2.623-2.416,5.215-4.903,7.773-7.462c2.561-2.561,5.089-5.193,7.58-7.895
		c2.495-2.705,4.953-5.48,7.371-8.322c2.422-2.846,4.805-5.76,7.145-8.74c-7.517-1.423-15.817-3.238-24.811-5.42
		c-9.086-2.205-18.865-4.781-29.236-7.701c-10.463-2.945-21.509-6.234-33.029-9.838c-11.604-3.629-23.664-7.568-36.066-11.783
		c0.076-0.146,0.084-0.16,0.092-0.176c26.077-5.473,30.775-6.459,50.326-11.367l13.709-3.646l-6.578-10.264
		c-14.5-21.918-14.5-21.918-26.897-39.953c0.071-0.169,0.078-0.186,0.085-0.203c13.135,4.667,25.883,9.073,38.121,13.18
		c12.146,4.076,23.764,7.848,34.74,11.28c10.872,3.399,21.094,6.46,30.561,9.147c9.36,2.657,17.967,4.947,25.721,6.838
		c0.72-1.529,1.43-3.07,2.129-4.618c0.701-1.551,1.391-3.109,2.07-4.678c0.681-1.569,1.352-3.147,2.01-4.733
		c0.66-1.588,1.311-3.186,1.949-4.791c0.923-2.318,1.818-4.641,2.686-6.967c0.867-2.327,1.707-4.658,2.521-6.992
		c0.813-2.335,1.599-4.673,2.358-7.014c0.758-2.34,1.488-4.684,2.193-7.029c7.22,17.771,22.242,54.746,9.273,81.816
		C587.527,473.49,565.975,497.564,505.311,517.888"/>
	<g>
		<path fill="#2791B2" d="M589.766,474.411l-9.415,11.487c-0.271,0.308-0.597,0.596-0.979,0.863
			c-0.385,0.268-0.826,0.516-1.325,0.741c-0.501,0.228-1.062,0.433-1.681,0.614c-0.621,0.184-1.303,0.346-2.047,0.484
			c-0.145,0.026-0.291,0.053-0.439,0.078c-0.149,0.024-0.301,0.049-0.453,0.072c-0.153,0.023-0.309,0.046-0.465,0.066
			c-0.158,0.021-0.317,0.043-0.479,0.062c0.075-0.087,0.086-0.1,0.097-0.112c0.011-0.012,0.021-0.024,0.031-0.036
			c14.735-12.445,15.311-12.932,23.219-22.742l4.01-5.566L589.766,474.411"/>
		<path fill="#2791B2" d="M612.441,439.543c-3.331,5.607-7.573,13.207-11.139,18.668l2.518-4.297
			c4.75-11.639,4.936-12.094,5.824-21.785c0.051-0.105,0.058-0.12,0.064-0.135c0.008-0.016,0.015-0.029,0.021-0.045
			c0.158,0,0.314-0.002,0.467-0.004c0.154-0.003,0.305-0.006,0.453-0.011c0.148-0.004,0.295-0.01,0.439-0.016
			s0.287-0.014,0.426-0.021c0.861-0.051,1.629-0.136,2.305-0.255c0.674-0.118,1.258-0.271,1.752-0.457
			c0.493-0.185,0.899-0.402,1.221-0.651c0.318-0.248,0.553-0.527,0.705-0.838L612.441,439.543"/>
	</g>
	<path fill="#2791B2" d="M145.752,215.235c4.277-8.999,10.088-20.958,14.934-29.665c15.182-23.608,15.182-23.608,24.035-34.235
		c7.422-8.23,17.606-18.958,25.601-26.634c-0.013,0.019-0.014,0.021-0.015,0.023c2.774-2.5,5.599-4.936,8.471-7.307
		c2.872-2.37,5.791-4.676,8.756-6.917c2.964-2.239,5.973-4.412,9.024-6.519c3.051-2.106,6.144-4.145,9.276-6.115
		c-13.475,9.839-33.838,24.708-34.274,64.099C173.257,178.793,158.497,190.741,145.752,215.235"/>
	<path fill="#2791B2" d="M250.807,275.504c1.657-4.091,3.359-8.148,5.103-12.167c1.743-4.019,3.528-7.999,5.353-11.938
		c1.824-3.938,3.688-7.834,5.588-11.688c1.899-3.851,3.836-7.657,5.807-11.418c-11.533-4.922-22.219-9.563-32.013-13.9
		c-9.708-4.296-18.521-8.286-26.405-11.945c-7.801-3.621-14.68-6.914-20.609-9.86c-5.859-2.911-10.783-5.479-14.751-7.69
		c0.095-0.149,0.104-0.164,0.114-0.179c15.425-8.615,17.037-9.515,30.983-15.223l9.931-3.726l-0.447-8.326
		c0.689-15.016,0.761-16.585,3.562-26.351c0.123-0.116,0.135-0.128,0.147-0.139c3.874,1.693,8.604,3.72,14.168,6.068
		c5.625,2.374,12.095,5.075,19.382,8.089c7.357,3.043,15.538,6.402,24.504,10.06c9.04,3.688,18.864,7.673,29.429,11.937
		c2.27-3.091,4.559-6.121,6.864-9.088c2.301-2.961,4.619-5.861,6.951-8.695c2.328-2.829,4.669-5.593,7.022-8.291
		c2.349-2.692,4.708-5.317,7.078-7.875c9.75,19.9,18.17,37.086,71.748,111.13C263.047,272.408,263.047,272.408,250.807,275.504"/>
	<path fill="#2791B2" d="M502.806,373.941c1.552-4.103,3.052-8.207,4.499-12.311c1.449-4.104,2.845-8.205,4.189-12.302
		c1.344-4.097,2.635-8.187,3.875-12.269c1.239-4.08,2.426-8.151,3.561-12.211c-11.562-4.148-23.678-8.566-36.229-13.211
		c-12.625-4.672-25.661-9.564-38.986-14.632c-13.372-5.085-27.004-10.335-40.762-15.703c-13.773-5.373-27.641-10.85-41.464-16.38
		c0.074-0.173,0.082-0.19,0.089-0.207c26.892-5.082,34.119-6.447,53.134-10.26l14.139-2.915l-8.521-11.645
		c-14.717-20.273-18.672-25.722-28.939-40.31c0.072-0.148,0.08-0.163,0.087-0.178c12.516,4.96,25.054,9.91,37.492,14.805
		c12.425,4.889,24.725,9.712,36.782,14.423c12.017,4.696,23.768,9.271,35.143,13.684c11.313,4.389,22.232,8.607,32.651,12.616
		c0.511-3.761,0.972-7.489,1.38-11.183c0.407-3.687,0.764-7.339,1.07-10.951c0.305-3.606,0.561-7.175,0.764-10.701
		c0.205-3.521,0.358-6.999,0.463-10.433c20.715,26.487,52.021,66.516,73.193,107.204
		C596.348,330.598,572.799,350.221,502.806,373.941"/>
	<path fill="#2791B2" d="M642.432,290.958c1.639,26.862,1.639,26.862,0.865,40.278c-2.643,27.139-2.643,27.139-5.62,40.633
		c-2.406,9.117-5.683,21.268-8.638,30.223l-1.176,3.149c1.335-3.65,2.582-7.313,3.742-10.988c1.161-3.675,2.235-7.36,3.224-11.054
		s1.892-7.396,2.71-11.104c0.817-3.707,1.551-7.422,2.201-11.138c-0.883,0.414-1.236,0.468-1.667,0.491
		c-0.433,0.023-0.943,0.018-1.534-0.02c-0.594-0.038-1.268-0.106-2.023-0.207c-1.997-0.264-4.516-0.744-7.527-1.429
		c-3.043-0.692-6.588-1.595-10.605-2.698c-4.057-1.113-8.593-2.43-13.576-3.938c-5.031-1.523-10.514-3.24-16.414-5.141
		c0.039-0.176,0.043-0.193,0.046-0.211c15.862-10.712,17.521-11.832,26.672-20.263l5.735-5.9l-4.477-9.136
		c-9.962-18.301-10.775-19.796-19.955-34.214c0.002-0.168,0.002-0.185,0.002-0.202c5.334,1.998,10.291,3.84,14.838,5.518
		c4.51,1.664,8.615,3.164,12.287,4.488c3.638,1.313,6.848,2.454,9.604,3.412c2.729,0.949,5.01,1.718,6.816,2.297
		c0.684,0.219,1.293,0.409,1.829,0.569c0.534,0.161,0.995,0.292,1.384,0.396c0.389,0.104,0.707,0.179,0.955,0.228
		c0.246,0.048,0.426,0.07,0.537,0.065c-0.309-3.667-0.695-7.32-1.16-10.96c-0.463-3.64-1.004-7.266-1.62-10.875
		s-1.308-7.2-2.075-10.773c-0.768-3.572-1.608-7.125-2.523-10.656l1.585,5.897C638.807,267.629,641.481,280.887,642.432,290.958"/>
	<path fill="#2791B2" d="M164.655,453.777l-3.059-4.996c-12.083-22.105-12.807-23.43-18.501-37.611
		c-8.802-25.057-8.97-25.535-12.108-39.655c-1.192-6.677-2.977-15.55-3.875-22.271c5.219,28.789,11.004,45.485,33.101,81.866
		C158.995,437.475,157.943,442.973,164.655,453.777"/>
	<path fill="#2791B2" d="M234.815,516.238c-1.08-1.902-2.114-3.871-3.102-5.908c-0.991-2.043-1.936-4.152-2.832-6.328
		c-0.9-2.182-1.751-4.43-2.554-6.742c-0.806-2.318-1.562-4.703-2.269-7.147c-7.27-3.734-14.003-7.386-20.172-10.927
		c-6.135-3.521-11.705-6.93-16.689-10.199c-4.95-3.248-9.317-6.355-13.081-9.299c-3.735-2.92-6.874-5.677-9.4-8.248
		c-0.071-0.127-0.078-0.139-0.084-0.152c-1.164-6.738-1.314-7.604,0.147-12.344l1.546-3.244l-5.984-9.031
		c-10.588-17.533-11.948-19.785-18.286-33.045c-0.038-0.154-0.042-0.169-0.045-0.184c3.083,2.949,6.957,6.154,11.602,9.588
		c4.691,3.467,10.164,7.165,16.397,11.064c6.289,3.936,13.342,8.07,21.135,12.377c7.85,4.338,16.438,8.844,25.729,13.483
		c-0.087-3.177-0.118-6.403-0.093-9.68c0.025-3.284,0.108-6.616,0.248-9.995c0.14-3.387,0.338-6.82,0.594-10.297
		c0.257-3.484,0.572-7.014,0.946-10.582c18.685,24.703,32.185,42.553,90.55,106.815
		C250.436,512.373,242.896,513.164,234.815,516.238"/>
	<path fill="#2791B2" d="M358.006,563.57c1.943-0.735,3.899-1.551,5.868-2.445c1.975-0.896,3.962-1.873,5.959-2.93
		c2.004-1.059,4.019-2.197,6.042-3.415c2.029-1.222,4.068-2.521,6.113-3.899c-7.743-2.079-15.777-4.395-24.026-6.928
		c-8.281-2.543-16.767-5.301-25.381-8.253c-8.634-2.958-17.383-6.108-26.166-9.425c-8.791-3.32-17.601-6.804-26.35-10.426
		c0.012-0.086,0.013-0.094,0.014-0.104c23.915-2.272,25.274-2.405,32.817-3.145l10.407-1.055l-6.849-7.693
		c-12.769-14.342-18.054-20.279-27.734-31.282c0.031-0.125,0.034-0.138,0.037-0.149c11.249,4.631,22.573,9.107,33.862,13.395
		c11.278,4.283,22.499,8.369,33.555,12.225c11.024,3.846,21.863,7.457,32.416,10.804c10.502,3.332,20.701,6.396,30.5,9.167
		c2.105-2.312,4.207-4.699,6.303-7.158c2.1-2.465,4.194-5.002,6.281-7.608c2.091-2.614,4.174-5.298,6.246-8.052
		c2.078-2.76,4.145-5.59,6.199-8.487c11.358,18.424,28.524,46.265,24.873,63.874C449.389,554.997,412.893,563.219,358.006,563.57"/>
	<path fill="#2791B2" d="M494.721,550.471c-8.145,3.453-19.041,8-27.369,10.988c-0.521,0.166-0.597,0.189-0.674,0.211
		c-0.076,0.023-0.154,0.045-0.232,0.068c-1.926,0.551-4.179,0.944-6.734,1.186c-2.574,0.244-5.454,0.334-8.619,0.273
		c-3.186-0.061-6.658-0.271-10.395-0.629c-3.758-0.36-7.781-0.867-12.045-1.516c0.118-0.05,0.131-0.055,0.143-0.061
		c19.751-3.211,22.787-3.703,37.5-7.182l10.204-2.678l1.185-3.438c0.924-7.505,1.043-8.469-0.362-15.731
		c0.116-0.093,0.128-0.102,0.14-0.111c5.252,0.927,10.182,1.677,14.76,2.243c4.543,0.562,8.738,0.94,12.556,1.132
		c3.786,0.189,7.199,0.194,10.212,0.008c2.988-0.188,5.58-0.561,7.754-1.13c0.486-0.127,0.948-0.263,1.387-0.408
		c0.438-0.144,0.852-0.298,1.242-0.46s0.758-0.332,1.102-0.511c0.343-0.179,0.662-0.365,0.961-0.56
		C517.811,537.986,504.912,545.715,494.721,550.471"/>
</g>
<polyline fill="none" stroke="#3E91B2" stroke-width="3" stroke-miterlimit="10" points="276.817,187.63 152.394,136.551 
	185.813,55.144 "/>
<polyline fill="none" stroke="#3E91B2" stroke-width="3" stroke-miterlimit="10" points="540.461,440.718 668.966,480.425 
	649.943,541.986 "/>
<polyline fill="none" stroke="#3E91B2" stroke-width="3" stroke-miterlimit="10" points="588.306,109.451 543.907,92.325 
	474.675,279.732 "/>
<path fill="#2EA6CC" d="M163.784,51.497V35.378c0-1.926,1.2-3.492,2.676-3.492h-2.5c-1.475,0-2.675,1.566-2.675,3.492v16.119
	c0,1.925,1.2,3.5,2.675,3.5h2.5C164.984,54.997,163.784,53.422,163.784,51.497z"/>
<g>
	<polygon fill="#2EA6CC" points="164.96,28.879 169.46,28.879 174.534,28.879 170.034,28.879 	"/>
</g>
<g>
	<path fill="#2EA6CC" d="M170.034,28.879h4.5c1.613,0,3.051,1.01,3.961,2.57h-4.499C173.086,29.889,171.648,28.879,170.034,28.879z"
		/>
</g>
<g>
	<path fill="#2EA6CC" d="M172.996,31.449c0.638,1.092,1.017,2.455,1.017,3.929v16.119c0,1.456-0.369,2.802-0.992,3.887
		c-0.908,1.584-2.357,2.611-3.986,2.611h-5.074c-2.744,0-4.977-2.916-4.977-6.498V35.378c0-3.582,2.232-6.499,4.977-6.499h5.074
		C170.648,28.879,172.086,29.889,172.996,31.449z M171.717,51.497V35.378c0-1.926-1.207-3.492-2.683-3.492h-5.074
		c-1.475,0-2.675,1.566-2.675,3.492v16.119c0,1.925,1.2,3.5,2.675,3.5h5.074C170.51,54.997,171.717,53.422,171.717,51.497"/>
</g>
<g>
	<path fill="#2EA6CC" d="M175.013,51.497h4.5c0,1.456-0.37,2.802-0.992,3.887c-0.909,1.584-2.358,2.611-3.986,2.611h-4.5
		c1.629,0,3.078-1.027,3.986-2.611C174.644,54.299,175.013,52.953,175.013,51.497z"/>
</g>
<g>
	<rect x="175.013" y="35.378" fill="#2EA6CC" width="4.5" height="16.119"/>
</g>
<g>
	<path fill="#2EA6CC" d="M173.996,31.449h4.499c0.638,1.092,1.018,2.455,1.018,3.929h-4.5
		C175.013,33.903,174.634,32.541,173.996,31.449z"/>
</g>
<g>
	<path fill="#2EA6CC" d="M183.864,13.139h4.5c-0.523,0-0.951,0.153-1.193,0.289h-4.499
		C182.913,13.292,183.341,13.139,183.864,13.139z"/>
</g>
<g>
	<path fill="#2EA6CC" d="M184.864,10.133h4.5c1.559,0,2.938,0.864,3.875,2.421c1.689,2.809,1.965,7.758,0.841,14.742h-4.499
		c1.123-6.984,0.848-11.934-0.842-14.742C187.802,10.997,186.423,10.133,184.864,10.133z"/>
</g>
<g>
	<polygon fill="#2EA6CC" points="195.124,56.978 199.623,56.978 199.458,57.05 194.958,57.05 	"/>
</g>
<g>
	<polygon fill="#2EA6CC" points="188.581,27.296 193.08,27.296 202.167,27.296 197.667,27.296 	"/>
</g>
<g>
	<polygon fill="#2EA6CC" points="197.667,27.296 202.167,27.296 202.374,27.404 197.874,27.404 	"/>
</g>
<path fill="#2EA6CC" d="M207.338,31.806c-0.835-2.764-3.192-3.997-3.964-4.401h-4.5c0.771,0.405,3.13,1.638,3.965,4.401
	c0.447,1.484,0.393,3.131-0.166,4.922c0.241,1.71,0.559,5.022-1.262,7.074c-0.027,2.008-0.228,5.257-1.882,6.768
	c0.056,3.213-1.13,5.473-3.405,6.408h4.499c2.275-0.936,3.461-3.195,3.405-6.408c1.654-1.511,1.855-4.76,1.882-6.768
	c1.821-2.052,1.503-5.364,1.263-7.074C207.731,34.937,207.785,33.29,207.338,31.806z"/>
<g>
	<path fill="none" d="M183.864,13.139c-0.523,0-0.951,0.153-1.192,0.289h2.292C184.635,13.241,184.27,13.139,183.864,13.139z"/>
	<path fill="none" d="M199.701,32.901c-0.304-0.998-1.116-1.854-2.481-2.599h-11.541l0.344-1.854
		c0.442-2.369,0.701-4.356,0.83-6.031c-0.98,3.75-3.186,7.384-6.914,11.367h-4.499c0,3.142,0,15.795,0,18.541
		c0.056,1,0.083,1.125,1.676,1.719h17.478c0.916-0.423,1.861-1.332,1.592-4.167l-0.117-1.226l0.891-0.386
		c1.157-0.504,1.157-3.933,1.157-5.22v-0.838l0.538-0.439c1.138-0.919,1.006-2.908,0.695-4.914l-0.074-0.486l0.158-0.451
		C199.866,34.721,199.949,33.73,199.701,32.901z"/>
	<path display="none" fill="#2EA6CC" d="M186.853,22.417c0.375-4.853-0.346-7.053-0.919-8.009c-0.271-0.449-0.597-0.77-0.97-0.981
		h-2.292c-0.124,0.818-0.11,2.916-0.097,4.22c0.014,2.376,0.008,3.878-0.22,4.761c-0.979,3.754-3.187,7.39-6.916,11.375h4.499
		C183.667,29.801,185.872,26.167,186.853,22.417z"/>
	<path fill="#2EA6CC" d="M201.839,31.806c-0.835-2.764-3.193-3.997-3.965-4.401l-0.207-0.108h-9.086
		c1.123-6.984,0.848-11.934-0.842-14.742c-0.938-1.557-2.316-2.421-3.875-2.421c-1.027,0-2.102,0.395-2.736,0.99
		c-0.82,0.783-0.883,2.332-0.855,6.551c0.007,1.306,0.021,3.295-0.09,3.763c-0.829,3.169-2.858,6.456-6.187,10.012
		c0.638,1.092,1.017,2.455,1.017,3.929v16.119c0,1.456-0.369,2.802-0.992,3.887c0.664,0.879,1.623,1.236,2.619,1.602l0.152,0.064
		h18.166l0.166-0.072c2.275-0.936,3.461-3.195,3.405-6.408c1.654-1.511,1.854-4.76,1.882-6.768c1.82-2.052,1.503-5.364,1.262-7.074
		C202.231,34.937,202.286,33.29,201.839,31.806z M199.349,36.854c0.311,2.006,0.442,3.995-0.695,4.914l-0.538,0.439v0.838
		c0,1.287,0,4.716-1.157,5.22l-0.891,0.386l0.117,1.226c0.27,2.835-0.676,3.744-1.592,4.167h-17.478
		c-1.593-0.594-1.62-0.719-1.676-1.719c0-2.746,0-15.399,0-18.541c3.729-3.986,5.937-7.622,6.916-11.375
		c0.228-0.883,0.233-2.385,0.22-4.761c-0.014-1.305-0.027-3.402,0.097-4.22c0.241-0.136,0.669-0.289,1.192-0.289
		c0.405,0,0.771,0.102,1.1,0.289c0.373,0.211,0.699,0.532,0.97,0.981c0.573,0.956,1.294,3.156,0.919,8.009
		c-0.129,1.675-0.388,3.663-0.83,6.031l-0.344,1.854h11.541c1.365,0.745,2.178,1.601,2.481,2.599
		c0.248,0.829,0.165,1.819-0.269,3.016l-0.158,0.451L199.349,36.854z"/>
</g>
<g>
	<g enable-background="new    ">
		<g>
			<path fill="#2EA6CC" d="M643.417,585.183l-4.98-0.436c-4.565-0.399-8.844-1.486-12.684-3.114l4.98,0.435
				C634.573,583.696,638.853,584.784,643.417,585.183z"/>
		</g>
		<g>
			<path fill="#2EA6CC" d="M629.198,593.212l-4.981-0.436c-6.798-3.043-9.943-11.188-9.329-16.509l4.98,0.437
				C619.255,582.024,622.399,590.169,629.198,593.212z"/>
		</g>
		<g>
			<path fill="#2EA6CC" d="M619.868,576.704l-4.98-0.437c-6.154-5.137-9.694-12.069-9.056-19.366
				c1.206-13.79,16.868-23.687,34.974-22.103l4.981,0.437c-18.106-1.584-33.769,8.312-34.975,22.102
				C610.175,564.634,613.715,571.566,619.868,576.704z"/>
		</g>
		<g>
			<path fill="#2EA6CC" d="M647.787,535.235c18.101,1.584,31.804,14.049,30.598,27.838c-1.208,13.798-16.868,23.693-34.968,22.109
				c-4.564-0.398-8.844-1.486-12.684-3.115c-0.655,2.926-1.112,6.725,0.465,11.145c-6.799-3.043-9.943-11.188-9.33-16.508
				c-6.153-5.138-9.693-12.07-9.056-19.367C614.019,543.547,629.681,533.651,647.787,535.235z M645.298,563.692
				c1.661,0.146,3.148-1.297,3.317-3.223c0.168-1.92-1.047-3.598-2.708-3.743c-1.67-0.146-3.157,1.296-3.325,3.216
				C642.413,561.868,643.628,563.547,645.298,563.692 M633.55,562.665c1.67,0.146,3.156-1.296,3.325-3.223
				c0.168-1.919-1.047-3.598-2.716-3.743c-1.662-0.146-3.149,1.296-3.317,3.216C630.673,560.841,631.888,562.521,633.55,562.665
				 M657.038,564.721c1.661,0.146,3.148-1.298,3.317-3.224c0.168-1.92-1.047-3.598-2.708-3.743
				c-1.662-0.146-3.149,1.296-3.317,3.216C654.161,562.896,655.376,564.575,657.038,564.721"/>
		</g>
	</g>
</g>
<path fill="none" stroke="#2EA6CC" stroke-width="3" stroke-miterlimit="10" d="M78.974,528.61"/>
<g>
	<polygon fill="#2EA6CC" points="595.962,101.505 598.274,102.125 587.392,119.865 585.079,119.245 	"/>
</g>
<g>
	<polygon fill="#2EA6CC" points="602.101,81.424 604.726,82.128 602.931,85.042 600.306,84.338 	"/>
</g>
<g>
	<polygon fill="#2EA6CC" points="601.058,93.208 603.369,93.827 599.908,99.46 597.596,98.839 	"/>
</g>
<g>
	<polygon fill="#2EA6CC" points="607.003,74.479 609.315,75.1 607.714,77.717 605.401,77.097 	"/>
</g>
<g>
	<polygon fill="#2EA6CC" points="613.157,73.474 615.47,74.093 605.003,91.163 602.69,90.542 	"/>
</g>
<g>
	<path fill="#2EA6CC" d="M618.16,55.946l2.312,0.619c-5.685-1.523-11.638,2.164-13.259,8.215c-1.013,3.781-0.11,7.601,2.103,10.319
		l-2.312-0.62c-2.213-2.718-3.116-6.537-2.103-10.319C606.521,58.11,612.474,54.422,618.16,55.946z"/>
</g>
<g>
	<path fill="#2EA6CC" d="M620.165,47.872l2.625,0.703c-9.867-2.644-20.187,3.75-23,14.25c-1.941,7.242,0.187,14.583,4.936,19.303
		l-2.625-0.704c-4.749-4.72-6.877-12.06-4.936-19.303C599.978,51.622,610.298,45.228,620.165,47.872z"/>
</g>
<g>
	<path fill="#2EA6CC" d="M615.752,74.188l-2.312-0.62c0.098,0.025,0.189,0.041,0.29,0.059l2.312,0.62
		C615.942,74.228,615.849,74.213,615.752,74.188z"/>
</g>
<g>
	<polygon fill="#2EA6CC" points="602.69,90.542 614.259,93.642 616.571,94.262 605.003,91.163 	"/>
</g>
<g>
	<path fill="#2EA6CC" d="M617.995,60.292l2.312,0.62c3.447,0.924,5.445,4.646,4.465,8.305c-0.684,2.548-2.623,4.394-4.897,4.978
		l-2.312-0.619c2.274-0.584,4.214-2.43,4.897-4.979C623.44,64.938,621.442,61.216,617.995,60.292z"/>
</g>
<g>
	<polygon fill="#2EA6CC" points="597.596,98.839 599.908,99.46 616.835,103.995 614.522,103.376 	"/>
</g>
<g>
	<polygon fill="#2EA6CC" points="617.562,73.575 619.875,74.194 621.321,128.688 619.009,128.069 	"/>
</g>
<g>
	<path fill="#2EA6CC" d="M618.936,53.051c7.196,1.929,11.378,9.72,9.329,17.37c-1.363,5.085-5.141,8.825-9.622,10.225l-0.088-3.07
		c3.275-1.248,5.976-4.102,6.989-7.883c1.621-6.051-1.689-12.221-7.384-13.746c-5.687-1.524-11.639,2.164-13.26,8.214
		c-1.014,3.782-0.11,7.602,2.103,10.319l-1.602,2.617c-3.19-3.454-4.592-8.582-3.229-13.668
		C604.222,55.779,611.747,51.125,618.936,53.051z"/>
</g>
<g>
	<path fill="#2EA6CC" d="M619.936,53.051l2.312,0.62c7.196,1.928,11.378,9.72,9.328,17.369c-1.362,5.086-5.14,8.826-9.621,10.225
		l-2.312-0.619c4.481-1.399,8.259-5.14,9.622-10.225C631.313,62.771,627.132,54.979,619.936,53.051z"/>
</g>
<g>
	<path fill="#2EA6CC" d="M616.562,73.575l1.446,54.494l-2.851-0.764l-0.554-20.806l-18.643-4.995l-10.883,17.74l-2.858-0.766
		l17.567-28.641l10.941-17.826c-1.679-1.643-2.427-4.211-1.744-6.759c0.98-3.659,4.57-5.883,8.01-4.962
		c3.447,0.924,5.445,4.646,4.465,8.305C620.776,71.146,618.837,72.991,616.562,73.575z M613.157,73.474L602.69,90.542l11.568,3.1
		l-0.529-20.016c-0.101-0.018-0.193-0.033-0.291-0.059C613.341,73.541,613.253,73.509,613.157,73.474 M597.596,98.839l16.927,4.537
		l-0.174-6.606l-13.291-3.562L597.596,98.839"/>
</g>
<g>
	<polygon fill="#2EA6CC" points="618.009,128.069 620.321,128.688 617.471,127.925 615.158,127.306 	"/>
</g>
<g>
	<path fill="#2EA6CC" d="M621.045,44.586c11.572,3.101,18.31,15.641,15.011,27.956c-2.336,8.714-9.088,14.995-16.927,16.84
		l-0.087-3.419c6.463-1.715,11.975-7.008,13.916-14.251c2.813-10.499-2.928-21.197-12.793-23.84c-9.867-2.645-20.188,3.75-23,14.249
		c-1.941,7.243,0.187,14.583,4.936,19.303l-1.795,2.914c-5.867-5.517-8.564-14.329-6.229-23.044
		C597.376,48.978,609.472,41.483,621.045,44.586z"/>
</g>
<g>
	<path fill="#2EA6CC" d="M622.045,44.586l2.624,0.703c11.573,3.102,18.311,15.641,15.012,27.956
		c-2.336,8.715-9.088,14.996-16.926,16.841l-2.626-0.704c7.839-1.845,14.591-8.126,16.927-16.84
		C640.354,60.227,633.617,47.687,622.045,44.586z"/>
</g>
</svg>
