<?xml version="1.0" encoding="utf-8"?>
<!-- Generator: Adobe Illustrator 15.0.0, SVG Export Plug-In . SVG Version: 6.00 Build 0)  -->
<!DOCTYPE svg PUBLIC "-//W3C//DTD SVG 1.1//EN" "http://www.w3.org/Graphics/SVG/1.1/DTD/svg11.dtd">
<svg version="1.1" id="Layer_2" xmlns="http://www.w3.org/2000/svg" xmlns:xlink="http://www.w3.org/1999/xlink" x="0px" y="0px"
	 width="1258.437px" height="863.957px" viewBox="0 0 1258.437 863.957" enable-background="new 0 0 1258.437 863.957"
	 xml:space="preserve">
<g>
	<g>
		<polygon points="384.7,588.796 327.083,557.465 226.954,571.519 226.973,571.528 136.048,584.302 193.666,615.633 
			287.433,602.461 287.414,602.451 		"/>
		<polygon points="134.979,585.182 134.807,688.767 134.787,688.756 134.595,791.701 192.902,823.407 192.902,731.789 
			192.902,720.41 192.902,616.68 		"/>
	</g>
	<g>
		<g>
			<polygon points="699.731,639.229 794.186,625.96 736.568,594.629 699.804,599.793 			"/>
		</g>
		<polygon points="506.342,667.337 448.418,635.839 448.228,738.734 506.151,770.232 		"/>
		<polygon points="507.106,666.29 601.015,653.098 543.352,621.772 449.488,634.958 		"/>
		<polygon points="602.391,652.384 602.581,550.219 544.658,518.721 544.467,620.918 		"/>
		<polygon points="603.344,549.172 698.333,535.828 640.714,504.497 545.726,517.841 		"/>
	</g>
	<g>
		<polygon points="399.98,337.646 342.056,306.147 341.865,409.053 341.671,512.678 399.98,544.384 		"/>
		<polygon points="400.743,336.599 494.661,323.404 437.069,292.069 343.125,305.267 		"/>
		<polygon points="496.982,219.48 591.969,206.136 534.352,174.805 439.363,188.149 		"/>
		<polygon points="438.294,189.029 438.105,291.17 496.028,322.686 496.218,220.526 		"/>
	</g>
	<g>
		<polygon points="113.632,157.06 55.708,125.562 55.709,320.291 55.517,423.915 113.825,455.622 		"/>
		<polygon points="115.109,155.93 305.814,117.373 248.197,86.043 57.491,124.598 		"/>
	</g>
	<g>
		<g>
			<polygon points="962.521,504.242 1056.986,490.972 999.368,459.64 962.595,464.807 			"/>
		</g>
		<g>
			<polygon points="865.187,519.212 807.191,527.36 807.074,590.252 864.998,621.75 			"/>
		</g>
		<polygon points="769.144,530.888 769.335,428.724 711.411,397.226 711.221,499.39 		"/>
		<polygon points="770.098,427.677 961.122,400.84 903.504,369.51 807.459,383.003 712.481,396.346 		"/>
	</g>
	<g>
		<g>
			<polygon points="1064.893,302.731 1006.896,310.879 1006.779,373.771 1064.702,405.268 			"/>
		</g>
		<polygon points="872.793,327.9 872.985,225.736 815.06,194.239 814.871,296.403 		"/>
		<polygon points="873.748,224.689 1160.827,184.359 1103.209,153.028 1007.164,166.521 911.108,180.016 816.13,193.359 		"/>
	</g>
</g>
<g>
	<path d="M134.306,170.837c-0.203,0.933-0.492,1.97-0.867,3.112l-2.356,6.763l6.445-1.249l-2.302-5.863
		C134.928,172.859,134.622,171.938,134.306,170.837z"/>
	<path d="M209.042,138.36l-93.664,19.48v297.776l94.885-13.349l0.125-201.598l96.214-19.157l0.242-102.977L209.042,138.36z
		 M140.706,187.443l-2.462-5.99l-7.982,1.542l-2.454,6.916l-2.331,0.447l7.893-21.934l1.953-0.385l7.787,18.943L140.706,187.443z
		 M155.27,183.428c-1.291,1.251-3.034,2.086-5.23,2.507c-2.377,0.455-4.202,0.494-5.476,0.116l0.011-2.284
		c0.819,0.196,1.712,0.303,2.68,0.321c0.968,0.018,1.928-0.064,2.879-0.247c1.556-0.298,2.73-0.824,3.523-1.575
		c0.792-0.753,1.192-1.665,1.199-2.737c0.004-0.708-0.133-1.262-0.409-1.661c-0.277-0.398-0.743-0.725-1.397-0.98
		c-0.653-0.255-1.648-0.496-2.984-0.722c-1.864-0.317-3.196-0.864-3.991-1.642c-0.796-0.775-1.19-1.914-1.183-3.416
		c0.007-1.577,0.594-2.948,1.761-4.11c1.169-1.165,2.713-1.936,4.632-2.314c2.004-0.395,3.848-0.384,5.528,0.035l-0.747,2.225
		c-1.661-0.385-3.277-0.423-4.849-0.115c-1.239,0.244-2.21,0.705-2.908,1.384c-0.7,0.679-1.052,1.5-1.057,2.461
		c-0.003,0.709,0.121,1.266,0.376,1.667c0.253,0.403,0.683,0.734,1.292,0.993c0.608,0.259,1.538,0.496,2.792,0.708
		c2.107,0.354,3.555,0.895,4.344,1.618c0.789,0.724,1.18,1.786,1.17,3.186C157.214,180.649,156.561,182.174,155.27,183.428z
		 M172.143,171.68c-1.415,1.394-3.427,2.343-6.034,2.847l-2.383,0.462l-0.065,8.059l-2.348,0.45l0.157-20.524l5.26-1.036
		c5.084-1.001,7.611,0.505,7.572,4.518C174.279,168.543,173.559,170.285,172.143,171.68z M190.042,159.486l-9.051,1.778
		l-0.075,6.663l8.492-1.653l-0.027,2.125l-8.488,1.647l-0.086,7.585l9.023-1.732l-0.028,2.145l-11.39,2.181l0.223-20.631
		l11.435-2.251L190.042,159.486z M208.147,156.756c-1.558-0.434-3.123-0.497-4.691-0.188c-2.275,0.446-4.08,1.562-5.417,3.342
		c-1.334,1.779-2.02,3.988-2.057,6.628c-0.038,2.713,0.564,4.686,1.806,5.92c1.242,1.235,3.033,1.627,5.376,1.177
		c1.441-0.276,3.09-0.852,4.948-1.728l-0.035,2.114c-1.442,0.814-3.213,1.421-5.313,1.823c-3.036,0.581-5.363,0.105-6.983-1.427
		c-1.62-1.531-2.408-4.001-2.361-7.411c0.029-2.136,0.451-4.087,1.267-5.852c0.817-1.767,1.983-3.234,3.496-4.403
		c1.517-1.171,3.294-1.957,5.334-2.358c2.175-0.428,4.071-0.403,5.687,0.076L208.147,156.756z M225.956,152.433l-6.626,1.302
		l-0.343,18.722l-2.419,0.463l0.335-18.708l-6.595,1.295l0.036-2.159l15.655-3.084L225.956,152.433z"/>
	<path d="M170.554,164.258c-0.875-0.496-2.245-0.56-4.107-0.194l-2.638,0.518l-0.067,8.358l2.121-0.412
		c2.089-0.406,3.605-1.043,4.548-1.91c0.942-0.867,1.421-2.058,1.436-3.572C171.86,165.684,171.429,164.753,170.554,164.258z"/>
</g>
<g>
	<path d="M420.23,351.895c-0.203,0.922-0.494,1.943-0.871,3.063l-2.369,6.618l6.478-0.836l-2.312-6.017
		C420.856,353.961,420.549,353.019,420.23,351.895z"/>
	<path d="M497.536,220.704l-0.158,102.681v0.964l-0.733,0.087l-95.267,13.386V544.38l94.961-13.349l0.165-103.625l96.042-13.494
		l0.186-103.636l0.205-102.978L497.536,220.704z M426.656,368.918l-2.468-6.141l-8.02,1.03l-2.461,6.752l-2.34,0.297l7.924-21.44
		l1.965-0.26l7.813,19.457L426.656,368.918z M435.167,363.841c1.225,1.296,2.983,1.798,5.275,1.507
		c1.409-0.179,3.021-0.64,4.834-1.382l-0.021,2.081c-1.408,0.708-3.138,1.191-5.191,1.451c-2.97,0.376-5.251-0.243-6.85-1.856
		c-1.599-1.614-2.388-4.098-2.368-7.458c0.012-2.106,0.412-4.005,1.199-5.696c0.789-1.692,1.922-3.067,3.4-4.124
		c1.48-1.058,3.22-1.719,5.22-1.983c2.131-0.282,3.993-0.133,5.581,0.447l-1.023,2.191c-1.532-0.53-3.067-0.694-4.604-0.492
		c-2.23,0.293-3.994,1.277-5.292,2.95c-1.297,1.67-1.953,3.808-1.97,6.411C433.336,360.561,433.941,362.544,435.167,363.841z
		 M465.167,356.798c-0.039,2.347-0.773,4.28-2.202,5.798c-1.427,1.516-3.367,2.429-5.82,2.739c-2.45,0.31-4.334-0.122-5.656-1.294
		c-1.323-1.173-1.97-2.936-1.942-5.291l0.153-13.268l2.375-0.313l-0.166,13.445c-0.021,1.712,0.426,2.965,1.343,3.763
		c0.916,0.797,2.274,1.081,4.076,0.852c1.719-0.219,3.052-0.848,3.997-1.888c0.946-1.042,1.433-2.425,1.459-4.152l0.209-13.461
		l2.391-0.316L465.167,356.798z M472.854,363.065l-2.386,0.302l0.371-20.677l2.401-0.317L472.854,363.065z M491.849,342.07
		l-6.591,0.867l-0.415,18.61l-2.401,0.304l0.401-18.597l-6.561,0.863l0.042-2.151l15.577-2.058L491.849,342.07z M501.253,351.434
		l-0.219,8.062l-2.45,0.311l0.209-7.942l-6.622-11.99l2.657-0.351l5.259,9.731l5.878-11.203l2.647-0.35L501.253,351.434z"/>
</g>
<g>
	<path d="M217.396,629.793c-0.208,0.92-0.506,1.939-0.892,3.057l-2.427,6.617l6.635-0.875l-2.367-5.983
		C218.038,631.85,217.722,630.912,217.396,629.793z"/>
	<path d="M290.142,603.391l-95.764,13.468v103.599V732v91.403l95.764-13.467l95.168-13.376l0.146-91.398l0.011-0.004L385.7,589.96
		L290.142,603.391z M223.973,646.715l-2.524-6.1l-8.216,1.084l-2.529,6.77l-2.409,0.318l8.137-21.464l2.012-0.264l7.991,19.33
		L223.973,646.715z M240.794,626.311l-9.059,1.192l-0.046,7.447l8.495-1.119l-0.018,2.098l-8.491,1.119l-0.053,8.656l-2.377,0.313
		l0.112-20.309l11.454-1.506L240.794,626.311z M255.628,624.36l-9.05,1.189l-0.075,7.449l8.487-1.119l-0.026,2.098l-8.482,1.118
		l-0.086,8.655l-2.375,0.314l0.192-20.31l11.442-1.504L255.628,624.36z M261.152,641.801l-2.373,0.313l0.27-20.309l2.385-0.313
		L261.152,641.801z M282.666,638.957l-2.703,0.357l-10.867-15.558l-0.112,0.015c0.117,1.988,0.163,3.814,0.136,5.483l-0.184,11.518
		l-2.19,0.289l0.312-20.309l2.693-0.354l10.847,15.521l0.111-0.015c-0.014-0.247-0.041-1.042-0.08-2.387
		c-0.04-1.345-0.044-2.312-0.015-2.896l0.222-11.682l2.227-0.293L282.666,638.957z M290.633,637.904l-2.367,0.312l0.427-20.309
		l2.38-0.312L290.633,637.904z M309.4,617.286l-6.471,0.852l-0.451,18.201l-2.366,0.312l0.439-18.201l-6.475,0.852l0.047-2.107
		l15.331-2.016L309.4,617.286z M318.572,626.392l-0.227,7.85l-2.391,0.316l0.219-7.74l-6.451-11.673l2.6-0.343l5.117,9.47
		l5.739-10.896l2.57-0.338L318.572,626.392z"/>
</g>
<g>
	<path d="M526.743,677.78c-0.22,0.931-0.53,1.96-0.929,3.086l-2.486,6.611l6.628-0.889l-2.29-5.969
		C527.366,679.857,527.059,678.912,526.743,677.78z"/>
	<path d="M549.212,678.191c0.061-1.354-0.295-2.28-1.07-2.775c-0.777-0.496-2.053-0.627-3.83-0.393l-3.118,0.412l-0.259,7.814
		l3.251-0.435c1.673-0.224,2.913-0.718,3.722-1.482C548.718,680.567,549.153,679.522,549.212,678.191z"/>
	<path d="M698.41,640.608l-0.031-0.596v-0.604l0.225-102.327l-94.755,13.313l-0.182,102.686l0.002,0.939l-0.759,0.108
		l-95.283,13.385l-0.191,102.977l95.404-13.402l96.057-13.494l96.046-13.494l0.175-102.976L698.41,640.608z M533.054,694.546
		l-2.396-5.959l-8.187,1.102l-2.542,6.642l-2.389,0.324l8.253-21.381l2.038-0.269l7.651,19.212L533.054,694.546z M549.646,692.293
		l-4.535-7.6l-4.243,0.569l-0.274,8.26l-2.341,0.318l0.603-20.201l5.678-0.747c2.535-0.333,4.384-0.093,5.548,0.722
		c1.16,0.812,1.692,2.188,1.599,4.124c-0.129,2.694-1.578,4.685-4.345,5.986l5.065,8.194L549.646,692.293z M569.958,672.475
		c-1.49-0.529-3.01-0.692-4.557-0.488c-2.248,0.297-4.069,1.286-5.46,2.964c-1.386,1.672-2.151,3.803-2.297,6.38
		c-0.149,2.634,0.354,4.57,1.503,5.824c1.144,1.246,2.85,1.713,5.119,1.406c1.393-0.188,2.999-0.651,4.817-1.388l-0.148,2.008
		c-1.416,0.697-3.135,1.184-5.16,1.459c-2.936,0.399-5.151-0.171-6.652-1.715c-1.508-1.553-2.179-3.975-2.003-7.284
		c0.111-2.086,0.602-3.977,1.475-5.668c0.876-1.697,2.086-3.081,3.628-4.146c1.545-1.066,3.329-1.732,5.35-1.999
		c2.149-0.283,3.997-0.132,5.542,0.451L569.958,672.475z"/>
</g>
<g>
	<path d="M817.371,444.79c0.009-1.355-0.389-2.282-1.193-2.784c-0.808-0.502-2.107-0.646-3.906-0.434l-3.163,0.376l-0.038,7.877
		l3.332-0.415c1.709-0.213,2.961-0.704,3.763-1.47C816.961,447.174,817.364,446.126,817.371,444.79z"/>
	<path d="M866.381,435.561c-0.205,0.89-0.493,1.875-0.868,2.955l-2.35,6.407l6.221-0.785l-2.146-5.831
		C866.959,437.566,866.673,436.652,866.381,435.561z"/>
	<path d="M833.589,468.547c0-1.358-0.393-2.282-1.174-2.773c-0.782-0.489-2.162-0.613-3.889-0.372l-3.148,0.425v7.845l3.314-0.442
		c1.643-0.228,2.912-0.729,3.68-1.505C833.142,470.946,833.589,469.887,833.589,468.547z"/>
	<path d="M885.829,457.097c-2.271,0.319-3.997,1.288-5.177,2.906c-1.181,1.617-1.771,3.811-1.771,6.583
		c0,2.81,0.59,4.859,1.771,6.149c1.18,1.292,2.896,1.782,5.148,1.475c2.273-0.312,3.993-1.271,5.154-2.882
		c1.162-1.61,1.743-3.83,1.743-6.657c0-2.798-0.578-4.84-1.736-6.125C889.804,457.263,888.093,456.778,885.829,457.097z"/>
	<path d="M962.589,505.539l-1.211,0.177v-1.293l0.118-102.328L770.654,428.9l-0.207,102.327l94.706-13.312l1.226-0.181v1.297
		l-0.145,102.977l95.427-13.404l96.068-13.494l0.232-102.976L962.589,505.539z M877.517,431.824l2.199-0.258l-0.269,17.482
		l8.253-1.079l-0.033,2.04l-10.444,1.383L877.517,431.824z M798.395,441.104l2.475-0.29l-0.073,20.693l-2.466,0.327L798.395,441.104
		z M780.071,443.252l4.997,12.969c0.573,1.479,1.024,2.93,1.358,4.352c0.357-1.588,0.822-3.184,1.396-4.787l4.948-14.022
		l2.686-0.315l-7.794,21.799l-2.484,0.328l-7.808-20.006L780.071,443.252z M797.262,488.122l-2.269,0.309l-3.98-13.095
		c-0.188-0.577-0.399-1.31-0.634-2.195c-0.234-0.887-0.355-1.423-0.363-1.607c-0.198,1.254-0.512,2.639-0.943,4.157l-3.849,14.073
		l-2.258,0.309l-5.221-19.598l2.414-0.339l3.102,12.121c0.43,1.703,0.743,3.256,0.941,4.656c0.241-1.73,0.6-3.441,1.074-5.129
		l3.525-12.865l2.428-0.342l3.709,11.984c0.433,1.381,0.796,2.957,1.095,4.73c0.172-1.345,0.495-2.998,0.974-4.96l3.109-13.005
		l2.438-0.344L797.262,488.122z M818.158,485.271l-2.481-6.172l-7.969,1.098l-2.444,6.834l-2.329,0.318l7.843-21.606l1.945-0.273
		l7.837,19.475L818.158,485.271z M818.387,459.179l-4.971-7.85l-4.355,0.55l-0.041,8.54l-2.438,0.322l0.09-20.608l5.754-0.676
		c2.558-0.3,4.438-0.039,5.646,0.781c1.206,0.818,1.803,2.192,1.791,4.123c-0.018,2.702-1.413,4.699-4.195,5.999l5.551,8.443
		L818.387,459.179z M822.1,438.323l15.262-1.79l-0.018,2.088l-6.404,0.761l-0.146,18.155l-2.359,0.312l0.139-18.187l-6.487,0.771
		L822.1,438.323z M834.661,483.02l-4.981-7.877l-4.301,0.577v8.532l-2,0.317v-20.506l5.449-0.772
		c2.458-0.346,4.256-0.118,5.434,0.681c1.176,0.801,1.754,2.171,1.754,4.112c0,2.718-1.35,4.742-4.041,6.071l5.448,8.487
		L834.661,483.02z M852.378,462.168l-9,1.249v6.633l8-1.162v2.117l-8,1.158v7.577l9-1.219v2.145l-12,1.534v-20.581l12-1.582V462.168
		z M855.196,447.312c-0.026,2.265-0.721,4.132-2.084,5.604c-1.364,1.474-3.233,2.369-5.607,2.684
		c-2.385,0.316-4.227-0.097-5.525-1.239c-1.303-1.144-1.944-2.871-1.921-5.181l0.121-12.976l2.326-0.272l-0.129,13.117
		c-0.017,1.675,0.425,2.9,1.324,3.678c0.897,0.776,2.223,1.05,3.973,0.82c1.666-0.219,2.949-0.834,3.856-1.845
		c0.905-1.01,1.368-2.349,1.388-4.021l0.146-12.989l2.282-0.267L855.196,447.312z M871.378,477.949l-2,0.323v-9.744l-11,1.482v9.722
		l-2,0.321v-20.648l2-0.331v8.789l11-1.487v-8.809l2-0.333V477.949z M872.336,452.039l-2.287-5.932l-7.706,0.983l-2.464,6.597
		l-2.285,0.302l7.911-20.838l1.885-0.221l7.232,18.807L872.336,452.039z M892.734,472.521c-1.664,2.135-3.976,3.401-6.934,3.805
		c-3.018,0.412-5.345-0.205-6.981-1.85c-1.636-1.644-2.454-4.167-2.454-7.571c0-3.375,0.82-6.106,2.46-8.194
		c1.643-2.089,3.977-3.348,7.004-3.774c2.947-0.414,5.252,0.209,6.912,1.873c1.659,1.666,2.49,4.169,2.49,7.511
		C895.231,467.652,894.399,470.386,892.734,472.521z M915.378,464.62c0,2.383-0.678,4.354-2.106,5.912
		c-1.428,1.557-3.369,2.505-5.861,2.845c-2.49,0.34-4.524-0.081-5.884-1.265c-1.361-1.183-2.148-2.97-2.148-5.365v-13.424l3-0.338
		v13.604c0,1.738,0.289,3.01,1.23,3.812c0.941,0.803,2.236,1.079,4.066,0.829c1.745-0.238,3.217-0.892,4.16-1.959
		c0.945-1.068,1.543-2.479,1.543-4.232v-13.604l2-0.339V464.62z M930.723,468.651c-1.334,1.215-3.254,1.978-5.536,2.289
		c-2.471,0.337-3.809,0.277-5.809-0.181v-2.349c1,0.247,1.896,0.406,2.901,0.478c1.007,0.072,2.062,0.041,3.048-0.094
		c1.617-0.222,2.862-0.696,3.682-1.425s1.243-1.644,1.243-2.743c0-0.726-0.139-1.302-0.429-1.726
		c-0.291-0.423-0.773-0.783-1.454-1.081c-0.681-0.299-1.713-0.6-3.102-0.904c-1.938-0.428-3.32-1.062-4.15-1.901
		s-1.245-2.026-1.245-3.562c0-1.612,0.603-2.98,1.809-4.104c1.205-1.124,2.8-1.826,4.788-2.105c2.073-0.292,3.982-0.178,5.727,0.341
		l-0.758,2.23c-1.725-0.485-3.399-0.614-5.027-0.386c-1.282,0.181-2.285,0.599-3.007,1.254s-1.083,1.473-1.083,2.457
		c0,0.725,0.133,1.301,0.399,1.727c0.266,0.427,0.715,0.788,1.346,1.087c0.633,0.299,1.6,0.593,2.902,0.88
		c2.188,0.479,3.695,1.111,4.521,1.896c0.824,0.785,1.236,1.896,1.236,3.33C932.725,465.906,932.057,467.437,930.723,468.651z
		 M948.378,448.588l-9,1.3v6.768l9-1.209v2.159l-9,1.205v7.73l9-1.269v2.188l-11,1.597v-20.996l11-1.647V448.588z"/>
	<path d="M811.716,468.213c-0.2,0.923-0.485,1.946-0.856,3.071l-2.339,6.66l6.434-0.889l-2.313-6.021
		C812.342,470.275,812.035,469.334,811.716,468.213z"/>
</g>
<g>
	<path d="M977.114,260.481c-0.009-1.223-0.374-2.058-1.095-2.504s-1.872-0.566-3.457-0.359l-2.784,0.364l0.064,7.089l2.934-0.39
		c1.507-0.201,2.61-0.649,3.309-1.345C976.782,262.639,977.126,261.688,977.114,260.481z"/>
	<path d="M874.268,225.914l-0.189,102.327l190.917-26.808l1.383-0.189v1.308l-0.292,102.975l95.353-13.402l0.169-103.625
		l0.178-102.977L874.268,225.914z M952.772,232.821l1.708-0.237l6.931,17.394l-2.11,0.286l-2.194-5.516l-7.002,0.956l-2.137,6.094
		l-2.049,0.277L952.772,232.821z M945.653,233.886l0.003,1.88l-5.507,0.764l0.032,16.321l-2.021,0.274l-0.03-16.315l-5.491,0.761
		l-0.004-1.875L945.653,233.886z M930.054,236.053l0.028,18.163l-2.012,0.272l-0.026-18.156L930.054,236.053z M886.378,242.125
		l5.205-0.725c2.65-0.368,4.709,0.122,6.183,1.472c1.473,1.352,2.206,3.423,2.206,6.214c0.004,2.98-0.762,5.363-2.292,7.148
		s-3.725,2.871-6.594,3.258l-4.708,0.638V242.125z M890.156,281.734c1.202,1.194,2.901,1.641,5.094,1.344
		c1.343-0.182,2.872-0.626,4.586-1.333l0.023,1.927c-1.325,0.673-2.969,1.143-4.929,1.409c-2.844,0.387-5.051-0.162-6.622-1.648
		c-1.572-1.487-2.382-3.795-2.424-6.923c-0.025-1.959,0.325-3.724,1.053-5.297c0.727-1.572,1.79-2.848,3.188-3.829
		c1.396-0.98,3.048-1.594,4.951-1.842c2.023-0.263,3.792-0.129,5.311,0.399l-0.924,2.016c-1.466-0.484-2.93-0.63-4.39-0.439
		c-2.122,0.277-3.79,1.191-5.002,2.743c-1.215,1.552-1.805,3.537-1.773,5.954C888.333,278.701,888.952,280.541,890.156,281.734z
		 M903.781,239.705l1.992-0.277l0.013,18.076l-1.994,0.27L903.781,239.705z M904.055,283.581l-0.234-18.904l10.667-1.389
		l0.022,1.948l-8.434,1.103l0.073,6.089l7.923-1.051l0.023,1.934l-7.921,1.055l0.085,6.95l8.428-1.141l0.024,1.957L904.055,283.581z
		 M911.772,254.495c-1.452-1.433-2.177-3.618-2.179-6.555c-0.004-1.88,0.354-3.577,1.069-5.09s1.745-2.737,3.091-3.67
		c1.348-0.934,2.929-1.528,4.742-1.78c1.838-0.256,3.552-0.138,5.143,0.352l-0.777,1.968c-1.559-0.479-3.056-0.618-4.494-0.419
		c-2.094,0.291-3.729,1.173-4.904,2.648c-1.174,1.474-1.758,3.375-1.757,5.701c0.003,2.443,0.57,4.219,1.703,5.329
		c1.135,1.109,2.801,1.516,5.001,1.217c1.193-0.162,2.36-0.464,3.502-0.909l-0.009-5.583l-3.854,0.527l-0.004-1.884l5.862-0.804
		l0.013,8.824c-0.912,0.43-1.842,0.788-2.786,1.073c-0.941,0.284-2.035,0.511-3.277,0.679
		C915.25,256.471,913.221,255.93,911.772,254.495z M931.205,279.889l-10.523-14.377l-0.104,0.014
		c0.161,1.835,0.249,3.525,0.267,5.07l0.124,10.686l-2.038,0.277l-0.221-18.82l2.498-0.325l10.492,14.329l0.104-0.013
		c-0.021-0.229-0.067-0.964-0.142-2.208c-0.074-1.245-0.104-2.137-0.092-2.678l-0.12-10.764l2.053-0.267l0.204,18.737
		L931.205,279.889z M944.643,278.062l-2.177,0.296l-0.175-16.755l-5.948,0.778l-0.02-1.935l14.046-1.829l0.019,1.926l-5.919,0.774
		L944.643,278.062z M953.355,276.877l-0.181-18.625l10.347-1.347l0.019,1.919l-8.183,1.07l0.058,6l7.687-1.02l0.019,1.905
		l-7.687,1.024l0.066,6.847l8.176-1.106l0.019,1.928L953.355,276.877z M963.772,231.367l2.04-0.283l0.047,16.363l7.761-1.053
		l0.006,1.931l-9.803,1.326L963.772,231.367z M978.205,273.499l-4.509-7.09l-3.838,0.513l0.069,7.702l-2.144,0.292l-0.167-18.544
		l5.055-0.659c2.256-0.294,3.923-0.076,5.005,0.654c1.082,0.728,1.63,1.965,1.644,3.71c0.021,2.443-1.192,4.259-3.645,5.447
		l5.046,7.632L978.205,273.499z M985.066,237.024l7.345-1.008l0.007,1.899l-7.345,1.005l0.027,7.853l-2.057,0.278l-0.063-18.353
		l9.872-1.372l0.006,1.897l-7.815,1.083L985.066,237.024z M1007.47,242.192c-1.224,1.37-2.909,2.2-5.057,2.49
		c-2.144,0.29-3.805-0.091-4.981-1.142c-1.177-1.05-1.769-2.631-1.776-4.747l-0.047-11.851l2.065-0.288l0.049,12.008
		c0.006,1.537,0.416,2.661,1.231,3.373c0.815,0.713,2.011,0.963,3.586,0.749c1.504-0.204,2.662-0.775,3.473-1.714
		c0.809-0.939,1.211-2.183,1.204-3.73l-0.053-12.004l2.077-0.289l0.053,11.934C1009.303,239.085,1008.696,240.822,1007.47,242.192z
		 M1014.057,242.855l-0.083-18.464l2.082-0.29l0.076,16.524l7.918-1.074l0.009,1.95L1014.057,242.855z M1029.156,230.973
		l7.475-1.026l0.01,1.915l-7.475,1.023l0.04,7.92l-2.095,0.284l-0.093-18.511l10.047-1.396l0.01,1.915l-7.954,1.103
		L1029.156,230.973z M1040.158,239.323l-0.102-18.558l2.104-0.292l0.103,18.565L1040.158,239.323z M1047.234,238.366l-0.107-18.583
		l2.11-0.293l0.096,16.631l8.024-1.088l0.012,1.963L1047.234,238.366z M1060.461,236.577l-0.116-18.631l2.121-0.294l0.104,16.673
		l8.064-1.094l0.014,1.968L1060.461,236.577z M1089.834,232.602l-0.088-12.075c-0.01-1.384,0.038-2.896,0.144-4.534l-0.1,0.014
		l-6.182,17.438l-1.725,0.233l-6.346-15.722l-0.1,0.014c0.125,1.295,0.195,2.846,0.207,4.651l0.081,11.889l-1.971,0.267
		l-0.124-18.679l3.209-0.446l5.925,14.624l0.102-0.014l5.771-16.25l3.204-0.445l0.138,18.744L1089.834,232.602z M1097.05,231.626
		l-0.141-18.762l10.328-1.436l0.016,1.94l-8.179,1.133l0.047,6.045l7.684-1.056l0.016,1.929l-7.685,1.053l0.053,6.91l8.182-1.11
		l0.016,1.956L1097.05,231.626z M1123.602,228.034l-10.326-14.417l-0.102,0.014c0.15,1.834,0.232,3.523,0.244,5.068l0.088,10.7
		l-1.999,0.271l-0.151-18.813l2.442-0.339l10.301,14.348l0.103-0.014c-0.019-0.23-0.063-0.972-0.134-2.224
		c-0.071-1.251-0.1-2.15-0.087-2.694l-0.092-10.819l2.033-0.283l0.162,18.866L1123.602,228.034z M1137.013,226.219l-2.185,0.295
		l-0.15-16.947l-5.937,0.823l-0.017-1.948l14.073-1.956l0.018,1.953l-5.955,0.825L1137.013,226.219z"/>
	<path d="M897.87,249.449c-0.003-2.353-0.562-4.049-1.679-5.088c-1.116-1.037-2.777-1.403-4.974-1.099l-2.877,0.398l0.003,14.391
		l2.41-0.327c2.363-0.321,4.14-1.176,5.33-2.569C897.275,253.763,897.872,251.86,897.87,249.449z"/>
	<path d="M954.42,237.547c-0.264-0.679-0.538-1.519-0.818-2.521c-0.174,0.823-0.423,1.735-0.747,2.737l-2.039,5.934l5.651-0.773
		L954.42,237.547z"/>
</g>
</svg>
