<?xml version="1.0" encoding="utf-8"?>
<!-- Generator: Adobe Illustrator 15.0.0, SVG Export Plug-In . SVG Version: 6.00 Build 0)  -->
<!DOCTYPE svg PUBLIC "-//W3C//DTD SVG 1.1//EN" "http://www.w3.org/Graphics/SVG/1.1/DTD/svg11.dtd">
<svg version="1.1" id="Layer_1" xmlns="http://www.w3.org/2000/svg" xmlns:xlink="http://www.w3.org/1999/xlink" x="0px" y="0px"
	 width="843px" height="822px" viewBox="0 0 843 822" enable-background="new 0 0 843 822" xml:space="preserve">
<path fill="#D7F424" d="M24.428,783.133C38.955,717.73,60.893,664.789,67.162,647.66c6.27-17.133,17.242-35.824,25.074-49.836
	c7.836-14.013,39.176-48.273,78.352-49.828c39.18-1.56,26.645,4.672,39.18-1.56c12.535-6.23,17.238-4.668,28.207-10.897
	c10.969-6.23,28.207-21.805,50.145-23.359c14.105-26.477,43.879-76.309,47.012-80.977c1.566-20.246,7.836-24.91,0-38.926
	C325.73,378.257,321.03,351.785,321.03,344c-6.27-3.117-18.809-34.262-25.074-49.832c-4.703-23.359-17.238-59.172,3.133-57.617
	c3.137-18.684-1.566-87.203,4.703-96.547c0-10.902-3.133-14.016-6.27-18.688c-3.133-4.672,10.969-6.227,10.969-14.016
	c0-7.785,6.27-18.688,12.539-29.586c6.266-10.902,14.102-21.801,28.207-24.914c10.969-10.902,29.773-29.586,42.309-28.031
	c15.672-4.672,30.703-15.57,42.777-10.898c15.203-1.559,48.112-10.066,70.051-1.141c20.371,7.367,28.211,12.039,39.18,12.039
	c12.535,9.344,36.039,35.812,36.039,57.617c14.105,18.684,23.508,9.344,26.646,43.602c3.133,34.258,6.266,54.504,0,82.535
	c-6.271,28.027-10.969,20.238-9.402,35.812c1.567,15.574,1.566,15.574,1.566,15.574c10.469-3.406,6.27,20.242-6.271,48.272
	c0,14.017-7.832,15.57-10.969,23.359c-6.271,18.684-3.133,59.172-39.18,87.203c-0.621,3.266-4.699,7.793,3.137,14.016
	c12.535,9.344,28.207,45.16,37.609,68.517c15.672,18.688,2.543,15.569,27.129,21.801c24.586,6.23,135.844,38.93,146.815,52.944
	c14.771,22.091,10.853,26.763,20.371,49.832c9.844,23.853,42.312,152.509,42.312,189.152c-23.509,0-794.93,0-794.93,0
	L24.428,783.133L24.428,783.133z"/>
</svg>
