<?xml version="1.0" encoding="utf-8"?>
<!-- Generator: Adobe Illustrator 15.0.0, SVG Export Plug-In . SVG Version: 6.00 Build 0)  -->
<!DOCTYPE svg PUBLIC "-//W3C//DTD SVG 1.1//EN" "http://www.w3.org/Graphics/SVG/1.1/DTD/svg11.dtd">
<svg version="1.1" id="Layer_1" xmlns="http://www.w3.org/2000/svg" xmlns:xlink="http://www.w3.org/1999/xlink" x="0px" y="0px"
	 width="926.954px" height="600px" viewBox="0 0 926.954 600" enable-background="new 0 0 926.954 600" xml:space="preserve">
<line fill="none" stroke="#FFFFFF" stroke-miterlimit="10" x1="59.403" y1="229.087" x2="228.963" y2="382.817"/>
<line fill="none" stroke="#FFFFFF" stroke-miterlimit="10" x1="75.968" y1="244.105" x2="128.354" y2="195.551"/>
<line fill="none" stroke="#FFFFFF" stroke-miterlimit="10" x1="124.801" y1="288.379" x2="373.84" y2="203.062"/>
<line fill="none" stroke="#FFFFFF" stroke-miterlimit="10" x1="34.452" y1="214.868" x2="373.84" y2="203.062"/>
<line fill="none" stroke="#FFFFFF" stroke-miterlimit="10" x1="233.055" y1="380.334" x2="404.388" y2="167.333"/>
<line fill="none" stroke="#FFFFFF" stroke-miterlimit="10" x1="30.721" y1="212.667" x2="463.055" y2="143"/>
<line fill="none" stroke="#FFFFFF" stroke-miterlimit="10" x1="415.721" y1="132.333" x2="416.721" y2="167.333"/>
<line fill="none" stroke="#FFFFFF" stroke-miterlimit="10" x1="159.388" y1="177.5" x2="159.388" y2="177.5"/>
<line fill="none" stroke="#FFFFFF" stroke-miterlimit="10" x1="159.388" y1="177.5" x2="741.888" y2="256.5"/>
<line fill="none" stroke="#FFFFFF" stroke-miterlimit="10" x1="134.388" y1="193.5" x2="842.888" y2="451.5"/>
<line fill="none" stroke="#FFFFFF" stroke-miterlimit="10" x1="420.888" y1="172.5" x2="756.388" y2="236.5"/>
<line fill="none" stroke="#FFFFFF" stroke-miterlimit="10" x1="433.888" y1="167.333" x2="909.388" y2="488.5"/>
<line fill="none" stroke="#FFFFFF" stroke-miterlimit="10" x1="621.388" y1="265" x2="467.888" y2="143"/>
<line fill="none" stroke="#FFFFFF" stroke-miterlimit="10" x1="805.888" y1="212.667" x2="626.888" y2="265"/>
<line fill="none" stroke="#FFFFFF" stroke-miterlimit="10" x1="809.388" y1="220" x2="845.388" y2="454"/>
<line fill="none" stroke="#FFFFFF" stroke-miterlimit="10" x1="760.888" y1="238.833" x2="909.388" y2="488.5"/>
</svg>
