<?xml version="1.0" encoding="utf-8"?>
<!-- Generator: Adobe Illustrator 15.0.0, SVG Export Plug-In . SVG Version: 6.00 Build 0)  -->
<!DOCTYPE svg PUBLIC "-//W3C//DTD SVG 1.1//EN" "http://www.w3.org/Graphics/SVG/1.1/DTD/svg11.dtd">
<svg version="1.1" id="Layer_1" xmlns="http://www.w3.org/2000/svg" xmlns:xlink="http://www.w3.org/1999/xlink" x="0px" y="0px"
	 width="907px" height="600px" viewBox="0 0 907 600" enable-background="new 0 0 907 600" xml:space="preserve">
<circle fill="none" stroke="#31D6DF" stroke-miterlimit="10" cx="13.139" cy="214.65" r="2.817"/>
<circle fill="none" stroke="#31D6DF" stroke-miterlimit="10" cx="36.6" cy="227.65" r="2.817"/>
<circle fill="none" stroke="#31D6DF" stroke-miterlimit="10" cx="52.8" cy="248.65" r="2.817"/>
<circle fill="none" stroke="#31D6DF" stroke-miterlimit="10" cx="95.95" cy="292.65" r="2.817"/>
<circle fill="none" stroke="#31D6DF" stroke-miterlimit="10" cx="213.5" cy="383.65" r="2.817"/>
<circle fill="none" stroke="#31D6DF" stroke-miterlimit="10" cx="133.5" cy="218.5" r="2.817"/>
<circle fill="none" stroke="#31D6DF" stroke-miterlimit="10" cx="123.6" cy="201" r="2.817"/>
<circle fill="none" stroke="#31D6DF" stroke-miterlimit="10" cx="112.5" cy="191.5" r="2.817"/>
<circle fill="none" stroke="#31D6DF" stroke-miterlimit="10" cx="146.2" cy="192.8" r="2.817"/>
<circle fill="none" stroke="#31D6DF" stroke-miterlimit="10" cx="139.2" cy="176.5" r="2.817"/>
<circle fill="none" stroke="#31D6DF" stroke-miterlimit="10" cx="358.6" cy="202.101" r="2.817"/>
<circle fill="none" stroke="#31D6DF" stroke-miterlimit="10" cx="373.6" cy="177.5" r="2.817"/>
<circle fill="none" stroke="#31D6DF" stroke-miterlimit="10" cx="351.6" cy="157.5" r="2.817"/>
<circle fill="none" stroke="#31D6DF" stroke-miterlimit="10" cx="385.6" cy="166.5" r="2.817"/>
<circle fill="none" stroke="#31D6DF" stroke-miterlimit="10" cx="400.6" cy="129.5" r="2.817"/>
<circle fill="none" stroke="#31D6DF" stroke-miterlimit="10" cx="399.3" cy="171.5" r="2.817"/>
<circle fill="none" stroke="#31D6DF" stroke-miterlimit="10" cx="413.3" cy="164.5" r="2.817"/>
<circle fill="none" stroke="#31D6DF" stroke-miterlimit="10" cx="447" cy="141.5" r="2.817"/>
<circle fill="none" stroke="#31D6DF" stroke-miterlimit="10" cx="606" cy="268.5" r="2.817"/>
<circle fill="none" stroke="#31D6DF" stroke-miterlimit="10" cx="726" cy="258.5" r="2.817"/>
<circle fill="none" stroke="#31D6DF" stroke-miterlimit="10" cx="741" cy="236.5" r="2.817"/>
<circle fill="none" stroke="#31D6DF" stroke-miterlimit="10" cx="790.5" cy="212.5" r="2.817"/>
<circle fill="none" stroke="#31D6DF" stroke-miterlimit="10" cx="826.9" cy="455.5" r="2.817"/>
<circle fill="none" stroke="#31D6DF" stroke-miterlimit="10" cx="891.9" cy="489.2" r="2.817"/>
</svg>
