<?xml version="1.0" encoding="utf-8"?>
<!-- Generator: Adobe Illustrator 15.0.0, SVG Export Plug-In . SVG Version: 6.00 Build 0)  -->
<!DOCTYPE svg PUBLIC "-//W3C//DTD SVG 1.1//EN" "http://www.w3.org/Graphics/SVG/1.1/DTD/svg11.dtd">
<svg version="1.1" id="Layer_1" xmlns="http://www.w3.org/2000/svg" xmlns:xlink="http://www.w3.org/1999/xlink" x="0px" y="0px"
	 width="1145px" height="712px" viewBox="0 0 1145 712" enable-background="new 0 0 1145 712" xml:space="preserve">
<path fill="#35E6E6" d="M111.469,323.725c-48.172,6.771-87.278,42.582-87.348,79.985c-0.07,37.414,38.922,62.247,87.094,55.476
	c1.383-0.194,2.756-0.421,4.124-0.663l-0.562,24.97l6.838,3.721l0.68-30.139c0.671-0.161,1.345-0.317,2.011-0.489l-0.69,30.628
	l27.248-40.981c28.264-15.177,47.651-40.713,47.701-67.04C198.634,341.787,159.642,316.954,111.469,323.725z"/>
<path fill="#35E6E6" d="M22.209,398.848c0.034-0.619,0.078-1.237,0.133-1.856c0.012-0.136,0.021-0.272,0.033-0.408
	c0.07-0.729,0.158-1.456,0.256-2.183c0.028-0.201,0.059-0.402,0.089-0.604c0.085-0.578,0.179-1.156,0.282-1.732
	c0.033-0.188,0.064-0.375,0.1-0.562c0.137-0.719,0.285-1.438,0.448-2.152c0.038-0.17,0.081-0.338,0.122-0.507
	c0.137-0.579,0.283-1.157,0.438-1.735c0.057-0.209,0.112-0.418,0.171-0.627c0.199-0.711,0.408-1.422,0.634-2.129
	c0.034-0.105,0.071-0.211,0.105-0.315c0.201-0.618,0.413-1.234,0.634-1.851c0.081-0.225,0.163-0.449,0.246-0.674
	c0.193-0.52,0.395-1.037,0.602-1.555c0.065-0.162,0.127-0.326,0.194-0.489c0.271-0.663,0.556-1.321,0.851-1.979
	c0.082-0.186,0.17-0.368,0.254-0.555c0.229-0.498,0.463-0.994,0.704-1.49c0.104-0.211,0.207-0.424,0.312-0.635
	c0.282-0.565,0.573-1.131,0.872-1.69c0.053-0.099,0.102-0.197,0.154-0.296c0.328-0.607,0.666-1.213,1.014-1.815
	c0.1-0.176,0.205-0.349,0.308-0.522c0.253-0.434,0.51-0.863,0.772-1.293c0.135-0.22,0.271-0.437,0.406-0.653
	c0.246-0.392,0.495-0.782,0.748-1.171c0.143-0.219,0.285-0.438,0.43-0.655c0.273-0.411,0.553-0.819,0.834-1.228
	c0.127-0.183,0.251-0.366,0.379-0.549c0.41-0.582,0.828-1.16,1.256-1.736c0.119-0.16,0.243-0.318,0.363-0.479
	c0.322-0.428,0.648-0.854,0.98-1.275c0.167-0.213,0.336-0.426,0.506-0.637c0.303-0.379,0.609-0.756,0.92-1.131
	c0.172-0.209,0.345-0.418,0.52-0.626c0.357-0.425,0.722-0.847,1.09-1.267c0.123-0.143,0.244-0.285,0.369-0.426
	c0.523-0.592,1.058-1.176,1.6-1.757c0.158-0.169,0.318-0.337,0.479-0.505c0.418-0.442,0.842-0.881,1.271-1.318
	c0.168-0.171,0.336-0.343,0.506-0.513c0.568-0.57,1.145-1.136,1.73-1.694c0.082-0.078,0.166-0.154,0.248-0.231
	c0.517-0.489,1.04-0.973,1.57-1.452c0.176-0.16,0.354-0.319,0.532-0.479c0.72-0.644,1.448-1.281,2.192-1.908
	c0.071-0.06,0.144-0.119,0.215-0.178c0.713-0.598,1.439-1.188,2.174-1.772c0.142-0.112,0.283-0.227,0.426-0.339
	c0.764-0.601,1.539-1.191,2.325-1.775c0.169-0.125,0.34-0.25,0.51-0.375c0.807-0.592,1.621-1.178,2.449-1.751
	c0.035-0.024,0.071-0.048,0.106-0.072c1.195-0.826,2.415-1.63,3.654-2.416c0.117-0.074,0.236-0.147,0.355-0.222
	c1.171-0.736,2.361-1.454,3.57-2.153c0.146-0.085,0.295-0.17,0.443-0.254c1.205-0.69,2.428-1.36,3.666-2.011
	c0.138-0.072,0.275-0.145,0.412-0.217c1.294-0.672,2.605-1.325,3.934-1.953c0.077-0.037,0.154-0.075,0.231-0.111
	c1.229-0.579,2.476-1.138,3.733-1.677c0.085-0.037,0.168-0.074,0.253-0.11c1.267-0.54,2.547-1.058,3.839-1.557
	c0.079-0.03,0.157-0.062,0.236-0.092c1.305-0.5,2.624-0.978,3.955-1.435c0.068-0.023,0.135-0.048,0.203-0.071
	c1.344-0.458,2.699-0.893,4.066-1.306c0.059-0.018,0.117-0.037,0.178-0.055c1.381-0.414,2.773-0.804,4.177-1.171
	c0.047-0.012,0.093-0.024,0.14-0.037c1.418-0.369,2.85-0.712,4.289-1.029c0.033-0.008,0.065-0.016,0.098-0.022
	c1.457-0.32,2.924-0.614,4.4-0.88c0.018-0.003,0.034-0.007,0.052-0.01c1.494-0.269,2.998-0.51,4.511-0.723
	c1.229-0.173,2.45-0.317,3.667-0.449c0.287-0.031,0.573-0.062,0.859-0.091c1.202-0.121,2.399-0.228,3.589-0.31
	c0.106-0.007,0.213-0.012,0.32-0.019c1.108-0.073,2.21-0.126,3.307-0.166c0.267-0.009,0.534-0.02,0.801-0.028
	c1.166-0.033,2.325-0.051,3.476-0.047c0.171,0,0.341,0.005,0.512,0.007c1.03,0.009,2.054,0.033,3.07,0.072
	c0.241,0.009,0.485,0.017,0.726,0.027c1.127,0.05,2.246,0.118,3.355,0.205c0.207,0.017,0.412,0.036,0.619,0.054
	c0.981,0.083,1.955,0.18,2.922,0.29c0.207,0.024,0.414,0.045,0.619,0.07c1.088,0.131,2.165,0.281,3.232,0.447
	c0.224,0.035,0.445,0.074,0.668,0.109c0.953,0.156,1.897,0.324,2.834,0.506c0.162,0.032,0.325,0.061,0.486,0.093
	c1.043,0.21,2.074,0.439,3.096,0.682c0.229,0.055,0.458,0.112,0.687,0.168c0.624,0.154,1.238,0.322,1.854,0.488
	c0.776,0.21,1.546,0.429,2.308,0.658c0.477,0.144,0.954,0.289,1.426,0.44c0.781,0.25,1.553,0.516,2.318,0.787
	c0.423,0.15,0.85,0.295,1.268,0.451c0.899,0.336,1.782,0.69,2.657,1.055c0.265,0.11,0.537,0.211,0.8,0.324
	c1.131,0.485,2.24,0.994,3.328,1.525c0.945,0.462,1.877,0.938,2.788,1.434c-2.279-1.24-4.56-2.48-6.839-3.72
	c-0.873-0.475-1.762-0.935-2.666-1.378c-0.04-0.02-0.082-0.036-0.122-0.056c-1.087-0.531-2.196-1.04-3.326-1.524
	c-0.267-0.114-0.543-0.217-0.812-0.329c-0.872-0.362-1.751-0.716-2.646-1.05c-0.418-0.156-0.844-0.3-1.267-0.45
	c-0.77-0.272-1.543-0.538-2.328-0.79c-0.465-0.149-0.935-0.292-1.405-0.434c-0.773-0.232-1.554-0.455-2.341-0.668
	c-0.277-0.074-0.544-0.162-0.822-0.234c-0.326-0.084-0.658-0.161-0.986-0.242c-0.243-0.06-0.485-0.121-0.73-0.179
	c-1.011-0.241-2.031-0.468-3.064-0.675c-0.176-0.036-0.354-0.066-0.529-0.101c-0.92-0.179-1.848-0.344-2.783-0.497
	c-0.234-0.038-0.466-0.078-0.701-0.115c-1.06-0.165-2.129-0.314-3.208-0.444c-0.217-0.026-0.435-0.048-0.652-0.073
	c-0.953-0.109-1.913-0.204-2.881-0.286c-0.216-0.019-0.431-0.04-0.648-0.057c-1.103-0.086-2.215-0.153-3.335-0.203
	c-0.25-0.012-0.502-0.02-0.754-0.029c-1.003-0.038-2.013-0.062-3.028-0.071c-0.183-0.002-0.362-0.007-0.545-0.007
	c-1.144-0.003-2.297,0.014-3.456,0.047c-0.275,0.007-0.551,0.018-0.828,0.028c-1.083,0.039-2.171,0.092-3.267,0.164
	c-0.117,0.007-0.233,0.012-0.351,0.02c-1.185,0.082-2.378,0.188-3.576,0.309c-0.29,0.029-0.58,0.061-0.87,0.092
	c-1.216,0.132-2.435,0.276-3.662,0.449c-1.515,0.213-3.021,0.455-4.518,0.724c-0.009,0.002-0.017,0.004-0.026,0.006
	c-1.484,0.268-2.961,0.562-4.426,0.885c-0.023,0.005-0.047,0.011-0.07,0.016c-1.45,0.32-2.891,0.666-4.318,1.037
	c-0.035,0.009-0.07,0.019-0.105,0.028c-1.416,0.369-2.821,0.763-4.214,1.181c-0.046,0.014-0.091,0.029-0.137,0.042
	c-1.38,0.417-2.749,0.855-4.104,1.318c-0.057,0.02-0.112,0.04-0.169,0.06c-1.343,0.461-2.675,0.943-3.992,1.448
	c-0.065,0.025-0.13,0.052-0.195,0.077c-1.307,0.504-2.601,1.027-3.88,1.573c-0.07,0.03-0.141,0.062-0.211,0.091
	c-1.272,0.545-2.532,1.11-3.776,1.696c-0.022,0.011-0.045,0.021-0.067,0.031c-0.043,0.02-0.083,0.042-0.126,0.062
	c-1.341,0.634-2.664,1.292-3.97,1.971c-0.129,0.067-0.257,0.135-0.386,0.203c-1.25,0.656-2.483,1.333-3.699,2.029
	c-0.137,0.078-0.272,0.156-0.409,0.235c-1.227,0.709-2.436,1.438-3.625,2.186c-0.098,0.061-0.195,0.122-0.293,0.183
	c-1.268,0.803-2.516,1.625-3.738,2.471c-0.004,0.003-0.008,0.005-0.012,0.008c-0.002,0.002-0.004,0.003-0.006,0.004
	c-0.845,0.584-1.675,1.181-2.496,1.784c-0.161,0.118-0.322,0.235-0.481,0.354c-0.79,0.586-1.569,1.18-2.337,1.784
	c-0.142,0.112-0.281,0.224-0.422,0.336c-0.738,0.586-1.468,1.179-2.186,1.78c-0.066,0.057-0.136,0.112-0.203,0.168
	c-0.752,0.634-1.488,1.279-2.217,1.93c-0.081,0.073-0.167,0.143-0.248,0.216c-0.082,0.073-0.159,0.149-0.24,0.222
	c-0.556,0.503-1.104,1.01-1.645,1.522c-0.062,0.058-0.124,0.114-0.186,0.172c-0.594,0.566-1.177,1.14-1.753,1.717
	c-0.159,0.159-0.316,0.32-0.475,0.481c-0.445,0.453-0.886,0.909-1.319,1.368c-0.145,0.152-0.29,0.305-0.433,0.457
	c-0.557,0.597-1.104,1.197-1.642,1.804c-0.014,0.015-0.027,0.03-0.041,0.045c-0.065,0.074-0.127,0.149-0.191,0.223
	c-0.414,0.472-0.822,0.945-1.224,1.423c-0.157,0.187-0.312,0.375-0.468,0.562c-0.33,0.398-0.655,0.798-0.977,1.2
	c-0.154,0.192-0.31,0.387-0.463,0.582c-0.354,0.45-0.7,0.903-1.043,1.358c-0.102,0.135-0.206,0.27-0.307,0.404
	c-0.433,0.581-0.855,1.165-1.27,1.753c-0.026,0.038-0.055,0.076-0.082,0.114c-0.1,0.141-0.191,0.285-0.29,0.426
	c-0.282,0.408-0.562,0.818-0.836,1.229c-0.147,0.222-0.291,0.442-0.436,0.666c-0.25,0.383-0.495,0.768-0.737,1.152
	c-0.141,0.225-0.28,0.447-0.418,0.672c-0.256,0.42-0.506,0.84-0.754,1.262c-0.108,0.186-0.219,0.369-0.326,0.554
	c-0.344,0.599-0.68,1.199-1.005,1.804c-0.011,0.021-0.024,0.043-0.035,0.062c-0.046,0.086-0.087,0.172-0.132,0.258
	c-0.299,0.559-0.588,1.121-0.869,1.686c-0.101,0.199-0.199,0.401-0.297,0.604c-0.251,0.516-0.494,1.029-0.73,1.548
	c-0.076,0.166-0.155,0.332-0.23,0.5c-0.299,0.668-0.588,1.34-0.864,2.015c-0.056,0.135-0.107,0.271-0.162,0.407
	c-0.222,0.554-0.437,1.106-0.643,1.662c-0.037,0.101-0.079,0.2-0.116,0.302c-0.035,0.096-0.064,0.19-0.099,0.286
	c-0.235,0.655-0.462,1.312-0.676,1.972c-0.023,0.071-0.05,0.145-0.073,0.217c-0.23,0.722-0.443,1.445-0.646,2.17
	c-0.053,0.193-0.104,0.386-0.156,0.578c-0.161,0.599-0.313,1.199-0.455,1.801c-0.036,0.15-0.075,0.303-0.109,0.455
	c-0.166,0.725-0.316,1.453-0.455,2.182c-0.031,0.174-0.061,0.346-0.092,0.518c-0.106,0.597-0.203,1.193-0.291,1.791
	c-0.027,0.188-0.057,0.375-0.082,0.562c-0.1,0.735-0.188,1.472-0.26,2.209c-0.012,0.121-0.019,0.241-0.029,0.36
	c-0.057,0.637-0.102,1.271-0.137,1.908c-0.011,0.201-0.021,0.402-0.03,0.604c-0.032,0.748-0.056,1.496-0.057,2.244
	c-0.038,20.26,11.38,36.832,29.507,46.692c2.28,1.239,4.56,2.479,6.839,3.721c-18.128-9.861-29.545-26.434-29.507-46.693
	c0.001-0.745,0.023-1.489,0.057-2.231C22.187,399.268,22.197,399.058,22.209,398.848z"/>
<g>
	<path fill="#35E6E6" d="M1045.271,532.746c-48.756,6.852-88.334,43.097-88.404,80.955c-0.072,37.864,39.394,63,88.146,56.146
		c1.399-0.197,2.79-0.427,4.175-0.672l-0.571,25.271l6.922,3.765l0.688-30.502c0.679-0.163,1.36-0.321,2.034-0.495l-0.696,30.998
		l27.577-41.477c28.605-15.36,48.228-41.206,48.277-67.853C1133.492,551.025,1094.027,525.892,1045.271,532.746z"/>
	<path fill="#35E6E6" d="M954.932,608.777c0.035-0.627,0.079-1.254,0.135-1.879c0.013-0.14,0.021-0.276,0.034-0.414
		c0.07-0.738,0.158-1.475,0.259-2.208c0.027-0.204,0.06-0.407,0.089-0.612c0.088-0.584,0.182-1.17,0.287-1.753
		c0.032-0.19,0.063-0.38,0.102-0.571c0.137-0.727,0.288-1.453,0.453-2.178c0.038-0.172,0.082-0.342,0.123-0.513
		c0.139-0.587,0.287-1.173,0.443-1.758c0.059-0.211,0.113-0.422,0.173-0.633c0.2-0.721,0.412-1.438,0.642-2.156
		c0.035-0.106,0.072-0.213,0.107-0.318c0.202-0.626,0.417-1.249,0.641-1.872c0.083-0.229,0.165-0.455,0.25-0.684
		c0.196-0.525,0.397-1.05,0.608-1.572c0.065-0.164,0.129-0.33,0.194-0.495c0.276-0.671,0.563-1.339,0.862-2.005
		c0.082-0.188,0.172-0.373,0.257-0.561c0.231-0.505,0.468-1.008,0.712-1.509c0.105-0.215,0.211-0.429,0.317-0.643
		c0.286-0.573,0.579-1.145,0.883-1.712c0.052-0.101,0.102-0.199,0.156-0.299c0.33-0.615,0.674-1.229,1.025-1.839
		c0.101-0.177,0.206-0.353,0.312-0.529c0.256-0.438,0.516-0.873,0.781-1.309c0.137-0.222,0.273-0.44,0.41-0.661
		c0.249-0.396,0.501-0.792,0.758-1.186c0.146-0.222,0.288-0.442,0.436-0.663c0.276-0.416,0.559-0.829,0.844-1.242
		c0.129-0.185,0.255-0.37,0.383-0.555c0.416-0.589,0.841-1.175,1.271-1.757c0.121-0.163,0.247-0.324,0.368-0.486
		c0.325-0.433,0.656-0.863,0.993-1.291c0.168-0.215,0.339-0.431,0.51-0.645c0.309-0.384,0.619-0.765,0.932-1.146
		c0.174-0.211,0.35-0.422,0.526-0.633c0.36-0.431,0.729-0.856,1.104-1.281c0.125-0.145,0.247-0.289,0.373-0.432
		c0.53-0.599,1.071-1.189,1.619-1.777c0.16-0.172,0.322-0.342,0.484-0.513c0.423-0.447,0.853-0.893,1.287-1.333
		c0.17-0.174,0.34-0.348,0.511-0.521c0.577-0.576,1.159-1.148,1.752-1.715c0.084-0.079,0.17-0.156,0.251-0.234
		c0.522-0.493,1.054-0.982,1.591-1.469c0.178-0.162,0.357-0.324,0.537-0.484c0.729-0.65,1.467-1.297,2.219-1.932
		c0.072-0.061,0.146-0.12,0.217-0.18c0.724-0.605,1.459-1.203,2.201-1.794c0.145-0.114,0.288-0.229,0.433-0.343
		c0.772-0.608,1.559-1.207,2.353-1.798c0.171-0.127,0.345-0.254,0.518-0.379c0.815-0.6,1.641-1.19,2.479-1.771
		c0.035-0.025,0.073-0.049,0.107-0.073c1.211-0.836,2.444-1.65,3.697-2.445c0.12-0.074,0.239-0.148,0.36-0.224
		c1.186-0.746,2.391-1.472,3.613-2.18c0.147-0.086,0.299-0.172,0.448-0.258c1.221-0.697,2.457-1.377,3.71-2.035
		c0.142-0.073,0.278-0.146,0.419-0.22c1.31-0.681,2.637-1.341,3.979-1.977c0.079-0.037,0.156-0.076,0.233-0.112
		c1.243-0.587,2.507-1.15,3.778-1.697c0.086-0.037,0.17-0.074,0.256-0.111c1.281-0.546,2.578-1.07,3.888-1.575
		c0.08-0.03,0.158-0.062,0.237-0.093c1.32-0.507,2.656-0.99,4.003-1.452c0.067-0.024,0.137-0.049,0.206-0.072
		c1.359-0.464,2.732-0.903,4.115-1.321c0.061-0.019,0.118-0.037,0.179-0.056c1.399-0.42,2.809-0.812,4.229-1.186
		c0.048-0.014,0.094-0.024,0.142-0.038c1.436-0.373,2.885-0.722,4.34-1.041c0.035-0.008,0.067-0.017,0.101-0.023
		c1.475-0.324,2.959-0.621,4.454-0.89c0.018-0.004,0.033-0.007,0.052-0.011c1.513-0.272,3.034-0.518,4.565-0.732
		c1.244-0.174,2.479-0.32,3.712-0.454c0.29-0.031,0.579-0.062,0.868-0.091c1.218-0.124,2.429-0.231,3.634-0.315
		c0.106-0.007,0.215-0.012,0.323-0.019c1.121-0.073,2.236-0.128,3.348-0.168c0.269-0.01,0.54-0.021,0.81-0.027
		c1.181-0.034,2.354-0.053,3.52-0.049c0.173,0.001,0.345,0.006,0.519,0.008c1.041,0.009,2.077,0.033,3.105,0.072
		c0.246,0.01,0.49,0.018,0.734,0.027c1.141,0.051,2.272,0.119,3.396,0.208c0.211,0.017,0.417,0.036,0.627,0.054
		c0.994,0.084,1.979,0.182,2.957,0.294c0.209,0.024,0.418,0.046,0.626,0.07c1.102,0.134,2.192,0.284,3.271,0.453
		c0.228,0.034,0.451,0.074,0.676,0.109c0.966,0.158,1.922,0.328,2.869,0.513c0.162,0.032,0.328,0.062,0.492,0.095
		c1.056,0.213,2.099,0.443,3.134,0.689c0.231,0.056,0.463,0.113,0.694,0.171c0.631,0.155,1.252,0.325,1.874,0.494
		c0.787,0.212,1.566,0.435,2.337,0.666c0.482,0.146,0.967,0.292,1.441,0.445c0.792,0.254,1.572,0.521,2.348,0.796
		c0.43,0.152,0.86,0.299,1.282,0.457c0.911,0.34,1.804,0.699,2.691,1.067c0.267,0.109,0.543,0.213,0.808,0.327
		c1.146,0.489,2.269,1.006,3.37,1.543c0.956,0.468,1.898,0.949,2.821,1.452c-2.307-1.256-4.615-2.511-6.922-3.766
		c-0.883-0.48-1.783-0.947-2.698-1.396c-0.04-0.021-0.083-0.036-0.124-0.057c-1.1-0.538-2.223-1.053-3.367-1.543
		c-0.269-0.115-0.549-0.22-0.819-0.334c-0.884-0.366-1.772-0.724-2.679-1.062c-0.423-0.157-0.854-0.304-1.28-0.455
		c-0.781-0.276-1.562-0.545-2.357-0.8c-0.47-0.151-0.945-0.297-1.422-0.438c-0.783-0.235-1.572-0.461-2.37-0.676
		c-0.279-0.075-0.55-0.164-0.831-0.238c-0.33-0.085-0.665-0.162-0.998-0.244c-0.246-0.061-0.492-0.123-0.74-0.182
		c-1.021-0.243-2.055-0.473-3.102-0.684c-0.181-0.035-0.357-0.066-0.535-0.103c-0.933-0.181-1.869-0.349-2.816-0.504
		c-0.237-0.038-0.472-0.078-0.709-0.115c-1.073-0.167-2.155-0.317-3.248-0.45c-0.219-0.025-0.438-0.049-0.659-0.072
		c-0.966-0.111-1.937-0.207-2.916-0.289c-0.22-0.021-0.437-0.041-0.656-0.06c-1.115-0.087-2.242-0.153-3.376-0.205
		c-0.252-0.012-0.507-0.02-0.763-0.028c-1.017-0.038-2.037-0.062-3.065-0.072c-0.185-0.001-0.365-0.006-0.55-0.007
		c-1.157-0.003-2.325,0.015-3.5,0.048c-0.277,0.008-0.557,0.019-0.837,0.028c-1.096,0.039-2.197,0.094-3.306,0.166
		c-0.119,0.009-0.237,0.013-0.355,0.021c-1.197,0.083-2.406,0.191-3.619,0.312c-0.293,0.03-0.588,0.062-0.881,0.094
		c-1.23,0.133-2.466,0.278-3.705,0.454c-1.535,0.215-3.06,0.46-4.573,0.732c-0.009,0.002-0.017,0.004-0.027,0.005
		c-1.501,0.271-2.995,0.57-4.479,0.896c-0.024,0.006-0.048,0.012-0.071,0.017c-1.468,0.323-2.926,0.674-4.37,1.05
		c-0.035,0.011-0.072,0.021-0.105,0.027c-1.435,0.375-2.855,0.773-4.268,1.195c-0.046,0.014-0.091,0.028-0.138,0.043
		c-1.396,0.422-2.781,0.866-4.154,1.334c-0.057,0.02-0.113,0.041-0.171,0.061c-1.358,0.467-2.706,0.954-4.04,1.465
		c-0.067,0.025-0.131,0.055-0.199,0.078c-1.319,0.51-2.63,1.039-3.926,1.592c-0.07,0.031-0.143,0.062-0.213,0.095
		c-1.287,0.551-2.562,1.123-3.822,1.716c-0.021,0.011-0.045,0.021-0.067,0.031c-0.044,0.02-0.084,0.042-0.128,0.062
		c-1.356,0.641-2.694,1.307-4.018,1.994c-0.131,0.068-0.262,0.137-0.39,0.206c-1.268,0.664-2.516,1.349-3.745,2.053
		c-0.139,0.079-0.277,0.157-0.414,0.238c-1.242,0.718-2.465,1.455-3.669,2.212c-0.1,0.062-0.198,0.123-0.296,0.186
		c-1.283,0.812-2.548,1.646-3.785,2.501c-0.004,0.003-0.007,0.005-0.013,0.008c0,0.003-0.001,0.004-0.005,0.005
		c-0.855,0.591-1.694,1.193-2.526,1.806c-0.162,0.119-0.325,0.237-0.487,0.358c-0.799,0.593-1.588,1.193-2.364,1.805
		c-0.144,0.112-0.283,0.227-0.429,0.341c-0.745,0.593-1.484,1.193-2.211,1.801c-0.066,0.059-0.137,0.114-0.205,0.171
		c-0.762,0.643-1.506,1.296-2.242,1.954c-0.082,0.073-0.17,0.146-0.251,0.22c-0.084,0.073-0.162,0.149-0.244,0.225
		c-0.562,0.509-1.117,1.021-1.665,1.541c-0.061,0.059-0.125,0.115-0.188,0.174c-0.602,0.574-1.19,1.154-1.774,1.737
		c-0.161,0.162-0.319,0.324-0.479,0.487c-0.451,0.459-0.896,0.92-1.336,1.385c-0.146,0.154-0.293,0.308-0.439,0.462
		c-0.562,0.604-1.116,1.212-1.66,1.825c-0.014,0.016-0.026,0.029-0.041,0.045c-0.065,0.076-0.128,0.151-0.192,0.227
		c-0.42,0.478-0.833,0.957-1.239,1.439c-0.159,0.188-0.315,0.38-0.474,0.568c-0.333,0.403-0.662,0.809-0.988,1.216
		c-0.156,0.195-0.312,0.393-0.467,0.589c-0.358,0.456-0.71,0.915-1.058,1.375c-0.104,0.137-0.209,0.271-0.311,0.41
		c-0.438,0.588-0.867,1.179-1.284,1.772c-0.027,0.039-0.056,0.078-0.084,0.116c-0.101,0.144-0.193,0.288-0.294,0.431
		c-0.285,0.414-0.567,0.828-0.846,1.245c-0.149,0.225-0.294,0.448-0.44,0.673c-0.255,0.389-0.501,0.777-0.746,1.168
		c-0.142,0.227-0.283,0.452-0.425,0.681c-0.258,0.424-0.511,0.85-0.762,1.275c-0.109,0.188-0.222,0.372-0.331,0.561
		c-0.347,0.604-0.688,1.213-1.016,1.826c-0.012,0.021-0.024,0.043-0.036,0.062c-0.046,0.087-0.088,0.173-0.134,0.26
		c-0.303,0.565-0.597,1.137-0.88,1.705c-0.102,0.204-0.2,0.407-0.3,0.61c-0.255,0.521-0.501,1.043-0.74,1.566
		c-0.077,0.169-0.156,0.337-0.231,0.506c-0.305,0.678-0.595,1.356-0.876,2.038c-0.057,0.139-0.108,0.275-0.164,0.413
		c-0.223,0.561-0.442,1.12-0.651,1.684c-0.036,0.102-0.078,0.202-0.116,0.305c-0.034,0.096-0.064,0.193-0.1,0.29
		c-0.238,0.663-0.468,1.327-0.684,1.995c-0.024,0.073-0.053,0.146-0.073,0.221c-0.234,0.729-0.45,1.461-0.656,2.195
		c-0.052,0.193-0.104,0.39-0.157,0.584c-0.162,0.604-0.316,1.214-0.461,1.822c-0.035,0.152-0.076,0.307-0.109,0.461
		c-0.168,0.733-0.32,1.471-0.461,2.209c-0.031,0.174-0.062,0.349-0.092,0.522c-0.108,0.603-0.207,1.207-0.298,1.812
		c-0.027,0.188-0.058,0.379-0.08,0.565c-0.104,0.744-0.19,1.49-0.265,2.236c-0.012,0.123-0.019,0.244-0.028,0.365
		c-0.059,0.644-0.104,1.287-0.14,1.932c-0.011,0.205-0.021,0.408-0.03,0.611c-0.033,0.757-0.057,1.514-0.058,2.271
		c-0.038,20.506,11.518,37.277,29.864,47.259c2.307,1.254,4.612,2.51,6.922,3.766c-18.349-9.982-29.902-26.754-29.865-47.259
		c0.002-0.755,0.025-1.508,0.059-2.26C954.909,609.201,954.918,608.99,954.932,608.777z"/>
</g>
<g>
	<path fill="#35E6E6" d="M754.167,22.593c-37.186,5.226-67.372,32.869-67.425,61.742c-0.055,28.88,30.043,48.05,67.229,42.823
		c1.067-0.15,2.127-0.325,3.183-0.512l-0.434,19.274l5.278,2.871l0.524-23.264c0.519-0.124,1.038-0.245,1.553-0.377l-0.533,23.642
		l21.034-31.635c21.816-11.714,36.783-31.427,36.82-51.75C821.451,36.534,791.353,17.365,754.167,22.593z"/>
	<path fill="#35E6E6" d="M685.265,80.582c0.026-0.478,0.062-0.956,0.104-1.434c0.01-0.105,0.016-0.21,0.024-0.316
		c0.056-0.562,0.123-1.123,0.198-1.684c0.021-0.155,0.045-0.311,0.068-0.466c0.064-0.446,0.138-0.893,0.218-1.337
		c0.025-0.145,0.05-0.29,0.077-0.435c0.104-0.555,0.22-1.109,0.346-1.662c0.029-0.13,0.062-0.26,0.096-0.391
		c0.104-0.448,0.219-0.894,0.338-1.339c0.044-0.161,0.087-0.323,0.132-0.483c0.154-0.55,0.314-1.099,0.489-1.645
		c0.025-0.082,0.056-0.162,0.082-0.244c0.154-0.477,0.317-0.953,0.488-1.427c0.062-0.174,0.126-0.347,0.189-0.521
		c0.148-0.401,0.305-0.801,0.465-1.2c0.05-0.125,0.098-0.252,0.149-0.378c0.21-0.511,0.43-1.021,0.656-1.529
		c0.063-0.142,0.131-0.285,0.196-0.427c0.176-0.385,0.356-0.769,0.543-1.151c0.08-0.164,0.16-0.327,0.241-0.49
		c0.218-0.437,0.442-0.872,0.673-1.306c0.041-0.076,0.078-0.151,0.119-0.228c0.254-0.47,0.515-0.938,0.783-1.402
		c0.076-0.135,0.158-0.269,0.236-0.404c0.194-0.333,0.395-0.667,0.597-0.999c0.104-0.168,0.209-0.335,0.312-0.504
		c0.19-0.302,0.383-0.604,0.578-0.904c0.109-0.168,0.22-0.337,0.331-0.505c0.212-0.317,0.427-0.633,0.644-0.947
		c0.1-0.141,0.194-0.283,0.294-0.423c0.315-0.45,0.64-0.897,0.97-1.341c0.092-0.124,0.188-0.247,0.28-0.37
		c0.249-0.33,0.5-0.659,0.757-0.985c0.129-0.164,0.259-0.328,0.391-0.491c0.233-0.292,0.47-0.583,0.71-0.873
		c0.133-0.161,0.267-0.322,0.4-0.482c0.275-0.328,0.558-0.654,0.842-0.978c0.095-0.109,0.188-0.22,0.285-0.329
		c0.403-0.456,0.815-0.908,1.233-1.356c0.122-0.13,0.246-0.26,0.369-0.39c0.323-0.341,0.65-0.681,0.982-1.018
		c0.129-0.132,0.259-0.265,0.391-0.396c0.438-0.44,0.883-0.877,1.335-1.308c0.063-0.06,0.128-0.119,0.191-0.179
		c0.398-0.377,0.804-0.75,1.212-1.121c0.137-0.124,0.273-0.247,0.411-0.37c0.556-0.497,1.118-0.989,1.691-1.473
		c0.056-0.046,0.111-0.091,0.166-0.138c0.552-0.461,1.111-0.917,1.679-1.368c0.108-0.086,0.219-0.175,0.329-0.261
		c0.589-0.464,1.188-0.92,1.795-1.37c0.13-0.097,0.263-0.193,0.394-0.289c0.623-0.458,1.251-0.909,1.891-1.352
		c0.027-0.019,0.056-0.037,0.082-0.056c0.924-0.637,1.864-1.259,2.82-1.865c0.091-0.057,0.183-0.114,0.275-0.17
		c0.902-0.569,1.821-1.123,2.756-1.662c0.113-0.066,0.228-0.131,0.342-0.196c0.931-0.533,1.874-1.05,2.83-1.553
		c0.105-0.056,0.213-0.112,0.318-0.167c0.998-0.519,2.011-1.022,3.035-1.508c0.061-0.028,0.119-0.058,0.18-0.085
		c0.949-0.447,1.911-0.878,2.882-1.295c0.065-0.028,0.13-0.057,0.195-0.084c0.978-0.417,1.966-0.816,2.963-1.202
		c0.062-0.023,0.122-0.048,0.183-0.071c1.008-0.386,2.025-0.755,3.053-1.107c0.054-0.018,0.104-0.037,0.157-0.055
		c1.037-0.354,2.083-0.689,3.139-1.008c0.047-0.014,0.092-0.029,0.139-0.042c1.064-0.319,2.141-0.62,3.224-0.903
		c0.036-0.01,0.072-0.02,0.108-0.029c1.094-0.284,2.198-0.549,3.311-0.795c0.025-0.005,0.051-0.012,0.075-0.017
		c1.125-0.248,2.257-0.474,3.396-0.68c0.014-0.002,0.025-0.005,0.039-0.008c1.154-0.208,2.314-0.394,3.482-0.558
		c0.949-0.133,1.892-0.245,2.83-0.347c0.223-0.024,0.443-0.048,0.664-0.07c0.928-0.093,1.852-0.176,2.77-0.239
		c0.083-0.005,0.165-0.009,0.248-0.014c0.855-0.056,1.706-0.098,2.553-0.128c0.205-0.007,0.412-0.016,0.617-0.022
		c0.9-0.025,1.795-0.039,2.685-0.035c0.132,0,0.263,0.004,0.395,0.005c0.796,0.007,1.586,0.025,2.37,0.056
		c0.188,0.007,0.375,0.013,0.562,0.021c0.869,0.038,1.732,0.091,2.59,0.157c0.16,0.013,0.317,0.028,0.478,0.042
		c0.758,0.064,1.51,0.139,2.256,0.224c0.16,0.019,0.32,0.035,0.479,0.054c0.84,0.102,1.671,0.217,2.494,0.345
		c0.173,0.027,0.344,0.057,0.516,0.084c0.736,0.12,1.465,0.25,2.188,0.391c0.125,0.025,0.251,0.047,0.375,0.072
		c0.806,0.162,1.602,0.339,2.39,0.526c0.178,0.042,0.354,0.086,0.53,0.13c0.48,0.119,0.956,0.249,1.431,0.377
		c0.601,0.162,1.193,0.331,1.781,0.508c0.368,0.111,0.736,0.223,1.101,0.34c0.604,0.193,1.198,0.398,1.79,0.607
		c0.326,0.116,0.655,0.228,0.979,0.348c0.692,0.259,1.375,0.533,2.051,0.814c0.204,0.085,0.414,0.163,0.617,0.25
		c0.873,0.374,1.729,0.767,2.568,1.177c0.729,0.357,1.448,0.725,2.152,1.107c-1.76-0.957-3.521-1.915-5.279-2.872
		c-0.674-0.366-1.359-0.721-2.058-1.063c-0.031-0.015-0.063-0.028-0.095-0.043c-0.839-0.41-1.695-0.803-2.567-1.177
		c-0.206-0.088-0.419-0.168-0.627-0.254c-0.673-0.28-1.352-0.553-2.042-0.811c-0.322-0.12-0.651-0.231-0.978-0.348
		c-0.595-0.21-1.191-0.415-1.798-0.609c-0.358-0.116-0.722-0.226-1.085-0.335c-0.597-0.18-1.198-0.352-1.807-0.516
		c-0.214-0.057-0.42-0.125-0.635-0.181c-0.252-0.065-0.509-0.124-0.763-0.188c-0.188-0.046-0.374-0.093-0.562-0.138
		c-0.78-0.186-1.568-0.361-2.366-0.521c-0.136-0.027-0.271-0.051-0.408-0.078c-0.71-0.138-1.427-0.266-2.147-0.384
		c-0.182-0.028-0.359-0.06-0.541-0.088c-0.818-0.127-1.645-0.243-2.478-0.343c-0.167-0.02-0.335-0.037-0.504-0.057
		c-0.734-0.084-1.477-0.158-2.224-0.22c-0.166-0.015-0.332-0.031-0.5-0.044c-0.853-0.066-1.71-0.118-2.574-0.157
		c-0.193-0.009-0.388-0.015-0.582-0.022c-0.773-0.029-1.555-0.048-2.338-0.055c-0.141-0.002-0.279-0.005-0.421-0.006
		c-0.883-0.003-1.772,0.011-2.668,0.037c-0.212,0.005-0.425,0.014-0.641,0.022c-0.836,0.03-1.675,0.071-2.521,0.126
		c-0.09,0.005-0.18,0.009-0.271,0.016c-0.915,0.063-1.836,0.145-2.762,0.238c-0.224,0.023-0.447,0.047-0.671,0.071
		c-0.938,0.102-1.88,0.214-2.827,0.347c-1.169,0.164-2.332,0.351-3.487,0.559c-0.007,0.002-0.013,0.003-0.021,0.005
		c-1.146,0.207-2.285,0.435-3.416,0.683c-0.019,0.004-0.036,0.009-0.055,0.013c-1.119,0.247-2.23,0.514-3.333,0.8
		c-0.027,0.007-0.055,0.015-0.081,0.022c-1.095,0.285-2.179,0.588-3.253,0.911c-0.036,0.011-0.07,0.022-0.105,0.033
		c-1.064,0.322-2.122,0.661-3.169,1.018c-0.043,0.015-0.086,0.031-0.13,0.046c-1.037,0.355-2.065,0.728-3.082,1.117
		c-0.051,0.02-0.101,0.04-0.15,0.06c-1.009,0.389-2.008,0.792-2.994,1.214c-0.056,0.023-0.108,0.047-0.163,0.07
		c-0.982,0.421-1.954,0.857-2.915,1.309c-0.019,0.008-0.035,0.016-0.053,0.024c-0.032,0.016-0.063,0.033-0.098,0.049
		c-1.034,0.489-2.056,0.996-3.064,1.521c-0.099,0.052-0.197,0.105-0.298,0.157c-0.965,0.507-1.916,1.029-2.854,1.566
		c-0.105,0.061-0.21,0.121-0.315,0.182c-0.945,0.547-1.88,1.11-2.798,1.687c-0.076,0.047-0.15,0.094-0.227,0.142
		c-0.979,0.62-1.941,1.255-2.887,1.907c-0.003,0.002-0.006,0.004-0.009,0.006c-0.002,0.002-0.003,0.002-0.005,0.003
		c-0.65,0.451-1.293,0.912-1.927,1.377c-0.124,0.091-0.248,0.181-0.371,0.272c-0.61,0.452-1.212,0.911-1.805,1.377
		c-0.109,0.086-0.218,0.173-0.325,0.26c-0.57,0.452-1.133,0.91-1.688,1.374c-0.051,0.044-0.104,0.087-0.155,0.13
		c-0.581,0.49-1.149,0.988-1.712,1.49c-0.062,0.056-0.13,0.11-0.191,0.167s-0.123,0.115-0.186,0.171
		c-0.43,0.388-0.853,0.78-1.271,1.175c-0.047,0.044-0.096,0.088-0.143,0.133c-0.459,0.438-0.908,0.879-1.354,1.325
		c-0.123,0.123-0.244,0.247-0.366,0.371c-0.344,0.35-0.684,0.701-1.019,1.056c-0.111,0.118-0.224,0.235-0.334,0.353
		c-0.43,0.461-0.854,0.925-1.268,1.393c-0.011,0.012-0.021,0.023-0.031,0.035c-0.052,0.057-0.099,0.116-0.147,0.172
		c-0.318,0.365-0.635,0.73-0.943,1.099c-0.121,0.144-0.241,0.289-0.361,0.434c-0.255,0.308-0.506,0.616-0.754,0.927
		c-0.119,0.149-0.238,0.299-0.357,0.449c-0.271,0.348-0.54,0.697-0.805,1.049c-0.078,0.104-0.159,0.208-0.236,0.312
		c-0.334,0.448-0.661,0.899-0.979,1.354c-0.021,0.028-0.042,0.058-0.063,0.088c-0.077,0.108-0.146,0.22-0.224,0.328
		c-0.218,0.316-0.436,0.632-0.646,0.949c-0.113,0.17-0.225,0.342-0.336,0.514c-0.192,0.296-0.382,0.592-0.568,0.89
		c-0.108,0.172-0.218,0.345-0.322,0.52c-0.198,0.324-0.392,0.648-0.582,0.974c-0.084,0.143-0.169,0.284-0.252,0.427
		c-0.267,0.462-0.525,0.926-0.775,1.392c-0.009,0.016-0.02,0.033-0.026,0.049c-0.035,0.066-0.067,0.132-0.103,0.198
		c-0.23,0.431-0.454,0.866-0.672,1.3c-0.077,0.155-0.153,0.311-0.229,0.466c-0.193,0.397-0.383,0.795-0.564,1.194
		c-0.059,0.129-0.119,0.257-0.178,0.386c-0.23,0.516-0.453,1.034-0.667,1.555c-0.043,0.104-0.083,0.21-0.125,0.315
		c-0.171,0.426-0.337,0.854-0.496,1.283c-0.028,0.078-0.062,0.155-0.09,0.232c-0.026,0.073-0.051,0.147-0.076,0.222
		c-0.182,0.506-0.356,1.013-0.521,1.521c-0.019,0.056-0.038,0.112-0.057,0.168c-0.178,0.556-0.342,1.115-0.499,1.674
		c-0.041,0.149-0.08,0.297-0.12,0.446c-0.125,0.462-0.242,0.926-0.352,1.39c-0.028,0.118-0.059,0.234-0.085,0.352
		c-0.128,0.56-0.244,1.122-0.352,1.685c-0.023,0.134-0.047,0.267-0.071,0.399c-0.081,0.46-0.155,0.921-0.225,1.383
		c-0.021,0.144-0.043,0.289-0.062,0.433c-0.077,0.567-0.146,1.136-0.2,1.705c-0.009,0.093-0.016,0.186-0.022,0.279
		c-0.044,0.491-0.079,0.981-0.104,1.473c-0.009,0.155-0.018,0.311-0.023,0.466c-0.024,0.577-0.043,1.154-0.044,1.732
		c-0.029,15.64,8.784,28.432,22.777,36.043c1.76,0.957,3.52,1.914,5.279,2.872c-13.994-7.612-22.808-20.404-22.777-36.044
		c0.001-0.575,0.018-1.149,0.044-1.723C685.248,80.905,685.256,80.744,685.265,80.582z"/>
</g>
</svg>
