<?xml version="1.0" encoding="utf-8"?>
<!-- Generator: Adobe Illustrator 15.0.0, SVG Export Plug-In . SVG Version: 6.00 Build 0)  -->
<!DOCTYPE svg PUBLIC "-//W3C//DTD SVG 1.1//EN" "http://www.w3.org/Graphics/SVG/1.1/DTD/svg11.dtd">
<svg version="1.1" id="Layer_1" xmlns="http://www.w3.org/2000/svg" xmlns:xlink="http://www.w3.org/1999/xlink" x="0px" y="0px"
	 width="1924px" height="600px" viewBox="0 0 1924 600" enable-background="new 0 0 1924 600" xml:space="preserve">
<g>
	<path d="M763.536,305.693c-4.905,0-8.896,3.979-8.896,8.869c0,4.891,3.991,8.868,8.896,8.868s8.894-3.978,8.894-8.868
		C772.43,309.673,768.441,305.693,763.536,305.693z"/>
	<path d="M480.406,235.04c-3.924,0-7.116,3.183-7.116,7.094c0,3.912,3.192,7.095,7.116,7.095s7.113-3.182,7.113-7.095
		C487.52,238.223,484.33,235.04,480.406,235.04z"/>
	<ellipse cx="405.058" cy="296.825" rx="4.447" ry="4.434"/>
	<ellipse cx="1075.917" cy="475.675" rx="4.447" ry="4.435"/>
	<path d="M1012.571,362.229c-5.18,0-9.395,4.202-9.395,9.368c0,0.063,0.008,0.124,0.01,0.188l-99.511,12.671l-2.489-31.987
		c1.814-0.286,3.542-0.972,5.076-2.028c2.714-1.872,4.536-4.689,5.127-7.936c0.591-3.239-0.115-6.512-1.988-9.213
		c-0.108-0.155-0.234-0.293-0.349-0.442l243.863-218.386c1.479,1.032,3.499,1.111,5.072,0.027c2.021-1.392,2.526-4.155,1.131-6.169
		c-1.397-2.014-4.168-2.518-6.188-1.126c-1.895,1.306-2.435,3.808-1.348,5.776l-243.868,218.39
		c-2.273-2.142-5.298-3.383-8.497-3.383c-2.515,0-4.938,0.755-7.01,2.183c-2.713,1.87-4.534,4.687-5.126,7.932
		c-0.591,3.24,0.114,6.513,1.988,9.216c2.295,3.31,6.076,5.289,10.122,5.309l2.498,32.091l-54.523,6.943l-71.767-68.057
		c1.927-2.51,3.086-5.636,3.086-9.033c0-8.219-6.706-14.905-14.949-14.905c-7.603,0-13.885,5.692-14.817,13.025l-256.527-68.438
		c0.124-0.686,0.199-1.389,0.199-2.11c0-6.589-5.375-11.95-11.983-11.95c-6.608,0-11.984,5.361-11.984,11.95
		c0,6.589,5.376,11.95,11.984,11.95c1.229,0,2.416-0.187,3.534-0.531l62.366,154.435l-26.914,24.865L250.462,280.128
		c0.433-1.255,0.68-2.596,0.68-3.996c0-6.795-5.544-12.324-12.359-12.324s-12.359,5.528-12.359,12.324
		c0,1.822,0.409,3.547,1.124,5.105l-109.256,81.311c-2.722-4.26-7.49-7.1-12.921-7.1c-8.45,0-15.324,6.854-15.324,15.28
		s6.875,15.281,15.324,15.281s15.324-6.855,15.324-15.281c0-2.291-0.522-4.458-1.433-6.41l109.265-81.317
		c2.222,3.288,5.99,5.455,10.256,5.455c4.696,0,8.788-2.626,10.879-6.483l268.19,152.304l-54.21,50.085
		c-0.843-0.65-1.896-1.029-3.019-1.029c-0.423,0-0.848,0.056-1.26,0.164c-1.279,0.334-2.352,1.146-3.018,2.287
		c-0.262,0.448-0.426,0.93-0.536,1.421L334.971,460.36c0.029-0.59-0.029-1.193-0.188-1.794c-0.832-3.157-4.073-5.045-7.241-4.217
		c-3.167,0.829-5.061,4.062-4.229,7.222c0.832,3.157,4.073,5.046,7.241,4.216c1.87-0.489,3.29-1.82,3.973-3.476l121.263,26.939
		c0.019,0.09,0.021,0.181,0.044,0.271c0.571,2.168,2.538,3.682,4.783,3.682c0.423,0,0.847-0.055,1.259-0.163
		c1.28-0.335,2.352-1.148,3.018-2.289c0.664-1.138,0.845-2.465,0.51-3.737c-0.106-0.402-0.274-0.771-0.469-1.123l54.743-50.576
		l42.797,24.304c-0.343,0.852-0.537,1.779-0.537,2.754c0,4.082,3.317,7.391,7.41,7.391c4.094,0,7.411-3.309,7.411-7.391
		s-3.317-7.391-7.411-7.391c-0.626,0-1.231,0.086-1.812,0.232l-18.856-46.694l81.8-75.574c1.133,0.962,2.584,1.543,4.151,1.543
		c0.549,0,1.1-0.071,1.637-0.212c1.665-0.436,3.058-1.493,3.924-2.977c0.863-1.478,1.098-3.201,0.662-4.854
		c-0.743-2.816-3.299-4.784-6.216-4.784c-0.549,0-1.1,0.071-1.636,0.212c-1.664,0.436-3.056,1.492-3.922,2.975
		c-0.863,1.478-1.099,3.202-0.663,4.855c0.164,0.624,0.43,1.197,0.756,1.726l-81.294,75.108l-62.086-153.741
		c2.716-1.37,4.835-3.737,5.878-6.62l256.801,68.509l0.136-0.509c-0.003,0.13-0.02,0.256-0.02,0.386
		c0,8.218,6.706,14.904,14.949,14.904c4.115,0,7.847-1.667,10.552-4.358l70.516,66.87L721.74,407.623
		c-0.629-1.688-2.245-2.897-4.157-2.897c-2.456,0-4.447,1.986-4.447,4.436s1.991,4.435,4.447,4.435c2.302,0,4.174-1.751,4.402-3.986
		l124.494-15.854l51.73,49.056c-1.718,2.117-2.752,4.808-2.752,7.736c0,6.796,5.544,12.324,12.359,12.324
		c6.814,0,12.358-5.528,12.358-12.324c0-6.781-5.521-12.298-12.315-12.322l-4.029-51.772l99.61-12.685
		c0.986,4.121,4.701,7.198,9.13,7.198c5.18,0,9.395-4.203,9.395-9.369S1017.751,362.229,1012.571,362.229z M889.892,346.739
		c-1.721-2.482-2.369-5.489-1.826-8.466c0.544-2.981,2.217-5.569,4.71-7.287c1.904-1.312,4.131-2.007,6.442-2.007
		c3.742,0,7.241,1.825,9.361,4.883c1.721,2.481,2.369,5.486,1.826,8.463c-0.544,2.982-2.217,5.572-4.711,7.291
		c-1.904,1.312-4.131,2.006-6.442,2.006C895.511,351.622,892.012,349.797,889.892,346.739z M119.695,370.729
		c0,7.875-6.426,14.281-14.324,14.281c-7.898,0-14.324-6.406-14.324-14.281c0-7.874,6.426-14.28,14.324-14.28
		C113.269,356.448,119.695,362.854,119.695,370.729z M238.783,287.456c-6.264,0-11.359-5.08-11.359-11.324
		s5.096-11.324,11.359-11.324c6.263,0,11.359,5.08,11.359,11.324S245.046,287.456,238.783,287.456z M464.03,490.247
		c-0.532,0.91-1.387,1.559-2.408,1.826c-0.33,0.086-0.668,0.13-1.006,0.13c-1.791,0-3.36-1.207-3.816-2.937
		c-0.267-1.014-0.123-2.071,0.407-2.978c0.532-0.91,1.387-1.559,2.408-1.825c0.331-0.087,0.669-0.131,1.007-0.131
		c1.79,0,3.358,1.207,3.813,2.937C464.704,488.282,464.56,489.34,464.03,490.247z M629.942,325.352
		c0.731-1.252,1.907-2.144,3.312-2.512c0.454-0.118,0.919-0.179,1.383-0.179c2.463,0,4.622,1.661,5.249,4.039
		c0.367,1.395,0.169,2.849-0.559,4.096c-0.731,1.252-1.908,2.145-3.314,2.514c-0.454,0.118-0.919,0.179-1.383,0.179
		c-2.463,0-4.621-1.661-5.247-4.039C629.015,328.054,629.214,326.599,629.942,325.352z M565.679,455.956
		c-0.86,0.491-1.609,1.148-2.209,1.929l-42.25-23.995l25.889-23.919L565.679,455.956z M480.407,253.835
		c-6.47,0-11.734-5.249-11.734-11.7c0-6.451,5.264-11.7,11.734-11.7c6.47,0,11.733,5.249,11.733,11.7
		C492.141,248.586,486.877,253.835,480.407,253.835z M763.536,329.217c-8.105,0-14.699-6.574-14.699-14.654
		c0-0.536,0.033-1.063,0.09-1.584l0.06-0.225l-0.024-0.007c0.901-7.226,7.087-12.84,14.574-12.84
		c8.105,0,14.699,6.574,14.699,14.655C778.235,322.643,771.641,329.217,763.536,329.217z M919.175,450.548
		c0,6.244-5.095,11.324-11.358,11.324c-6.264,0-11.359-5.08-11.359-11.324s5.096-11.324,11.359-11.324
		C914.08,439.224,919.175,444.304,919.175,450.548z M905.867,438.393c-2.387,0.38-4.544,1.438-6.271,2.979l-50.555-47.941
		l52.803-6.724L905.867,438.393z M1012.571,379.967c-4.629,0-8.395-3.754-8.395-8.369c0-4.614,3.766-8.368,8.395-8.368
		s8.395,3.754,8.395,8.368C1020.966,376.213,1017.2,379.967,1012.571,379.967z"/>
	<path d="M627.707,391.002c-4.156,0-7.537,3.371-7.537,7.516s3.381,7.517,7.537,7.517s7.537-3.372,7.537-7.517
		S631.863,391.002,627.707,391.002z M627.707,405.784c-4.018,0-7.287-3.26-7.287-7.267c0-4.006,3.269-7.266,7.287-7.266
		s7.287,3.26,7.287,7.266C634.994,402.524,631.725,405.784,627.707,405.784z"/>
	<path d="M1638.121,342.282c0,4.351,3.549,7.89,7.911,7.89s7.911-3.539,7.911-7.89s-3.549-7.891-7.911-7.891
		S1638.121,337.932,1638.121,342.282z M1652.943,342.282c0,3.799-3.101,6.89-6.911,6.89s-6.911-3.091-6.911-6.89
		c0-3.8,3.101-6.891,6.911-6.891S1652.943,338.482,1652.943,342.282z"/>
	<path d="M1853.067,319.975c-8.45,0-15.324,6.855-15.324,15.281c0,2.291,0.522,4.458,1.433,6.411l-109.266,81.318
		c-2.222-3.288-5.989-5.455-10.255-5.455c-4.697,0-8.789,2.627-10.88,6.483l-186.421-105.869l107.875-31.673
		c0.903,1.198,2.327,1.986,3.943,1.986c1.914,0,3.559-1.101,4.381-2.69l110.037,56.574c-0.166,0.524-0.257,1.081-0.269,1.657h-0.008
		v0.25h0.008c0.066,3.206,2.689,5.786,5.922,5.786c3.274,0,5.929-2.646,5.929-5.911s-2.654-5.911-5.929-5.911
		c-1.934,0-3.646,0.928-4.729,2.355l-110.422-56.771c0.005-0.092,0.027-0.18,0.027-0.274c0-2.721-2.22-4.935-4.948-4.935
		s-4.948,2.214-4.948,4.935c0,0.386,0.056,0.758,0.14,1.119l-109.429,32.129l-123.972-70.404c0.344-0.852,0.537-1.779,0.537-2.753
		c0-4.082-3.318-7.391-7.411-7.391s-7.411,3.309-7.411,7.391c0,4.082,3.318,7.391,7.411,7.391c0.627,0,1.231-0.086,1.813-0.232
		l37.505,92.872l-100.12,29.396c-1.158-1.694-3.108-2.809-5.314-2.809c-3.545,0-6.429,2.876-6.429,6.412s2.884,6.413,6.429,6.413
		s6.43-2.877,6.43-6.413c0-0.615-0.093-1.208-0.255-1.771l100.012-29.364l43.486,107.684c-2.716,1.369-4.835,3.736-5.879,6.619
		l-256.802-68.51l-0.135,0.504c0.004-0.128,0.02-0.252,0.02-0.381c0-8.219-6.706-14.905-14.948-14.905
		c-4.115,0-7.847,1.667-10.553,4.359l-124.121-117.704c1.717-2.117,2.75-4.807,2.75-7.735c0-6.796-5.544-12.325-12.358-12.325
		c-6.815,0-12.359,5.529-12.359,12.325s5.544,12.325,12.359,12.325c3.158,0,6.034-1.198,8.222-3.149l124.196,117.776
		c-1.927,2.51-3.085,5.635-3.085,9.032c0,8.219,6.706,14.905,14.949,14.905c7.603,0,13.884-5.692,14.816-13.025l256.527,68.437
		c-0.124,0.687-0.199,1.39-0.199,2.111c0,6.59,5.376,11.95,11.984,11.95c6.607,0,11.983-5.36,11.983-11.95
		c0-6.589-5.376-11.949-11.983-11.949c-1.23,0-2.417,0.187-3.535,0.531l-43.408-107.491l88.597-26.014l188.291,106.931
		c-0.433,1.255-0.68,2.596-0.68,3.995c0,6.796,5.544,12.324,12.359,12.324c6.814,0,12.358-5.528,12.358-12.324
		c0-1.822-0.409-3.548-1.124-5.105l109.257-81.312c2.722,4.261,7.49,7.101,12.921,7.101c8.449,0,15.323-6.855,15.323-15.281
		S1861.517,319.975,1853.067,319.975z M1634.173,279.587c2.177,0,3.948,1.765,3.948,3.935s-1.771,3.935-3.948,3.935
		s-3.948-1.765-3.948-3.935S1631.996,279.587,1634.173,279.587z M1322.974,382.056c-2.993,0-5.429-2.429-5.429-5.413
		s2.436-5.412,5.429-5.412c2.994,0,5.43,2.428,5.43,5.412S1325.968,382.056,1322.974,382.056z M1050.62,266.763
		c-6.264,0-11.359-5.081-11.359-11.325s5.096-11.325,11.359-11.325c6.263,0,11.358,5.081,11.358,11.325
		S1056.883,266.763,1050.62,266.763z M1209.513,392.999l-0.062,0.232l0.025,0.007c-0.901,7.226-7.087,12.84-14.573,12.84
		c-8.105,0-14.699-6.574-14.699-14.655s6.594-14.655,14.699-14.655c8.104,0,14.698,6.574,14.698,14.655
		C1209.601,391.955,1209.568,392.48,1209.513,392.999z M1478.031,452.151c6.47,0,11.733,5.248,11.733,11.699
		s-5.264,11.7-11.733,11.7c-6.471,0-11.734-5.249-11.734-11.7S1471.561,452.151,1478.031,452.151z M1430.335,343.077l-37.576-93.048
		c0.86-0.491,1.609-1.148,2.209-1.928l122.298,69.452L1430.335,343.077z M1731.014,429.854c0,6.244-5.096,11.324-11.358,11.324
		c-6.264,0-11.359-5.08-11.359-11.324s5.096-11.323,11.359-11.323C1725.918,418.53,1731.014,423.609,1731.014,429.854z
		 M1853.067,349.537c-7.898,0-14.324-6.406-14.324-14.281s6.426-14.281,14.324-14.281c7.897,0,14.323,6.406,14.323,14.281
		S1860.965,349.537,1853.067,349.537z"/>
	<path d="M1194.901,382.555c-4.905,0-8.894,3.979-8.895,8.868c0,4.89,3.989,8.869,8.895,8.869c4.904,0,8.895-3.978,8.895-8.869
		C1203.796,386.534,1199.805,382.555,1194.901,382.555z"/>
	<path d="M1478.031,470.946c3.923,0,7.115-3.185,7.115-7.096c0-3.91-3.192-7.095-7.115-7.095c-3.924,0-7.113,3.185-7.113,7.095
		C1470.918,467.762,1474.107,470.946,1478.031,470.946z"/>
	<path d="M899.229,334.262c-1.231,0-2.419,0.37-3.436,1.071c-1.332,0.918-2.225,2.299-2.514,3.887
		c-0.289,1.585,0.058,3.188,0.978,4.515c1.13,1.631,2.994,2.604,4.984,2.604c1.232,0,2.42-0.37,3.437-1.071
		c1.331-0.918,2.223-2.298,2.513-3.885c0.29-1.585-0.057-3.188-0.975-4.515C903.086,335.236,901.222,334.262,899.229,334.262z
		 M904.945,341.338c-0.278,1.521-1.133,2.844-2.409,3.725c-0.975,0.672-2.115,1.026-3.295,1.026c-1.909,0-3.696-0.934-4.779-2.497
		c-0.881-1.271-1.214-2.809-0.937-4.328c0.278-1.521,1.134-2.845,2.41-3.726c0.975-0.671,2.114-1.026,3.294-1.026
		c1.911,0,3.698,0.935,4.782,2.499C904.892,338.282,905.223,339.819,904.945,341.338z"/>
	<path d="M1330.73,314.984c4.155,0,7.536-3.372,7.536-7.517s-3.381-7.516-7.536-7.516c-4.156,0-7.537,3.371-7.537,7.516
		S1326.574,314.984,1330.73,314.984z M1330.73,300.202c4.018,0,7.286,3.26,7.286,7.266c0,4.007-3.269,7.267-7.286,7.267
		c-4.019,0-7.287-3.26-7.287-7.267C1323.443,303.462,1326.712,300.202,1330.73,300.202z"/>
</g>
</svg>
