<?xml version="1.0" encoding="utf-8"?>
<!-- Generator: Adobe Illustrator 15.0.0, SVG Export Plug-In . SVG Version: 6.00 Build 0)  -->
<!DOCTYPE svg PUBLIC "-//W3C//DTD SVG 1.1//EN" "http://www.w3.org/Graphics/SVG/1.1/DTD/svg11.dtd">
<svg version="1.1" id="Layer_1" xmlns="http://www.w3.org/2000/svg" xmlns:xlink="http://www.w3.org/1999/xlink" x="0px" y="0px"
	 width="1924px" height="600px" viewBox="0 0 1924 600" enable-background="new 0 0 1924 600" xml:space="preserve">
<ellipse fill="none" stroke="#000000" stroke-miterlimit="10" cx="105.371" cy="370.729" rx="14.824" ry="14.781"/>
<ellipse fill="none" stroke="#000000" stroke-miterlimit="10" stroke-dasharray="0.25,1" cx="238.783" cy="276.132" rx="11.859" ry="11.824"/>
<ellipse cx="569.348" cy="462.372" rx="7.411" ry="7.391"/>
<ellipse fill="none" stroke="#000000" stroke-width="0.25" stroke-miterlimit="10" cx="763.536" cy="314.562" rx="14.824" ry="14.78"/>
<path d="M763.536,323.431c-4.904,0-8.895-3.978-8.895-8.868s3.99-8.869,8.895-8.869s8.894,3.979,8.894,8.869
	S768.44,323.431,763.536,323.431z"/>
<ellipse fill="none" stroke="#000000" stroke-width="0.25" stroke-miterlimit="10" cx="480.407" cy="242.135" rx="11.859" ry="11.825"/>
<path d="M480.406,249.229c-3.924,0-7.116-3.183-7.116-7.095c0-3.911,3.192-7.094,7.116-7.094s7.113,3.183,7.113,7.094
	C487.52,246.047,484.33,249.229,480.406,249.229z"/>
<path fill="none" stroke="#000000" stroke-miterlimit="10" d="M464.92,487.142c0.624,2.367-0.796,4.793-3.171,5.415
	s-4.808-0.794-5.432-3.162s0.797-4.794,3.172-5.415C461.864,483.356,464.296,484.774,464.92,487.142z"/>
<ellipse fill="none" stroke="#000000" stroke-miterlimit="10" cx="907.816" cy="450.548" rx="11.859" ry="11.824"/>
<path d="M334.783,458.566c0.832,3.158-1.062,6.392-4.229,7.221c-3.168,0.83-6.409-1.059-7.241-4.216
	c-0.832-3.159,1.062-6.392,4.229-7.221C330.71,453.521,333.951,455.409,334.783,458.566z"/>
<path fill="none" stroke="#000000" stroke-miterlimit="10" d="M640.369,326.573c0.832,3.157-1.062,6.39-4.229,7.22
	c-3.167,0.829-6.409-1.058-7.241-4.217c-0.832-3.157,1.062-6.39,4.228-7.22C636.295,321.527,639.536,323.415,640.369,326.573z"/>
<line fill="none" stroke="#000000" stroke-width="2" stroke-miterlimit="10" x1="118.414" y1="363.703" x2="228.403" y2="281.847"/>
<line fill="none" stroke="#000000" stroke-width="0.25" stroke-miterlimit="10" x1="312.204" y1="379.598" x2="306.274" y2="379.598"/>
<line fill="none" stroke="#000000" stroke-width="2" stroke-miterlimit="10" stroke-dasharray="0.25,1" x1="329.049" y1="460.069" x2="456.18" y2="488.312"/>
<line fill="none" stroke="#000000" stroke-width="2" stroke-miterlimit="10" x1="249.662" y1="280.823" x2="569.348" y2="462.372"/>
<line fill="none" stroke="#000000" stroke-width="2" stroke-miterlimit="10" x1="463.999" y1="485.394" x2="630.124" y2="331.911"/>
<line fill="none" stroke="#000000" stroke-width="2" stroke-miterlimit="10" stroke-dasharray="0.25,1" x1="569.348" y1="462.372" x2="484.842" y2="253.114"/>
<line fill="none" stroke="#000000" stroke-width="2" stroke-miterlimit="10" stroke-dasharray="0.25,1" x1="491.86" y1="245.192" x2="748.729" y2="313.72"/>
<line fill="none" stroke="#000000" stroke-width="2" stroke-miterlimit="10" x1="774.683" y1="324.294" x2="899.235" y2="442.407"/>
<ellipse cx="717.583" cy="409.161" rx="4.447" ry="4.435"/>
<ellipse cx="405.058" cy="296.825" rx="4.447" ry="4.434"/>
<ellipse cx="1075.917" cy="475.675" rx="4.447" ry="4.435"/>
<path fill="none" stroke="#000000" stroke-miterlimit="10" d="M1012.571,380.467c-4.904,0-8.894-3.979-8.894-8.869
	s3.989-8.869,8.894-8.869c4.905,0,8.895,3.979,8.895,8.869S1017.477,380.467,1012.571,380.467z"/>
<line fill="none" stroke="#000000" stroke-width="2" stroke-miterlimit="10" stroke-dasharray="0.25,1" x1="717.583" y1="409.161" x2="1003.764" y2="372.72"/>
<ellipse fill="none" stroke="#000000" stroke-width="0.25" stroke-miterlimit="10" stroke-dasharray="0.25,1" cx="627.707" cy="398.518" rx="7.412" ry="7.391"/>
<ellipse fill="none" stroke="#000000" stroke-miterlimit="10" stroke-dasharray="0.25,1" cx="1646.032" cy="342.282" rx="7.411" ry="7.39"/>
<ellipse fill="none" stroke="#000000" stroke-miterlimit="10" cx="1853.067" cy="335.256" rx="14.824" ry="14.781"/>
<ellipse fill="none" stroke="#000000" stroke-miterlimit="10" stroke-dasharray="0.25,1" cx="1719.655" cy="429.854" rx="11.859" ry="11.824"/>
<ellipse cx="1389.09" cy="243.613" rx="7.411" ry="7.391"/>
<ellipse fill="none" stroke="#000000" stroke-width="0.25" stroke-miterlimit="10" cx="1194.902" cy="391.423" rx="14.824" ry="14.78"/>
<path d="M1194.901,382.555c4.904,0,8.895,3.979,8.895,8.868c0,4.891-3.99,8.869-8.895,8.869c-4.905,0-8.894-3.979-8.894-8.869
	C1186.008,386.533,1189.996,382.555,1194.901,382.555z"/>
<ellipse fill="none" stroke="#000000" stroke-width="0.25" stroke-miterlimit="10" cx="1478.031" cy="463.851" rx="11.859" ry="11.825"/>
<path d="M1478.031,456.756c3.923,0,7.116,3.184,7.116,7.095s-3.193,7.095-7.116,7.095c-3.924,0-7.113-3.184-7.113-7.095
	S1474.107,456.756,1478.031,456.756z"/>
<ellipse fill="none" stroke="#000000" stroke-miterlimit="10" cx="1634.173" cy="283.522" rx="4.448" ry="4.435"/>
<ellipse fill="none" stroke="#000000" stroke-miterlimit="10" cx="1050.62" cy="255.438" rx="11.859" ry="11.825"/>
<ellipse cx="1754.244" cy="344.123" rx="5.929" ry="5.911"/>
<ellipse fill="none" stroke="#000000" stroke-miterlimit="10" cx="1322.974" cy="376.643" rx="5.929" ry="5.913"/>
<line fill="none" stroke="#000000" stroke-width="2" stroke-miterlimit="10" x1="1840.023" y1="342.282" x2="1730.034" y2="424.139"/>
<line fill="none" stroke="#000000" stroke-width="0.25" stroke-miterlimit="10" x1="1748.314" y1="344.123" x2="1754.244" y2="344.123"/>
<line fill="none" stroke="#000000" stroke-width="2" stroke-miterlimit="10" stroke-dasharray="0.25,1" x1="1754.244" y1="344.123" x2="1638.478" y2="284.604"/>
<line fill="none" stroke="#000000" stroke-width="2" stroke-miterlimit="10" x1="1708.775" y1="425.163" x2="1389.09" y2="243.613"/>
<line fill="none" stroke="#000000" stroke-width="2" stroke-miterlimit="10" x1="1630.173" y1="285.446" x2="1328.313" y2="374.074"/>
<line fill="none" stroke="#000000" stroke-width="2" stroke-miterlimit="10" stroke-dasharray="0.25,1" x1="1389.09" y1="243.613" x2="1473.596" y2="452.871"/>
<line fill="none" stroke="#000000" stroke-width="2" stroke-miterlimit="10" stroke-dasharray="0.25,1" x1="1466.577" y1="460.793" x2="1209.708" y2="392.266"/>
<line fill="none" stroke="#000000" stroke-width="2" stroke-miterlimit="10" x1="1183.755" y1="381.691" x2="1059.202" y2="263.578"/>
<path d="M1151.801,113.365c-1.396-2.014-0.891-4.776,1.13-6.169c2.02-1.392,4.791-0.888,6.188,1.126
	c1.396,2.014,0.89,4.777-1.131,6.169C1155.968,115.884,1153.197,115.379,1151.801,113.365z"/>
<path fill="none" stroke="#000000" stroke-miterlimit="10" d="M892.492,330.574c5.38-3.709,12.78-2.36,16.498,3.003
	c3.72,5.363,2.368,12.743-3.011,16.451c-5.381,3.708-12.779,2.36-16.499-3.004C885.763,341.661,887.113,334.281,892.492,330.574z"/>
<path fill="none" stroke="#000000" stroke-width="0.25" stroke-miterlimit="10" d="M894.359,343.663
	c-1.863-2.687-1.189-6.369,1.505-8.227c2.693-1.856,6.388-1.184,8.25,1.503c1.86,2.687,1.187,6.368-1.507,8.226
	C899.914,347.021,896.221,346.35,894.359,343.663z"/>
<line fill="none" stroke="#000000" stroke-width="2" stroke-miterlimit="10" stroke-dasharray="0.25,1" x1="1155.459" y1="110.844" x2="908.043" y2="332.411"/>
<ellipse fill="none" stroke="#000000" stroke-width="0.25" stroke-miterlimit="10" stroke-dasharray="0.25,1" cx="1330.73" cy="307.468" rx="7.412" ry="7.391"/>
<line fill="none" stroke="#000000" stroke-width="2" stroke-miterlimit="10" x1="900.153" y1="352.087" x2="906.898" y2="438.76"/>
</svg>
