<?xml version="1.0" encoding="utf-8"?>
<!-- Generator: Adobe Illustrator 15.0.0, SVG Export Plug-In . SVG Version: 6.00 Build 0)  -->
<!DOCTYPE svg PUBLIC "-//W3C//DTD SVG 1.1//EN" "http://www.w3.org/Graphics/SVG/1.1/DTD/svg11.dtd">
<svg version="1.1" id="Layer_2" xmlns="http://www.w3.org/2000/svg" xmlns:xlink="http://www.w3.org/1999/xlink" x="0px" y="0px"
	 width="504px" height="360px" viewBox="0 0 504 360" enable-background="new 0 0 504 360" xml:space="preserve">
<g>
	<path d="M6291.622,3115.545l-54.338-0.161c-0.975-0.003-1.769,0.786-1.771,1.762l-0.212,71.345
		c-0.003,0.977,0.786,1.77,1.763,1.772l54.336,0.161c0.977,0.003,1.771-0.786,1.772-1.762l0.213-71.345
		C6293.388,3116.342,6292.597,3115.547,6291.622,3115.545z M6264.444,3118.291c0.224,0,0.404,0.183,0.403,0.405
		s-0.182,0.402-0.405,0.401c-0.224,0-0.402-0.181-0.402-0.405C6264.042,3118.471,6264.222,3118.29,6264.444,3118.291z
		 M6264.235,3188.909c-1.082-0.003-1.961-0.888-1.958-1.97c0.003-1.084,0.887-1.964,1.97-1.96c1.084,0.004,1.962,0.888,1.958,1.971
		C6266.202,3188.033,6265.319,3188.913,6264.235,3188.909z M6287.445,3183.898l-46.389-0.138l0.184-61.852l46.388,0.138
		L6287.445,3183.898z"/>
	<g>
		<path d="M6264.246,3185.439c-0.83-0.003-1.507,0.671-1.51,1.501c-0.002,0.83,0.671,1.508,1.5,1.51
			c0.831,0.002,1.509-0.671,1.51-1.501C6265.75,3186.118,6265.076,3185.441,6264.246,3185.439z M6265.009,3187.276
			c-0.001,0.242-0.197,0.438-0.439,0.438l-0.66-0.003c-0.24,0-0.438-0.198-0.436-0.44l0.001-0.658c0-0.242,0.197-0.438,0.439-0.438
			l0.659,0.003c0.242,0,0.438,0.197,0.438,0.439L6265.009,3187.276z"/>
		<path d="M6264.483,3186.37l-0.479-0.001c-0.185-0.001-0.335,0.148-0.335,0.335l-0.003,0.478c-0.001,0.187,0.148,0.336,0.335,0.337
			l0.479,0.002c0.186,0,0.335-0.149,0.336-0.335l0.002-0.479C6264.817,3186.521,6264.668,3186.371,6264.483,3186.37z"/>
	</g>
</g>
<g>
	<path d="M6350.274,3115.719l-54.338-0.161c-0.975-0.003-1.769,0.786-1.771,1.762l-0.212,71.345
		c-0.003,0.976,0.786,1.77,1.763,1.772l54.336,0.161c0.977,0.003,1.771-0.786,1.772-1.762l0.213-71.345
		C6352.04,3116.515,6351.249,3115.722,6350.274,3115.719z M6323.097,3118.464c0.224,0.001,0.405,0.184,0.403,0.405
		c0,0.224-0.182,0.403-0.405,0.402s-0.402-0.181-0.402-0.404C6322.694,3118.645,6322.874,3118.464,6323.097,3118.464z
		 M6322.888,3189.083c-1.082-0.003-1.961-0.888-1.958-1.971s0.887-1.963,1.97-1.959c1.084,0.003,1.963,0.888,1.958,1.971
		C6324.854,3188.206,6323.973,3189.086,6322.888,3189.083z M6346.097,3184.072l-46.388-0.139l0.184-61.851l46.388,0.138
		L6346.097,3184.072z"/>
	<g>
		<path d="M6322.898,3185.613c-0.83-0.004-1.507,0.671-1.51,1.501c-0.003,0.829,0.67,1.508,1.5,1.51
			c0.831,0.002,1.509-0.671,1.51-1.501C6324.402,3186.292,6323.729,3185.615,6322.898,3185.613z M6323.661,3187.45
			c-0.001,0.242-0.197,0.438-0.439,0.438l-0.66-0.002c-0.242,0-0.438-0.198-0.438-0.44l0.003-0.658c0-0.242,0.197-0.438,0.439-0.438
			l0.659,0.002c0.242,0.001,0.438,0.198,0.438,0.44L6323.661,3187.45z"/>
		<path d="M6323.136,3186.545l-0.479-0.002c-0.185-0.001-0.335,0.148-0.337,0.334l-0.002,0.479c0,0.187,0.149,0.336,0.336,0.337
			l0.478,0.002c0.187,0,0.337-0.149,0.337-0.335l0.002-0.479C6323.47,3186.695,6323.32,3186.545,6323.136,3186.545z"/>
	</g>
</g>
<g>
	<path d="M6408.815,3115.551h-54.338c-0.975,0-1.766,0.791-1.766,1.768v71.345c0,0.977,0.791,1.768,1.766,1.768h54.338
		c0.976,0,1.768-0.791,1.768-1.768v-71.345C6410.583,3116.342,6409.791,3115.551,6408.815,3115.551z M6381.646,3118.378
		c0.224,0,0.403,0.181,0.403,0.403s-0.18,0.403-0.403,0.403s-0.402-0.181-0.402-0.403S6381.423,3118.378,6381.646,3118.378z
		 M6381.646,3188.996c-1.083,0-1.964-0.882-1.964-1.964c0-1.083,0.881-1.966,1.964-1.966s1.964,0.883,1.964,1.966
		C6383.61,3188.114,6382.729,3188.996,6381.646,3188.996z M6404.841,3183.917h-46.388v-61.852h46.388V3183.917z"/>
	<g>
		<path d="M6381.646,3185.526c-0.829,0-1.505,0.676-1.505,1.506c0,0.829,0.676,1.505,1.505,1.505c0.83,0,1.505-0.676,1.505-1.505
			C6383.151,3186.202,6382.477,3185.526,6381.646,3185.526z M6382.416,3187.361c0,0.242-0.196,0.439-0.44,0.439h-0.659
			c-0.241,0-0.438-0.197-0.438-0.439v-0.659c0-0.242,0.196-0.438,0.438-0.438h0.659c0.244,0,0.44,0.196,0.44,0.438V3187.361z"/>
		<path d="M6381.887,3186.457h-0.479c-0.186,0-0.335,0.149-0.335,0.335v0.479c0,0.185,0.149,0.335,0.335,0.335h0.479
			c0.185,0,0.334-0.15,0.334-0.335v-0.479C6382.221,3186.606,6382.071,3186.457,6381.887,3186.457z"/>
	</g>
</g>
<g>
	<path d="M6467.468,3115.551h-54.338c-0.975,0-1.768,0.791-1.768,1.768v71.345c0,0.977,0.793,1.768,1.768,1.768h54.338
		c0.976,0,1.768-0.791,1.768-1.768l0.001-71.345C6469.236,3116.342,6468.443,3115.551,6467.468,3115.551z M6440.299,3118.378
		c0.224,0,0.403,0.181,0.403,0.403s-0.18,0.403-0.403,0.403c-0.223,0-0.403-0.181-0.403-0.403S6440.076,3118.378,6440.299,3118.378z
		 M6440.299,3188.996c-1.082,0-1.964-0.882-1.964-1.964c0-1.083,0.882-1.966,1.964-1.966c1.083,0,1.964,0.883,1.964,1.966
		C6442.263,3188.114,6441.382,3188.996,6440.299,3188.996z M6463.493,3183.917h-46.388v-61.852h46.388V3183.917z"/>
	<g>
		<path d="M6440.299,3185.526c-0.829,0-1.505,0.676-1.505,1.506c0,0.829,0.676,1.505,1.505,1.505c0.83,0,1.506-0.676,1.506-1.505
			C6441.805,3186.202,6441.129,3185.526,6440.299,3185.526z M6441.067,3187.361c0,0.242-0.196,0.439-0.439,0.439h-0.659
			c-0.241,0-0.438-0.197-0.438-0.439v-0.659c0-0.242,0.196-0.438,0.438-0.438h0.659c0.243,0,0.439,0.196,0.439,0.438V3187.361z"/>
		<path d="M6440.539,3186.457h-0.479c-0.185,0-0.335,0.149-0.335,0.335v0.479c0,0.185,0.15,0.335,0.335,0.335h0.479
			c0.185,0,0.334-0.15,0.334-0.335v-0.479C6440.873,3186.606,6440.724,3186.457,6440.539,3186.457z"/>
	</g>
</g>
<g>
	<path d="M6526.12,3115.551h-54.337c-0.976,0-1.768,0.791-1.768,1.768v71.345c0,0.977,0.792,1.768,1.768,1.768h54.337
		c0.976,0,1.768-0.791,1.768-1.768v-71.345C6527.888,3116.342,6527.096,3115.551,6526.12,3115.551z M6498.951,3118.378
		c0.224,0,0.404,0.181,0.404,0.403s-0.181,0.403-0.404,0.403s-0.403-0.181-0.403-0.403S6498.728,3118.378,6498.951,3118.378z
		 M6498.951,3188.996c-1.082,0-1.964-0.882-1.964-1.964c0-1.083,0.882-1.966,1.964-1.966c1.083,0,1.965,0.883,1.965,1.966
		C6500.916,3188.114,6500.034,3188.996,6498.951,3188.996z M6522.146,3183.917h-46.389v-61.852h46.389V3183.917z"/>
	<g>
		<path d="M6498.951,3185.526c-0.829,0-1.505,0.676-1.505,1.506c0,0.829,0.676,1.505,1.505,1.505c0.83,0,1.505-0.676,1.505-1.505
			C6500.456,3186.202,6499.781,3185.526,6498.951,3185.526z M6499.72,3187.361c0,0.242-0.196,0.439-0.438,0.439h-0.66
			c-0.241,0-0.438-0.197-0.438-0.439v-0.659c0-0.242,0.196-0.438,0.438-0.438h0.66c0.242,0,0.438,0.196,0.438,0.438V3187.361z"/>
		<path d="M6499.191,3186.457h-0.479c-0.186,0-0.335,0.149-0.335,0.335v0.479c0,0.185,0.149,0.335,0.335,0.335h0.479
			c0.185,0,0.335-0.15,0.335-0.335v-0.479C6499.526,3186.606,6499.376,3186.457,6499.191,3186.457z"/>
	</g>
</g>
<path d="M6295.928,3457.346h-23.065c-0.572,0-1.043,0.47-1.043,1.042v36.296c0,0.573,0.471,1.043,1.043,1.043h23.065
	c0.574,0,1.043-0.47,1.043-1.043v-36.296C6296.971,3457.815,6296.502,3457.346,6295.928,3457.346z M6279.573,3486.901
	c-0.864,0-1.564-0.7-1.564-1.564c0-0.863,0.7-1.564,1.564-1.564c0.865,0,1.564,0.701,1.564,1.564
	C6281.138,3486.201,6280.438,3486.901,6279.573,3486.901z M6284.395,3491.723c-0.863,0-1.564-0.701-1.564-1.564
	c0-0.865,0.701-1.564,1.564-1.564c0.865,0,1.565,0.699,1.565,1.564C6285.96,3491.021,6285.26,3491.723,6284.395,3491.723z
	 M6284.395,3482.08c-0.863,0-1.564-0.7-1.564-1.564c0-0.865,0.701-1.564,1.564-1.564c0.865,0,1.565,0.699,1.565,1.564
	C6285.96,3481.38,6285.26,3482.08,6284.395,3482.08z M6289.217,3486.901c-0.865,0-1.564-0.7-1.564-1.564
	c0-0.863,0.699-1.564,1.564-1.564c0.863,0,1.563,0.701,1.563,1.564C6290.78,3486.201,6290.08,3486.901,6289.217,3486.901z
	 M6294.522,3474.767c0,0.573-0.469,1.043-1.043,1.043h-18.169c-0.572,0-1.043-0.47-1.043-1.043v-13.938
	c0-0.573,0.471-1.042,1.043-1.042h18.169c0.574,0,1.043,0.469,1.043,1.042V3474.767z"/>
<path d="M6324.199,3457.346h-23.065c-0.573,0-1.043,0.47-1.043,1.042v36.296c0,0.573,0.47,1.043,1.043,1.043h23.065
	c0.573,0,1.043-0.47,1.043-1.043v-36.296C6325.242,3457.815,6324.772,3457.346,6324.199,3457.346z M6307.844,3486.901
	c-0.863,0-1.563-0.7-1.563-1.564c0-0.863,0.7-1.564,1.563-1.564c0.866,0,1.565,0.701,1.565,1.564
	C6309.409,3486.201,6308.71,3486.901,6307.844,3486.901z M6312.665,3491.723c-0.862,0-1.563-0.701-1.563-1.564
	c0-0.865,0.701-1.564,1.563-1.564c0.865,0,1.565,0.699,1.565,1.564C6314.23,3491.021,6313.53,3491.723,6312.665,3491.723z
	 M6312.665,3482.08c-0.862,0-1.563-0.7-1.563-1.564c0-0.865,0.701-1.564,1.563-1.564c0.865,0,1.565,0.699,1.565,1.564
	C6314.23,3481.38,6313.53,3482.08,6312.665,3482.08z M6317.488,3486.901c-0.866,0-1.565-0.7-1.565-1.564
	c0-0.863,0.699-1.564,1.565-1.564c0.863,0,1.563,0.701,1.563,1.564C6319.052,3486.201,6318.352,3486.901,6317.488,3486.901z
	 M6322.794,3474.767c0,0.573-0.47,1.043-1.043,1.043h-18.17c-0.573,0-1.042-0.47-1.042-1.043v-13.938
	c0-0.573,0.469-1.042,1.042-1.042h18.17c0.573,0,1.043,0.469,1.043,1.042V3474.767z"/>
<path d="M6352.47,3457.346h-23.064c-0.573,0-1.043,0.47-1.043,1.042v36.296c0,0.573,0.47,1.043,1.043,1.043h23.064
	c0.574,0,1.044-0.47,1.044-1.043v-36.296C6353.514,3457.815,6353.044,3457.346,6352.47,3457.346z M6336.115,3486.901
	c-0.863,0-1.564-0.7-1.564-1.564c0-0.863,0.701-1.564,1.564-1.564c0.865,0,1.564,0.701,1.564,1.564
	C6337.68,3486.201,6336.98,3486.901,6336.115,3486.901z M6340.938,3491.723c-0.864,0-1.564-0.701-1.564-1.564
	c0-0.865,0.7-1.564,1.564-1.564c0.863,0,1.564,0.699,1.564,1.564C6342.502,3491.021,6341.801,3491.723,6340.938,3491.723z
	 M6340.938,3482.08c-0.864,0-1.564-0.7-1.564-1.564c0-0.865,0.7-1.564,1.564-1.564c0.863,0,1.564,0.699,1.564,1.564
	C6342.502,3481.38,6341.801,3482.08,6340.938,3482.08z M6345.759,3486.901c-0.865,0-1.564-0.7-1.564-1.564
	c0-0.863,0.699-1.564,1.564-1.564c0.864,0,1.564,0.701,1.564,1.564C6347.323,3486.201,6346.623,3486.901,6345.759,3486.901z
	 M6351.065,3474.767c0,0.573-0.47,1.043-1.042,1.043h-18.171c-0.572,0-1.042-0.47-1.042-1.043v-13.938
	c0-0.573,0.47-1.042,1.042-1.042h18.171c0.572,0,1.042,0.469,1.042,1.042V3474.767z"/>
<g>
	<path d="M5798.134,2938.818h-50.169c-10.796,0-15.898,8.403-15.898,18.77s5.914,18.771,15.898,18.771h50.169
		c9.985,0,15.899-8.404,15.899-18.771S5808.93,2938.818,5798.134,2938.818z M5733.733,2961.442c0-0.159,0.129-0.288,0.288-0.288
		s0.287,0.129,0.287,0.288s-0.128,0.288-0.287,0.288S5733.733,2961.602,5733.733,2961.442z M5734.216,2963.088
		c-0.159,0-0.288-0.13-0.288-0.289c0-0.158,0.129-0.287,0.288-0.287s0.288,0.129,0.288,0.287
		C5734.504,2962.958,5734.375,2963.088,5734.216,2963.088z M5734.969,2961.442c0-0.159,0.13-0.288,0.289-0.288
		s0.288,0.129,0.288,0.288s-0.129,0.288-0.288,0.288S5734.969,2961.602,5734.969,2961.442z M5735.462,2963.088
		c-0.159,0-0.288-0.13-0.288-0.289c0-0.158,0.129-0.287,0.288-0.287s0.287,0.129,0.287,0.287
		C5735.749,2962.958,5735.621,2963.088,5735.462,2963.088z M5736.199,2961.442c0-0.159,0.129-0.288,0.288-0.288
		s0.288,0.129,0.288,0.288s-0.129,0.288-0.288,0.288S5736.199,2961.602,5736.199,2961.442z M5736.698,2963.088
		c-0.16,0-0.289-0.13-0.289-0.289c0-0.158,0.129-0.287,0.289-0.287c0.158,0,0.287,0.129,0.287,0.287
		C5736.985,2962.958,5736.856,2963.088,5736.698,2963.088z M5738.652,2956.92l-0.002-0.004c-2.572-0.486-4.518-2.742-4.518-5.456
		c0-3.069,2.487-5.557,5.557-5.557c3.067,0,5.557,2.487,5.557,5.557c0,1.787-0.848,3.372-2.157,4.388l-0.002,0.007
		c0,0-0.675,0.759,0,1.867c0.001,0.001,0.002,0.001,0.002,0.001c1.589,0.478,2.747,1.95,2.747,3.693
		c0,2.131-1.727,3.857-3.856,3.857c-2.131,0-3.857-1.727-3.857-3.857c0-0.987,0.375-1.885,0.984-2.567l0.145-0.161
		C5739.251,2958.688,5739.632,2957.908,5738.652,2956.92z M5741.064,2967.216c1.562,0,2.828,0.674,2.828,1.504
		s-1.267,1.503-2.828,1.503s-2.828-0.673-2.828-1.503S5739.503,2967.216,5741.064,2967.216z M5738.366,2972.475
		c0.214,0.129,2.057,0.044,3.939,0.172c1.883,0.129,3.131,1.843,3.131,1.843c0.399,0.52,0.857,0.985,0.857,0.985
		C5742.33,2975.625,5738.366,2972.475,5738.366,2972.475z M5745.437,2940.36c0,0-1.248,1.715-3.131,1.844
		c-1.883,0.128-3.726,0.043-3.939,0.171c0,0,3.964-3.15,7.928-3C5746.294,2939.375,5745.836,2939.842,5745.437,2940.36z
		 M5797.661,2969.833h-49.253v-27.814h49.253V2969.833z M5811.717,2951.46c0,2.714-1.945,4.97-4.518,5.456l-0.003,0.004
		c-0.979,0.988-0.597,1.768-0.597,1.768l0.143,0.161c0.61,0.683,0.984,1.58,0.984,2.567c0,2.131-1.726,3.857-3.856,3.857
		c-2.13,0-3.856-1.727-3.856-3.857c0-1.743,1.157-3.216,2.746-3.692l0.002-0.002c0.675-1.108,0-1.867,0-1.867l-0.002-0.007
		c-1.309-1.016-2.156-2.601-2.156-4.388c0-3.069,2.487-5.557,5.557-5.557C5809.229,2945.903,5811.717,2948.391,5811.717,2951.46z
		 M5804.62,2968.772c0,0.586-0.87,1.061-1.944,1.061c-1.075,0-1.945-0.475-1.945-1.061c0-0.585,0.87-1.06,1.945-1.06
		C5803.75,2967.713,5804.62,2968.188,5804.62,2968.772z M5801.061,2945.903c0-0.489,0.396-0.886,0.886-0.886
		c0.489,0,0.886,0.396,0.886,0.886c0,0.488-0.396,0.886-0.886,0.886C5801.456,2946.789,5801.061,2946.392,5801.061,2945.903z
		 M5807.763,2942.375c-0.215-0.128-2.058-0.043-3.94-0.171c-1.883-0.129-3.131-1.844-3.131-1.844
		c-0.399-0.519-0.857-0.985-0.857-0.985C5803.799,2939.225,5807.763,2942.375,5807.763,2942.375z M5799.834,2975.475
		c0,0,0.458-0.466,0.857-0.985c0,0,1.248-1.714,3.131-1.843c1.883-0.128,3.726-0.043,3.94-0.172
		C5807.763,2972.475,5803.799,2975.625,5799.834,2975.475z M5807.129,2969.833c-1.074,0-1.945-0.475-1.945-1.061
		c0-0.585,0.871-1.06,1.945-1.06s1.944,0.475,1.944,1.06C5809.073,2969.358,5808.203,2969.833,5807.129,2969.833z
		 M5809.151,2963.088c-0.159,0-0.287-0.13-0.287-0.289c0-0.158,0.128-0.287,0.287-0.287s0.289,0.129,0.289,0.287
		C5809.44,2962.958,5809.311,2963.088,5809.151,2963.088z M5809.361,2961.73c-0.158,0-0.288-0.129-0.288-0.288
		s0.13-0.288,0.288-0.288c0.16,0,0.288,0.129,0.288,0.288S5809.521,2961.73,5809.361,2961.73z M5810.387,2963.088
		c-0.158,0-0.287-0.13-0.287-0.289c0-0.158,0.129-0.287,0.287-0.287c0.16,0,0.289,0.129,0.289,0.287
		C5810.676,2962.958,5810.547,2963.088,5810.387,2963.088z M5810.592,2961.73c-0.159,0-0.287-0.129-0.287-0.288
		s0.128-0.288,0.287-0.288s0.288,0.129,0.288,0.288S5810.751,2961.73,5810.592,2961.73z M5811.634,2963.088
		c-0.159,0-0.287-0.13-0.287-0.289c0-0.158,0.128-0.287,0.287-0.287s0.288,0.129,0.288,0.287
		C5811.922,2962.958,5811.793,2963.088,5811.634,2963.088z M5811.828,2961.73c-0.159,0-0.288-0.129-0.288-0.288
		s0.129-0.288,0.288-0.288c0.158,0,0.287,0.129,0.287,0.288S5811.986,2961.73,5811.828,2961.73z"/>
	<circle cx="5801.932" cy="2945.89" r="0.214"/>
	<circle cx="5806.232" cy="2948.074" r="1.628"/>
	<circle cx="5806.16" cy="2955.055" r="1.628"/>
	<circle cx="5802.646" cy="2951.46" r="1.628"/>
	<circle cx="5809.66" cy="2951.46" r="1.628"/>
	<path d="M5803.87,2958.274c-1.735,0-3.144,1.406-3.144,3.142c0,1.736,1.408,3.143,3.144,3.143s3.143-1.406,3.143-3.143
		C5807.013,2959.681,5805.605,2958.274,5803.87,2958.274z M5803.869,2964.146c-1.507,0-2.729-1.222-2.729-2.729
		c0-1.508,1.222-2.729,2.729-2.729c1.508,0,2.73,1.222,2.73,2.729C5806.6,2962.924,5805.377,2964.146,5803.869,2964.146z"/>
	<ellipse cx="5802.676" cy="2968.772" rx="1.574" ry="0.782"/>
	<ellipse cx="5807.129" cy="2968.772" rx="1.575" ry="0.782"/>
	<path d="M5741.979,2964.559c1.735,0,3.143-1.406,3.143-3.143c0-1.735-1.407-3.142-3.143-3.142c-1.736,0-3.143,1.406-3.143,3.142
		C5738.837,2963.152,5740.243,2964.559,5741.979,2964.559z M5741.979,2958.688c1.507,0,2.729,1.222,2.729,2.729
		c0,1.507-1.222,2.729-2.729,2.729c-1.508,0-2.729-1.222-2.729-2.729C5739.251,2959.909,5740.472,2958.688,5741.979,2958.688z"/>
	<path d="M5741.494,2955.73v-2.249l-1.607-1.543h-0.32l-1.586,1.543v2.249C5737.98,2955.73,5739.631,2956.803,5741.494,2955.73z"/>
	<path d="M5739.909,2951.07l1.585-1.542v-2.25c0,0-1.649-1.071-3.514,0v2.25l1.607,1.542H5739.909z"/>
	<path d="M5739.303,2951.333l-1.542-1.586h-2.25c0,0-1.07,1.65,0,3.515h2.25l1.542-1.607V2951.333z"/>
	<path d="M5740.171,2951.676l1.543,1.586h2.25c0,0,1.071-1.65,0-3.515h-2.25l-1.543,1.607V2951.676z"/>
</g>
<g>
	<path d="M5715.382,2938.818h-50.168c-10.797,0-15.898,8.403-15.898,18.77s5.913,18.771,15.898,18.771h50.168
		c9.986,0,15.9-8.404,15.9-18.771S5726.179,2938.818,5715.382,2938.818z M5650.981,2961.442c0-0.159,0.13-0.288,0.289-0.288
		c0.158,0,0.287,0.129,0.287,0.288s-0.129,0.288-0.287,0.288C5651.111,2961.73,5650.981,2961.602,5650.981,2961.442z
		 M5651.464,2963.088c-0.159,0-0.289-0.13-0.289-0.289c0-0.158,0.13-0.287,0.289-0.287s0.288,0.129,0.288,0.287
		C5651.752,2962.958,5651.623,2963.088,5651.464,2963.088z M5652.217,2961.442c0-0.159,0.13-0.288,0.289-0.288
		s0.288,0.129,0.288,0.288s-0.129,0.288-0.288,0.288S5652.217,2961.602,5652.217,2961.442z M5652.711,2963.088
		c-0.16,0-0.289-0.13-0.289-0.289c0-0.158,0.129-0.287,0.289-0.287c0.158,0,0.287,0.129,0.287,0.287
		C5652.998,2962.958,5652.869,2963.088,5652.711,2963.088z M5653.448,2961.442c0-0.159,0.129-0.288,0.288-0.288
		c0.158,0,0.287,0.129,0.287,0.288s-0.129,0.288-0.287,0.288C5653.577,2961.73,5653.448,2961.602,5653.448,2961.442z
		 M5653.946,2963.088c-0.16,0-0.289-0.13-0.289-0.289c0-0.158,0.129-0.287,0.289-0.287c0.158,0,0.287,0.129,0.287,0.287
		C5654.233,2962.958,5654.104,2963.088,5653.946,2963.088z M5655.901,2956.92l-0.002-0.004c-2.572-0.486-4.519-2.742-4.519-5.456
		c0-3.069,2.487-5.557,5.557-5.557c3.068,0,5.557,2.487,5.557,5.557c0,1.787-0.847,3.372-2.157,4.388l-0.001,0.007
		c0,0-0.676,0.759,0,1.867l0.001,0.002c1.589,0.477,2.747,1.949,2.747,3.692c0,2.131-1.727,3.857-3.856,3.857
		s-3.856-1.727-3.856-3.857c0-0.987,0.374-1.885,0.984-2.567l0.144-0.161C5656.499,2958.688,5656.88,2957.908,5655.901,2956.92z
		 M5658.312,2967.216c1.562,0,2.829,0.674,2.829,1.504s-1.267,1.503-2.829,1.503c-1.562,0-2.827-0.673-2.827-1.503
		S5656.751,2967.216,5658.312,2967.216z M5655.614,2972.475c0.214,0.129,2.057,0.044,3.939,0.172
		c1.883,0.129,3.132,1.843,3.132,1.843c0.398,0.52,0.856,0.985,0.856,0.985C5659.578,2975.625,5655.614,2972.475,5655.614,2972.475z
		 M5662.686,2940.36c0,0-1.249,1.715-3.132,1.844c-1.883,0.128-3.726,0.043-3.939,0.171c0,0,3.964-3.15,7.928-3
		C5663.542,2939.375,5663.084,2939.842,5662.686,2940.36z M5714.909,2969.833h-49.252v-27.814h49.252V2969.833z M5728.965,2951.46
		c0,2.714-1.945,4.97-4.517,5.456c0,0-0.003,0.002-0.004,0.004c-0.979,0.988-0.597,1.768-0.597,1.768l0.144,0.161
		c0.609,0.683,0.983,1.58,0.983,2.567c0,2.131-1.726,3.857-3.856,3.857c-2.13,0-3.856-1.727-3.856-3.857
		c0-1.743,1.158-3.216,2.747-3.692l0.001-0.002c0.675-1.108,0-1.867,0-1.867l-0.001-0.007c-1.311-1.016-2.156-2.601-2.156-4.388
		c0-3.069,2.487-5.557,5.557-5.557C5726.478,2945.903,5728.965,2948.391,5728.965,2951.46z M5721.869,2968.772
		c0,0.586-0.872,1.061-1.945,1.061c-1.074,0-1.945-0.475-1.945-1.061c0-0.585,0.871-1.06,1.945-1.06
		C5720.997,2967.713,5721.869,2968.188,5721.869,2968.772z M5718.309,2945.903c0-0.489,0.396-0.886,0.886-0.886
		s0.886,0.396,0.886,0.886c0,0.488-0.396,0.886-0.886,0.886S5718.309,2946.392,5718.309,2945.903z M5725.011,2942.375
		c-0.214-0.128-2.058-0.043-3.94-0.171c-1.883-0.129-3.131-1.844-3.131-1.844c-0.398-0.519-0.857-0.985-0.857-0.985
		C5721.047,2939.225,5725.011,2942.375,5725.011,2942.375z M5717.082,2975.475c0,0,0.459-0.466,0.857-0.985
		c0,0,1.248-1.714,3.131-1.843c1.883-0.128,3.727-0.043,3.94-0.172C5725.011,2972.475,5721.047,2975.625,5717.082,2975.475z
		 M5724.376,2969.833c-1.073,0-1.943-0.475-1.943-1.061c0-0.585,0.87-1.06,1.943-1.06c1.076,0,1.946,0.475,1.946,1.06
		C5726.322,2969.358,5725.452,2969.833,5724.376,2969.833z M5726.4,2963.088c-0.159,0-0.287-0.13-0.287-0.289
		c0-0.158,0.128-0.287,0.287-0.287s0.288,0.129,0.288,0.287C5726.688,2962.958,5726.56,2963.088,5726.4,2963.088z M5726.609,2961.73
		c-0.158,0-0.287-0.129-0.287-0.288s0.129-0.288,0.287-0.288c0.16,0,0.29,0.129,0.29,0.288S5726.77,2961.73,5726.609,2961.73z
		 M5727.636,2963.088c-0.159,0-0.288-0.13-0.288-0.289c0-0.158,0.129-0.287,0.288-0.287s0.289,0.129,0.289,0.287
		C5727.925,2962.958,5727.795,2963.088,5727.636,2963.088z M5727.841,2961.73c-0.16,0-0.288-0.129-0.288-0.288
		s0.128-0.288,0.288-0.288c0.158,0,0.288,0.129,0.288,0.288S5727.999,2961.73,5727.841,2961.73z M5728.883,2963.088
		c-0.159,0-0.288-0.13-0.288-0.289c0-0.158,0.129-0.287,0.288-0.287c0.158,0,0.288,0.129,0.288,0.287
		C5729.171,2962.958,5729.041,2963.088,5728.883,2963.088z M5729.076,2961.73c-0.158,0-0.288-0.129-0.288-0.288
		s0.13-0.288,0.288-0.288c0.159,0,0.288,0.129,0.288,0.288S5729.235,2961.73,5729.076,2961.73z"/>
	<circle cx="5719.181" cy="2945.89" r="0.214"/>
	<circle cx="5723.48" cy="2948.074" r="1.629"/>
	<circle cx="5723.409" cy="2955.055" r="1.628"/>
	<circle cx="5719.894" cy="2951.46" r="1.628"/>
	<circle cx="5726.908" cy="2951.46" r="1.628"/>
	<path d="M5721.118,2958.274c-1.735,0-3.143,1.406-3.143,3.142c0,1.736,1.407,3.143,3.143,3.143c1.736,0,3.144-1.406,3.144-3.143
		C5724.262,2959.681,5722.854,2958.274,5721.118,2958.274z M5721.117,2964.146c-1.506,0-2.729-1.222-2.729-2.729
		c0-1.508,1.223-2.729,2.729-2.729c1.509,0,2.73,1.222,2.73,2.729C5723.848,2962.924,5722.626,2964.146,5721.117,2964.146z"/>
	<ellipse cx="5719.924" cy="2968.772" rx="1.574" ry="0.782"/>
	<ellipse cx="5724.376" cy="2968.772" rx="1.574" ry="0.782"/>
	<path d="M5659.228,2964.559c1.735,0,3.144-1.406,3.144-3.143c0-1.735-1.408-3.142-3.144-3.142s-3.143,1.406-3.143,3.142
		C5656.085,2963.152,5657.492,2964.559,5659.228,2964.559z M5659.228,2958.688c1.507,0,2.729,1.222,2.729,2.729
		c0,1.507-1.222,2.729-2.729,2.729s-2.729-1.222-2.729-2.729C5656.499,2959.909,5657.721,2958.688,5659.228,2958.688z"/>
	<path d="M5658.742,2955.73v-2.249l-1.606-1.543h-0.321l-1.586,1.543v2.249C5655.229,2955.73,5656.879,2956.803,5658.742,2955.73z"
		/>
	<path d="M5657.157,2951.07l1.585-1.542v-2.25c0,0-1.649-1.071-3.514,0v2.25l1.607,1.542H5657.157z"/>
	<path d="M5656.552,2951.333l-1.542-1.586h-2.25c0,0-1.071,1.65,0,3.515h2.25l1.542-1.607V2951.333z"/>
	<path d="M5657.42,2951.676l1.542,1.586h2.25c0,0,1.072-1.65,0-3.515h-2.25l-1.542,1.607V2951.676z"/>
</g>
<path d="M5912.227,3594.16h-22.306c-1.584,0-2.881,1.296-2.881,2.88v45.009c0,1.585,1.297,2.881,2.881,2.881h22.306
	c1.584,0,2.881-1.296,2.881-2.881v-45.009C5915.107,3595.456,5913.811,3594.16,5912.227,3594.16z M5899.408,3595.824h3.331
	c0.249,0,0.449,0.201,0.449,0.45c0,0.248-0.2,0.449-0.449,0.449h-3.331c-0.249,0-0.45-0.201-0.45-0.449
	C5898.958,3596.025,5899.159,3595.824,5899.408,3595.824z M5896.186,3641.803h-1.891c-0.249,0-0.45-0.201-0.45-0.45
	c0-0.248,0.201-0.449,0.45-0.449h1.891c0.248,0,0.449,0.201,0.449,0.449C5896.635,3641.602,5896.434,3641.803,5896.186,3641.803z
	 M5901.073,3643.127c-0.979,0-1.773-0.794-1.773-1.774c0-0.979,0.794-1.772,1.773-1.772c0.98,0,1.774,0.793,1.774,1.772
	C5902.848,3642.333,5902.054,3643.127,5901.073,3643.127z M5907.709,3641.803h-1.891c-0.248,0-0.45-0.201-0.45-0.45
	c0-0.248,0.202-0.449,0.45-0.449h1.891c0.249,0,0.449,0.201,0.449,0.449C5908.158,3641.602,5907.958,3641.803,5907.709,3641.803z
	 M5912.846,3637.974h-23.543v-39.577h23.543V3637.974z"/>
<path d="M5912.227,3542.61h-22.306c-1.584,0-2.881,1.296-2.881,2.88v45.01c0,1.584,1.297,2.88,2.881,2.88h22.306
	c1.584,0,2.881-1.296,2.881-2.88v-45.01C5915.107,3543.906,5913.811,3542.61,5912.227,3542.61z M5899.408,3544.275h3.331
	c0.249,0,0.449,0.2,0.449,0.45c0,0.248-0.2,0.449-0.449,0.449h-3.331c-0.249,0-0.45-0.201-0.45-0.449
	C5898.958,3544.476,5899.159,3544.275,5899.408,3544.275z M5896.186,3590.254h-1.891c-0.249,0-0.45-0.202-0.45-0.45
	s0.201-0.449,0.45-0.449h1.891c0.248,0,0.449,0.201,0.449,0.449S5896.434,3590.254,5896.186,3590.254z M5901.073,3591.578
	c-0.979,0-1.773-0.795-1.773-1.774s0.794-1.773,1.773-1.773c0.98,0,1.774,0.794,1.774,1.773S5902.054,3591.578,5901.073,3591.578z
	 M5907.709,3590.254h-1.891c-0.248,0-0.45-0.202-0.45-0.45s0.202-0.449,0.45-0.449h1.891c0.249,0,0.449,0.201,0.449,0.449
	S5907.958,3590.254,5907.709,3590.254z M5912.846,3586.424h-23.543v-39.576h23.543V3586.424z"/>
<path d="M5912.227,3491.062h-22.306c-1.584,0-2.881,1.296-2.881,2.88v45.009c0,1.585,1.297,2.881,2.881,2.881h22.306
	c1.584,0,2.881-1.296,2.881-2.881v-45.009C5915.107,3492.357,5913.811,3491.062,5912.227,3491.062z M5899.408,3492.726h3.331
	c0.249,0,0.449,0.201,0.449,0.45c0,0.248-0.2,0.449-0.449,0.449h-3.331c-0.249,0-0.45-0.201-0.45-0.449
	C5898.958,3492.927,5899.159,3492.726,5899.408,3492.726z M5896.186,3538.704h-1.891c-0.249,0-0.45-0.201-0.45-0.45
	c0-0.248,0.201-0.449,0.45-0.449h1.891c0.248,0,0.449,0.201,0.449,0.449C5896.635,3538.503,5896.434,3538.704,5896.186,3538.704z
	 M5901.073,3540.028c-0.979,0-1.773-0.794-1.773-1.774c0-0.979,0.794-1.772,1.773-1.772c0.98,0,1.774,0.793,1.774,1.772
	C5902.848,3539.234,5902.054,3540.028,5901.073,3540.028z M5907.709,3538.704h-1.891c-0.248,0-0.45-0.201-0.45-0.45
	c0-0.248,0.202-0.449,0.45-0.449h1.891c0.249,0,0.449,0.201,0.449,0.449C5908.158,3538.503,5907.958,3538.704,5907.709,3538.704z
	 M5912.846,3534.875h-23.543v-39.577h23.543V3534.875z"/>
<g>
	<path d="M5969.537,2792.407v14.036c0.099-0.009,0.2-0.015,0.302-0.015c1.928,0,3.49,1.562,3.49,3.489h23.712h0.737
		c0.465-0.038,0.909-0.237,1.711-1.102c1.393-1.499,1.97-3.367,4.107-3.306l0,0c2.137-0.062,2.713,1.807,4.105,3.306
		c0.804,0.864,1.246,1.063,1.712,1.102h0.737h23.713c0-1.927,1.562-3.489,3.488-3.489c0.104,0,0.203,0.006,0.304,0.015v-14.036
		H5969.537z M5993.075,2807.86c-0.229,0.058-0.469,0.09-0.714,0.09h-13.679c-1.662,0-3.024-1.36-3.024-3.023v-7.708
		c0-1.663,1.362-3.022,3.024-3.022h13.679c0.264,0,0.52,0.037,0.763,0.102c3.248,0.549,5.723,3.373,5.723,6.777
		C5998.847,2804.496,5996.347,2807.333,5993.075,2807.86z M6031.251,2804.927c0,1.663-1.36,3.023-3.023,3.023h-13.679
		c-0.247,0-0.485-0.032-0.715-0.09c-3.272-0.527-5.771-3.364-5.771-6.785c0-3.404,2.473-6.229,5.72-6.777
		c0.246-0.064,0.501-0.102,0.766-0.102h13.679c1.663,0,3.023,1.359,3.023,3.022V2804.927z"/>
	<path d="M6000.318,2783.502c-0.579-1.375-1.833-0.909-2.829-0.606l-27.952,9.512h18.559l10.293-5.728
		c0.95-0.442,1.096,1.126,1.188,3.312c0.102,2.354,1.477,1.686,1.434,0C6001.093,2787.221,6001.023,2785.176,6000.318,2783.502z"/>
</g>
<path d="M6303.365,3069.163c-14.624,0-26.521-11.896-26.521-26.521c0-14.623,11.896-26.52,26.521-26.52
	c14.623,0,26.52,11.896,26.52,26.52C6329.885,3057.267,6317.988,3069.163,6303.365,3069.163z"/>
<path d="M5901.073,3403.122c-14.623,0-26.52-11.896-26.52-26.52c0-14.624,11.896-26.521,26.52-26.521
	c14.624,0,26.521,11.896,26.521,26.521C5927.594,3391.226,5915.697,3403.122,5901.073,3403.122z"/>
<g>
	<path d="M6304.145,2984.923c-31.396,0-56.939,25.543-56.939,56.94c0,31.396,25.543,56.939,56.939,56.939s56.94-25.543,56.94-56.939
		C6361.085,3010.466,6335.541,2984.923,6304.145,2984.923z M6304.145,3091.783c-27.569,0-49.92-22.351-49.92-49.92
		c0-27.57,22.351-49.921,49.92-49.921c27.57,0,49.92,22.351,49.92,49.921C6354.064,3069.433,6331.715,3091.783,6304.145,3091.783z"
		/>
	<path d="M6235.505,2928.184v185.641h137.28v-185.641H6235.505z M6342.088,2940.669c10.905,0,19.776,8.872,19.776,19.777
		c0,10.906-8.871,19.777-19.776,19.777c-10.906,0-19.777-8.871-19.777-19.777
		C6322.311,2949.541,6331.182,2940.669,6342.088,2940.669z M6266.202,2940.669c10.905,0,19.777,8.872,19.777,19.777
		c0,10.906-8.872,19.777-19.777,19.777s-19.777-8.871-19.777-19.777C6246.425,2949.541,6255.297,2940.669,6266.202,2940.669z
		 M6304.145,3100.363c-32.257,0-58.5-26.243-58.5-58.5c0-32.258,26.243-58.5,58.5-58.5c32.258,0,58.5,26.242,58.5,58.5
		C6362.645,3074.12,6336.402,3100.363,6304.145,3100.363z"/>
</g>
<g>
	<path d="M5901.073,3433.542c31.396,0,56.94-25.543,56.94-56.939s-25.544-56.94-56.94-56.94s-56.939,25.544-56.939,56.94
		S5869.677,3433.542,5901.073,3433.542z M5901.073,3326.683c27.57,0,49.921,22.351,49.921,49.92s-22.351,49.92-49.921,49.92
		c-27.569,0-49.92-22.351-49.92-49.92S5873.504,3326.683,5901.073,3326.683z"/>
	<path d="M5969.714,3490.281v-185.64h-137.28v185.64H5969.714z M5863.131,3477.796c-10.904,0-19.777-8.872-19.777-19.777
		s8.873-19.777,19.777-19.777c10.906,0,19.777,8.872,19.777,19.777S5874.037,3477.796,5863.131,3477.796z M5939.017,3477.796
		c-10.905,0-19.777-8.872-19.777-19.777s8.872-19.777,19.777-19.777c10.906,0,19.777,8.872,19.777,19.777
		S5949.923,3477.796,5939.017,3477.796z M5901.073,3318.103c32.258,0,58.5,26.242,58.5,58.5c0,32.257-26.242,58.5-58.5,58.5
		c-32.257,0-58.5-26.243-58.5-58.5C5842.573,3344.345,5868.816,3318.103,5901.073,3318.103z"/>
</g>
<path d="M5968.136,3077.373c0-1.74-0.721-3.223-1.737-3.831v-23.169h-7.762v-11.699h-363.596v11.699h-7.762v252.707h379.119
	v-212.516c1.017-0.608,1.737-2.091,1.737-3.832c0-1.739-0.721-3.222-1.737-3.83v-1.697
	C5967.415,3080.597,5968.136,3079.114,5968.136,3077.373z M5605.388,3103.63c0,0.646-0.522,1.17-1.17,1.17h-8.58
	c-0.645,0-1.17-0.524-1.17-1.17s0.525-1.17,1.17-1.17h8.58C5604.865,3102.46,5605.388,3102.984,5605.388,3103.63z M5605.388,3109.09
	c0,0.646-0.522,1.17-1.17,1.17h-8.58c-0.645,0-1.17-0.524-1.17-1.17s0.525-1.17,1.17-1.17h8.58
	C5604.865,3107.92,5605.388,3108.444,5605.388,3109.09z M5605.388,3114.55c0,0.646-0.522,1.17-1.17,1.17h-8.58
	c-0.645,0-1.17-0.524-1.17-1.17s0.525-1.17,1.17-1.17h8.58C5604.865,3113.38,5605.388,3113.904,5605.388,3114.55z
	 M5782.079,3071.909c0,2.895-2.348,5.24-5.24,5.24c-2.895,0-5.24-2.346-5.24-5.24c0-2.894,2.346-5.239,5.24-5.239
	C5779.731,3066.67,5782.079,3069.016,5782.079,3071.909z M5928.464,3076.362c0,0.861-0.698,1.561-1.561,1.561
	c-0.86,0-1.56-0.699-1.56-1.561c0-0.862,0.699-1.56,1.56-1.56C5927.766,3074.803,5928.464,3075.5,5928.464,3076.362z
	 M5934.703,3076.362c0,0.861-0.697,1.561-1.56,1.561c-0.86,0-1.56-0.699-1.56-1.561c0-0.862,0.699-1.56,1.56-1.56
	C5934.006,3074.803,5934.703,3075.5,5934.703,3076.362z M5942.504,3076.362c0,1.292-1.049,2.34-2.341,2.34
	c-1.291,0-2.34-1.048-2.34-2.34s1.049-2.34,2.34-2.34C5941.455,3074.022,5942.504,3075.07,5942.504,3076.362z M5942.513,3285.53
	h-331.348v-200.059h331.348V3285.53z M5960.549,3103.63c0,0.646-0.524,1.17-1.17,1.17h-8.58c-0.646,0-1.17-0.524-1.17-1.17
	s0.523-1.17,1.17-1.17h8.58C5960.024,3102.46,5960.549,3102.984,5960.549,3103.63z M5960.549,3109.09c0,0.646-0.524,1.17-1.17,1.17
	h-8.58c-0.646,0-1.17-0.524-1.17-1.17s0.523-1.17,1.17-1.17h8.58C5960.024,3107.92,5960.549,3108.444,5960.549,3109.09z
	 M5960.549,3114.55c0,0.646-0.524,1.17-1.17,1.17h-8.58c-0.646,0-1.17-0.524-1.17-1.17s0.523-1.17,1.17-1.17h8.58
	C5960.024,3113.38,5960.549,3113.904,5960.549,3114.55z"/>
<path d="M6191.413,2811.654h-1.696c-0.609-1.016-2.092-1.736-3.832-1.736c-1.741,0-3.224,0.721-3.831,1.736h-212.517v379.12h252.708
	v-7.762h11.699v-363.596h-11.699v-7.763h-23.169c-0.609-1.016-2.092-1.736-3.831-1.736
	C6193.504,2809.918,6192.021,2810.639,6191.413,2811.654z M6170.158,3173.834v8.58c0,0.646-0.523,1.17-1.17,1.17
	c-0.646,0-1.17-0.523-1.17-1.17v-8.58c0-0.646,0.524-1.17,1.17-1.17C6169.635,3172.664,6170.158,3173.188,6170.158,3173.834z
	 M6164.698,3173.834v8.58c0,0.646-0.523,1.17-1.17,1.17c-0.646,0-1.17-0.523-1.17-1.17v-8.58c0-0.646,0.524-1.17,1.17-1.17
	C6164.175,3172.664,6164.698,3173.188,6164.698,3173.834z M6159.238,3173.834v8.58c0,0.646-0.523,1.17-1.17,1.17
	c-0.646,0-1.17-0.523-1.17-1.17v-8.58c0-0.646,0.524-1.17,1.17-1.17C6158.715,3172.664,6159.238,3173.188,6159.238,3173.834z
	 M6205.948,3001.215c0,2.894-2.346,5.239-5.24,5.239s-5.239-2.346-5.239-5.239c0-2.895,2.345-5.24,5.239-5.24
	S6205.948,2998.32,6205.948,3001.215z M6197.814,2851.149c0,0.861-0.697,1.561-1.56,1.561c-0.86,0-1.56-0.699-1.56-1.561
	c0-0.862,0.699-1.56,1.56-1.56C6197.117,2849.59,6197.814,2850.287,6197.814,2851.149z M6197.814,2844.91
	c0,0.86-0.697,1.56-1.56,1.56c-0.86,0-1.56-0.699-1.56-1.56c0-0.862,0.699-1.561,1.56-1.561
	C6197.117,2843.35,6197.814,2844.048,6197.814,2844.91z M6198.595,2837.89c0,1.292-1.047,2.34-2.34,2.34
	c-1.292,0-2.34-1.048-2.34-2.34s1.048-2.34,2.34-2.34C6197.548,2835.55,6198.595,2836.598,6198.595,2837.89z M6187.146,2835.541
	v331.348h-200.06v-331.348H6187.146z M6170.158,2818.675v8.58c0,0.646-0.523,1.17-1.17,1.17c-0.646,0-1.17-0.524-1.17-1.17v-8.58
	c0-0.646,0.524-1.17,1.17-1.17C6169.635,2817.505,6170.158,2818.028,6170.158,2818.675z M6164.698,2818.675v8.58
	c0,0.646-0.523,1.17-1.17,1.17c-0.646,0-1.17-0.524-1.17-1.17v-8.58c0-0.646,0.524-1.17,1.17-1.17
	C6164.175,2817.505,6164.698,2818.028,6164.698,2818.675z M6159.238,2818.675v8.58c0,0.646-0.523,1.17-1.17,1.17
	c-0.646,0-1.17-0.524-1.17-1.17v-8.58c0-0.646,0.524-1.17,1.17-1.17C6158.715,2817.505,6159.238,2818.028,6159.238,2818.675z"/>
<path d="M5971.877,3417.864c0,1.74,0.721,3.223,1.736,3.831v23.169h7.763v11.699h363.596v-11.699h7.762v-252.707h-379.12v212.516
	c-1.016,0.608-1.736,2.091-1.736,3.832c0,1.739,0.721,3.222,1.736,3.83v1.697
	C5972.598,3414.642,5971.877,3416.123,5971.877,3417.864z M6334.624,3391.607c0-0.646,0.524-1.17,1.17-1.17h8.58
	c0.646,0,1.17,0.524,1.17,1.17c0,0.646-0.523,1.17-1.17,1.17h-8.58C6335.148,3392.777,6334.624,3392.254,6334.624,3391.607z
	 M6334.624,3386.147c0-0.646,0.524-1.17,1.17-1.17h8.58c0.646,0,1.17,0.524,1.17,1.17s-0.523,1.17-1.17,1.17h-8.58
	C6335.148,3387.317,6334.624,3386.793,6334.624,3386.147z M6334.624,3380.688c0-0.646,0.524-1.17,1.17-1.17h8.58
	c0.646,0,1.17,0.524,1.17,1.17s-0.523,1.17-1.17,1.17h-8.58C6335.148,3381.857,6334.624,3381.333,6334.624,3380.688z
	 M6157.935,3423.328c0-2.895,2.346-5.24,5.239-5.24c2.895,0,5.24,2.346,5.24,5.24c0,2.894-2.346,5.239-5.24,5.239
	C6160.28,3428.567,6157.935,3426.222,6157.935,3423.328z M6011.549,3418.875c0-0.861,0.697-1.561,1.56-1.561
	c0.861,0,1.561,0.699,1.561,1.561c0,0.862-0.699,1.56-1.561,1.56C6012.246,3420.435,6011.549,3419.737,6011.549,3418.875z
	 M6005.309,3418.875c0-0.861,0.698-1.561,1.561-1.561c0.86,0,1.56,0.699,1.56,1.561c0,0.862-0.699,1.56-1.56,1.56
	C6006.007,3420.435,6005.309,3419.737,6005.309,3418.875z M5997.509,3418.875c0-1.292,1.048-2.34,2.34-2.34s2.34,1.048,2.34,2.34
	s-1.048,2.34-2.34,2.34S5997.509,3420.167,5997.509,3418.875z M5997.5,3209.707h331.348v200.06H5997.5V3209.707z M5979.464,3391.607
	c0-0.646,0.523-1.17,1.17-1.17h8.58c0.646,0,1.17,0.524,1.17,1.17c0,0.646-0.524,1.17-1.17,1.17h-8.58
	C5979.987,3392.777,5979.464,3392.254,5979.464,3391.607z M5979.464,3386.147c0-0.646,0.523-1.17,1.17-1.17h8.58
	c0.646,0,1.17,0.524,1.17,1.17s-0.524,1.17-1.17,1.17h-8.58C5979.987,3387.317,5979.464,3386.793,5979.464,3386.147z
	 M5979.464,3380.688c0-0.646,0.523-1.17,1.17-1.17h8.58c0.646,0,1.17,0.524,1.17,1.17s-0.524,1.17-1.17,1.17h-8.58
	C5979.987,3381.857,5979.464,3381.333,5979.464,3380.688z"/>
<path d="M6006.875,2783.502c0.579-1.375,1.833-0.909,2.829-0.606l27.952,9.512h-18.559l-10.293-5.728
	c-0.95-0.442-1.096,1.126-1.188,3.312c-0.102,2.354-1.477,1.686-1.434,0C6006.101,2787.221,6006.17,2785.176,6006.875,2783.502z"/>
<g>
	<g>
		<path d="M6371.804,3303.861h-14.036c0.009,0.099,0.015,0.201,0.015,0.302c0,1.929-1.562,3.49-3.489,3.49v23.712v0.737
			c0.038,0.465,0.238,0.91,1.102,1.711c1.499,1.393,3.368,1.97,3.306,4.107l0,0c0.062,2.138-1.807,2.713-3.306,4.105
			c-0.863,0.805-1.063,1.246-1.102,1.713v0.737v23.712c1.928,0,3.489,1.563,3.489,3.488c0,0.104-0.006,0.203-0.015,0.304h14.036
			V3303.861z M6356.351,3327.4c-0.057-0.23-0.089-0.47-0.089-0.715v-13.679c0-1.662,1.359-3.024,3.022-3.024h7.708
			c1.663,0,3.022,1.362,3.022,3.024v13.679c0,0.264-0.037,0.52-0.102,0.763c-0.549,3.248-3.373,5.723-6.777,5.723
			C6359.715,3333.171,6356.879,3330.672,6356.351,3327.4z M6359.284,3365.576c-1.663,0-3.022-1.36-3.022-3.024v-13.679
			c0-0.247,0.032-0.484,0.089-0.715c0.528-3.272,3.364-5.771,6.785-5.771c3.404,0,6.229,2.473,6.777,5.721
			c0.064,0.245,0.102,0.501,0.102,0.765v13.679c0,1.664-1.359,3.024-3.022,3.024H6359.284z"/>
		<path d="M6380.71,3334.643c1.374-0.579,0.908-1.833,0.606-2.829l-9.513-27.952v18.559l5.729,10.294
			c0.442,0.949-1.128,1.095-3.312,1.187c-2.354,0.103-1.685,1.477,0,1.434C6376.991,3335.418,6379.035,3335.348,6380.71,3334.643z"
			/>
	</g>
	<path d="M6380.71,3341.199c1.374,0.579,0.908,1.833,0.606,2.829l-9.513,27.952v-18.559l5.729-10.292
		c0.442-0.951-1.128-1.096-3.312-1.188c-2.354-0.101-1.685-1.477,0-1.434C6376.991,3340.426,6379.035,3340.494,6380.71,3341.199z"/>
</g>
<g>
	<g>
		<path d="M5572.877,3067.397c0,10.937-8.896,19.833-19.833,19.833c-10.936,0-19.833-8.896-19.833-19.833
			c0-10.936,8.897-19.832,19.833-19.832C5563.98,3047.565,5572.877,3056.462,5572.877,3067.397z M5533.991,3067.397
			c0,10.506,8.548,19.054,19.053,19.054c10.506,0,19.053-8.548,19.053-19.054c0-10.505-8.547-19.053-19.053-19.053
			C5542.539,3048.345,5533.991,3056.893,5533.991,3067.397z"/>
	</g>
	<g>
		<path d="M5545.042,3067.397c0,4.42,3.583,8.003,8.002,8.003c4.42,0,8.003-3.583,8.003-8.003c0-4.419-3.583-8.002-8.003-8.002
			C5548.625,3059.396,5545.042,3062.979,5545.042,3067.397z M5559.747,3067.397c0,3.696-3.007,6.703-6.703,6.703
			c-3.695,0-6.703-3.007-6.703-6.703c0-3.695,3.008-6.703,6.703-6.703C5556.74,3060.694,5559.747,3063.702,5559.747,3067.397z"/>
		<path d="M5547.121,3067.397c0,3.267,2.657,5.924,5.923,5.924c3.267,0,5.924-2.657,5.924-5.924c0-3.266-2.657-5.923-5.924-5.923
			C5549.778,3061.475,5547.121,3064.132,5547.121,3067.397z"/>
	</g>
	<g>
		<path d="M5572.877,3176.598c0,10.937-8.896,19.833-19.833,19.833c-10.936,0-19.833-8.896-19.833-19.833
			c0-10.936,8.897-19.833,19.833-19.833C5563.98,3156.765,5572.877,3165.662,5572.877,3176.598z M5533.991,3176.598
			c0,10.506,8.548,19.053,19.053,19.053c10.506,0,19.053-8.547,19.053-19.053c0-10.505-8.547-19.053-19.053-19.053
			C5542.539,3157.545,5533.991,3166.093,5533.991,3176.598z"/>
	</g>
	<g>
		<path d="M5547.121,3176.598c0,3.267,2.657,5.924,5.923,5.924c3.267,0,5.924-2.657,5.924-5.924c0-3.266-2.657-5.923-5.924-5.923
			C5549.778,3170.675,5547.121,3173.332,5547.121,3176.598z"/>
		<path d="M5545.042,3176.598c0,4.42,3.583,8.003,8.002,8.003c4.42,0,8.003-3.583,8.003-8.003c0-4.419-3.583-8.002-8.003-8.002
			C5548.625,3168.596,5545.042,3172.179,5545.042,3176.598z M5559.747,3176.598c0,3.696-3.007,6.703-6.703,6.703
			c-3.695,0-6.703-3.007-6.703-6.703c0-3.695,3.008-6.703,6.703-6.703C5556.74,3169.895,5559.747,3172.902,5559.747,3176.598z"/>
	</g>
	<rect x="5540.621" y="3099.638" width="2.32" height="44.979"/>
	<path d="M5527.61,3038.674c-3.728,0-6.777,3.052-6.777,6.779v153.352c0,3.726,3.05,6.777,6.777,6.777h57.646v-166.908H5527.61z
		 M5529.643,3096.378c1.725,0,3.123,1.396,3.123,3.121s-1.398,3.123-3.123,3.123s-3.123-1.398-3.123-3.123
		S5527.918,3096.378,5529.643,3096.378z M5529.643,3106.609c1.725,0,3.123,1.396,3.123,3.121s-1.398,3.123-3.123,3.123
		s-3.123-1.398-3.123-3.123S5527.918,3106.609,5529.643,3106.609z M5529.643,3116.84c1.725,0,3.123,1.397,3.123,3.122
		s-1.398,3.123-3.123,3.123s-3.123-1.398-3.123-3.123S5527.918,3116.84,5529.643,3116.84z M5529.643,3127.071
		c1.725,0,3.123,1.397,3.123,3.122s-1.398,3.123-3.123,3.123s-3.123-1.398-3.123-3.123S5527.918,3127.071,5529.643,3127.071z
		 M5524.573,3142.373c0-2.802,2.27-5.07,5.069-5.07c2.801,0,5.07,2.269,5.07,5.07c0,2.8-2.27,5.07-5.07,5.07
		C5526.843,3147.443,5524.573,3145.173,5524.573,3142.373z M5553.166,3200.01c-12.859,0-23.322-10.462-23.322-23.319
		c0-12.861,10.463-23.326,23.322-23.326s23.322,10.465,23.322,23.326C5576.488,3189.548,5566.025,3200.01,5553.166,3200.01z
		 M5537.735,3147.646v-51.14h26.731v51.14H5537.735z M5573.567,3107.388h-3.771v-7.75h3.771V3107.388z M5573.614,3118.253v7.749
		h-3.771v-7.749H5573.614z M5573.567,3108.945v7.75h-3.771v-7.75H5573.567z M5573.567,3127.56v7.75h-3.771v-7.75H5573.567z
		 M5573.567,3136.867v7.75h-3.771v-7.75H5573.567z M5553.166,3090.894c-12.859,0-23.322-10.462-23.322-23.319
		c0-12.861,10.463-23.326,23.322-23.326s23.322,10.465,23.322,23.326C5576.488,3080.432,5566.025,3090.894,5553.166,3090.894z"/>
	<rect x="5545.042" y="3099.638" width="16.005" height="44.979"/>
</g>
<g>
	<path d="M5808.837,3026.854v7.242c0,1.288,1.056,2.341,2.34,2.341h153.452c1.287,0,2.34-1.053,2.34-2.341v-7.242H5808.837z
		 M5955.867,3032.815h-4.295c-0.646,0-1.17-0.523-1.17-1.17c0-0.646,0.523-1.17,1.17-1.17h4.295c0.646,0,1.17,0.524,1.17,1.17
		C5957.037,3032.292,5956.514,3032.815,5955.867,3032.815z M5960.357,3032.815c-0.647,0-1.17-0.522-1.17-1.17
		c0-0.646,0.522-1.17,1.17-1.17c0.646,0,1.17,0.523,1.17,1.17C5961.527,3032.293,5961.003,3032.815,5960.357,3032.815z"/>
	<path d="M5956.519,2928.184h-137.23c-2.109,0-3.837,1.729-3.837,3.84v92.552h144.906v-92.552
		C5960.357,2929.912,5958.628,2928.184,5956.519,2928.184z M5887.905,2930.789c1.115,0,2.021,0.905,2.021,2.022
		c0,1.116-0.905,2.022-2.021,2.022c-1.117,0-2.024-0.906-2.024-2.022C5885.881,2931.694,5886.788,2930.789,5887.905,2930.789z
		 M5949.321,3012.939c0,2.111-1.729,3.839-3.84,3.839h-115.156c-2.11,0-3.838-1.728-3.838-3.839v-70.841
		c0-2.11,1.728-3.839,3.838-3.839h115.156c2.111,0,3.84,1.729,3.84,3.839V3012.939z"/>
</g>
<text transform="matrix(-1 0 0 -1 5585.7188 3235.7773)" font-family="'OpenSans'" font-size="37.44">Creation</text>
<text transform="matrix(1 0 0 1 6374.3828 3026.8545)" font-family="'OpenSans'" font-size="37.44">Consumption</text>
<text transform="matrix(0 -1 1 0 5745.9033 2938.6562)" font-family="'OpenSans'" font-size="37.44">Commerce</text>
<text transform="matrix(0 1 -1 0 6136.3008 3458.124)" font-family="'OpenSans'" font-size="37.44">Community</text>
</svg>
